<?xml version="1.0" encoding="UTF-8" standalone="no"?>
<svg
   xmlns:dc="http://purl.org/dc/elements/1.1/"
   xmlns:cc="http://creativecommons.org/ns#"
   xmlns:rdf="http://www.w3.org/1999/02/22-rdf-syntax-ns#"
   xmlns:svg="http://www.w3.org/2000/svg"
   xmlns="http://www.w3.org/2000/svg"
   xmlns:sodipodi="http://sodipodi.sourceforge.net/DTD/sodipodi-0.dtd"
   xmlns:inkscape="http://www.inkscape.org/namespaces/inkscape"
   version="1.0"
   width="502.000000pt"
   height="275.000000pt"
   viewBox="0 0 502.000000 275.000000"
   preserveAspectRatio="xMidYMid meet"
   id="svg2"
   inkscape:version="0.91 r13725"
   sodipodi:docname="both_irrational.svg">
  <defs
     id="defs190" />
  <sodipodi:namedview
     pagecolor="#ffffff"
     bordercolor="#666666"
     borderopacity="1"
     objecttolerance="10"
     gridtolerance="10"
     guidetolerance="10"
     inkscape:pageopacity="0"
     inkscape:pageshadow="2"
     inkscape:window-width="1861"
     inkscape:window-height="1056"
     id="namedview188"
     showgrid="false"
     inkscape:zoom="0.89893681"
     inkscape:cx="367.84578"
     inkscape:cy="274.70318"
     inkscape:window-x="59"
     inkscape:window-y="24"
     inkscape:window-maximized="1"
     inkscape:current-layer="svg2" />
  <metadata
     id="metadata4">
Created by potrace 1.13, written by Peter Selinger 2001-2015
<rdf:RDF>
  <cc:Work
     rdf:about="">
    <dc:format>image/svg+xml</dc:format>
    <dc:type
       rdf:resource="http://purl.org/dc/dcmitype/StillImage" />
  </cc:Work>
</rdf:RDF>
</metadata>
  <g
     transform="translate(0.000000,275.000000) scale(0.100000,-0.100000)"
     fill="#000000"
     stroke="none"
     id="g6">
    <path
       d="M31 2716 c-8 -10 -10 -371 -9 -1352 l3 -1339 2484 -3 c1828 -1 2487 1 2497 9 12 10 14 235 14 1345 0 1308 0 1333 -19 1344 -14 7 -806 10 -2489 10 -2067 0 -2471 -2 -2481 -14z m4949 -1341 l0 -1315 -2460 0 -2460 0 0 1315 0 1315 2460 0 2460 0 0 -1315z"
       id="path8" />
    <path
       d="M1269 2508 c0 -2 -2 -33 -4 -71 l-4 -67 39 20 c83 42 80 120 -4 120 -14 0 -26 -1 -27 -2z m55 -28 c33 -12 33 -25 0 -55 -40 -37 -56 -33 -48 13 10 57 10 57 48 42z"
       id="path10" />
    <path
       d="M1572 2489 c-7 -11 -11 -23 -9 -25 7 -7 29 24 25 36 -2 6 -9 1 -16 -11z"
       id="path12" />
    <path
       d="M1393 2475 c-38 -27 -37 -105 2 -105 42 0 77 100 39 114 -20 8 -16 8 -41 -9z m45 -33 c4 -28 -14 -52 -40 -52 -27 0 -33 26 -13 56 20 30 49 28 53 -4z"
       id="path14" />
    <path
       d="M1465 2448 c-4 -25 -5 -54 -2 -64 3 -11 5 -1 6 21 l2 40 28 -35 c16 -19 31 -33 34 -30 2 3 7 30 10 60 l5 55 -12 -49 -11 -48 -27 48 -26 48 -7 -46z"
       id="path16" />
    <path
       d="m 1628,2483 c -10,-2 -18,-9 -18,-15 0,-5 7,-7 15,-4 13,5 15,-3 11,-47 0,0 -4.321,-33.5361 -5.7231,-49.7846 -0.078,-0.9033 0.8306,-1.9465 1.7234,-2.1043 0.8899,-0.1572 2.1495,0.4968 2.3326,1.3818 C 1637.853,2383.5077 1641,2418 1641,2418 c 8,41 15,52 30,52 10,0 19,5 19,10 0,10 -30,12 -62,3 z"
       id="path18"
       inkscape:connector-curvature="0"
       sodipodi:nodetypes="csccssscssc" />
    <path
       d="M1750 2479 c0 -8 7 -22 15 -33 11 -14 12 -24 4 -38 -6 -11 -9 -21 -7 -23 2 -2 16 19 31 48 16 29 21 43 12 32 -16 -20 -16 -20 -36 4 -11 13 -19 17 -19 10z"
       id="path20" />
    <path
       d="m 1842,2470 c -12,-11 -22.6996,-39.8929 -21.6996,-49.8929 0,-13 7.5473,-43.8311 11,5 C 1842,2470 1870,2474 1888,2456 c 13,-13 13,-18 -2,-40 -18,-28 -36.749,-40.3456 -54.3498,-8.0536 -6.0913,11.1757 -13.0494,9.0494 -11.6502,-2.251 2.5804,-20.8409 27,-38.6954 49,-25.6954 26,14 47,68 34,89 -15,24 -36,24 -61,1 z"
       id="path22"
       inkscape:connector-curvature="0"
       sodipodi:nodetypes="cccscssccc" />
    <path
       d="M1925 2439 c-8 -59 -4 -66 29 -51 21 9 25 8 29 -6 3 -9 5 1 5 23 0 22 -2 33 -5 25 -7 -18 -23 -30 -40 -30 -9 0 -11 13 -6 45 3 25 3 45 0 45 -3 0 -8 -23 -12 -51z"
       id="path24" />
    <path
       d="M2088 2483 c-10 -2 -18 -9 -18 -15 0 -5 7 -7 16 -4 15 6 16 0 11 -46 -4 -36 -3 -48 3 -38 5 8 10 32 10 53 0 30 4 37 20 37 11 0 20 5 20 10 0 10 -30 12 -62 3z"
       id="path26" />
    <path
       d="M2220 2465 c-4 -22 -11 -31 -27 -33 -18 -3 -23 2 -24 20 -1 13 -5 3 -10 -22 -9 -48 -5 -80 6 -43 4 11 15 23 26 26 15 4 19 0 20 -21 1 -25 2 -25 10 7 6 18 9 47 7 65 l-4 31 -4 -30z"
       id="path28" />
    <path
       d="M2256 2459 c-9 -45 -7 -91 2 -85 9 5 17 116 9 116 -3 0 -7 -14 -11 -31z"
       id="path30" />
    <path
       d="M2290 2461 c0 -16 -2 -44 -5 -62 -5 -32 -4 -32 8 6 12 35 14 37 20 19 4 -12 16 -29 27 -39 18 -16 19 -15 25 28 4 25 5 52 2 59 -3 7 -6 -4 -6 -24 -1 -49 -15 -48 -41 2 -24 48 -30 50 -30 11z"
       id="path32" />
    <path
       d="M2623 2475 c-39 -27 -37 -105 2 -105 44 0 78 99 39 114 -20 8 -16 8 -41 -9z m45 -36 c4 -31 -20 -53 -48 -44 -24 8 -25 23 -4 53 20 29 48 25 52 -9z"
       id="path34" />
    <path
       d="M2872 2470 c-30 -28 -28 -32 8 -12 16 9 30 20 30 25 0 13 -16 7 -38 -13z"
       id="path36" />
    <path
       d="M2936 2459 c-3 -17 -6 -43 -6 -56 0 -22 3 -24 27 -19 17 5 29 3 34 -6 6 -9 9 -5 9 13 0 15 2 42 5 60 l5 34 -11 -30 c-27 -71 -59 -77 -51 -10 5 51 -2 61 -12 14z"
       id="path38" />
    <path
       d="M3109 2472 c-28 -24 -20 -52 16 -52 14 0 25 -5 25 -10 0 -17 -31 -24 -51 -11 -22 13 -26 -1 -4 -19 18 -15 52 -4 60 20 9 27 -2 40 -33 40 -25 0 -25 1 -9 18 16 15 19 15 27 2 8 -12 10 -11 10 8 0 27 -11 28 -41 4z"
       id="path40" />
    <path
       d="M3253 2465 c-24 -21 -26 -26 -13 -35 8 -5 23 -10 33 -10 11 0 17 -6 14 -12 -2 -7 -16 -13 -30 -13 -32 1 -35 -11 -7 -20 27 -9 50 11 50 41 0 19 -5 24 -26 24 -23 0 -25 2 -14 15 7 9 19 14 27 11 7 -3 13 1 13 9 0 22 -15 18 -47 -10z"
       id="path42" />
    <path
       d="m 3516,2474 c -3,-9 -6,-34 -6,-56 0,-38 1,-40 27,-34 16,5 29,3 34,-5 4,-6 9,13 10,44 2,30 1,69 -3,66 -5,-2 -8.3097,-14.0037 -8,-27 1.3544,-56.8272 -17,-62 -38,-62 -12,0 -13,10 -9,45 7,46 4,57 -7,29 z"
       id="path46"
       inkscape:connector-curvature="0"
       sodipodi:nodetypes="csccccsscc" />
    <path
       d="m 3600,2453 c -6,-80 -7,-78 20,-75 14,2 30,8 35,14 7,7 2,9 -17,6 -49.024,-36.8272 -26.3228,38.3077 -26.9369,87.3077 L 3604,2495 Z"
       id="path48"
       inkscape:connector-curvature="0"
       sodipodi:nodetypes="ccccccc" />
    <path
       d="M3677 2483 c-4 -3 -7 -31 -7 -61 0 -54 0 -54 22 -40 12 8 31 26 41 40 15 21 17 30 8 47 -11 20 -50 29 -64 14z m51 -39 c2 -14 -6 -27 -22 -38 l-26 -16 0 40 c0 37 2 41 23 38 13 -2 23 -11 25 -24z"
       id="path50" />
    <path
       d="M3832 2463 l-27 -28 38 -9 c20 -5 37 -13 37 -18 0 -15 -32 -21 -51 -9 -22 13 -26 -1 -4 -19 18 -15 52 -4 60 20 9 27 -2 40 -32 40 -22 0 -24 2 -13 15 7 9 19 14 27 11 7 -3 13 1 13 9 0 23 -18 18 -48 -12z"
       id="path52" />
    <path
       d="m 3918,2483 c -10,-2 -18,-9 -18,-14 0,-6 8,-8 19,-4 17,5 15.2913,-15.6772 12.2913,-58.6772 -1,-26 15,-37 18,-23 11,61 1.7087,86.6772 15.7087,86.6772 8,0 15,5 15,10 0,10 -30,12 -62,3 z"
       id="path54"
       inkscape:connector-curvature="0"
       sodipodi:nodetypes="cscccssc" />
    <path
       d="m 4108,2483 c -14,-4 -18,-15 -17,-56 0,-29 3,-61 6,-53 1.5,4 1.6968,39.9036 8.181,47.5167 6.4842,7.6132 13.3669,1.8454 34.1277,12.9565 C 4184.4961,2456.0761 4171,2500 4108,2483 Z m 42,-23 c 0,-11 -40,-34 -47,-26 -3,3 -3,12 0,21 7,16 47,21 47,5 z"
       id="path58"
       inkscape:connector-curvature="0"
       sodipodi:nodetypes="ccssccsccs" />
    <path
       d="m 1981.2058,2422.7246 c 0,-11 4.0494,-23.7942 7.0494,-15.7942 3,7 10.7448,67.0696 7.7448,70.0696 -3,4 -15.7942,-43.2754 -14.7942,-54.2754 z"
       id="path60"
       inkscape:connector-curvature="0"
       sodipodi:nodetypes="cccc" />
    <path
       d="M2391 2450 c-1 -19 -4 -46 -6 -60 l-6 -25 11 24 10 24 25 -23 c30 -28 33 -15 4 16 l-21 22 26 17 c14 10 26 22 26 27 0 5 -10 2 -22 -6 -29 -20 -35 -20 -41 2 -3 9 -5 1 -6 -18z"
       id="path62" />
    <path
       d="M2536 2465 c4 -11 7 -35 7 -54 l-2 -33 25 45 c27 51 32 71 10 41 -15 -19 -15 -19 -31 1 l-17 20 8 -20z"
       id="path64" />
    <path
       d="M2702 2455 c-1 -16 -5 -41 -9 -54 -6 -23 -4 -24 25 -18 20 4 32 2 32 -4 0 -6 5 -7 10 -4 6 3 9 30 9 58 -1 34 -4 42 -6 22 -10 -67 -50 -76 -56 -12 -2 30 -4 33 -5 12z"
       id="path66" />
    <path
       d="M3026 2465 c4 -11 7 -35 7 -54 l-2 -33 25 45 c27 51 32 71 10 41 -15 -19 -15 -19 -31 1 l-17 20 8 -20z"
       id="path68" />
    <path
       d="m 3326,2480 c -3,-9 -5,-50 -5,-73 1,-23 4,-32 6,-19 2,12 8,22 13,22 5,0 15,3 23,6 11,4 17,-18 20,-34 2,-13 4,18 5,48 0,37 1.3859,76.9685 -3.6141,59.9685 -4,-16 -18.3859,-55.9685 -33.3859,-57.9685 -21,-3 -23,15 -17,38 7,29 2,35 -8,10 z"
       id="path70"
       inkscape:connector-curvature="0"
       sodipodi:nodetypes="cccsccccccc" />
    <path
       d="M2883 2433 c-22 -8 -14 -25 8 -18 15 5 20 3 17 -6 -8 -25 -47 -23 -57 3 -9 22 -10 22 -10 2 -1 -12 6 -27 14 -34 12 -10 20 -9 41 4 36 24 25 65 -13 49z"
       id="path72" />
    <path
       d="M1888 2309 c-25 -14 -23 -33 1 -19 34 18 47 10 19 -11 -31 -23 -37 -49 -10 -48 12 0 13 2 3 6 -10 4 -5 14 20 34 28 24 31 30 19 39 -19 12 -30 12 -52 -1z"
       id="path74" />
    <path
       d="M2362 2299 c-7 -11 -11 -23 -9 -25 7 -7 29 24 25 36 -2 6 -9 1 -16 -11z"
       id="path76" />
    <path
       d="M3527 2307 c-4 -10 -6 -44 -6 -75 l1 -57 9 60 c10 67 8 102 -4 72z"
       id="path78" />
    <path
       d="M3571 2311 c-9 -6 -15 -31 -17 -73 -1 -37 0 -52 4 -35 l7 27 38 -25 c40 -28 52 -17 13 12 l-24 18 31 26 c21 17 28 31 24 42 -7 18 -52 23 -76 8z m59 -25 c0 -8 -13 -19 -30 -25 -26 -9 -30 -8 -30 9 0 17 14 26 48 29 6 0 12 -5 12 -13z"
       id="path80" />
    <path
       d="M3678 2313 c-12 -3 -17 -18 -20 -65 -1 -33 0 -62 5 -65 4 -2 7 8 7 22 l0 26 29 -20 c38 -27 64 -27 28 1 l-28 21 32 27 c52 43 22 73 -53 53z m60 -25 c-3 -7 -18 -18 -35 -25 -29 -11 -31 -11 -26 7 5 18 20 26 51 29 8 0 12 -4 10 -11z"
       id="path82" />
    <path
       d="M3790 2268 c-16 -29 -30 -61 -30 -70 0 -16 2 -16 20 2 25 25 48 26 67 3 13 -16 14 -15 8 12 -11 55 -26 105 -30 105 -3 0 -18 -24 -35 -52z m40 -8 c0 -11 -7 -20 -15 -20 -17 0 -18 2 -9 24 9 23 24 20 24 -4z"
       id="path84" />
    <path
       d="M3893 2313 c-29 -5 -30 -23 -2 -23 19 0 20 -4 15 -57 l-5 -58 11 58 c9 47 15 58 35 63 12 4 23 10 23 15 0 9 -36 10 -77 2z"
       id="path86" />
    <path
       d="M3987 2313 c-10 -17 -19 -138 -9 -128 5 6 12 38 15 73 5 59 4 71 -6 55z"
       id="path88" />
    <path
       d="M4035 2295 c-29 -28 -34 -85 -10 -105 23 -19 63 3 81 45 18 43 18 50 -2 69 -22 22 -41 20 -69 -9z m49 -1 c23 -9 20 -60 -5 -77 -49 -35 -80 15 -37 60 24 26 21 25 42 17z"
       id="path90" />
    <path
       d="M4136 2289 c-3 -17 -6 -50 -5 -73 l1 -41 10 45 c9 40 12 43 22 26 6 -10 21 -31 33 -45 l21 -26 6 25 c10 51 14 123 5 109 -5 -8 -9 -31 -9 -51 0 -21 -4 -38 -8 -38 -5 0 -21 23 -36 50 -15 28 -29 50 -30 50 -2 0 -6 -14 -10 -31z"
       id="path92" />
    <path
       d="M4271 2268 c-17 -29 -31 -61 -31 -70 0 -16 2 -16 20 2 26 26 54 25 68 -2 6 -14 11 -17 11 -8 1 18 -26 120 -33 127 -2 3 -18 -19 -35 -49z m39 -8 c0 -11 -7 -20 -15 -20 -17 0 -18 2 -9 24 9 23 24 20 24 -4z"
       id="path94" />
    <path
       d="M2076 2298 c4 -7 13 -20 21 -30 13 -14 12 -20 -2 -47 -26 -52 -2 -34 33 23 35 60 42 85 12 46 l-19 -25 -16 23 c-17 23 -42 31 -29 10z"
       id="path96" />
    <path
       d="M4356 2253 c-4 -31 -3 -60 1 -63 11 -9 73 8 73 20 0 5 -14 7 -31 3 l-31 -6 3 52 c5 69 -7 65 -15 -6z"
       id="path98" />
    <path
       d="M1288 2293 c-18 -4 -35 -79 -25 -105 3 -7 6 -1 6 15 1 22 6 27 25 27 14 0 28 5 31 10 4 6 -5 10 -19 10 -16 0 -26 6 -26 15 0 9 9 15 25 15 14 0 25 5 25 10 0 10 -12 11 -42 3z"
       id="path100" />
    <path
       d="M1357 2286 c-4 -10 -6 -39 -6 -64 l1 -47 9 54 c10 58 7 87 -4 57z"
       id="path102" />
    <path
       d="m 1412,2280 c -15,-14 -22.5751,-27.7506 -21.3251,-29.7506 1.25,-2 11.3251,-4.9008 29.3251,17.7506 16,9 30,20 30,25 0,13 -16,7 -38,-13 z"
       id="path104"
       inkscape:connector-curvature="0"
       sodipodi:nodetypes="cscsc" />
    <path
       d="M1528 2273 c-2 -21 -9 -29 -27 -31 -21 -3 -23 -1 -17 25 5 21 4 24 -4 13 -5 -8 -9 -35 -8 -60 0 -25 3 -35 5 -22 2 12 8 22 13 22 5 0 15 3 23 6 11 4 17 -2 20 -18 2 -13 5 3 6 35 1 59 -5 77 -11 30z"
       id="path106" />
    <path
       d="M1578 2293 c-10 -2 -18 -8 -18 -13 0 -5 7 -7 17 -3 14 6 15 0 10 -48 -3 -33 -2 -46 3 -34 5 11 9 35 9 53 1 25 5 32 21 32 11 0 20 5 20 10 0 10 -30 12 -62 3z"
       id="path108" />
    <path
       d="M1656 2269 c-9 -45 -7 -91 2 -85 9 5 17 116 9 116 -3 0 -7 -14 -11 -31z"
       id="path110" />
    <path
       d="M1690 2271 c0 -16 -2 -44 -5 -62 -4 -33 -4 -32 6 4 l11 38 26 -38 c26 -38 26 -38 33 -13 4 14 7 41 7 60 -1 33 -1 33 -5 5 -7 -48 -20 -50 -42 -6 -25 49 -31 51 -31 12z"
       id="path112" />
    <path
       d="M1812 2280 c-30 -28 -28 -32 8 -12 16 9 30 20 30 25 0 13 -16 7 -38 -13z"
       id="path114" />
    <path
       d="M2193 2285 c-39 -27 -37 -105 2 -105 44 0 78 99 39 114 -20 8 -16 8 -41 -9z m45 -33 c4 -28 -14 -52 -40 -52 -27 0 -33 26 -13 56 20 30 49 28 53 -4z"
       id="path116" />
    <path
       d="m 2414,2292 c -13,-8 -23,-102 -12,-102 5,0 8,7 8,16 0,13 5,12 30,-6 17,-12 30,-17 30,-11 0,5 -10,17 -21,25 l -21,14 21,14 c 31,19 21.3958,28.6931 -6,13 -30,-16 -38,-13 -30,8 1,2.75 2.8695,13.5515 5.5709,15.9546 11.0743,9.8517 57.0149,23.2649 36.2966,-18.4131 -4.3618,-8.7746 6.2989,-9.8754 12.7778,-4.2076 10.7423,9.3976 4.3547,21.1242 16.3547,21.1242 62,-1 87,5.5419 74,18.5419 -4,3 -22,1 -42,-4 -22,-6 -38,-7 -42,-1 -6,11 -44,12 -60,1 z"
       id="path118"
       inkscape:connector-curvature="0"
       sodipodi:nodetypes="csscscccccsssccccc" />
    <path
       d="m 2637,2293 c -4,-3 -7,-22 -7,-42 0,-21 4,-31 8,-24 9,15 49.1409,11.4789 48.6761,-10.0282 -2,-6 -22.5634,-18.507 -37.6761,-16.9718 -9.6373,3.5352 -12.3626,20.3521 -7.6092,33.8982 1.7002,4.8451 -8.9295,9.2443 -10.6795,8.1193 -3.5,-2.25 -3.9719,-52.3696 0.5281,-55.3696 22.9155,-6.493 71.3521,8.4648 71.3521,30.4648 0,11 -7.5915,22.8873 -12.5915,22.8873 -7,0 -7,6 -1,18 22.4789,27.7042 -19.2817,48.9578 -52,35 z m 41,-25 c -7,-19 -38,-22 -38,-4 0,10 9,16 21,16 12,0 19,-5 17,-12 z"
       id="path120"
       inkscape:connector-curvature="0"
       sodipodi:nodetypes="cscccsscsscccssc" />
    <path
       d="M2734 2275 c-29 -29 -30 -72 -1 -89 37 -23 87 70 55 102 -17 17 -26 15 -54 -13z m54 -21 c6 -44 -58 -73 -66 -31 -5 23 27 59 47 55 9 -2 17 -13 19 -24z"
       id="path122" />
    <path
       d="M2832 2293 c-12 -2 -20 -8 -17 -13 3 -5 12 -7 19 -4 8 3 16 -2 19 -13 4 -16 5 -16 6 0 1 10 9 17 21 17 11 0 20 5 20 10 0 10 -25 11 -68 3z"
       id="path124" />
    <path
       d="M3063 2294 c-8 -4 -13 -26 -13 -61 0 -55 0 -55 28 -48 36 9 57 29 46 47 -5 7 -9 24 -9 38 0 25 -24 36 -52 24z m47 -23 c0 -9 -24 -21 -41 -21 -5 0 -9 7 -9 15 0 9 9 15 25 15 14 0 25 -4 25 -9z m-1 -47 c8 -7 -12 -24 -30 -24 -13 0 -19 7 -19 21 0 16 4 19 23 13 12 -3 24 -8 26 -10z"
       id="path126" />
    <path
       d="M3170 2291 c-22 -6 -25 -12 -25 -56 0 -47 1 -50 25 -47 13 1 29 7 34 12 7 7 -1 8 -22 4 -26 -5 -32 -3 -32 10 0 10 11 19 30 22 16 4 27 10 24 15 -3 5 -17 6 -31 3 -19 -5 -24 -3 -21 7 2 8 17 15 31 17 15 2 27 8 27 13 0 10 -4 10 -40 0z"
       id="path128" />
    <path
       d="M3237 2286 c-4 -10 -6 -39 -6 -64 l1 -47 9 54 c10 58 7 87 -4 57z"
       id="path130" />
    <path
       d="M3265 2258 c-4 -25 -5 -54 -2 -64 3 -11 5 -1 6 21 l2 40 28 -35 c16 -19 31 -33 34 -30 2 3 7 30 10 60 l5 55 -12 -49 -11 -48 -27 48 -26 48 -7 -46z"
       id="path132" />
    <path
       d="M3385 2276 c-14 -14 -25 -31 -25 -38 0 -7 7 -2 16 10 9 13 25 27 37 31 13 5 17 10 9 15 -7 4 -23 -4 -37 -18z"
       id="path134" />
    <path
       d="m 2272,2297 c -1,-16 -8.1497,-71.4251 -7.6501,-85.3251 4.1242,-20.9751 6.7991,-19.7253 27.6998,-22.7246 17.3673,1.0537 14.8767,0.064 29.5252,2.7495 6.4281,1.1786 7.9247,0.4244 12.9247,3.4244 6,3 6.0753,51.6508 6.0753,79.6508 1.2498,20.5011 -3.775,32.5508 -7.7999,21.3251 -1.2393,-33.4546 -1.11,-63.1552 -6.1276,-76.8938 -5.0175,-13.7386 -13.8319,-19.6144 -25.759,-18.9184 -11.8077,0.6891 -20.5743,8.4321 -23.2763,24.1827 -2.7019,15.7506 -0.689,47.6082 2.7626,73.1284 -1.1,4.1271 -7.3747,8.4769 -8.3747,-0.599 z"
       id="path136"
       inkscape:connector-curvature="0"
       sodipodi:nodetypes="cccscccssscc" />
    <path
       d="m 2906,2274 c -3,-9 -5,-34 -5,-57 1,-23 4,-32 6,-19 2,12 8,22 13,22 5,0 15,3 23,6 11,4 17,-18 20,-34 2,-13 4,18 5,48 0,37 -2,63 -7,46 -4,-16 7,-46 -30,-44 -21,-3 -23,-1 -17,22 7,29 2,35 -8,10 z"
       id="path138"
       inkscape:connector-curvature="0"
       sodipodi:nodetypes="cccsccccccc" />
    <path
       d="m 2480,2223 c 0,-17 3,-34 8,-36 11,-8 62,4 62,14 0,5 -13,6 -30,3 -24,-5 -30,-3 -30,10 0,10 11,19 30,23 41,8 39.5347,15.0889 -5,19 -13.9089,1.2888 -18.0354,21.9509 -24.4938,21.9686 -4.8472,0.013 -13.7829,2.0821 -12.6798,-2.2705 2.6332,-10.3901 3.9236,-30.6043 3.1424,-35.0262 C 2480.1875,2236.25 2480,2230.5 2480,2223 Z"
       id="path140"
       inkscape:connector-curvature="0"
       sodipodi:nodetypes="scscsccssss" />
    <path
       d="m 1423,2243 c -22,-8 -14,-25 8,-18 15,5 20,3 17,-6 -8,-25 -61.3765,-38.5267 -59.3002,15.0763 33.702,34.1574 8.4019,50.7531 -10,2 -1,-12 8.3002,-39.0763 16.3002,-46.0763 12,-10 20,-9 41,4 36,24 25,65 -13,49 z"
       id="path142"
       inkscape:connector-curvature="0"
       sodipodi:nodetypes="cccccccc" />
    <path
       d="M1823 2243 c-22 -8 -14 -25 8 -18 15 5 20 3 17 -6 -8 -25 -47 -23 -57 3 -9 22 -10 22 -10 2 -1 -12 6 -27 14 -34 12 -10 20 -9 41 4 36 24 25 65 -13 49z"
       id="path144" />
    <path
       d="M3403 2243 c-23 -9 -14 -25 10 -18 21 7 21 6 4 -11 -14 -16 -21 -17 -37 -6 -16 10 -20 10 -20 -2 0 -33 60 -25 74 10 10 27 -3 39 -31 27z"
       id="path146" />
    <path
       d="m 2849.7746,2209.6761 c -0.2938,-18.9978 0.7043,-22.7888 5.6479,-17 7.831,13.5352 11.3944,74.5632 0,86.1829 -7.2112,-0.7182 -5.3239,-48.2393 -5.6479,-69.1829 z"
       id="path148"
       inkscape:connector-curvature="0"
       sodipodi:nodetypes="sccs" />
    <path
       d="M1880 2200 c0 -5 5 -10 10 -10 6 0 10 5 10 10 0 6 -4 10 -10 10 -5 0 -10 -4 -10 -10z"
       id="path150" />
    <path
       d="M4440 2190 c0 -5 5 -10 10 -10 6 0 10 5 10 10 0 6 -4 10 -10 10 -5 0 -10 -4 -10 -10z"
       id="path152" />
    <path
       d="M820 2018 c-40 -11 -75 -38 -49 -38 8 0 20 5 25 10 6 6 43 14 82 17 40 3 72 10 72 14 0 12 -86 10 -130 -3z"
       id="path154" />
    <path
       d="M580 2009 c-36 -15 -80 -60 -80 -82 0 -17 3 -16 21 7 12 15 49 40 83 56 53 25 57 28 31 29 -16 0 -41 -5 -55 -10z"
       id="path156" />
    <path
       d="M850 1988 c-13 -7 -37 -32 -53 -55 l-28 -42 -43 44 c-36 38 -49 45 -80 45 -21 0 -50 -7 -65 -16 -25 -15 -71 -74 -71 -92 0 -4 -17 -14 -37 -22 -59 -21 -155 -124 -183 -195 -56 -147 -8 -330 109 -413 l37 -27 -44 -55 c-65 -80 -85 -130 -90 -231 -4 -71 0 -99 18 -155 20 -60 33 -79 96 -142 l74 -72 0 -101 c0 -92 -2 -101 -20 -106 -13 -3 -20 -14 -20 -28 0 -21 6 -23 71 -27 39 -3 100 -3 136 0 58 4 64 7 61 26 -3 20 -10 21 -105 24 l-103 3 0 103 0 104 50 -19 c56 -21 181 -26 239 -9 19 5 37 8 39 6 14 -14 41 -177 36 -215 l-7 -43 39 6 c86 15 172 18 192 7 16 -8 25 -7 42 7 19 15 20 20 8 30 -17 14 -189 35 -221 27 -22 -6 -24 -1 -45 92 l-21 98 27 20 c125 92 183 189 190 318 3 66 0 95 -18 147 -27 79 -76 149 -136 192 -24 17 -43 34 -42 37 2 3 20 31 40 61 35 52 68 147 68 196 0 12 15 50 33 84 29 57 32 71 32 149 -1 97 -25 169 -75 216 -33 31 -93 42 -130 23z m122 -37 l32 -28 -80 -7 c-43 -4 -89 -10 -101 -13 -32 -7 -29 12 6 48 41 40 98 41 143 0z m-260 -22 c17 -17 27 -34 22 -38 -5 -5 -31 -14 -59 -20 -27 -7 -74 -26 -104 -42 -30 -16 -57 -27 -59 -24 -10 10 24 91 51 122 25 28 36 33 74 33 36 0 50 -6 75 -31z m308 -56 c7 -16 15 -60 18 -99 6 -92 -16 -170 -62 -218 -28 -30 -40 -36 -75 -36 -49 0 -82 27 -111 91 -14 33 -16 48 -8 72 6 17 8 62 5 107 -5 56 -3 81 6 88 14 12 61 18 153 20 57 2 62 0 74 -25z m-262 -28 c17 -37 15 -143 -4 -198 -19 -57 -73 -107 -114 -107 -67 0 -134 103 -128 197 3 47 4 48 58 76 49 25 134 53 166 56 6 1 16 -10 22 -24z m-263 -99 c0 -58 -5 -99 -12 -108 -7 -8 -20 -32 -29 -53 -44 -106 41 -225 160 -225 58 0 97 19 133 67 24 31 28 46 28 97 0 34 -4 70 -9 81 -5 11 5 -1 22 -26 16 -26 40 -54 53 -63 27 -19 81 -21 111 -5 20 11 21 10 14 -41 -8 -62 -35 -118 -84 -179 -21 -25 -31 -46 -25 -48 6 -2 32 -18 57 -35 139 -92 191 -306 114 -468 -34 -70 -122 -153 -193 -180 -91 -35 -220 -35 -297 2 -197 92 -281 319 -187 507 16 32 47 79 68 103 l39 44 -46 35 c-87 64 -141 191 -129 306 6 62 42 144 83 192 25 30 108 91 123 91 4 0 6 -42 6 -94z m48 -167 c44 -57 118 -65 172 -18 20 18 38 29 41 26 14 -14 5 -108 -12 -138 -28 -47 -98 -82 -149 -74 -51 8 -103 48 -122 94 -19 44 -12 114 13 142 18 20 19 20 32 2 7 -10 19 -25 25 -34z"
       id="path158" />
    <path
       d="M935 1750 c-4 -7 -3 -16 3 -22 14 -14 45 -2 40 15 -6 16 -34 21 -43 7z"
       id="path160" />
    <path
       d="M690 1750 c0 -13 7 -20 20 -20 13 0 20 7 20 20 0 13 -7 20 -20 20 -13 0 -20 -7 -20 -20z"
       id="path162" />
    <path
       d="M780 1357 c-47 -16 -53 -50 -11 -65 33 -12 43 -5 56 38 4 14 13 28 19 32 17 12 -25 8 -64 -5z"
       id="path164" />
    <path
       d="M606 1115 c-81 -29 -142 -127 -134 -216 13 -132 152 -229 273 -189 82 27 154 123 155 205 0 47 -37 130 -71 162 -55 51 -145 66 -223 38z m175 -25 c58 -30 99 -99 99 -166 0 -66 -13 -100 -53 -143 -42 -44 -84 -61 -150 -61 -108 0 -187 85 -187 201 0 69 40 138 97 168 52 28 141 28 194 1z"
       id="path166" />
    <path
       d="M1490 1936 c0 -267 -86 -430 -259 -492 -83 -29 -78 -27 -60 -31 24 -6 121 33 168 67 73 53 129 153 151 271 16 86 24 249 11 249 -7 0 -11 -23 -11 -64z"
       id="path168" />
    <path
       d="M4390 1763 c-19 -10 -44 -32 -55 -49 l-21 -31 -38 34 c-36 33 -42 35 -92 31 -39 -3 -61 -11 -80 -29 -32 -29 -54 -71 -54 -99 0 -20 -4 -21 -62 -16 -35 3 -139 7 -233 8 l-170 3 -8 -175 c-4 -96 -6 -325 -3 -509 2 -183 1 -330 -3 -325 -5 5 -34 52 -66 104 -32 52 -59 96 -60 98 -5 6 -155 -71 -155 -80 0 -15 81 -171 113 -218 17 -24 55 -68 85 -97 47 -45 60 -52 100 -55 l46 -3 11 -63 c7 -34 8 -62 3 -62 -4 0 -8 -13 -8 -30 0 -27 3 -30 33 -30 17 1 50 7 72 15 29 11 62 13 123 9 l82 -7 0 25 c0 32 -25 38 -166 38 -56 0 -105 3 -107 7 -3 5 -8 29 -12 55 l-7 48 35 0 c34 0 35 1 42 47 4 27 16 69 27 95 19 44 20 70 22 477 0 236 4 432 7 436 4 3 85 1 180 -6 169 -11 598 -7 752 7 l67 7 0 99 0 100 -99 -7 -98 -7 -6 47 c-10 96 -112 152 -197 108z m137 -29 c19 -14 32 -28 30 -30 -6 -6 -220 -44 -224 -40 -3 2 3 18 11 35 33 64 123 81 183 35z m-271 -20 c14 -9 29 -25 35 -35 9 -18 4 -19 -102 -19 l-111 0 14 23 c31 47 115 63 164 31z m318 -50 c18 -46 9 -54 -58 -54 -34 0 -91 -3 -125 -6 -57 -6 -61 -6 -61 14 0 16 8 23 33 27 17 3 64 12 102 19 93 19 102 19 109 0z m-324 -39 c0 -8 7 -15 15 -15 8 0 15 7 15 15 0 8 7 15 15 15 8 0 15 -9 15 -19 0 -17 -10 -20 -87 -25 -49 -4 -103 -9 -120 -12 -31 -5 -33 -3 -33 26 l0 30 90 0 c73 0 90 -3 90 -15z m-263 -41 c57 -5 63 -8 82 -39 28 -47 91 -78 142 -70 43 7 94 44 104 74 5 17 8 16 34 -9 33 -34 99 -55 138 -45 15 3 47 26 69 50 41 42 43 43 128 50 l86 7 0 -80 0 -79 -52 -7 c-123 -14 -579 -18 -756 -7 -101 7 -187 9 -190 6 -4 -4 -8 -206 -8 -449 -1 -269 -6 -450 -12 -462 -10 -21 -27 -72 -36 -116 -6 -28 -7 -28 -90 -28 l-83 0 -55 58 c-54 57 -121 161 -157 245 l-19 45 59 26 c33 14 63 26 67 26 4 0 39 -54 77 -120 39 -65 74 -119 78 -120 5 0 5 127 1 283 -4 155 -3 394 1 530 l7 248 162 -6 c88 -3 189 -8 223 -11z m573 -4 c0 -20 -50 -58 -84 -64 -39 -7 -81 6 -114 37 l-24 22 39 6 c67 11 183 10 183 -1z m-260 -11 c0 -6 -13 -24 -29 -40 -25 -24 -38 -29 -79 -29 -40 0 -57 6 -82 26 -17 15 -28 29 -25 33 6 6 100 16 178 19 21 1 37 -3 37 -9z"
       id="path170" />
    <path
       d="M4520 1641 c0 -12 6 -21 16 -21 9 0 14 7 12 17 -5 25 -28 28 -28 4z"
       id="path172" />
    <path
       d="M2376 1565 c-61 -25 -105 -59 -93 -72 4 -3 20 3 35 15 47 38 95 55 167 60 94 5 109 22 20 22 -51 0 -86 -7 -129 -25z"
       id="path174" />
    <path
       d="M2045 1560 c11 -5 48 -9 83 -9 35 -1 73 -6 84 -12 14 -8 23 -8 31 0 18 18 -38 31 -131 30 -58 0 -80 -3 -67 -9z"
       id="path176" />
    <path
       d="M2363 1511 c-23 -11 -52 -35 -66 -56 l-25 -37 -23 31 c-24 33 -83 61 -130 61 -61 0 -147 -57 -149 -97 0 -8 -15 -13 -40 -13 l-40 0 0 -66 c0 -74 -21 -168 -51 -227 -11 -21 -18 -41 -15 -45 3 -3 51 0 107 7 55 7 103 10 106 7 3 -3 -11 -79 -32 -168 -51 -218 -63 -290 -71 -440 l-7 -128 51 0 c56 0 57 -2 46 -59 l-6 -31 -114 0 -114 0 0 -25 0 -25 140 0 140 0 0 24 c0 13 -6 26 -14 29 -9 4 -11 16 -7 43 6 36 9 38 61 52 30 7 56 15 58 17 2 2 -4 52 -14 112 -27 175 -11 310 58 485 l30 76 40 -14 c48 -17 102 -18 130 -3 11 6 22 9 24 7 2 -3 -7 -32 -20 -67 -49 -123 -61 -203 -60 -384 1 -106 6 -173 13 -180 6 -6 37 -11 68 -12 l58 -2 3 -39 2 -39 -77 -26 c-52 -17 -79 -31 -81 -42 -3 -14 6 -17 59 -17 34 0 79 5 100 12 33 9 39 15 39 40 0 15 -4 28 -10 28 -5 0 -10 20 -10 44 l0 45 56 12 c52 12 55 14 50 38 -25 113 -28 148 -23 301 6 163 17 259 39 333 9 30 16 37 37 37 43 0 85 -34 118 -96 20 -37 34 -53 37 -44 30 91 76 246 86 291 15 68 5 94 -45 115 -45 19 -185 18 -230 0 l-35 -15 -10 38 c-14 52 -46 90 -94 112 -52 24 -90 23 -143 0z m141 -16 c42 -20 86 -89 86 -136 l0 -36 -52 -7 c-29 -3 -97 -6 -150 -6 -89 0 -97 2 -103 21 -17 52 34 147 89 169 34 14 95 11 130 -5z m-303 -28 c40 -26 69 -79 69 -124 0 -35 -2 -36 -60 -34 -101 3 -173 14 -157 23 10 5 17 15 17 22 0 21 -32 29 -48 12 -13 -13 -13 -18 -2 -31 12 -15 11 -16 -16 -13 -27 3 -29 6 -27 40 6 106 134 165 224 105z m-241 -127 c0 -103 92 -175 197 -155 26 5 51 20 79 50 l42 43 28 -30 c41 -42 76 -58 129 -58 73 0 141 48 162 115 16 50 64 70 159 68 85 -1 139 -20 151 -50 7 -18 -7 -84 -48 -215 l-31 -99 -31 45 c-50 71 -134 99 -158 54 -40 -73 -71 -408 -52 -556 6 -48 14 -95 18 -104 9 -23 -56 -41 -150 -42 l-70 -1 -8 65 c-12 100 -1 294 22 382 11 43 34 109 51 147 35 80 35 81 15 81 -8 0 -15 -4 -15 -8 0 -4 -13 -15 -29 -25 -36 -21 -100 -22 -148 -2 -43 18 -41 21 -84 -90 -70 -183 -82 -333 -43 -541 5 -27 2 -32 -23 -42 -41 -15 -98 -22 -139 -15 l-37 6 6 126 c7 122 22 211 86 486 16 71 29 130 28 131 -1 1 -48 -6 -104 -14 -57 -9 -105 -13 -109 -10 -3 4 1 19 9 35 25 47 47 146 47 207 0 53 1 56 25 56 23 0 25 -4 25 -40z m289 -56 c7 -7 -42 -55 -71 -70 -35 -18 -82 -18 -117 1 -32 16 -84 73 -77 84 4 7 258 -7 265 -15z m321 9 c-1 -12 -22 -36 -54 -61 -21 -16 -42 -22 -82 -22 -48 0 -58 4 -96 38 l-41 37 74 6 c119 9 199 10 199 2z"
       id="path178" />
    <path
       d="M2310 1361 c0 -24 13 -33 34 -25 27 10 20 44 -9 44 -18 0 -25 -5 -25 -19z"
       id="path180" />
    <path
       d="M2160 1140 c-24 -15 -6 -21 29 -9 18 6 52 9 77 6 24 -2 44 -1 44 4 0 12 -131 11 -150 -1z"
       id="path182" />
    <path
       d="M4000 1319 c-46 -10 -90 -24 -96 -31 -10 -10 -3 -38 31 -128 23 -63 45 -115 48 -115 3 0 19 18 35 41 36 50 89 76 162 82 45 3 60 0 83 -18 25 -20 27 -27 27 -93 0 -97 -20 -137 -160 -322 -62 -83 -119 -164 -126 -182 -8 -18 -14 -58 -14 -88 l0 -56 43 6 c69 9 220 25 243 25 17 0 27 -15 49 -72 16 -40 28 -88 27 -105 l-3 -33 146 0 145 0 0 25 0 25 -128 0 -128 0 -16 43 c-9 23 -23 59 -33 81 l-16 38 165 -3 c91 -2 166 -3 166 -1 0 1 -11 24 -25 51 -25 51 -40 104 -50 184 l-6 47 -42 -24 c-47 -27 -127 -52 -202 -62 l-50 -6 57 58 c100 104 157 224 173 366 14 125 -46 224 -159 267 -74 27 -224 28 -346 0z m321 -11 c58 -20 109 -60 137 -107 23 -40 27 -57 26 -121 -2 -147 -58 -275 -171 -387 -40 -40 -73 -75 -73 -79 0 -11 140 7 204 26 34 11 70 26 81 34 11 9 23 16 26 16 3 0 9 -27 12 -59 4 -33 18 -85 32 -116 14 -32 25 -58 25 -59 0 0 -73 1 -162 2 -144 3 -381 -10 -430 -24 -15 -5 -18 2 -18 43 0 64 15 90 145 263 125 165 154 226 155 318 0 74 -10 96 -50 117 -68 35 -176 12 -236 -50 l-41 -42 -35 96 c-20 53 -35 97 -33 99 1 1 40 11 86 21 97 22 269 27 320 9z"
       id="path184" />
    <path
       d="M4271 1247 c-49 -25 -37 -37 31 -31 35 4 65 8 67 10 2 2 -2 10 -9 19 -15 18 -56 19 -89 2z"
       id="path186" />
    <path
       sodipodi:nodetypes="cscsc"
       inkscape:connector-curvature="0"
       id="path4358"
       d="m 1812.2428,2281.1501 c -15,-14 -22.5751,-27.7506 -21.3251,-29.7506 1.25,-2 11.3251,-4.9008 29.3251,17.7506 16,9 30,20 30,25 0,13 -16,7 -38,-13 z" />
    <path
       sodipodi:nodetypes="cccccccc"
       inkscape:connector-curvature="0"
       id="path4360"
       d="m 1823.2428,2244.1501 c -22,-8 -14,-25 8,-18 15,5 20,3 17,-6 -8,-25 -61.3765,-38.5267 -59.3002,15.0763 33.702,34.1574 8.4019,50.7531 -10,2 -1,-12 8.3002,-39.0763 16.3002,-46.0763 12,-10 20,-9 41,4 36,24 25,65 -13,49 z" />
    <path
       d="m 3389.8128,2279.6156 c -15,-14 -22.5751,-27.7506 -21.3251,-29.7506 1.25,-2 11.3251,-4.9008 29.3251,17.7506 16,9 30,20 30,25 0,13 -16,7 -38,-13 z"
       id="path4362"
       inkscape:connector-curvature="0"
       sodipodi:nodetypes="cscsc" />
    <path
       d="m 3400.8128,2242.6156 c -22,-8 -14,-25 8,-18 15,5 20,3 17,-6 -8,-25 -61.3765,-38.5267 -59.3002,15.0763 33.702,34.1574 8.4019,50.7531 -10,2 -1,-12 8.3002,-39.0763 16.3002,-46.0763 12,-10 20,-9 41,4 36,24 25,65 -13,49 z"
       id="path4364"
       inkscape:connector-curvature="0"
       sodipodi:nodetypes="cccccccc" />
    <path
       sodipodi:nodetypes="cscsc"
       inkscape:connector-curvature="0"
       id="path4366"
       d="m 2871.2267,2471.5699 c -15,-14 -22.5751,-27.7506 -21.3251,-29.7506 1.25,-2 11.3251,-4.9008 29.3251,17.7506 16,9 30,20 30,25 0,13 -16,7 -38,-13 z" />
    <path
       sodipodi:nodetypes="cccccccc"
       inkscape:connector-curvature="0"
       id="path4368"
       d="m 2882.2267,2434.5699 c -22,-8 -14,-25 8,-18 15,5 20,3 17,-6 -8,-25 -61.3765,-38.5267 -59.3002,15.0763 33.702,34.1574 8.4019,50.7531 -10,2 -1,-12 8.3002,-39.0763 16.3002,-46.0763 12,-10 20,-9 41,4 36,24 25,65 -13,49 z" />
    <path
       id="path4370"
       d="m 4015.9006,2480.2295 c -38,-27 -37,-105 2,-105 42,0 77,100 39,114 -20,8 -16,8 -41,-9 z m 45,-33 c 4,-28 -14,-52 -40,-52 -27,0 -33,26 -13,56 20,30 49,28 53,-4 z"
       inkscape:connector-curvature="0"
       sodipodi:nodetypes="cscccssc" />
    <path
       d="m 3435.2648,2478.4902 c -38,-27 -37,-105 2,-105 42,0 77,100 39,114 -20,8 -16,8 -41,-9 z m 45,-33 c 4,-28 -14,-52 -40,-52 -27,0 -33,26 -13,56 20,30 49,28 53,-4 z"
       id="path4372"
       inkscape:connector-curvature="0"
       sodipodi:nodetypes="cscccssc" />
  </g>
</svg>
