<?xml version="1.0" standalone="no"?>
<!DOCTYPE svg PUBLIC "-//W3C//DTD SVG 20010904//EN"
 "http://www.w3.org/TR/2001/REC-SVG-20010904/DTD/svg10.dtd">
<svg version="1.0" xmlns="http://www.w3.org/2000/svg"
 width="209.000000pt" height="339.000000pt" viewBox="0 0 209.000000 339.000000"
 preserveAspectRatio="xMidYMid meet">
<metadata>
Created by potrace 1.13, written by Peter Selinger 2001-2015
</metadata>
<g transform="translate(0.000000,339.000000) scale(0.100000,-0.100000)"
fill="#000000" stroke="none">
<path d="M969 3265 c-9 -15 2 -125 12 -125 5 0 9 17 9 37 0 29 3 34 12 25 9
-9 17 -7 35 10 l23 21 0 -51 c0 -32 4 -52 11 -52 13 0 8 114 -5 127 -4 5 -16
-2 -26 -15 -16 -20 -22 -21 -39 -10 -11 7 -22 19 -23 28 -2 8 -6 11 -9 5z"/>
<path d="M1704 3236 c-21 -44 -33 -46 -40 -6 -6 27 -24 43 -24 21 0 -24 48
-132 54 -122 4 6 4 16 1 22 -4 5 3 33 15 61 25 58 19 79 -6 24z"/>
<path d="M128 3195 c3 -59 6 -66 28 -71 15 -4 34 0 49 10 15 10 25 12 25 5 0
-6 19 -9 50 -8 27 2 53 0 56 -4 4 -4 22 -7 40 -7 26 0 33 5 38 26 6 21 11 25
39 22 24 -2 33 -8 35 -25 2 -13 8 -23 14 -23 12 0 3 41 -20 90 -27 56 -44 48
-84 -44 -16 -36 -31 -42 -52 -21 -23 23 1 80 33 79 12 0 20 4 18 10 -2 6 -15
11 -28 11 -20 0 -27 -8 -39 -47 -14 -46 -17 -48 -52 -48 -45 0 -53 26 -12 36
l27 7 -29 15 -29 16 45 11 c53 13 42 26 -15 16 -39 -6 -40 -7 -37 -46 3 -37 2
-38 -11 -21 -8 11 -12 28 -9 39 6 23 -13 37 -53 37 l-30 0 3 -65z m52 45 c13
-9 12 -12 -4 -25 -11 -8 -18 -16 -15 -17 2 -2 13 -8 24 -14 27 -15 25 -38 -4
-42 -35 -5 -43 10 -36 62 8 48 11 52 35 36z m275 -48 c-22 -5 -29 3 -21 25 7
17 8 17 22 -2 13 -18 13 -20 -1 -23z"/>
<path d="M685 3253 c-62 -6 -88 -55 -40 -73 28 -11 31 -22 11 -39 -11 -9 -19
-9 -34 0 -15 10 -19 20 -15 49 4 25 0 40 -11 49 -14 12 -15 9 -10 -30 5 -37 2
-47 -15 -63 -20 -18 -21 -18 -31 8 -5 15 -10 41 -10 57 0 16 -5 29 -11 29 -11
0 -5 -92 7 -112 8 -13 41 -9 58 7 13 14 16 13 26 -5 14 -27 35 -25 57 3 17 23
18 23 33 4 14 -16 22 -18 65 -11 l50 9 -50 5 c-42 4 -50 8 -53 28 -3 18 1 22
23 22 15 0 24 4 20 10 -3 6 -15 10 -26 10 -30 0 -17 24 14 28 15 2 27 8 27 13
0 9 -8 9 -85 2z m5 -50 c0 -21 -4 -33 -8 -27 -4 6 -15 13 -24 17 -21 7 -24 33
-5 40 29 12 37 6 37 -30z"/>
<path d="M1518 3248 c-13 -10 -15 -24 -10 -68 4 -40 7 -49 12 -31 4 16 16 27
34 32 16 5 33 14 37 21 5 8 9 -6 9 -36 0 -40 3 -47 16 -42 9 3 22 6 30 6 8 0
14 4 14 10 0 5 -10 9 -22 7 -22 -2 -23 1 -19 53 3 47 1 53 -12 42 -12 -10 -16
-10 -21 3 -7 18 -46 20 -68 3z m57 -27 c0 -8 -8 -19 -17 -25 -22 -13 -44 5
-34 29 7 20 51 16 51 -4z"/>
<path d="M860 3240 c-12 -8 -9 -10 13 -10 25 0 27 -3 27 -45 0 -39 -3 -45 -21
-45 -11 0 -17 -4 -14 -10 3 -5 24 -10 46 -10 21 0 39 5 39 10 0 6 -7 10 -15
10 -11 0 -15 12 -15 46 0 37 3 45 15 40 9 -3 15 0 15 9 0 17 -66 21 -90 5z"/>
<path d="M1130 3191 c0 -33 5 -63 10 -66 6 -4 10 12 10 42 1 44 2 46 15 29 14
-18 15 -18 34 5 l21 24 -3 -49 c-1 -31 2 -50 10 -53 8 -3 11 7 8 34 l-5 38 11
-37 c15 -50 50 -51 77 -3 11 19 11 18 12 -7 0 -24 4 -28 29 -28 17 0 33 5 36
10 4 6 -7 10 -25 10 l-31 0 7 50 c5 34 3 50 -5 50 -6 0 -11 -8 -12 -17 0 -14
-2 -13 -9 5 -15 36 -22 26 -15 -21 5 -33 3 -46 -9 -56 -24 -20 -36 -4 -36 46
0 26 -3 43 -7 40 -3 -4 -13 -1 -21 5 -11 10 -18 8 -33 -10 l-18 -23 -13 20
c-24 39 -38 25 -38 -38z"/>
<path d="M1393 3243 c-7 -2 -13 -9 -13 -14 0 -4 7 -6 15 -3 12 5 15 -4 15 -45
0 -28 5 -51 10 -51 6 0 10 23 10 50 0 43 3 50 20 50 17 0 20 -7 20 -50 0 -27
5 -50 10 -50 15 0 12 82 -4 103 -13 16 -55 22 -83 10z"/>
<path d="M1735 3189 c-6 -44 -2 -71 9 -58 9 10 16 109 7 109 -5 0 -12 -23 -16
-51z"/>
<path d="M1780 3183 c0 -38 3 -53 9 -44 5 8 7 25 5 38 -7 37 12 27 29 -17 23
-59 37 -50 35 23 -1 52 -2 55 -5 18 l-4 -45 -22 39 c-34 60 -47 57 -47 -12z"/>
<path d="M1892 3227 c-23 -27 -24 -62 -2 -90 26 -33 44 -34 64 -5 32 45 15 83
-24 58 -13 -8 -12 -10 3 -10 18 0 21 -8 11 -34 -9 -23 -29 -20 -43 8 -20 36
-6 66 30 66 16 0 29 5 29 10 0 14 -56 12 -68 -3z"/>
<path d="M281 3038 c2 -13 0 -29 -4 -35 -12 -18 -57 -16 -57 2 0 8 -4 15 -10
15 -6 0 -10 -26 -10 -57 0 -41 3 -54 10 -43 5 8 10 23 10 33 0 9 6 17 14 17 8
0 21 3 30 6 13 5 16 -1 16 -26 0 -18 4 -29 10 -25 6 3 10 0 10 -8 0 -12 8 -12
45 -4 48 11 53 30 5 20 -39 -7 -41 18 -2 37 26 13 26 14 5 18 -32 5 -30 32 2
32 14 0 25 5 25 11 0 7 -15 10 -40 7 -28 -2 -40 0 -40 9 0 7 -5 13 -11 13 -6
0 -9 -10 -8 -22z m29 -58 c0 -22 -3 -40 -8 -40 -4 0 -6 18 -4 40 2 22 6 40 8
40 2 0 4 -18 4 -40z"/>
<path d="M1157 3053 c-4 -3 -23 -6 -43 -5 -30 1 -37 -3 -48 -29 -7 -17 -11
-42 -8 -55 5 -26 36 -49 52 -39 15 9 12 25 -3 19 -21 -8 -40 22 -33 51 8 30
34 44 47 24 6 -10 9 -10 9 -1 0 6 7 12 15 12 11 0 13 -10 8 -50 -4 -33 -2 -50
5 -50 6 0 12 23 14 53 3 45 6 52 26 55 12 2 20 8 17 13 -7 10 -48 12 -58 2z"/>
<path d="M1479 3055 c-8 -3 -5 -113 3 -122 15 -18 53 -16 69 3 10 13 10 20 0
36 -9 15 -9 23 0 34 18 22 4 41 -35 46 -20 2 -37 4 -37 3z m61 -28 c0 -8 -10
-18 -22 -24 l-23 -10 23 -12 c30 -16 29 -41 -3 -41 -23 0 -25 3 -25 50 0 47 2
50 25 50 14 0 25 -6 25 -13z"/>
<path d="M1800 3052 c-37 -4 -67 -22 -37 -22 14 0 17 -10 18 -52 l2 -53 10 52
c11 59 37 81 37 33 0 -17 5 -31 10 -31 6 -1 15 -2 22 -3 6 0 13 -7 16 -14 3
-10 -3 -13 -21 -10 -15 1 -27 -1 -29 -7 -4 -15 41 -18 58 -5 23 20 18 50 -9
50 -13 0 -27 3 -30 7 -11 10 14 33 36 33 27 0 10 16 -23 22 -14 2 -41 3 -60 0z"/>
<path d="M124 3038 c-5 -8 0 -9 14 -6 21 6 22 3 22 -50 0 -66 17 -60 22 8 3
37 7 45 28 51 18 5 11 7 -27 8 -29 1 -55 -4 -59 -11z"/>
<path d="M451 2998 c0 -29 4 -62 8 -73 8 -19 8 -19 19 0 9 16 13 18 23 8 19
-19 28 -16 39 10 l9 22 0 -22 c1 -30 19 -30 23 -1 4 31 34 35 43 6 l7 -23 7
25 7 25 8 -23 c10 -31 23 -20 40 36 l15 47 0 -57 c1 -53 3 -58 24 -57 12 0 31
4 42 9 16 7 13 9 -17 9 -46 1 -52 26 -10 43 26 11 26 12 5 15 -34 6 -29 33 6
33 27 0 30 -4 42 -52 8 -34 14 -46 17 -33 2 11 11 25 20 31 13 9 12 12 -9 17
-21 6 -22 8 -9 21 8 8 24 16 35 18 17 3 19 -2 17 -29 -2 -18 -1 -42 3 -53 8
-26 51 -27 65 -1 14 26 13 88 -1 97 -9 5 -10 -1 -5 -21 8 -32 -11 -88 -28 -82
-6 2 -12 26 -14 54 l-3 51 -72 1 c-112 1 -122 -3 -137 -52 l-13 -42 -14 43
c-8 24 -18 41 -21 38 -3 -3 -11 -1 -19 5 -9 8 -17 8 -25 1 -7 -6 -17 -10 -23
-10 -5 0 -14 -17 -19 -39 -11 -48 -12 -49 -32 -33 -13 12 -17 11 -25 -1 -6 -9
-9 1 -9 33 0 26 -4 50 -10 53 -6 4 -10 -14 -9 -47z m153 16 c9 -23 8 -24 -14
-24 -11 0 -20 2 -20 4 0 12 13 36 20 36 4 0 11 -7 14 -16z"/>
<path d="M1024 3005 c9 -56 -2 -57 -32 -5 -12 22 -27 40 -32 40 -6 0 -10 -22
-10 -50 0 -27 5 -50 10 -50 6 0 10 15 10 33 l0 32 28 -43 c16 -23 32 -39 35
-35 12 11 8 123 -4 123 -8 0 -9 -15 -5 -45z"/>
<path d="M1628 3033 c-14 -14 -20 -14 -33 -3 -22 18 -32 4 -12 -18 10 -10 17
-35 17 -56 0 -22 4 -35 10 -31 6 3 10 21 10 40 0 19 4 37 10 40 14 9 32 45 22
45 -4 0 -15 -7 -24 -17z"/>
<path d="M1257 3022 c-28 -31 -32 -75 -8 -96 20 -18 22 -18 39 -3 10 10 24 17
30 17 6 0 12 15 14 33 l3 32 22 -37 c12 -21 27 -38 33 -38 6 0 10 24 10 55 0
30 -4 55 -10 55 -5 0 -10 -17 -10 -37 l0 -38 -21 34 c-14 24 -25 32 -39 28
-11 -3 -23 -1 -26 4 -8 14 -19 11 -37 -9z m31 -53 c-2 -22 -8 -34 -18 -34 -19
0 -25 38 -10 66 16 29 32 11 28 -32z"/>
<path d="M1720 2979 c0 -37 4 -58 10 -54 6 3 10 31 10 61 0 30 -4 54 -10 54
-6 0 -10 -27 -10 -61z"/>
<path d="M1201 2978 c1 -45 2 -49 9 -23 11 44 11 75 0 75 -6 0 -9 -23 -9 -52z"/>
<path d="M452 2834 c-5 -9 -7 -24 -5 -33 2 -9 0 -27 -6 -41 -8 -21 -10 -18
-10 28 -1 57 -12 65 -41 30 -15 -19 -21 -21 -31 -10 -19 18 -39 15 -33 -5 4
-13 0 -11 -14 6 -16 20 -22 22 -40 12 -25 -13 -42 -41 -42 -70 0 -25 -14 -34
-40 -26 -28 9 -36 50 -16 80 14 22 20 24 37 14 17 -9 20 -8 17 3 -3 7 -16 14
-30 16 -20 2 -28 -4 -42 -33 -20 -41 -14 -69 19 -91 17 -11 29 -13 42 -6 10 6
30 8 44 5 20 -4 32 2 49 24 13 15 21 21 18 13 -3 -8 -2 -24 3 -35 5 -14 8 -6
8 29 1 43 3 47 17 35 14 -11 19 -9 34 11 l19 25 3 -45 c2 -38 7 -46 26 -48 18
-3 22 1 22 22 0 20 8 29 35 40 37 16 43 27 23 44 -27 20 -56 23 -66 6z m48
-14 c17 -10 14 -15 -17 -24 -16 -5 -23 -3 -23 7 0 26 15 33 40 17z m-200 -30
c14 -26 -3 -60 -30 -60 -25 0 -27 41 -4 64 20 20 21 20 34 -4z"/>
<path d="M1361 2831 c-16 -16 -21 -18 -21 -6 0 8 -4 15 -10 15 -6 0 -7 -18 -4
-44 6 -37 3 -46 -13 -55 -26 -13 -33 -6 -33 36 0 20 -4 32 -10 28 -11 -7 -13
-45 -4 -69 7 -19 45 -21 62 -4 7 7 12 23 12 38 1 24 2 23 15 -8 17 -38 40 -50
66 -33 12 7 19 7 19 1 0 -5 5 -10 10 -10 6 0 10 9 10 20 0 16 7 20 34 20 28 0
36 -4 40 -22 2 -13 4 1 3 30 -2 43 1 52 16 52 14 0 17 -9 17 -51 0 -33 4 -48
11 -44 6 4 8 13 5 21 -9 23 5 74 21 74 12 0 13 -11 8 -55 l-7 -55 51 0 c32 0
50 4 46 10 -3 6 -22 10 -41 10 -27 0 -34 4 -34 20 0 13 7 20 20 20 11 0 20 5
20 10 0 6 -9 10 -20 10 -11 0 -20 4 -20 8 0 19 27 32 67 32 24 0 43 5 43 11 0
5 -4 8 -8 5 -13 -8 -215 -9 -235 -1 -14 6 -21 -1 -33 -32 -14 -35 -19 -39 -42
-36 -20 3 -23 2 -13 -5 18 -13 7 -44 -13 -36 -8 3 -19 19 -25 36 -14 40 2 61
41 56 18 -3 27 0 25 6 -7 20 -55 18 -76 -3z m143 -7 c9 -3 16 -15 16 -25 0
-14 -7 -19 -26 -19 -20 0 -25 4 -20 16 3 9 6 20 6 25 0 11 3 11 24 3z"/>
<path d="M623 2833 c-21 -4 -23 -10 -23 -59 0 -54 0 -54 -31 -54 -31 0 -31 1
-25 38 4 20 9 45 12 55 3 9 1 17 -5 17 -5 0 -13 -17 -16 -37 -3 -21 -8 -46
-10 -55 -1 -10 2 -22 9 -27 16 -13 145 -6 160 9 9 10 2 11 -31 7 -40 -5 -43
-3 -43 18 0 16 7 25 23 28 l22 4 -23 8 c-31 10 -22 29 16 33 18 2 32 7 32 13
0 9 -26 10 -67 2z"/>
<path d="M715 2815 c9 -45 9 -57 1 -85 -7 -24 -7 -24 9 -5 14 17 17 18 25 5 5
-8 10 -19 10 -23 0 -5 4 -5 10 -2 6 4 4 17 -5 36 -12 21 -13 34 -5 48 15 29
12 50 -4 28 -13 -16 -14 -16 -30 5 l-17 23 6 -30z"/>
<path d="M902 2815 c-16 -35 -15 -66 4 -93 17 -25 46 -29 64 -7 9 11 16 12 30
3 23 -15 48 -4 60 24 8 22 9 22 9 -4 1 -43 21 -33 21 10 l1 37 33 -37 c18 -21
36 -35 39 -31 11 11 8 125 -3 118 -5 -3 -10 -25 -10 -47 0 -40 0 -41 -20 -23
-11 10 -22 26 -25 36 -9 26 -25 24 -25 -3 -1 -22 -1 -22 -21 5 -11 15 -27 27
-34 27 -24 0 -45 -30 -45 -63 0 -33 -27 -61 -47 -49 -22 15 -33 51 -24 75 13
33 28 42 48 25 14 -11 16 -11 11 2 -2 8 -16 16 -29 18 -19 2 -28 -4 -37 -23z
m141 -18 c10 10 8 -50 -2 -66 -11 -17 -39 -8 -48 14 -3 9 0 28 6 42 9 19 15
22 25 14 7 -6 16 -8 19 -4z"/>
<path d="M1198 2823 c15 -11 22 -26 22 -49 0 -36 -8 -42 -28 -22 -9 9 -12 9
-12 0 0 -6 9 -16 20 -22 16 -8 21 -6 31 11 6 12 9 37 6 56 -5 31 -4 35 13 30
11 -3 23 -1 26 4 3 5 -19 9 -48 8 -51 0 -52 -1 -30 -16z"/>
<path d="M1720 2729 c0 -18 2 -19 15 -9 8 7 15 16 15 21 0 5 -7 9 -15 9 -9 0
-15 -9 -15 -21z"/>
<path d="M1230 2628 c-18 -61 -25 -193 -11 -202 8 -5 11 10 11 51 1 55 8 103
25 166 12 45 -11 31 -25 -15z"/>
<path d="M1287 2363 c-12 -21 -5 -75 11 -80 33 -12 43 -25 31 -40 -10 -11 -15
-11 -32 4 -19 17 -19 17 -16 -2 5 -25 41 -31 63 -10 23 23 20 32 -14 50 -35
18 -30 40 6 31 13 -4 24 -2 24 3 0 13 -30 22 -52 15 -17 -5 -19 -2 -13 15 6
20 1 29 -8 14z"/>
<path d="M1180 2350 c0 -5 7 -10 16 -10 14 0 16 -8 10 -50 -4 -29 -3 -50 3
-50 5 0 12 23 16 50 5 36 11 50 23 51 10 1 7 4 -8 9 -36 12 -60 12 -60 0z"/>
<path d="M935 2340 c-18 -8 -17 -9 8 -9 27 -1 27 -2 28 -68 l2 -68 10 68 c6
46 14 67 23 67 8 0 14 5 14 10 0 12 -57 12 -85 0z"/>
<path d="M1444 2339 c-9 -14 -13 -91 -6 -104 4 -5 9 0 12 13 5 22 5 22 43 -9
25 -20 37 -26 37 -16 0 8 -12 23 -27 32 l-26 18 26 19 c15 11 27 26 27 33 0
22 -73 34 -86 14z m66 -19 c0 -13 -48 -36 -56 -27 -4 3 -4 13 -1 22 7 17 57
21 57 5z"/>
<path d="M1598 2336 c-26 -13 -36 -62 -18 -96 14 -27 55 -26 74 2 l16 22 0
-22 c0 -28 15 -29 17 0 4 45 58 50 58 6 1 -15 4 -30 8 -34 4 -4 7 2 7 13 0 11
3 41 6 67 5 31 3 46 -5 46 -6 0 -11 -11 -11 -25 0 -21 -5 -25 -30 -25 -24 0
-30 4 -30 21 0 11 -5 17 -10 14 -6 -4 -8 -11 -5 -16 4 -5 1 -17 -4 -26 -6 -10
-11 -12 -11 -5 0 14 -40 17 -40 2 0 -5 7 -10 15 -10 19 0 19 -14 -1 -30 -12
-11 -17 -11 -28 1 -39 40 -18 97 30 85 13 -4 24 -2 24 3 0 15 -37 19 -62 7z"/>
<path d="M1823 2343 c-24 -2 -43 -8 -43 -14 0 -5 5 -9 10 -9 6 0 10 -22 10
-50 0 -66 18 -64 22 3 3 48 5 52 31 55 15 2 27 8 27 13 0 5 -3 8 -7 7 -5 -1
-27 -3 -50 -5z"/>
<path d="M1080 2316 c0 -23 -16 -36 -46 -36 -8 0 -14 9 -14 21 0 11 -4 17 -10
14 -5 -3 -10 -26 -10 -51 0 -24 5 -44 10 -44 6 0 10 9 10 19 0 17 18 31 41 31
5 0 9 -9 9 -20 0 -11 5 -20 10 -20 6 0 10 11 10 24 0 13 3 38 6 55 4 20 3 31
-5 31 -6 0 -11 -11 -11 -24z"/>
<path d="M1122 2327 c-17 -20 -27 -97 -13 -97 6 0 11 9 11 20 0 15 7 20 25 20
19 0 25 -5 25 -21 0 -11 4 -18 9 -15 5 3 5 25 0 48 -4 24 -8 46 -9 51 0 12
-37 8 -48 -6z m38 -29 c0 -5 -7 -8 -15 -8 -15 0 -20 21 -8 33 7 7 23 -11 23
-25z"/>
<path d="M1541 2283 c0 -42 3 -52 9 -38 12 28 12 83 0 90 -6 4 -10 -16 -9 -52z"/>
<path d="M1850 2230 c0 -5 5 -10 10 -10 6 0 10 5 10 10 0 6 -4 10 -10 10 -5 0
-10 -4 -10 -10z"/>
<path d="M1250 2133 c0 -5 7 -51 16 -104 21 -121 14 -191 -27 -252 -40 -61
-121 -135 -156 -142 -50 -11 -60 -18 -35 -22 52 -10 165 77 223 171 29 47 34
141 14 256 -10 55 -22 100 -27 100 -4 0 -8 -3 -8 -7z"/>
<path d="M260 2080 c-5 -10 -10 -52 -10 -92 0 -40 -4 -143 -9 -228 -6 -85 -15
-326 -20 -535 -6 -209 -13 -412 -15 -452 -4 -62 -2 -72 14 -76 12 -3 31 8 55
33 20 21 52 46 71 56 38 21 50 67 17 63 -10 -1 -20 0 -23 0 -21 8 -70 7 -70
-1 0 -6 -7 -5 -15 2 -13 11 -15 41 -10 214 3 111 8 208 10 216 2 8 6 101 9
205 12 399 24 541 47 555 17 11 6 42 -18 51 -17 6 -25 4 -33 -11z m14 -97 c-9
-65 -14 -67 -14 -5 0 30 4 52 11 52 7 0 8 -16 3 -47z m-7 -135 c-2 -13 -4 -5
-4 17 -1 22 1 32 4 23 2 -10 2 -28 0 -40z m-10 -70 c-3 -8 -6 -5 -6 6 -1 11 2
17 5 13 3 -3 4 -12 1 -19z m-10 -245 c-3 -10 -5 -2 -5 17 0 19 2 27 5 18 2
-10 2 -26 0 -35z m0 -110 c-2 -16 -4 -5 -4 22 0 28 2 40 4 28 2 -13 2 -35 0
-50z m98 -605 c2 -2 -18 -20 -45 -40 -47 -35 -48 -35 -54 -14 -15 56 -10 63
45 60 28 -1 52 -4 54 -6z m-118 -90 c-3 -8 -6 -5 -6 6 -1 11 2 17 5 13 3 -3 4
-12 1 -19z"/>
<path d="M674 1951 c-42 -4 -81 -13 -98 -24 -61 -41 -100 -197 -76 -310 27
-134 143 -211 266 -177 53 15 125 88 164 166 51 103 33 229 -44 303 -31 30
-89 53 -126 49 -8 -1 -47 -4 -86 -7z m138 -21 c27 0 89 -60 109 -105 29 -64
25 -149 -11 -222 -61 -121 -135 -167 -238 -145 -62 13 -92 36 -130 102 -24 40
-27 55 -26 135 1 170 44 235 152 235 28 0 54 -4 57 -10 10 -16 25 -12 25 6 0
12 6 15 23 10 12 -3 30 -6 39 -6z"/>
<path d="M351 1531 c-7 -5 -21 -6 -31 -4 -12 3 -22 -3 -29 -16 -9 -17 -8 -22
9 -31 11 -6 20 -17 20 -25 0 -7 3 -15 8 -17 4 -1 35 -37 69 -78 70 -86 108
-124 120 -119 18 8 170 102 202 125 19 13 36 23 38 21 2 -2 -3 -35 -11 -73 -7
-38 -17 -102 -20 -141 -4 -40 -23 -132 -42 -205 -51 -197 -170 -687 -178 -730
-4 -21 -3 -38 2 -38 5 0 12 19 16 43 11 66 104 450 141 577 19 63 37 129 41
145 l8 30 3 -30 c2 -16 36 -158 75 -315 67 -273 120 -444 139 -456 17 -10 9
22 -30 127 -21 57 -47 140 -56 184 -22 98 -45 199 -78 330 -43 170 -43 244 -5
465 l11 64 17 -59 c10 -33 31 -105 48 -160 31 -103 56 -202 68 -267 6 -35 24
-54 24 -25 0 20 -58 246 -80 313 -11 34 -31 103 -44 155 -26 107 -36 116 -88
70 -18 -16 -71 -52 -117 -81 l-84 -51 -25 23 c-14 13 -53 58 -87 101 -65 82
-75 119 -34 132 21 7 26 25 7 25 -7 0 -19 -4 -27 -9z"/>
</g>
</svg>
