<?xml version="1.0" standalone="no"?>
<!DOCTYPE svg PUBLIC "-//W3C//DTD SVG 20010904//EN"
 "http://www.w3.org/TR/2001/REC-SVG-20010904/DTD/svg10.dtd">
<svg version="1.0" xmlns="http://www.w3.org/2000/svg"
 width="114.000000pt" height="339.000000pt" viewBox="0 0 114.000000 339.000000"
 preserveAspectRatio="xMidYMid meet">
<metadata>
Created by potrace 1.13, written by Peter Selinger 2001-2015
</metadata>
<g transform="translate(0.000000,339.000000) scale(0.100000,-0.100000)"
fill="#000000" stroke="none">
<path d="M10 1695 l0 -1695 565 0 565 0 0 1695 0 1695 -565 0 -565 0 0 -1695z
m1109 183 c0 -1297 -2 -1489 -14 -1463 -8 17 -41 102 -74 190 -68 182 -108
281 -141 345 -20 40 -24 43 -34 27 -6 -11 -49 -71 -96 -135 -47 -65 -118 -163
-158 -220 -40 -56 -75 -102 -78 -102 -3 0 -58 42 -122 93 -64 51 -146 114
-182 139 -88 62 -92 97 -12 104 76 7 46 36 -39 38 -37 1 -64 6 -66 13 -2 6
-16 -1 -34 -18 -16 -16 -32 -29 -34 -29 -3 0 -5 565 -5 1255 l0 1255 545 0
545 0 -1 -1492z m-245 -1106 c0 -155 -44 -541 -75 -666 -10 -43 -19 -80 -19
-82 0 -2 -169 -4 -375 -4 l-375 0 0 410 c0 389 1 410 18 410 10 0 29 -10 42
-22 13 -13 32 -27 42 -33 47 -26 173 -117 262 -190 54 -44 106 -86 116 -93 17
-12 24 -6 72 63 74 107 226 315 251 343 34 37 42 13 41 -136z m72 6 c26 -62
69 -171 95 -243 26 -72 55 -147 63 -167 12 -29 16 -74 16 -193 l0 -155 -160 0
c-88 0 -160 3 -160 8 0 4 4 23 10 42 37 128 91 619 83 753 -3 37 -2 67 0 67 3
0 27 -51 53 -112z"/>
<path d="M192 3260 c-37 -35 -22 -70 30 -70 31 0 37 -20 13 -40 -12 -10 -18
-10 -30 0 -9 7 -19 10 -23 6 -4 -4 2 -14 12 -22 17 -12 23 -12 40 -1 48 33 47
77 -3 77 -16 0 -33 5 -37 12 -11 17 26 38 55 32 25 -5 25 -5 7 10 -26 21 -38
20 -64 -4z"/>
<path d="M430 3270 c0 -5 7 -10 15 -10 12 0 15 -14 15 -67 0 -82 7 -80 12 5 3
60 3 62 30 62 16 0 28 5 28 10 0 6 -22 10 -50 10 -27 0 -50 -4 -50 -10z"/>
<path d="M360 3245 c0 -21 -5 -25 -30 -25 -24 0 -30 4 -30 21 0 11 -4 17 -10
14 -5 -3 -10 -31 -10 -61 0 -30 5 -54 10 -54 6 0 10 14 10 30 0 27 3 30 30 30
25 0 30 -4 30 -25 0 -14 5 -25 10 -25 6 0 10 27 10 60 0 33 -4 60 -10 60 -5 0
-10 -11 -10 -25z"/>
<path d="M400 3200 c0 -33 4 -60 10 -60 6 0 10 27 10 60 0 33 -4 60 -10 60 -6
0 -10 -27 -10 -60z"/>
<path d="M575 3250 c-4 -6 5 -10 19 -10 24 0 26 -3 26 -45 0 -52 -23 -72 -46
-40 -12 16 -14 17 -14 2 0 -9 8 -21 19 -26 29 -16 52 8 58 62 7 57 18 62 18 7
0 -44 24 -76 50 -67 9 4 23 23 31 43 l15 35 31 -18 c46 -27 48 -45 5 -42 -39
4 -60 -7 -34 -17 23 -9 87 15 87 32 0 8 -13 23 -30 32 -38 22 -33 37 13 39
l37 1 0 -55 c0 -33 4 -52 10 -48 6 3 10 28 10 56 0 42 3 49 20 49 11 0 20 5
20 10 0 14 -138 6 -153 -9 -15 -15 -27 -14 -27 4 0 8 -5 15 -11 15 -6 0 -8
-11 -4 -28 7 -35 -9 -82 -29 -82 -20 0 -29 34 -21 76 l6 34 -50 0 c-27 0 -53
-4 -56 -10z"/>
<path d="M556 3000 c-20 -38 -32 -70 -27 -70 6 0 17 13 26 30 19 37 50 31 40
-8 -5 -22 -4 -24 9 -13 9 8 16 24 16 36 0 13 6 25 14 28 12 5 12 0 5 -26 -14
-48 -12 -50 29 -43 20 3 43 7 50 8 8 1 19 12 25 25 6 14 19 23 34 23 18 0 23
-5 23 -27 0 -44 17 -13 24 44 11 84 -18 83 -77 -2 -32 -46 -43 -55 -68 -55
-38 0 -37 16 4 34 21 9 26 15 14 15 -33 2 -15 36 21 39 46 5 40 24 -8 21 -21
-2 -42 0 -46 4 -4 4 -22 7 -40 7 -30 0 -35 -5 -68 -70z m94 40 c0 -13 -47 -43
-60 -38 -17 5 19 48 41 48 10 0 19 -4 19 -10z m160 -10 c0 -14 -7 -20 -22 -20
-20 0 -21 1 -3 20 10 11 20 20 22 20 1 0 3 -9 3 -20z"/>
<path d="M398 3053 c-32 -5 -38 -23 -8 -23 17 0 18 -5 13 -50 -4 -34 -2 -50 6
-50 6 0 11 15 11 33 0 58 9 74 36 69 14 -2 24 0 24 7 0 6 -6 11 -14 11 -8 0
-20 2 -28 3 -7 2 -25 2 -40 0z"/>
<path d="M855 3010 c-14 -27 -25 -54 -25 -60 0 -5 20 -10 45 -10 25 0 45 5 45
11 0 6 -12 10 -27 9 -45 -3 -46 -2 -19 46 29 52 30 54 16 54 -5 0 -21 -22 -35
-50z"/>
<path d="M182 3038 c-17 -17 -15 -69 4 -96 8 -12 26 -22 39 -22 25 0 55 23 56
43 0 7 4 2 9 -10 14 -34 56 -31 75 7 20 38 19 53 -3 73 -29 26 -51 21 -67 -15
-8 -18 -14 -27 -15 -20 0 14 -40 17 -40 2 0 -5 5 -10 10 -10 18 0 10 -39 -10
-50 -25 -14 -34 -8 -50 30 -16 39 0 60 46 60 19 0 34 5 34 10 0 14 -74 12 -88
-2z m166 -20 c17 -17 15 -44 -5 -63 -16 -16 -17 -16 -29 0 -7 9 -11 23 -8 31
2 8 6 21 9 29 5 18 17 19 33 3z"/>
<path d="M940 2970 c0 -5 5 -10 10 -10 6 0 10 5 10 10 0 6 -4 10 -10 10 -5 0
-10 -4 -10 -10z"/>
<path d="M539 2818 c-1 -7 -2 -60 -3 -118 -1 -95 -6 -118 -48 -245 -59 -181
-68 -221 -68 -306 0 -77 17 -159 32 -159 6 0 7 10 3 23 -14 46 -17 190 -5 246
7 31 33 117 58 191 42 127 45 142 47 253 1 64 -2 120 -6 123 -5 3 -9 -1 -10
-8z"/>
<path d="M665 1873 c-68 -9 -144 -37 -210 -76 -87 -51 -109 -70 -141 -124 -13
-24 -29 -43 -35 -43 -18 0 -39 -68 -39 -124 0 -67 38 -192 92 -303 47 -97 128
-180 214 -220 49 -22 66 -25 133 -21 114 7 193 52 259 147 79 116 132 262 132
368 0 112 -72 288 -134 328 -32 21 -156 63 -201 68 -22 2 -53 3 -70 0z m175
-50 c83 -28 100 -40 140 -98 67 -98 90 -253 55 -372 -23 -77 -96 -219 -138
-268 -50 -58 -132 -97 -216 -103 -59 -4 -77 -1 -124 21 -62 28 -136 92 -176
152 -29 42 -80 152 -86 184 -2 10 -10 40 -19 65 -24 69 -21 157 5 187 12 13
29 40 39 59 45 87 208 185 335 203 48 7 104 -2 185 -30z"/>
</g>
</svg>
