<?xml version="1.0" standalone="no"?>
<!DOCTYPE svg PUBLIC "-//W3C//DTD SVG 20010904//EN"
 "http://www.w3.org/TR/2001/REC-SVG-20010904/DTD/svg10.dtd">
<svg version="1.0" xmlns="http://www.w3.org/2000/svg"
 width="237.000000pt" height="339.000000pt" viewBox="0 0 237.000000 339.000000"
 preserveAspectRatio="xMidYMid meet">
<metadata>
Created by potrace 1.13, written by Peter Selinger 2001-2015
</metadata>
<g transform="translate(0.000000,339.000000) scale(0.100000,-0.100000)"
fill="#000000" stroke="none">
<path d="M0 1695 l0 -1695 1175 0 1175 0 0 1695 0 1695 -1175 0 -1175 0 0
-1695z m2340 0 l0 -1675 -1160 0 -1160 0 0 1675 0 1675 1160 0 1160 0 0 -1675z"/>
<path d="M2157 3293 c-4 -3 -7 -28 -7 -55 l0 -49 -31 36 c-17 19 -35 35 -40
35 -5 0 -9 -25 -9 -55 0 -65 17 -74 22 -12 l3 42 20 -33 c39 -66 44 -70 51
-45 5 20 8 21 21 7 26 -26 58 -14 61 24 2 24 -1 32 -12 32 -18 0 -21 -15 -6
-25 5 -3 7 -12 4 -20 -5 -11 -11 -12 -25 -4 -19 10 -25 43 -13 73 7 18 49 22
59 6 3 -5 11 -10 17 -10 6 0 3 9 -7 20 -26 29 -61 26 -79 -7 l-15 -28 -2 25
c-1 14 -1 31 0 38 2 13 -2 15 -12 5z"/>
<path d="M595 3260 c-18 -36 -33 -133 -16 -110 6 8 11 22 11 31 0 10 11 19 27
22 34 6 43 1 43 -23 0 -10 5 -22 11 -25 15 -10 1 84 -17 113 -20 30 -41 28
-59 -8z m49 -6 c10 -27 7 -34 -19 -34 -28 0 -29 3 -15 31 13 23 26 24 34 3z"/>
<path d="M1110 3281 c-35 -6 -35 -7 -38 -61 -1 -30 1 -60 5 -66 10 -13 93 -6
93 8 0 6 -17 8 -40 6 -27 -2 -41 1 -45 10 -7 20 3 32 26 32 11 0 17 5 14 10
-4 6 -14 9 -23 8 -11 -2 -17 4 -17 17 0 16 8 21 40 25 22 3 36 8 30 11 -5 3
-26 3 -45 0z"/>
<path d="M1558 3284 c-5 -4 -8 -16 -8 -28 0 -14 3 -17 11 -9 6 6 9 19 7 28 -1
9 -6 13 -10 9z"/>
<path d="M1718 3279 c-14 -8 -18 -24 -18 -74 0 -37 4 -65 10 -65 6 0 10 11 10
23 0 15 9 28 23 35 l22 11 -23 0 c-19 1 -23 6 -20 29 2 19 9 28 26 30 20 3 22
-1 22 -43 0 -76 5 -80 107 -79 48 1 93 -3 99 -7 6 -5 27 -4 47 2 l37 10 0 60
c0 38 -4 58 -10 54 -5 -3 -10 -28 -10 -56 0 -42 -3 -49 -20 -49 -33 0 -35 3
-32 58 3 33 0 52 -7 52 -6 0 -11 -20 -11 -49 0 -46 -1 -49 -31 -55 -46 -9 -49
-8 -49 14 0 13 9 22 28 27 26 7 26 7 4 12 -28 7 -31 25 -5 29 39 8 38 23 -2
20 l-40 -3 3 -47 c4 -45 2 -48 -20 -48 -12 0 -33 -3 -45 -6 -17 -5 -23 -2 -23
9 0 8 10 18 23 22 l22 8 -22 4 c-15 3 -23 12 -23 24 0 15 7 19 35 19 19 0 35
5 35 10 0 6 -13 10 -29 10 -17 0 -33 5 -36 10 -8 13 -55 12 -77 -1z"/>
<path d="M155 3250 c-21 -41 -19 -87 4 -100 33 -17 51 -11 66 23 12 27 14 28
15 10 0 -33 20 -28 20 5 1 26 1 26 16 7 8 -11 21 -29 28 -40 13 -19 14 -19 27
10 7 17 14 32 15 33 2 2 16 1 33 -3 22 -5 31 -12 31 -26 0 -10 5 -19 10 -19
12 0 4 63 -13 95 -25 49 -51 40 -72 -26 -9 -27 -18 -49 -21 -49 -2 0 -11 14
-20 31 -11 23 -13 34 -5 42 20 20 11 31 -9 12 -19 -17 -20 -17 -20 0 0 11 -5
15 -15 12 -8 -4 -17 -2 -20 3 -13 22 -54 10 -70 -20z m63 -30 c3 -45 -9 -64
-37 -55 -16 5 -21 14 -21 39 0 63 53 78 58 16z m182 -2 c0 -9 -34 -11 -43 -2
-3 4 -1 16 5 27 10 20 11 20 24 2 8 -10 14 -22 14 -27z"/>
<path d="M470 3254 l-14 -26 -18 23 c-25 29 -34 18 -12 -15 9 -15 20 -41 24
-59 l8 -32 1 35 c1 19 10 46 21 60 21 27 25 40 12 40 -5 0 -15 -12 -22 -26z"/>
<path d="M759 3238 c0 -37 -2 -40 -12 -24 -31 48 -46 61 -57 50 -13 -13 -4
-104 10 -104 5 0 6 18 3 40 -3 22 -3 40 -1 40 3 0 18 -20 34 -45 15 -25 32
-45 36 -45 4 0 8 21 8 48 l0 47 20 -25 c11 -14 20 -36 20 -50 0 -20 2 -22 10
-10 5 8 7 22 5 31 -3 9 3 26 13 39 l18 23 -4 -35 c-7 -63 54 -93 82 -40 14 25
15 26 16 5 0 -13 4 -23 9 -23 5 0 7 19 4 43 -6 42 -6 42 15 24 11 -11 28 -34
37 -53 9 -19 20 -34 25 -34 6 0 10 32 10 70 0 40 -4 70 -10 70 -5 0 -10 -21
-10 -47 l0 -47 -31 42 c-37 50 -49 53 -50 10 0 -28 -2 -30 -9 -13 -12 31 -37
47 -60 40 -13 -4 -20 -2 -20 7 0 7 -11 0 -25 -17 l-25 -30 -21 28 c-29 38 -39
34 -40 -15z m165 -4 c18 -17 19 -24 10 -48 -9 -22 -41 -20 -54 4 -8 14 -8 26
0 40 13 24 23 25 44 4z"/>
<path d="M1244 3221 c5 -72 20 -98 35 -60 8 21 10 22 16 7 8 -20 30 -24 40 -8
3 5 10 29 14 52 l9 43 1 -58 c1 -38 5 -56 11 -52 6 4 10 16 8 28 -2 17 3 23
23 25 22 3 27 -2 32 -25 5 -24 10 -28 40 -28 18 0 41 6 50 14 32 25 12 101
-25 101 -23 0 -36 -21 -41 -65 -3 -29 -4 -23 -5 23 -1 39 -6 61 -12 57 -5 -3
-10 -17 -10 -31 0 -33 -47 -35 -52 -1 -2 12 -7 20 -12 19 -5 -2 -12 2 -16 8
-4 6 -10 -11 -14 -39 -7 -55 -21 -73 -31 -41 -8 25 -21 26 -34 3 -9 -15 -11
-13 -12 12 0 17 -5 41 -10 55 -6 18 -7 6 -5 -39z m276 -42 c-12 -22 -38 -25
-46 -6 -3 8 0 27 6 43 l12 29 19 -23 c14 -18 16 -28 9 -43z"/>
<path d="M1589 3250 c-23 -20 -23 -21 -6 -33 44 -29 50 -35 43 -45 -4 -7 -16
-12 -27 -12 -10 0 -19 -4 -19 -10 0 -14 32 -12 53 4 24 18 21 31 -10 56 -26
20 -27 23 -10 34 9 7 17 16 17 20 0 12 -18 6 -41 -14z"/>
<path d="M486 3154 c-8 -21 -8 -24 3 -24 12 0 22 28 12 35 -5 3 -12 -2 -15
-11z"/>
<path d="M1310 3080 c0 -14 7 -20 23 -20 23 0 23 -3 19 -56 -3 -41 -2 -55 7
-50 6 4 11 29 11 57 0 34 4 49 13 49 7 0 22 6 32 14 16 12 13 13 -33 8 -35 -3
-52 -1 -52 7 0 6 -4 11 -10 11 -5 0 -10 -9 -10 -20z"/>
<path d="M1036 3074 c-39 -39 -23 -119 23 -119 14 0 26 5 28 12 3 7 -3 9 -16
6 -29 -7 -49 37 -33 72 10 21 17 24 39 20 27 -6 27 -6 9 9 -25 20 -31 20 -50
0z"/>
<path d="M1789 3083 c-12 -3 -16 -19 -17 -63 l-2 -60 33 0 c44 0 57 15 57 67
0 52 -22 70 -71 56z m51 -37 c13 -36 2 -66 -26 -66 -21 0 -24 5 -24 38 0 21 3
42 7 45 14 14 34 6 43 -17z"/>
<path d="M433 3069 c-31 -9 -33 -12 -33 -57 l0 -47 -24 25 c-22 23 -23 27 -10
48 8 12 10 22 5 22 -5 0 -16 -10 -24 -22 l-16 -23 0 23 c-2 47 -16 19 -18 -33
-2 -56 13 -78 19 -28 l3 27 36 -32 c33 -29 43 -32 100 -32 45 0 60 3 49 10 -8
5 -34 10 -57 10 -40 0 -43 2 -43 26 0 19 4 25 15 20 8 -3 25 -1 37 4 20 8 18
9 -14 9 -54 1 -52 29 2 37 22 4 40 10 40 15 0 11 -25 10 -67 -2z"/>
<path d="M590 3070 c-35 -7 -33 -11 5 -14 17 -1 21 -10 25 -56 l5 -55 8 38 c4
21 5 46 2 56 -4 14 1 22 22 29 l28 10 -30 0 c-16 0 -46 -4 -65 -8z"/>
<path d="M928 3050 l-25 -32 -16 23 c-23 32 -32 17 -12 -21 9 -18 15 -41 12
-51 -3 -11 -1 -22 4 -25 5 -3 9 7 9 22 0 18 12 40 31 60 17 18 29 38 27 45 -2
7 -14 -1 -30 -21z"/>
<path d="M1119 3053 c-6 -16 -13 -44 -15 -63 -4 -35 -4 -35 8 -7 15 35 55 38
60 5 2 -13 11 -24 21 -26 14 -3 17 4 17 33 0 43 11 39 35 -11 21 -46 36 -34
43 35 3 34 1 51 -7 51 -6 0 -11 -18 -11 -42 l0 -43 -28 42 c-33 51 -52 55 -53
11 -1 -34 -3 -32 -13 15 -4 18 -13 27 -26 27 -13 0 -24 -10 -31 -27z m41 -8
c0 -8 -7 -15 -15 -15 -16 0 -20 12 -8 23 11 12 23 8 23 -8z"/>
<path d="M1480 3056 c0 -13 -3 -38 -6 -55 -4 -20 -3 -31 5 -31 6 0 11 9 11 19
0 19 18 31 46 31 8 0 14 -10 14 -24 0 -19 5 -24 20 -23 12 1 20 8 20 20 0 30
53 19 60 -13 3 -15 9 -20 13 -14 4 7 0 35 -9 63 -13 44 -18 52 -37 49 -17 -2
-25 -14 -34 -48 l-11 -45 -1 48 c-1 26 -5 47 -10 47 -5 0 -7 -9 -4 -20 4 -16
0 -20 -21 -20 -37 0 -41 3 -38 23 2 9 -2 17 -7 17 -6 0 -11 -11 -11 -24z m150
-11 c0 -8 -7 -15 -15 -15 -16 0 -20 12 -8 23 11 12 23 8 23 -8z"/>
<path d="M1680 3019 c0 -35 4 -58 9 -54 5 3 7 21 4 40 -7 46 2 44 27 -5 11
-22 25 -40 30 -40 13 0 13 107 0 115 -6 4 -10 -9 -10 -32 l-1 -38 -20 38 c-11
20 -24 37 -29 37 -6 0 -10 -27 -10 -61z"/>
<path d="M1939 3073 c0 -5 0 -29 1 -55 1 -41 -1 -48 -17 -48 -31 0 -41 18 -32
58 4 20 6 39 3 41 -10 10 -24 -25 -24 -62 0 -30 4 -39 24 -47 13 -5 33 -6 45
-3 12 3 21 1 21 -6 0 -6 17 -11 40 -11 22 0 40 5 40 11 0 5 -5 7 -10 4 -6 -4
-24 -4 -40 0 -35 8 -43 45 -10 45 11 0 20 5 20 10 0 6 -9 10 -20 10 -13 0 -20
7 -20 20 0 17 7 20 41 20 24 0 38 4 34 10 -7 12 -95 14 -96 3z"/>
<path d="M168 3013 c-2 -32 -3 -61 -1 -65 6 -12 93 -9 93 2 0 6 -18 10 -39 10
l-40 0 6 55 c4 35 2 55 -5 55 -5 0 -12 -26 -14 -57z"/>
<path d="M271 3013 c-1 -36 3 -63 9 -63 12 0 12 77 0 105 -6 14 -9 2 -9 -42z"/>
<path d="M738 3048 c-4 -27 -58 -40 -58 -14 0 8 -4 18 -10 21 -6 4 -9 -15 -9
-52 1 -32 4 -46 6 -30 4 22 9 27 34 27 22 0 29 -5 29 -20 0 -11 5 -20 10 -20
6 0 10 25 10 55 0 56 -6 73 -12 33z"/>
<path d="M761 3005 l-2 -65 35 0 c19 0 41 3 50 6 29 11 16 20 -24 16 -37 -4
-40 -2 -40 22 0 21 5 26 26 26 14 0 23 4 19 10 -3 6 -15 10 -26 10 -10 0 -19
5 -19 10 0 6 13 10 29 10 17 0 33 5 36 10 4 6 -11 10 -38 10 l-44 0 -2 -65z"/>
<path d="M140 2871 c0 -6 3 -10 8 -10 38 6 45 -1 39 -42 -3 -23 -2 -49 1 -58
4 -9 9 7 12 39 4 40 9 55 20 55 12 0 14 -11 11 -49 -2 -33 0 -46 8 -42 6 4 11
16 11 27 0 14 7 19 25 19 21 0 25 -5 25 -30 0 -51 19 -33 23 23 l3 52 2 -57 2
-58 39 0 c22 0 43 5 46 10 4 6 -8 10 -29 10 -29 0 -36 4 -36 20 0 13 7 20 19
20 11 0 23 5 26 10 4 6 -5 10 -19 10 -38 0 -32 18 9 26 51 9 43 22 -10 16 -30
-3 -45 -1 -45 7 0 6 -4 11 -10 11 -5 0 -10 -11 -10 -25 0 -21 -5 -25 -29 -25
-23 0 -30 5 -33 23 -3 19 -10 22 -55 25 -32 2 -53 -1 -53 -7z"/>
<path d="M508 2873 c-15 -4 -18 -15 -17 -71 1 -37 4 -55 6 -39 3 21 10 27 28
27 13 0 31 10 39 22 16 22 16 21 17 -22 1 -28 4 -35 6 -19 3 17 12 29 26 33
35 9 37 8 37 -30 0 -21 4 -33 10 -29 6 3 10 24 10 45 0 21 4 41 9 45 15 9 32
-32 25 -60 -4 -15 -2 -25 5 -25 6 0 11 8 11 18 0 9 9 32 20 50 26 42 25 64 -1
32 l-21 -25 -20 28 c-25 34 -38 35 -38 2 0 -15 -6 -25 -14 -25 -8 0 -21 -3
-30 -6 -13 -5 -16 1 -16 27 -1 31 -2 32 -14 16 -12 -15 -15 -15 -26 -2 -13 15
-21 16 -52 8z m47 -38 c0 -13 -8 -21 -22 -23 -17 -3 -23 2 -23 16 0 10 3 22 7
26 13 13 38 1 38 -19z"/>
<path d="M1557 2862 c-35 -22 -31 -44 11 -57 34 -10 41 -25 18 -44 -10 -8 -16
-9 -21 -1 -3 5 -13 10 -22 10 -13 0 -13 -3 -3 -16 21 -24 63 -14 74 19 12 32
-2 47 -41 47 -13 0 -23 4 -23 10 0 15 37 31 56 23 12 -4 15 -2 12 8 -7 21 -29
21 -61 1z"/>
<path d="M788 2849 c-46 -23 -47 -34 -8 -54 17 -9 30 -20 30 -27 0 -6 -11 -8
-30 -4 -31 6 -42 -10 -14 -21 21 -8 64 13 64 32 0 8 -11 21 -25 27 -14 6 -25
14 -25 18 0 4 11 12 25 18 14 6 25 16 25 22 0 5 -1 10 -2 9 -2 -1 -20 -10 -40
-20z"/>
<path d="M860 2833 c0 -21 -3 -48 -6 -60 -4 -14 -2 -23 5 -23 6 0 11 8 11 17
0 14 3 13 16 -5 9 -14 25 -22 42 -21 l27 0 -25 10 c-44 18 -51 44 -21 80 l19
24 21 -24 c12 -13 31 -29 43 -35 34 -17 32 -34 -4 -45 -30 -8 -30 -9 -7 -10
14 -1 33 5 43 12 16 12 17 16 5 35 -7 11 -22 25 -34 31 -20 10 -20 10 3 17 12
3 22 10 22 15 0 13 -17 11 -41 -3 -17 -11 -22 -10 -30 5 -15 25 -36 21 -53
-10 -14 -26 -15 -26 -16 -6 0 40 -20 36 -20 -4z"/>
<path d="M1326 2863 c-4 -4 -34 -6 -67 -5 l-60 3 3 -68 c3 -56 6 -68 21 -71
30 -6 77 18 77 39 0 26 9 24 42 -8 33 -32 51 -23 20 10 l-22 24 20 18 c25 23
25 41 1 55 -23 12 -26 12 -35 3z m29 -34 c0 -8 -10 -15 -22 -17 -25 -4 -33 22
-10 31 18 8 32 2 32 -14z m-65 -34 c0 -39 -3 -45 -25 -51 -29 -7 -55 1 -55 17
0 6 9 13 20 16 23 6 27 23 5 23 -8 0 -15 9 -15 20 0 16 7 20 35 20 35 0 35 0
35 -45z"/>
<path d="M1638 2835 c-11 -55 -10 -85 2 -85 6 0 10 9 10 20 0 31 50 28 51 -2
1 -22 1 -22 9 2 12 36 12 90 0 90 -5 0 -10 -11 -10 -25 0 -20 -5 -25 -24 -25
-21 0 -25 6 -28 33 l-3 32 -7 -40z"/>
<path d="M1750 2850 c-24 -24 -27 -82 -5 -100 21 -18 60 -5 73 25 14 31 2 69
-27 85 -17 8 -24 7 -41 -10z m60 -50 c0 -21 -19 -40 -41 -40 -26 0 -33 37 -14
66 16 25 17 25 36 8 10 -9 19 -25 19 -34z"/>
<path d="M1936 2848 c-3 -13 -6 -40 -6 -62 l0 -38 40 4 c22 2 42 -1 44 -7 5
-15 78 27 87 51 13 36 -11 69 -53 72 l-37 3 -3 -48 c-3 -44 -5 -48 -31 -51
-28 -3 -29 -3 -26 42 3 50 -5 69 -15 34z m150 -25 c6 -20 2 -31 -16 -45 -33
-27 -40 -23 -40 27 0 41 2 45 25 45 18 0 26 -7 31 -27z"/>
<path d="M1107 2831 c-4 -18 -7 -52 -6 -75 1 -39 1 -40 9 -12 16 53 60 64 60
14 0 -50 12 -24 17 37 3 34 1 55 -5 55 -6 0 -12 -10 -14 -22 -2 -15 -11 -24
-25 -26 -18 -3 -22 2 -25 30 l-3 33 -8 -34z"/>
<path d="M1392 2798 l3 -63 43 -3 c25 -2 42 1 42 7 0 6 -16 11 -35 11 -28 0
-35 4 -35 20 0 13 7 20 20 20 11 0 20 5 20 10 0 6 -9 10 -20 10 -11 0 -20 7
-20 15 0 10 10 15 30 15 17 0 30 5 30 10 0 6 -18 10 -40 10 l-41 0 3 -62z"/>
<path d="M1844 2846 c-3 -8 -4 -31 -2 -52 2 -31 7 -40 25 -42 42 -6 74 93 35
106 -11 3 -11 0 -1 -16 17 -27 -3 -75 -29 -70 -13 3 -16 12 -14 46 3 41 -4 55
-14 28z"/>
<path d="M256 2668 c-12 -7 -16 -24 -15 -66 1 -42 3 -49 8 -28 l6 30 32 -40
c20 -24 32 -33 33 -23 0 9 -9 24 -20 34 -26 23 -25 33 3 37 15 2 23 11 25 29
3 23 -1 27 -27 31 -16 2 -37 0 -45 -4z m59 -28 c0 -18 -43 -26 -57 -12 -16 16
2 33 30 30 16 -2 27 -9 27 -18z"/>
<path d="M650 2665 c-11 -10 -14 -31 -12 -70 4 -55 4 -55 36 -55 18 0 37 5 43
11 8 8 13 8 17 0 9 -14 63 -14 71 -1 4 6 -7 10 -26 10 l-32 0 7 53 c5 36 3 47
-4 37 -5 -8 -10 -23 -10 -34 0 -12 -5 -16 -16 -12 -9 3 -18 6 -20 6 -2 0 1 9
8 19 23 38 -30 69 -62 36z m46 -17 c4 -6 0 -16 -9 -23 -23 -17 -21 -22 8 -29
33 -8 32 -24 -2 -37 -36 -14 -46 0 -38 55 7 45 25 60 41 34z"/>
<path d="M1532 2667 c-6 -7 -16 -34 -22 -60 -12 -44 -14 -47 -46 -47 -27 0
-34 4 -34 20 0 18 10 25 33 21 18 -3 5 17 -15 23 -29 7 -14 23 27 28 25 4 27
5 11 13 -10 4 -30 4 -44 -1 -24 -8 -26 -14 -24 -50 3 -40 2 -42 -30 -47 -18
-2 -35 -3 -36 -2 -2 2 1 25 6 52 10 45 9 63 -3 51 -3 -2 -8 -32 -11 -66 l-7
-61 38 6 c20 3 40 2 44 -4 3 -5 24 -8 47 -5 34 3 42 9 51 33 14 36 63 43 63 9
0 -11 5 -20 10 -20 17 0 11 53 -10 88 -21 35 -32 39 -48 19z m35 -26 c10 -16
9 -20 -3 -25 -26 -10 -34 -7 -34 12 0 35 19 42 37 13z"/>
<path d="M155 2663 c-7 -5 -9 -32 -4 -73 3 -36 7 -51 7 -33 2 26 6 32 28 35
35 4 53 31 38 56 -12 18 -52 27 -69 15z m55 -33 c0 -15 -7 -20 -25 -20 -24 0
-34 18 -18 33 15 15 43 7 43 -13z"/>
<path d="M551 2657 c-6 -8 -14 -28 -17 -45 -4 -18 -12 -32 -19 -32 -20 0 -24
11 -13 30 6 9 8 25 4 35 -5 14 -14 16 -43 12 -20 -4 -40 -12 -44 -19 -6 -9
-10 -8 -15 5 -3 9 -15 17 -25 17 -23 0 -41 -41 -37 -84 4 -39 39 -48 61 -16
l15 22 4 -23 c2 -20 8 -24 38 -23 58 3 75 10 78 32 5 31 55 30 71 0 10 -20 11
-15 8 31 -5 64 -37 93 -66 58z m-152 -76 c-21 -38 -44 -34 -42 7 0 18 7 39 13
47 11 14 15 13 28 -6 14 -20 14 -25 1 -48z m199 46 c3 -12 -3 -17 -22 -17 -28
0 -29 1 -20 25 8 20 38 15 42 -8z m-98 3 c0 -5 -12 -16 -27 -24 l-28 -14 27
-13 c32 -14 28 -29 -8 -29 -22 0 -24 4 -24 45 0 43 1 45 30 45 17 0 30 -4 30
-10z"/>
<path d="M848 2643 l-26 -26 -11 22 c-7 11 -16 21 -22 21 -6 0 -1 -15 10 -34
12 -18 21 -43 21 -55 0 -11 5 -21 11 -21 6 0 9 13 7 29 -2 21 5 38 21 55 32
34 22 43 -11 9z"/>
<path d="M934 2659 c-2 -4 8 -9 23 -11 26 -3 28 -6 25 -43 -4 -48 -5 -49 -31
-35 -13 7 -21 7 -21 1 0 -6 9 -15 21 -21 31 -17 49 4 49 56 0 32 4 44 14 44
12 0 13 -7 5 -32 -5 -18 -9 -36 -9 -40 0 -14 32 -38 50 -38 27 0 53 53 45 91
-9 39 -22 37 -17 -3 4 -41 -18 -74 -43 -64 -14 5 -17 14 -12 46 3 22 1 43 -5
46 -15 10 -88 12 -94 3z"/>
<path d="M1238 2663 c-28 -4 -40 -23 -14 -23 10 0 12 -12 8 -50 -3 -33 -1 -50
7 -50 7 0 11 20 11 50 0 45 3 50 25 56 14 3 22 10 19 15 -5 9 -8 9 -56 2z"/>
<path d="M1126 2645 c-9 -23 4 -45 30 -51 13 -3 24 -12 24 -19 0 -20 -38 -29
-57 -13 -14 11 -16 11 -11 -2 6 -19 55 -25 74 -9 22 18 13 52 -15 59 -38 9
-38 30 -1 30 18 0 29 4 25 10 -10 16 -62 12 -69 -5z"/>
<path d="M1604 2624 c4 -21 13 -52 20 -69 l13 -30 19 60 19 60 3 -52 3 -53 39
0 c50 0 62 18 13 22 -39 3 -60 28 -24 28 12 0 21 5 21 10 0 6 -9 10 -21 10
-31 0 -17 24 17 28 56 7 51 23 -6 20 -52 -3 -56 -5 -72 -38 l-17 -35 -7 33
c-10 48 -28 54 -20 6z"/>
<path d="M1820 2600 c0 -33 4 -60 9 -60 5 0 6 20 3 45 -6 59 9 58 44 -1 18
-31 30 -42 37 -35 7 7 15 7 25 -1 11 -10 18 -8 33 11 22 27 24 60 5 86 -16 23
-46 14 -54 -18 -6 -22 -6 -22 -13 3 -6 22 -7 21 -8 -10 l-1 -35 -31 38 c-17
20 -35 37 -40 37 -5 0 -9 -27 -9 -60z m153 18 c6 -17 -10 -58 -22 -58 -13 0
-22 30 -16 51 7 22 30 25 38 7z"/>
<path d="M1990 2654 c0 -3 7 -31 16 -62 14 -48 18 -53 29 -39 11 15 13 15 28
0 15 -15 17 -14 27 11 5 15 9 42 9 59 -1 19 -3 24 -6 12 -15 -74 -12 -69 -34
-49 -16 14 -22 15 -28 5 -5 -8 -11 2 -15 28 -3 23 -11 41 -16 41 -6 0 -10 -3
-10 -6z"/>
<path d="M2110 2555 c0 -9 5 -15 11 -13 6 2 11 8 11 13 0 5 -5 11 -11 13 -6 2
-11 -4 -11 -13z"/>
<path d="M1419 2414 c-35 -91 -29 -230 16 -404 23 -90 26 -120 23 -205 -4 -91
-8 -108 -41 -177 -36 -74 -92 -138 -122 -138 -8 0 -15 -4 -15 -10 0 -13 4 -13
44 4 41 17 75 61 118 151 28 61 33 83 36 167 4 82 0 115 -27 225 -35 144 -42
266 -22 351 15 58 8 82 -10 36z"/>
<path d="M164 2206 c-18 -14 -19 -29 -20 -278 -1 -145 -5 -458 -9 -696 -5
-237 -5 -432 -1 -432 13 0 51 22 91 55 22 17 63 45 90 60 97 56 335 216 352
238 10 13 33 33 51 45 42 30 41 42 -4 42 l-37 0 7 138 c4 75 9 262 11 415 4
228 2 277 -9 277 -7 0 -58 14 -112 31 -55 18 -155 48 -224 69 -69 20 -134 40
-146 43 -12 4 -28 1 -40 -7z m221 -66 c50 -14 136 -42 193 -61 l103 -34 -6
-300 c-8 -432 -13 -510 -33 -528 -28 -25 -295 -199 -392 -255 -51 -29 -95 -50
-99 -47 -3 4 -5 73 -4 153 1 81 4 350 7 599 4 441 8 511 29 525 5 3 33 -1 61
-9 28 -9 92 -28 141 -43z m315 -918 c0 -14 -104 -89 -240 -172 -74 -46 -157
-98 -185 -116 -48 -33 -75 -42 -75 -26 0 9 69 52 140 88 30 15 80 46 110 69
30 24 75 55 100 69 25 15 67 42 94 61 51 37 56 39 56 27z m-285 -227 c-16 -14
-34 -25 -40 -25 -9 0 55 49 65 49 3 0 -8 -11 -25 -24z m-224 -123 c-5 -10 -17
-24 -25 -32 -14 -11 -16 -9 -16 12 0 30 7 38 32 38 15 0 17 -4 9 -18z"/>
<path d="M490 2000 c0 -5 5 -10 10 -10 6 0 10 5 10 10 0 6 -4 10 -10 10 -5 0
-10 -4 -10 -10z"/>
<path d="M380 1984 c0 -8 5 -12 10 -9 6 3 10 1 10 -4 0 -6 -4 -11 -10 -11 -5
0 -10 -9 -10 -20 0 -11 -7 -20 -15 -20 -8 0 -15 -7 -15 -16 0 -9 5 -12 12 -8
8 5 9 2 3 -12 -4 -10 -10 -29 -12 -41 -4 -19 -1 -21 23 -19 24 3 29 8 28 27
-1 13 -5 31 -9 41 -4 11 -1 18 12 21 16 4 16 5 1 6 -15 1 -16 5 -6 25 11 26 5
56 -12 56 -5 0 -10 -7 -10 -16z"/>
<path d="M321 1953 c-14 -51 -14 -70 0 -56 10 10 23 93 14 93 -2 0 -9 -17 -14
-37z"/>
<path d="M476 1925 c-14 -83 -15 -95 -6 -95 5 0 11 15 13 33 l4 32 1 -32 c3
-50 22 -39 22 11 0 24 3 51 6 60 3 9 1 16 -5 16 -6 0 -12 -10 -12 -22 -1 -18
-3 -17 -9 7 l-7 30 -7 -40z"/>
<path d="M556 1925 c-11 -59 -14 -64 -15 -26 -1 19 -4 31 -8 27 -13 -13 -11
-51 4 -68 9 -10 13 -24 10 -33 -4 -8 -2 -15 3 -15 6 0 10 8 10 18 0 10 4 22 9
28 14 14 25 78 13 70 -6 -3 -12 4 -14 16 -3 17 -6 13 -12 -17z"/>
<path d="M285 1920 c-4 -17 -5 -34 -2 -36 2 -3 7 10 11 27 8 42 0 50 -9 9z"/>
<path d="M438 1923 c7 -3 16 -2 19 1 4 3 -2 6 -13 5 -11 0 -14 -3 -6 -6z"/>
<path d="M435 1890 c3 -5 11 -10 16 -10 6 0 7 5 4 10 -3 6 -11 10 -16 10 -6 0
-7 -4 -4 -10z"/>
<path d="M357 1714 c-4 -4 -6 -30 -6 -58 1 -29 4 -39 6 -23 4 25 23 40 23 17
0 -5 7 -7 15 -4 8 4 15 10 15 16 0 12 -30 42 -31 31 0 -4 -4 0 -8 10 -3 10
-10 15 -14 11z"/>
<path d="M427 1701 c-6 -25 3 -71 14 -71 5 0 9 6 9 14 0 15 27 29 40 21 10 -6
25 34 16 42 -3 3 -12 -2 -21 -11 -20 -20 -42 -22 -26 -2 9 11 8 15 -5 20 -21
8 -21 8 -27 -13z"/>
<path d="M552 1700 c0 -14 2 -19 5 -12 2 6 2 18 0 25 -3 6 -5 1 -5 -13z"/>
<path d="M251 1673 c0 -40 15 -123 19 -110 5 14 7 23 14 62 4 22 11 50 16 63
9 20 7 22 -20 22 -28 0 -30 -2 -29 -37z"/>
<path d="M520 1694 c0 -8 5 -12 10 -9 6 3 10 10 10 16 0 5 -4 9 -10 9 -5 0
-10 -7 -10 -16z"/>
<path d="M310 1669 c0 -5 5 -7 10 -4 6 3 10 8 10 11 0 2 -4 4 -10 4 -5 0 -10
-5 -10 -11z"/>
<path d="M320 1640 c0 -5 5 -10 11 -10 5 0 7 5 4 10 -3 6 -8 10 -11 10 -2 0
-4 -4 -4 -10z"/>
<path d="M460 1594 c0 -8 -4 -12 -10 -9 -5 3 -10 2 -10 -3 0 -14 33 -20 59
-10 19 7 21 11 11 23 -16 20 -50 19 -50 -1z"/>
<path d="M286 1521 c-4 -6 -12 -8 -18 -5 -6 4 -9 1 -7 -5 3 -7 8 -12 13 -11 5
1 12 -3 16 -9 8 -14 42 -3 38 11 -2 5 -7 9 -12 8 -5 -1 -12 4 -16 10 -6 9 -9
9 -14 1z"/>
<path d="M381 1449 c-1 -9 2 -18 5 -22 8 -8 34 3 34 15 0 6 -6 8 -14 5 -8 -3
-17 -1 -20 6 -2 7 -5 6 -5 -4z"/>
<path d="M320 1440 c-13 -8 -12 -10 3 -10 9 0 17 5 17 10 0 12 -1 12 -20 0z"/>
<path d="M318 1403 c7 -3 16 -2 19 1 4 3 -2 6 -13 5 -11 0 -14 -3 -6 -6z"/>
<path d="M515 1381 c-11 -10 -4 -21 15 -21 11 0 20 4 20 10 0 5 8 7 18 3 10
-4 14 -2 9 3 -9 9 -54 13 -62 5z"/>
<path d="M311 1305 c-14 -21 -26 -59 -32 -107 -8 -62 -14 -77 -40 -101 -37
-34 -32 -48 5 -15 27 23 56 105 56 159 0 14 7 34 15 45 13 17 14 9 15 -78 l0
-97 -35 -17 c-20 -9 -38 -20 -41 -25 -8 -14 9 -10 30 6 11 8 28 15 38 15 10 0
18 4 18 10 0 5 12 13 28 16 32 8 75 34 68 42 -3 2 -16 -2 -28 -10 -13 -8 -33
-17 -45 -20 -22 -6 -23 -3 -23 48 0 62 18 72 52 29 19 -24 68 -35 68 -16 0 5
-8 7 -19 4 -18 -5 -57 34 -45 46 3 3 9 -1 13 -8 9 -14 19 -4 15 17 -1 6 -2 17
-3 24 0 7 -7 4 -15 -7 -13 -18 -14 -18 -26 6 -7 13 -20 34 -30 45 l-16 22 -23
-33z m56 -48 c-6 -19 -22 -6 -25 20 -2 27 -2 27 13 8 8 -10 14 -23 12 -28z"/>
<path d="M435 1330 c-3 -5 3 -10 15 -10 12 0 18 5 15 10 -3 6 -10 10 -15 10
-5 0 -12 -4 -15 -10z"/>
<path d="M830 1834 c-92 -83 -128 -223 -83 -324 25 -57 83 -115 129 -130 71
-24 182 13 229 75 60 77 65 249 9 318 -37 47 -122 89 -189 95 -49 4 -55 2 -95
-34z m188 -14 c39 -20 69 -44 88 -72 27 -38 29 -49 29 -128 0 -79 -3 -91 -30
-135 -39 -63 -90 -90 -171 -90 -51 0 -66 4 -98 28 -20 16 -49 47 -64 70 -24
35 -27 50 -26 116 0 62 5 85 27 126 15 28 32 57 39 65 48 59 118 65 206 20z"/>
<path d="M786 1323 c-10 -38 -31 -108 -47 -158 -15 -49 -37 -137 -50 -195 -14
-71 -29 -116 -46 -138 -29 -39 -26 -47 11 -31 35 16 63 59 45 69 -17 11 5 123
58 298 l38 127 3 -130 c3 -118 -6 -232 -39 -485 -5 -41 -25 -140 -44 -220 -42
-179 -51 -230 -38 -230 11 0 23 46 23 87 0 13 16 88 35 166 19 78 43 208 53
290 11 81 21 150 24 152 2 3 25 -49 51 -114 43 -111 68 -188 163 -493 20 -65
40 -118 44 -118 4 0 0 26 -10 57 -10 32 -32 105 -50 163 -60 197 -102 325
-145 435 -41 105 -43 115 -46 230 -3 165 0 235 11 210 4 -11 27 -67 50 -125
66 -162 112 -260 121 -260 13 0 13 0 -25 81 -62 134 -125 295 -138 347 -6 29
-16 52 -22 52 -6 0 -20 -30 -30 -67z"/>
</g>
</svg>
