<?xml version="1.0" standalone="no"?>
<!DOCTYPE svg PUBLIC "-//W3C//DTD SVG 20010904//EN"
 "http://www.w3.org/TR/2001/REC-SVG-20010904/DTD/svg10.dtd">
<svg version="1.0" xmlns="http://www.w3.org/2000/svg"
 width="146.000000pt" height="185.000000pt" viewBox="0 0 146.000000 185.000000"
 preserveAspectRatio="xMidYMid meet">
<metadata>
Created by potrace 1.13, written by Peter Selinger 2001-2015
</metadata>
<g transform="translate(0.000000,185.000000) scale(0.100000,-0.100000)"
fill="#000000" stroke="none">
<path d="M20 925 l0 -925 720 0 720 0 0 925 0 925 -720 0 -720 0 0 -925z
m1420 0 l0 -905 -700 0 -700 0 0 905 0 905 700 0 700 0 0 -905z"/>
<path d="M1063 1759 c-18 -5 -33 -14 -33 -20 0 -6 9 -8 20 -4 18 6 20 2 20
-40 0 -30 4 -44 11 -40 6 4 9 26 7 48 -2 33 1 43 15 45 19 4 24 22 5 21 -7 0
-28 -5 -45 -10z"/>
<path d="M112 1748 c-22 -22 -14 -48 18 -59 31 -11 38 -23 19 -34 -5 -4 -19 1
-30 11 -25 23 -37 10 -14 -16 22 -25 51 -26 64 -2 8 14 12 15 22 5 19 -19 46
-16 62 7 14 20 14 19 25 -5 17 -37 38 -31 65 20 l16 30 1 -32 c0 -18 5 -33 11
-33 7 0 10 12 7 30 -5 37 -2 37 24 5 23 -29 38 -32 39 -7 0 13 2 13 9 -4 12
-31 25 -36 54 -23 46 21 46 77 0 97 -39 18 -52 14 -57 -15 l-4 -28 -2 28 c0
15 -5 27 -10 27 -6 0 -7 -16 -4 -35 3 -19 3 -35 -1 -35 -3 0 -20 15 -36 33
-16 17 -30 26 -30 18 0 -11 -3 -11 -15 -1 -13 11 -15 7 -15 -23 0 -19 -7 -40
-15 -47 -12 -10 -16 -8 -25 14 -5 14 -7 32 -4 40 3 8 1 17 -5 21 -6 3 -11 -2
-11 -12 -1 -17 -1 -17 -11 0 -15 26 -57 22 -70 -7 -9 -19 -16 -22 -38 -17 -35
10 -34 35 2 39 15 2 25 8 22 13 -9 13 -49 11 -63 -3z m389 -28 c10 -6 19 -19
19 -30 0 -16 -26 -40 -44 -40 -3 0 -6 18 -6 40 0 43 2 45 31 30z m-254 -15 c6
-18 -25 -58 -38 -49 -11 6 -12 48 -2 57 12 12 33 7 40 -8z"/>
<path d="M556 1747 c-22 -16 -12 -45 20 -53 13 -3 24 -9 24 -13 0 -15 -23 -29
-38 -24 -9 4 -13 1 -10 -7 7 -22 23 -22 48 -2 28 23 22 48 -15 62 -29 11 -25
30 6 30 10 0 19 5 19 10 0 14 -33 12 -54 -3z"/>
<path d="M1223 1753 c-21 -4 -23 -10 -23 -59 0 -53 0 -54 29 -54 17 0 33 5 36
10 4 6 -5 10 -19 10 -32 0 -34 17 -3 23 l22 4 -22 8 c-31 10 -29 33 2 41 14 3
25 10 25 15 0 9 -8 10 -47 2z"/>
<path d="M690 1696 c0 -61 14 -73 71 -61 29 7 30 8 23 53 -3 26 -11 52 -16 57
-6 6 -7 -9 -2 -42 l7 -53 -32 0 c-30 0 -31 1 -31 44 0 25 -4 48 -10 51 -6 4
-10 -15 -10 -49z"/>
<path d="M800 1747 c-9 -9 2 -107 11 -101 5 3 7 10 4 15 -9 14 0 11 40 -12 26
-16 44 -20 70 -15 19 4 35 12 35 17 0 6 -12 8 -29 4 -34 -7 -52 10 -20 20 20
7 18 20 -3 20 -6 0 -13 6 -15 13 -3 8 6 12 27 12 18 0 29 4 25 10 -3 6 -22 10
-42 10 l-36 0 6 -40 c6 -44 2 -47 -28 -24 -16 12 -18 18 -7 34 18 29 15 36 -7
16 -19 -17 -20 -17 -23 4 -2 12 -5 20 -8 17z"/>
<path d="M1171 1734 c-1 -36 -51 -43 -51 -8 0 8 -5 14 -11 14 -6 0 -8 -7 -5
-16 3 -9 6 -29 6 -45 0 -16 5 -29 10 -29 6 0 10 6 10 14 0 8 7 17 16 20 23 9
24 8 24 -13 0 -11 5 -23 10 -26 12 -8 12 61 0 90 -8 19 -9 19 -9 -1z"/>
<path d="M121 1534 c-42 -53 -10 -110 48 -87 24 9 31 8 35 -3 8 -22 63 -18 71
5 8 26 42 34 55 13 7 -14 9 -11 10 14 0 18 -9 42 -20 55 -23 28 -33 19 -51
-44 -8 -31 -14 -38 -32 -35 -19 3 -22 8 -19 41 2 22 -1 37 -7 37 -6 0 -11 -13
-11 -28 0 -35 -39 -58 -71 -42 -23 13 -23 13 -3 52 12 24 21 29 40 25 16 -3
23 0 21 7 -7 23 -45 17 -66 -10z m197 -32 c2 -7 -3 -12 -12 -12 -9 0 -16 7
-16 16 0 17 22 14 28 -4z"/>
<path d="M591 1508 c-1 -33 3 -58 9 -58 6 0 9 3 9 8 -6 38 41 46 59 10 9 -20
11 -16 11 29 1 28 -3 55 -9 58 -6 4 -10 -5 -10 -19 0 -38 -42 -36 -57 2 -10
24 -11 22 -12 -30z"/>
<path d="M863 1554 c-8 -3 -13 -24 -13 -50 0 -40 -2 -44 -25 -44 -23 0 -25 4
-25 46 0 27 -4 43 -10 39 -14 -9 -12 -82 3 -92 6 -4 27 -8 45 -9 23 0 32 4 32
15 0 9 14 22 30 28 29 11 30 10 30 -18 0 -27 2 -29 40 -29 22 0 40 5 40 10 0
6 -13 10 -30 10 -21 0 -30 5 -30 16 0 10 6 14 15 10 9 -3 15 0 15 9 0 8 -8 15
-17 15 -23 0 -4 18 22 20 42 5 46 1 43 -40 -3 -51 6 -58 47 -36 39 22 50 52
29 84 -14 21 -19 22 -82 16 -79 -8 -100 -8 -127 -1 -11 3 -26 4 -32 1z m44
-31 c2 -6 -5 -17 -16 -23 -19 -10 -21 -8 -21 15 0 19 5 26 17 23 9 -2 18 -8
20 -15z m187 -5 c8 -13 6 -22 -8 -37 -28 -31 -46 -26 -46 12 0 19 3 37 7 41
11 11 35 3 47 -16z"/>
<path d="M358 1539 c-27 -15 -22 -28 18 -45 29 -12 33 -18 24 -29 -6 -8 -18
-11 -26 -8 -16 6 -19 -12 -4 -22 16 -10 50 14 50 36 0 11 -11 24 -25 31 -32
15 -32 28 1 28 14 0 23 4 19 10 -8 13 -35 12 -57 -1z"/>
<path d="M442 1538 c-19 -19 -14 -36 15 -50 33 -16 31 -34 -3 -31 -13 1 -24
-2 -24 -7 0 -15 20 -22 46 -16 34 9 33 52 -1 68 -34 15 -32 28 5 28 17 0 30 5
30 10 0 14 -54 12 -68 -2z"/>
<path d="M697 1543 c-10 -9 -9 -101 1 -107 14 -8 82 6 82 17 0 5 -15 7 -35 4
-26 -4 -35 -2 -35 8 0 7 9 17 20 20 11 3 20 10 20 15 0 4 -9 6 -20 3 -14 -4
-20 0 -20 11 0 10 9 16 24 16 14 0 28 5 31 10 7 11 -57 14 -68 3z"/>
<path d="M1115 1469 c-10 -15 3 -25 16 -12 7 7 7 13 1 17 -6 3 -14 1 -17 -5z"/>
<path d="M245 1263 c8 -87 29 -194 46 -225 20 -37 20 -11 0 63 -11 41 -23 111
-26 157 -4 45 -11 82 -17 82 -6 0 -7 -29 -3 -77z"/>
<path d="M902 1214 c1 -56 2 -60 5 -21 4 48 16 61 28 30 6 -16 8 -15 26 7 l21
25 -6 -47 c-3 -26 -1 -50 4 -53 6 -4 10 6 10 22 0 15 3 37 5 48 3 11 1 27 -5
35 -8 13 -11 13 -27 -2 -16 -17 -18 -17 -40 4 l-23 21 2 -69z"/>
<path d="M1135 1260 c-8 -24 -21 -26 -29 -5 -3 8 -10 15 -17 15 -6 0 -2 -15
10 -34 12 -18 21 -43 21 -55 0 -11 5 -21 11 -21 6 0 9 12 8 28 -2 15 2 37 9
49 7 12 12 26 12 32 0 19 -18 12 -25 -9z"/>
<path d="M1187 1272 c-15 -3 -17 -12 -15 -54 3 -59 25 -81 58 -60 12 7 20 8
20 2 0 -5 18 -10 40 -10 22 0 40 5 40 10 0 6 -13 10 -30 10 -20 0 -30 5 -30
15 0 8 7 15 15 15 8 0 15 5 15 10 0 6 -7 10 -15 10 -8 0 -15 7 -15 15 0 9 9
15 25 15 14 0 25 5 25 10 0 6 -16 10 -35 10 -34 0 -35 -1 -35 -37 0 -25 -3
-33 -9 -24 -5 7 -6 21 -4 31 6 21 -22 39 -50 32z m24 -35 c-13 -13 -26 -3 -16
12 3 6 11 8 17 5 6 -4 6 -10 -1 -17z m16 -43 c6 -16 -15 -37 -29 -28 -4 3 -8
14 -8 25 0 23 28 26 37 3z"/>
<path d="M565 1228 c-7 -42 -20 -56 -29 -32 -5 13 -9 14 -21 4 -11 -9 -15 -5
-21 24 -3 20 -11 36 -16 36 -9 0 -5 -34 8 -82 6 -20 19 -23 29 -7 5 6 11 4 19
-7 19 -25 33 -11 42 43 l8 48 6 -45 c5 -44 6 -45 43 -48 21 -2 37 1 37 7 0 6
-13 11 -30 11 -36 0 -41 24 -7 35 l22 8 -22 4 c-31 6 -29 23 1 23 14 0 28 5
31 10 4 7 -12 10 -44 9 -50 -2 -50 -2 -56 -41z"/>
<path d="M688 1257 c-20 -49 2 -121 32 -102 15 9 12 25 -4 19 -12 -4 -16 6
-18 48 -2 35 -5 47 -10 35z"/>
<path d="M1022 1253 c-16 -30 -24 -93 -12 -93 5 0 10 9 10 20 0 26 37 27 56 3
12 -16 13 -16 14 9 0 62 -46 104 -68 61z m46 -21 c2 -7 -6 -12 -17 -12 -21 0
-27 11 -14 24 9 9 26 2 31 -12z"/>
<path d="M742 1213 c3 -44 5 -48 31 -51 32 -4 37 15 5 20 -20 3 -23 8 -21 41
1 20 -2 37 -8 37 -6 0 -9 -20 -7 -47z"/>
<path d="M1346 1181 c-4 -5 -2 -12 3 -15 5 -4 12 -2 15 3 4 5 2 12 -3 15 -5 4
-12 2 -15 -3z"/>
<path d="M808 1151 c-3 -17 -1 -31 3 -31 13 0 22 41 11 52 -6 6 -11 -1 -14
-21z"/>
<path d="M1121 1031 c-6 -28 -22 -69 -37 -92 -14 -22 -23 -43 -20 -46 10 -11
65 91 72 134 9 62 -2 65 -15 4z"/>
<path d="M832 920 c-50 -20 -78 -140 -47 -200 20 -38 43 -50 99 -50 25 0 46
-3 46 -7 0 -24 -39 -106 -72 -150 -21 -29 -41 -61 -44 -70 -9 -28 65 56 98
112 l29 50 -6 -70 c-3 -38 -26 -153 -51 -254 -25 -101 -41 -188 -37 -192 5 -5
26 60 47 144 20 83 40 159 43 167 3 8 20 -43 38 -115 36 -143 62 -215 77 -215
10 0 5 23 -18 79 -26 62 -84 320 -84 370 0 66 16 73 29 13 13 -64 28 -102 40
-102 9 0 -1 38 -44 175 -19 59 -21 72 -9 85 38 44 54 131 34 184 -17 47 -105
71 -168 46z m108 -20 c0 -5 9 -10 19 -10 51 0 37 -160 -17 -189 -12 -6 -41
-11 -66 -11 -36 0 -48 5 -65 26 -36 46 -20 156 26 183 23 13 103 14 103 1z"/>
<path d="M352 899 c-50 -15 -72 -72 -69 -177 2 -74 4 -82 23 -86 22 -6 21 -7
-17 -123 -22 -65 -39 -122 -39 -127 0 -26 23 18 49 95 l29 84 1 -66 c1 -72
-30 -238 -60 -326 -12 -37 -15 -53 -6 -50 13 4 52 134 62 207 11 83 21 75 49
-42 15 -62 33 -126 40 -143 21 -50 25 -13 5 50 -36 112 -61 230 -65 305 l-4
75 35 -74 c38 -80 42 -87 50 -80 2 3 -11 41 -30 85 -40 93 -47 129 -25 129 20
0 71 29 92 51 9 11 22 46 29 80 12 57 11 63 -10 97 -12 20 -30 35 -39 35 -9 0
-28 2 -42 5 -14 3 -40 1 -58 -4z m23 -55 c-38 -30 -61 -36 -32 -10 15 14 33
26 40 26 7 0 3 -8 -8 -16z m110 -75 c-10 -70 -38 -99 -98 -99 -50 0 -81 25
-75 61 2 18 13 26 48 36 25 7 61 26 80 42 19 16 39 26 44 21 4 -4 5 -32 1 -61z
m-75 46 c-7 -8 -17 -15 -23 -15 -6 0 -2 7 9 15 25 19 30 19 14 0z"/>
</g>
</svg>
