<?xml version="1.0" standalone="no"?>
<!DOCTYPE svg PUBLIC "-//W3C//DTD SVG 20010904//EN"
 "http://www.w3.org/TR/2001/REC-SVG-20010904/DTD/svg10.dtd">
<svg version="1.0" xmlns="http://www.w3.org/2000/svg"
 width="138.000000pt" height="185.000000pt" viewBox="0 0 138.000000 185.000000"
 preserveAspectRatio="xMidYMid meet">
<metadata>
Created by potrace 1.13, written by Peter Selinger 2001-2015
</metadata>
<g transform="translate(0.000000,185.000000) scale(0.100000,-0.100000)"
fill="#000000" stroke="none">
<path d="M20 925 l0 -925 665 0 665 0 0 925 0 925 -665 0 -665 0 0 -925z
m1310 0 l0 -905 -645 0 -645 0 0 905 0 905 645 0 645 0 0 -905z"/>
<path d="M110 1760 c0 -5 9 -10 20 -10 16 0 20 -8 23 -57 l3 -58 2 58 c2 54 3
57 27 57 14 0 25 5 25 10 0 6 -22 10 -50 10 -27 0 -50 -4 -50 -10z"/>
<path d="M461 1765 c-2 -5 -2 -27 -1 -47 2 -48 -12 -48 -40 -1 -17 29 -23 34
-31 22 -12 -18 -11 -60 1 -79 7 -11 10 -6 10 20 1 31 3 33 13 17 31 -49 36
-52 47 -41 6 7 10 33 7 65 -2 30 -5 50 -6 44z"/>
<path d="M730 1760 c0 -5 5 -10 10 -10 6 0 10 -20 10 -45 0 -25 5 -45 10 -45
6 0 10 20 10 45 0 38 3 45 20 45 11 0 20 5 20 10 0 6 -18 10 -40 10 -22 0 -40
-4 -40 -10z"/>
<path d="M330 1753 c-54 -7 -68 -14 -73 -33 -7 -27 -47 -27 -47 0 0 11 -4 20
-9 20 -4 0 -9 -23 -10 -50 0 -31 3 -49 9 -45 6 3 10 13 10 21 0 8 9 14 20 14
13 0 20 -7 20 -20 0 -43 20 -17 22 28 l1 47 6 -50 c6 -49 6 -50 40 -48 18 0
38 6 45 13 8 9 2 10 -26 5 -31 -6 -38 -4 -38 9 0 9 8 16 20 16 11 0 20 5 20
10 0 6 -9 10 -20 10 -30 0 -24 29 8 36 47 10 47 10 37 15 -6 3 -21 4 -35 2z"/>
<path d="M560 1750 c-13 -8 -12 -10 3 -10 15 0 18 -7 15 -42 -2 -36 -7 -44
-25 -46 -13 -2 -23 -8 -23 -14 0 -6 12 -8 31 -4 17 3 42 6 55 6 13 0 24 5 24
10 0 6 -10 10 -23 10 -20 0 -22 4 -19 40 4 34 7 40 28 40 13 0 24 5 24 10 0
13 -70 13 -90 0z"/>
<path d="M816 1738 c-33 -47 -10 -96 39 -84 35 9 31 23 -5 18 -27 -4 -30 -1
-30 22 0 34 32 52 54 30 9 -9 14 -20 10 -25 -9 -15 24 -59 45 -59 10 0 24 7
31 15 10 12 16 13 26 4 11 -9 14 -8 14 5 0 15 4 15 31 -4 38 -28 47 -21 14 10
l-25 24 22 23 c25 27 5 33 -24 6 -17 -15 -18 -15 -18 6 0 12 -4 20 -10 16 -5
-3 -19 0 -30 7 -19 11 -24 10 -39 -8 -17 -21 -18 -21 -40 -3 -30 25 -46 24
-65 -3z m164 -29 c0 -16 -49 -61 -60 -54 -15 9 -12 46 6 66 13 14 21 16 35 8
11 -5 19 -14 19 -20z"/>
<path d="M1166 1728 c-23 -55 -28 -78 -18 -78 5 0 12 9 15 20 8 31 51 26 64
-7 10 -27 11 -25 12 19 2 76 -48 107 -73 46z m52 -5 c2 -8 -5 -13 -17 -13 -12
0 -21 6 -21 16 0 18 31 15 38 -3z"/>
<path d="M118 1545 c-14 -31 3 -55 39 -55 19 0 24 -4 19 -16 -3 -9 -6 -18 -6
-20 0 -10 -39 -3 -43 9 -2 6 -8 9 -12 5 -13 -12 17 -39 39 -36 26 4 49 47 34
65 -6 7 -21 13 -35 13 -32 0 -28 34 5 38 30 5 28 22 -3 22 -17 0 -29 -8 -37
-25z"/>
<path d="M291 1547 c-13 -16 -41 -82 -41 -97 0 -18 18 -11 23 10 6 24 57 29
57 6 0 -8 5 -18 11 -22 11 -7 9 13 -7 69 -3 11 0 17 10 17 10 0 17 -13 21 -37
11 -67 13 -69 14 -17 1 42 5 53 20 57 28 7 31 0 24 -49 -4 -30 -2 -44 6 -44 7
0 11 21 11 56 l0 56 -60 -4 c-33 -2 -60 -1 -60 4 0 12 -16 9 -29 -5z m29 -38
c0 -5 -7 -9 -15 -9 -15 0 -20 12 -9 23 8 8 24 -1 24 -14z"/>
<path d="M200 1540 c-15 -9 -13 -11 13 -14 8 -1 11 -15 9 -44 -2 -25 1 -42 7
-42 6 0 11 20 11 45 0 33 4 45 15 45 8 0 15 5 15 10 0 13 -50 13 -70 0z"/>
<path d="M478 1534 c-36 -19 -35 -30 3 -43 36 -13 34 -35 -4 -39 -29 -4 -27
-22 2 -22 20 0 51 30 51 49 0 6 -12 16 -27 22 -22 8 -24 12 -13 19 8 6 27 10
43 10 25 0 27 -3 28 -47 l2 -48 10 48 c6 27 16 47 24 47 7 0 13 5 13 10 0 15
-102 11 -132 -6z"/>
<path d="M670 1523 c-13 -17 -20 -38 -18 -57 3 -29 6 -31 48 -32 25 -1 55 3
68 9 27 13 29 43 2 52 -11 3 -20 10 -20 15 0 5 9 12 20 15 19 6 28 25 12 25
-15 0 -52 -31 -52 -44 0 -7 12 -18 27 -25 25 -11 26 -14 10 -23 -10 -5 -25 -7
-33 -4 -9 3 -24 1 -35 -4 -15 -9 -21 -7 -25 5 -10 25 5 67 26 72 23 6 27 23 6
23 -8 0 -24 -12 -36 -27z"/>
<path d="M867 1528 c-50 -46 -38 -119 17 -98 14 5 27 5 33 -1 13 -13 73 0 73
16 0 7 12 15 26 18 19 3 28 -1 34 -17 8 -19 9 -19 9 7 1 32 -25 77 -44 77 -11
0 -22 -20 -39 -72 -3 -10 -15 -18 -26 -18 -19 0 -21 4 -16 48 l5 47 -12 -39
c-18 -54 -77 -75 -77 -27 0 23 45 65 61 56 7 -5 10 -3 7 5 -7 23 -25 22 -51
-2z m163 -39 c0 -5 -7 -9 -15 -9 -9 0 -12 6 -9 15 6 15 24 11 24 -6z"/>
<path d="M622 1484 c-1 -29 1 -43 8 -39 11 7 14 85 3 85 -5 0 -9 -21 -11 -46z"/>
<path d="M1076 1515 c-23 -17 -14 -32 25 -40 37 -8 33 -31 -5 -28 -23 2 -26 0
-16 -13 17 -20 36 -17 54 8 18 25 6 48 -25 48 -28 0 -23 17 9 28 l27 10 -25 1
c-14 0 -33 -6 -44 -14z"/>
<path d="M1178 1517 c-35 -14 -36 -30 -2 -46 22 -10 24 -14 13 -27 -8 -10 -15
-12 -17 -5 -5 16 -22 13 -22 -4 0 -20 29 -19 52 2 18 16 18 17 -3 39 l-21 22
21 7 c12 3 21 11 21 16 0 11 -6 10 -42 -4z"/>
<path d="M1225 1430 c-3 -5 1 -10 9 -10 9 0 16 5 16 10 0 6 -4 10 -9 10 -6 0
-13 -4 -16 -10z"/>
<path d="M528 1373 c-29 -5 -39 -23 -13 -23 9 0 15 -9 15 -24 0 -35 -10 -56
-26 -56 -8 0 -14 -4 -14 -10 0 -12 57 -12 85 0 18 8 17 9 -6 9 -25 1 -27 5
-31 47 -3 45 -3 46 25 40 20 -4 27 -2 24 7 -4 14 -19 16 -59 10z"/>
<path d="M988 1374 c-5 -4 -8 -16 -8 -26 0 -13 7 -18 26 -18 25 0 26 -2 21
-40 -7 -53 8 -51 19 3 7 33 14 43 32 45 12 2 22 8 22 13 0 12 -42 12 -74 -1
-21 -8 -25 -6 -28 11 -2 12 -6 17 -10 13z"/>
<path d="M697 1363 c-12 -3 -16 -10 -13 -20 3 -8 6 -35 6 -59 0 -50 17 -57 59
-28 22 16 24 16 33 0 13 -24 44 -20 67 10 20 25 21 26 21 5 0 -31 18 -26 22 7
l4 27 14 -28 c22 -46 44 -31 48 33 4 64 -15 59 -20 -5 l-3 -40 -19 38 c-11 23
-24 36 -32 33 -7 -3 -18 2 -24 10 -16 18 -29 18 -52 -3 -16 -15 -20 -15 -31
-1 -13 17 -53 27 -80 21z m59 -27 c18 -14 18 -17 4 -43 -9 -15 -26 -29 -38
-31 -19 -3 -22 1 -22 36 0 55 17 66 56 38z m104 -29 c0 -15 -50 -58 -60 -52
-15 9 -12 37 5 63 14 18 19 20 35 9 11 -6 20 -15 20 -20z"/>
<path d="M120 1290 c0 -50 3 -69 11 -64 7 4 9 23 5 50 -7 55 6 57 27 4 15 -38
30 -50 41 -32 12 20 18 112 7 112 -6 0 -11 -18 -11 -45 0 -25 -3 -45 -8 -45
-4 0 -16 19 -27 42 -32 67 -45 61 -45 -22z"/>
<path d="M409 1328 c0 -18 -4 -42 -9 -53 -9 -19 -9 -19 -16 3 -8 27 -13 27
-30 5 -12 -16 -13 -13 -14 22 -1 29 -3 35 -9 21 -6 -16 -8 -17 -13 -4 -4 8
-19 19 -34 22 -35 9 -54 -13 -54 -60 0 -63 53 -70 83 -11 l16 32 0 -32 c1 -32
14 -43 26 -23 4 7 12 7 25 0 24 -13 36 3 45 63 5 32 4 47 -4 47 -6 0 -11 -15
-12 -32z m-104 -18 c4 -6 -1 -22 -9 -35 -28 -42 -64 -28 -52 21 5 17 13 24 31
24 13 0 27 -5 30 -10z"/>
<path d="M1070 1250 c0 -5 5 -10 10 -10 6 0 10 5 10 10 0 6 -4 10 -10 10 -5 0
-10 -4 -10 -10z"/>
<path d="M651 1100 c-1 -64 15 -113 50 -151 40 -42 50 -29 11 15 -28 32 -34
49 -56 161 -2 11 -4 0 -5 -25z"/>
<path d="M874 984 c-41 -9 -58 -41 -62 -116 -5 -80 5 -106 50 -132 21 -13 41
-17 68 -12 l37 6 -25 -65 c-14 -36 -29 -65 -33 -65 -4 0 -14 16 -23 35 -9 19
-23 35 -31 35 -10 0 -5 -16 18 -55 17 -30 35 -55 40 -55 4 0 18 23 29 50 11
28 22 49 24 48 6 -7 -16 -155 -31 -208 -65 -233 -85 -313 -80 -318 12 -12 24
23 60 170 21 81 41 148 45 148 5 0 11 -28 15 -62 13 -110 58 -264 74 -254 5 3
0 34 -11 68 -19 60 -59 260 -61 303 -2 59 4 145 11 145 4 0 18 -45 31 -100 22
-94 31 -116 43 -105 4 4 -47 213 -66 272 -4 12 -2 24 5 28 19 12 49 88 49 127
0 45 -15 80 -41 97 -22 13 -101 22 -135 15z m98 -24 c60 -17 74 -69 41 -151
-27 -68 -109 -91 -157 -43 -22 23 -26 35 -25 83 1 69 8 89 40 107 29 16 52 17
101 4z"/>
<path d="M303 930 c-41 -17 -63 -68 -61 -140 1 -36 -1 -75 -5 -86 -6 -18 -4
-22 18 -23 53 -3 56 -4 51 -20 -11 -35 -65 -227 -66 -234 0 -5 5 -7 12 -5 7 3
20 33 29 69 l17 64 1 -57 c1 -47 -40 -239 -75 -352 -4 -12 -2 -17 6 -14 7 2
19 26 26 53 51 198 63 238 68 225 3 -8 19 -71 36 -139 16 -69 34 -129 40 -135
17 -17 11 23 -26 164 -46 175 -56 241 -45 287 5 21 9 32 10 24 3 -47 45 -171
57 -171 17 0 17 5 4 31 -11 20 -50 165 -50 187 0 6 9 12 21 12 30 0 85 59 98
105 23 83 8 135 -43 153 -38 14 -91 15 -123 2z m104 -16 c-3 -3 -12 -4 -19 -1
-8 3 -5 6 6 6 11 1 17 -2 13 -5z m-82 -34 c-27 -12 -43 -12 -25 0 8 5 22 9 30
9 10 0 8 -3 -5 -9z m132 -59 c-8 -66 -29 -105 -66 -120 -23 -10 -34 -10 -53
-1 -34 18 -58 51 -58 83 0 24 4 27 34 27 39 0 97 22 116 44 24 29 33 18 27
-33z m-138 35 c-15 -13 -49 -25 -49 -17 0 5 8 12 18 14 24 6 36 8 31 3z"/>
</g>
</svg>
