<?xml version="1.0" standalone="no"?>
<!DOCTYPE svg PUBLIC "-//W3C//DTD SVG 20010904//EN"
 "http://www.w3.org/TR/2001/REC-SVG-20010904/DTD/svg10.dtd">
<svg version="1.0" xmlns="http://www.w3.org/2000/svg"
 width="160.000000pt" height="185.000000pt" viewBox="0 0 160.000000 185.000000"
 preserveAspectRatio="xMidYMid meet">
<metadata>
Created by potrace 1.13, written by Peter Selinger 2001-2015
</metadata>
<g transform="translate(0.000000,185.000000) scale(0.100000,-0.100000)"
fill="#000000" stroke="none">
<path d="M0 925 l0 -925 795 0 795 0 0 925 0 925 -795 0 -795 0 0 -925z m1570
0 l0 -905 -775 0 -775 0 0 905 0 905 775 0 775 0 0 -905z"/>
<path d="M110 1763 c-14 -3 -29 -9 -35 -15 -7 -7 -1 -9 18 -4 27 6 27 6 27
-43 0 -41 -4 -51 -20 -56 -34 -11 -22 -21 20 -17 38 4 68 22 36 22 -12 0 -16
11 -16 50 0 37 4 50 14 50 8 0 18 5 21 10 6 10 -18 11 -65 3z"/>
<path d="M518 1755 c-3 -3 -41 -6 -84 -6 -47 -1 -82 -6 -87 -12 -6 -9 -10 -9
-14 1 -9 23 -23 12 -17 -13 8 -34 -3 -75 -21 -75 -19 0 -25 13 -29 55 -5 52
-16 56 -16 6 0 -79 44 -110 74 -52 12 23 20 27 41 23 31 -5 27 -28 -4 -25 -25
3 -28 -12 -5 -21 10 -4 25 1 34 9 12 11 20 13 24 6 4 -6 40 -10 81 -10 65 0
77 3 90 22 18 26 20 68 3 85 -12 12 -60 17 -70 7z m-98 -51 c0 -17 -4 -24 -12
-20 -7 3 -21 9 -30 12 -25 9 -22 23 5 33 29 11 37 6 37 -25z m90 -5 c0 -39 0
-39 -40 -39 -29 0 -40 4 -40 15 0 8 9 15 20 15 11 0 20 5 20 10 0 6 -7 10 -15
10 -18 0 -20 17 -2 23 6 2 22 4 35 4 19 0 22 -5 22 -38z m69 27 c20 -24 -11
-76 -45 -76 -2 0 -4 20 -4 45 0 37 3 45 19 45 10 0 24 -6 30 -14z"/>
<path d="M635 1750 c-4 -6 13 -10 44 -10 47 0 65 -10 41 -25 -16 -10 -12 -61
6 -76 19 -15 38 -6 68 34 17 23 18 30 7 53 -8 19 -17 25 -31 21 -11 -3 -23 -1
-26 4 -7 12 -101 11 -109 -1z m153 -44 c4 -20 -25 -56 -45 -56 -18 0 -16 45 3
65 19 19 38 15 42 -9z"/>
<path d="M865 1750 c-18 -8 -17 -9 8 -9 26 -1 27 -3 28 -53 1 -42 3 -48 9 -28
4 14 8 40 9 58 1 17 6 32 12 32 7 0 10 -20 7 -55 -1 -30 0 -55 5 -55 4 0 7 9
7 20 0 11 6 20 14 20 8 0 21 3 30 6 11 4 16 0 16 -14 0 -12 5 -24 10 -27 6 -4
10 15 10 49 0 55 -15 78 -22 34 -2 -17 -11 -24 -30 -26 -26 -3 -27 -1 -24 27
3 30 2 31 -33 30 -20 0 -45 -4 -56 -9z"/>
<path d="M1077 1754 c-10 -11 -9 -114 2 -114 6 0 11 19 13 43 l3 42 25 -42
c14 -24 30 -41 35 -40 14 5 19 107 6 107 -6 0 -11 -17 -12 -37 l0 -38 -17 24
c-33 48 -47 62 -55 55z"/>
<path d="M1190 1696 c0 -31 5 -56 10 -56 6 0 10 7 10 15 0 12 9 9 40 -11 51
-34 62 -26 15 10 -38 29 -43 47 -20 66 8 7 15 17 15 23 0 6 -10 1 -23 -11 -27
-25 -39 -28 -31 -8 3 8 1 17 -5 21 -7 4 -11 -13 -11 -49z"/>
<path d="M1040 1696 c0 -25 5 -48 10 -51 6 -4 10 13 10 44 0 28 -4 51 -10 51
-5 0 -10 -20 -10 -44z"/>
<path d="M680 1685 c0 -25 5 -45 10 -45 6 0 10 20 10 45 0 25 -4 45 -10 45 -5
0 -10 -20 -10 -45z"/>
<path d="M85 1519 c-9 -16 -15 -45 -13 -62 3 -31 4 -32 45 -29 23 1 44 -2 48
-8 10 -16 24 -12 50 16 l25 27 0 -27 c0 -16 4 -25 10 -21 6 3 10 16 10 27 0
21 0 21 25 -2 14 -13 28 -20 32 -16 5 5 -2 15 -13 23 l-22 14 24 25 c14 13 27
24 29 24 3 0 6 -24 6 -52 1 -29 4 -43 6 -30 5 26 20 28 51 6 25 -17 30 -3 6
17 -14 11 -14 13 0 21 23 13 20 55 -4 68 -16 8 -28 8 -50 -4 -17 -8 -32 -10
-36 -5 -7 13 -58 11 -71 -2 -6 -6 -9 -19 -6 -28 3 -10 -3 -8 -16 7 -33 37 -58
25 -81 -40 -13 -39 -50 -39 -50 0 0 36 29 80 41 61 4 -7 11 -10 14 -7 11 11
-5 28 -25 28 -12 0 -26 -13 -35 -31z m315 1 c13 -8 13 -11 -2 -26 -22 -22 -48
-12 -41 15 6 23 19 26 43 11z m-92 -12 c-7 -20 -48 -23 -48 -4 0 11 9 16 26
16 16 0 24 -5 22 -12z m-104 -17 c15 -16 15 -22 4 -40 -25 -41 -57 -17 -44 34
8 30 17 31 40 6z"/>
<path d="M1117 1530 c-11 -16 -21 -20 -36 -15 -19 6 -21 2 -21 -39 0 -25 4
-46 10 -46 5 0 7 13 3 32 -5 27 -4 30 11 25 12 -5 24 1 38 15 l19 23 -5 -47
c-3 -29 -2 -48 4 -48 9 0 15 54 10 90 -3 28 -18 32 -33 10z"/>
<path d="M1177 1543 c-11 -10 -8 -103 3 -103 6 0 10 8 10 19 0 13 9 20 30 23
23 4 30 1 30 -13 0 -17 27 -29 68 -29 20 0 22 4 21 58 -1 31 -3 46 -6 32 -10
-64 -13 -70 -39 -70 -26 0 -26 1 -19 47 6 41 5 45 -8 34 -10 -8 -17 -9 -22 -1
-7 11 -58 14 -68 3z m47 -9 c25 -10 19 -34 -9 -34 -24 0 -34 18 -18 33 8 8 8
8 27 1z"/>
<path d="M1372 1538 c-18 -18 -16 -107 3 -114 8 -4 41 -2 72 2 44 7 60 15 76
36 17 23 19 32 9 52 -13 30 -44 41 -72 26 -15 -8 -20 -21 -20 -55 0 -43 -1
-45 -30 -45 -25 0 -30 4 -30 25 0 17 6 25 18 25 16 1 16 1 0 14 -21 16 -13 26
19 26 13 0 23 5 23 10 0 14 -54 12 -68 -2z m142 -30 c15 -24 -3 -52 -36 -56
-23 -3 -25 0 -21 25 8 47 12 55 29 51 9 -2 22 -11 28 -20z"/>
<path d="M453 1533 c-20 -7 -17 -99 3 -107 9 -3 20 -3 26 0 6 4 37 6 69 5 46
-1 59 2 59 14 0 21 39 19 57 -2 13 -16 14 -13 10 25 -5 37 -3 42 15 42 16 0
19 -6 17 -34 -2 -19 0 -38 4 -42 4 -4 7 11 7 34 0 31 4 42 15 42 8 0 15 5 15
11 0 6 -17 9 -43 8 -24 -2 -49 1 -56 6 -17 10 -40 -18 -48 -57 -4 -21 -11 -28
-29 -28 -21 0 -24 5 -24 41 0 24 -4 38 -10 34 -5 -3 -10 -22 -10 -41 0 -20 -5
-34 -12 -34 -7 0 -23 -3 -35 -6 -19 -5 -23 -2 -23 15 0 15 6 21 21 21 12 0 17
4 14 11 -4 6 -13 8 -21 5 -8 -3 -14 1 -14 9 0 8 9 16 20 16 33 2 38 4 46 12 8
8 -53 8 -73 0z m205 -41 c2 -7 -5 -12 -17 -12 -14 0 -19 5 -14 15 6 17 25 15
31 -3z"/>
<path d="M807 1522 c-21 -23 -22 -56 -1 -76 20 -21 30 -20 54 4 l20 20 0 -21
c0 -11 5 -17 10 -14 6 3 10 18 10 33 1 29 3 27 37 -25 10 -16 13 -16 22 -3 13
19 14 100 2 100 -6 0 -11 -19 -13 -42 l-3 -43 -17 36 c-20 46 -34 55 -42 26
l-6 -22 -15 23 c-19 27 -36 28 -58 4z m48 -37 c0 -23 -4 -30 -20 -30 -21 0
-31 25 -21 51 11 28 41 12 41 -21z"/>
<path d="M1030 1518 c0 -14 -3 -40 -6 -57 -4 -18 -2 -31 4 -31 12 0 22 92 10
105 -4 5 -8 -2 -8 -17z"/>
<path d="M760 1479 c0 -31 4 -48 10 -44 6 3 10 26 10 51 0 24 -4 44 -10 44 -5
0 -10 -23 -10 -51z"/>
<path d="M81 1314 c-27 -35 -28 -80 0 -94 11 -7 28 -8 37 -4 9 4 22 6 29 5 6
-1 14 8 18 19 8 26 45 26 52 0 5 -19 23 -29 23 -12 0 17 -23 88 -32 100 -15
17 -32 1 -48 -47 -19 -57 -80 -70 -80 -17 0 29 34 61 55 52 11 -4 15 -2 13 6
-8 24 -45 20 -67 -8z m129 -25 c0 -5 -7 -9 -15 -9 -15 0 -20 12 -9 23 8 8 24
-1 24 -14z"/>
<path d="M346 1321 c-22 -24 -20 -30 10 -41 30 -12 27 -36 -5 -33 -24 3 -29
-12 -6 -21 26 -9 45 5 45 34 0 17 -7 30 -17 35 -17 6 -17 7 0 20 14 10 15 14
3 18 -8 3 -21 -2 -30 -12z"/>
<path d="M417 1293 c-8 -27 -12 -52 -9 -58 4 -5 8 -2 10 8 4 22 52 24 52 2 0
-8 5 -15 10 -15 16 0 5 68 -15 90 -26 29 -33 25 -48 -27z m38 -11 c-22 -5 -27
1 -19 23 7 17 8 17 21 -1 12 -17 12 -19 -2 -22z"/>
<path d="M500 1329 l-25 -7 23 -7 c18 -6 22 -15 23 -49 l2 -41 10 47 c6 29 16
48 26 51 10 2 7 5 -9 8 -14 3 -36 2 -50 -2z"/>
<path d="M621 1327 c-6 -8 -14 -28 -17 -45 -11 -57 38 -85 69 -39 l16 22 0
-23 c1 -34 21 -16 21 18 0 42 14 44 33 5 18 -37 37 -46 37 -17 0 9 3 34 6 55
5 24 3 37 -5 37 -6 0 -11 -13 -11 -30 0 -37 -6 -38 -32 -5 -24 31 -38 32 -38
3 -1 -22 -2 -21 -16 5 -16 29 -45 35 -63 14z m48 -24 c14 -26 -19 -80 -41 -67
-19 12 0 84 22 84 5 0 13 -8 19 -17z"/>
<path d="M300 1292 c0 -23 -6 -45 -15 -52 -12 -10 -16 -8 -25 15 -6 15 -8 36
-5 46 4 11 2 19 -4 19 -12 0 -14 -42 -5 -77 13 -50 74 -9 74 49 0 15 -4 30
-10 33 -6 4 -10 -9 -10 -33z"/>
<path d="M577 1288 c-3 -24 -2 -47 2 -51 5 -5 11 11 14 35 3 24 2 47 -2 51 -5
5 -11 -11 -14 -35z"/>
<path d="M1072 1320 c-2 -3 -4 -34 -6 -70 -2 -36 -13 -92 -24 -125 -22 -65
-22 -83 1 -38 23 44 39 133 35 188 -3 28 -5 48 -6 45z"/>
<path d="M800 1245 c0 -8 5 -15 10 -15 6 0 10 7 10 15 0 8 -4 15 -10 15 -5 0
-10 -7 -10 -15z"/>
<path d="M841 1048 c-53 -15 -78 -36 -95 -79 -31 -77 -13 -171 38 -204 17 -11
40 -16 66 -13 22 2 40 1 40 -2 0 -11 -51 -146 -75 -198 -27 -58 -30 -72 -17
-72 8 0 35 54 67 134 20 50 28 42 16 -15 -5 -24 -17 -80 -25 -124 -9 -44 -27
-111 -40 -150 -30 -90 -41 -155 -27 -155 6 0 11 6 11 14 0 8 15 65 34 127 19
63 38 128 42 144 7 29 7 29 20 -20 40 -147 89 -279 103 -271 5 3 -2 33 -15 66
-14 33 -39 113 -55 177 -28 105 -30 126 -24 202 8 95 13 93 44 -24 29 -107 30
-107 40 -101 10 6 -12 93 -53 217 -21 63 -22 67 -4 78 22 14 54 75 68 133 16
60 -4 108 -53 131 -39 19 -56 20 -106 5z m100 -23 c54 -29 58 -85 12 -177 -47
-95 -153 -107 -189 -23 -18 44 -18 85 1 132 16 41 42 62 90 74 46 11 54 10 86
-6z"/>
<path d="M313 1009 c-43 -13 -79 -59 -92 -119 -22 -104 -6 -169 38 -155 12 3
21 3 21 -2 0 -4 -16 -60 -35 -123 -34 -108 -38 -149 -15 -135 6 4 8 11 4 16
-3 5 5 40 17 77 l23 67 9 -50 c9 -53 -4 -186 -28 -280 -20 -80 -28 -135 -18
-135 11 0 36 112 54 233 6 42 15 77 19 77 10 0 40 -73 79 -190 17 -52 36 -102
41 -110 15 -24 24 -2 10 27 -7 16 -28 72 -46 127 -18 54 -44 117 -57 140 -16
26 -27 66 -32 109 -8 76 5 89 25 25 15 -53 50 -122 56 -115 3 3 -13 55 -35
116 -23 61 -41 114 -41 118 0 5 15 8 34 9 19 0 46 8 61 18 49 32 78 132 59
202 -3 13 -24 29 -55 42 -54 24 -51 24 -96 11z m51 -28 c-17 -4 -37 -11 -45
-15 -8 -4 -5 0 5 8 11 9 31 16 45 15 24 -1 24 -2 -5 -8z m26 -26 c0 -8 -82
-47 -87 -41 -3 3 14 14 38 25 52 23 49 22 49 16z m60 -60 c0 -108 -91 -171
-164 -114 -27 21 -36 67 -13 73 68 18 130 43 143 58 25 27 34 22 34 -17z"/>
</g>
</svg>
