<?xml version="1.0" standalone="no"?>
<!DOCTYPE svg PUBLIC "-//W3C//DTD SVG 20010904//EN"
 "http://www.w3.org/TR/2001/REC-SVG-20010904/DTD/svg10.dtd">
<svg version="1.0" xmlns="http://www.w3.org/2000/svg"
 width="1388.000000pt" height="502.000000pt" viewBox="0 0 1388.000000 502.000000"
 preserveAspectRatio="xMidYMid meet">
<metadata>
Created by potrace 1.13, written by Peter Selinger 2001-2015
</metadata>
<g transform="translate(0.000000,502.000000) scale(0.100000,-0.100000)"
fill="#000000" stroke="none">
<path d="M4240 4668 c-15 -21 -17 -28 -6 -19 16 13 41 51 33 51 -2 0 -14 -15
-27 -32z"/>
<path d="M3830 4605 c-18 -19 -20 -25 -8 -25 8 0 20 11 26 25 6 14 10 25 9 25
-2 0 -14 -11 -27 -25z"/>
<path d="M4185 4600 c-10 -11 -33 -23 -52 -26 -24 -4 -37 -14 -44 -31 -5 -13
-16 -26 -24 -29 -9 -4 -14 -16 -13 -32 3 -22 -3 -28 -37 -41 -52 -19 -51 -18
-32 -39 26 -29 21 -59 -12 -76 -40 -21 -121 -114 -121 -140 0 -30 -10 -41 -55
-62 -23 -11 -41 -27 -44 -39 -2 -11 -19 -37 -38 -58 -18 -21 -39 -49 -45 -61
-14 -33 -53 -53 -71 -38 -17 15 -31 3 -17 -13 15 -18 2 -44 -25 -51 -13 -3
-40 -28 -62 -55 -85 -111 -85 -110 -112 -107 -39 4 -38 33 3 92 38 55 47 93
21 82 -22 -8 -19 26 5 57 24 30 26 47 5 47 -8 0 -15 9 -15 21 0 29 -17 15 -38
-34 -10 -23 -26 -48 -35 -55 -9 -8 -21 -29 -28 -49 -6 -19 -29 -61 -50 -93
-21 -33 -39 -63 -39 -68 0 -5 -11 -19 -25 -32 -14 -13 -25 -27 -25 -32 0 -4
-13 -29 -29 -55 -16 -27 -32 -63 -36 -82 -4 -19 -17 -42 -28 -51 -15 -13 -20
-27 -19 -57 2 -35 -2 -42 -22 -47 -13 -3 -31 -17 -40 -31 -29 -44 -78 -85
-102 -85 -19 0 -25 9 -40 58 -10 31 -18 69 -19 83 -1 14 -8 46 -17 70 -19 52
-36 131 -37 178 -1 19 -13 73 -26 120 -14 47 -25 97 -25 112 0 15 -7 44 -16
65 -9 22 -18 48 -20 59 -2 11 -13 54 -24 95 -34 119 -36 178 -10 246 56 150
56 149 -51 133 -41 -6 -87 -13 -104 -15 -216 -23 -235 -23 -294 0 -43 16 -46
16 -71 -2 -14 -11 -40 -23 -58 -27 -18 -4 -32 -10 -30 -13 32 -62 32 -59 10
-124 -11 -35 -24 -84 -28 -111 -3 -26 -10 -50 -15 -53 -5 -3 -9 -13 -9 -22 0
-9 -12 -39 -25 -67 -13 -27 -29 -72 -35 -100 -7 -27 -18 -63 -26 -78 -8 -16
-17 -46 -20 -68 -4 -22 -11 -42 -15 -45 -5 -3 -9 -14 -9 -25 0 -10 -4 -27 -9
-37 -20 -42 -40 -117 -32 -125 5 -5 -3 -27 -19 -50 -15 -23 -37 -75 -49 -114
-13 -40 -27 -75 -32 -78 -5 -4 -9 -23 -9 -44 0 -21 -6 -43 -13 -49 -7 -6 -14
-28 -15 -49 -2 -20 -7 -42 -11 -48 -5 -5 -11 -25 -14 -43 -4 -18 -15 -42 -26
-53 -10 -11 -25 -48 -32 -81 -8 -34 -20 -68 -28 -76 -8 -7 -23 -45 -33 -84
-10 -39 -28 -84 -38 -99 -11 -15 -20 -36 -20 -47 0 -10 -11 -36 -26 -57 -26
-39 -46 -80 -88 -180 -13 -33 -40 -94 -59 -135 -19 -41 -40 -91 -48 -110 -7
-19 -22 -51 -33 -70 -11 -19 -22 -43 -23 -54 -2 -11 -10 -30 -18 -43 -8 -12
-15 -33 -15 -45 0 -30 -21 -85 -48 -128 -12 -19 -22 -41 -22 -47 0 -7 -4 -13
-8 -13 -7 0 -31 -47 -83 -165 -12 -27 -21 -52 -19 -53 1 -2 -9 -16 -23 -30
-23 -26 -69 -113 -73 -140 -2 -8 -10 -22 -19 -32 -9 -9 -18 -33 -22 -53 -3
-22 -13 -39 -28 -47 -14 -7 -35 -38 -50 -74 -14 -33 -33 -74 -42 -90 -15 -27
-15 -30 1 -41 25 -19 20 -54 -9 -65 -14 -5 -31 -9 -37 -7 -7 1 -21 -16 -32
-38 -12 -22 -26 -44 -33 -50 -26 -21 -92 -169 -87 -192 5 -19 0 -26 -29 -38
-23 -9 -38 -25 -47 -47 -7 -18 -25 -45 -38 -60 -14 -16 -22 -28 -17 -28 5 0
-1 -10 -13 -23 -19 -20 -20 -26 -8 -42 13 -18 16 -17 65 24 28 24 51 49 51 57
0 8 18 33 40 55 22 23 40 49 40 59 0 10 7 23 15 30 8 7 28 35 45 64 53 90 86
121 127 121 35 0 38 3 82 80 49 86 68 97 124 76 37 -14 35 -51 -4 -95 -35 -40
-33 -66 7 -92 27 -18 45 -10 66 30 9 17 8 19 -3 8 -18 -17 -48 -15 -56 4 -3 8
7 40 21 71 27 54 28 55 62 49 39 -8 68 5 85 36 11 20 9 21 -19 15 -41 -8 -54
9 -37 49 13 31 54 52 75 39 13 -8 90 54 90 72 0 7 9 22 20 33 11 11 20 31 20
44 0 16 14 36 40 59 28 24 40 42 40 61 0 15 11 38 25 52 14 14 25 28 25 31 0
4 6 14 13 22 8 9 22 36 31 60 10 25 33 61 52 80 18 19 43 56 55 81 12 24 30
56 40 69 12 14 17 32 13 46 -4 16 1 28 20 43 22 17 58 78 123 207 61 122 136
261 150 276 8 9 15 27 17 40 2 20 122 281 157 343 6 10 13 30 16 45 2 14 17
53 32 86 15 33 38 85 51 115 12 30 32 78 45 105 12 28 26 70 30 95 4 25 16 60
27 78 11 17 17 32 14 32 -3 0 4 21 16 47 11 26 23 63 25 83 8 60 36 76 81 44
15 -10 22 -25 22 -48 0 -19 9 -45 21 -60 11 -14 17 -26 13 -26 -4 0 1 -9 11
-20 13 -14 16 -28 11 -51 -4 -22 0 -42 16 -70 19 -34 20 -42 9 -63 -12 -21
-11 -29 7 -63 23 -43 32 -76 38 -150 2 -29 13 -73 24 -98 19 -45 20 -45 44
-30 22 14 27 14 60 -1 32 -16 36 -22 36 -55 0 -31 -4 -38 -28 -48 -16 -7 -41
-9 -55 -5 -26 6 -27 5 -27 -35 0 -23 -5 -50 -12 -60 -10 -16 -5 -26 33 -70 24
-28 54 -53 67 -57 12 -3 22 -11 22 -16 0 -18 -29 -38 -57 -39 -26 0 -27 -1 -7
-11 12 -5 27 -21 33 -35 11 -24 13 -24 30 -9 25 23 49 20 93 -10 43 -31 44
-31 22 -56 -16 -17 -15 -19 8 -37 20 -16 24 -28 23 -67 0 -41 -3 -49 -20 -53
-30 -5 -85 -70 -85 -100 0 -13 64 -41 94 -41 33 0 145 60 151 81 4 11 20 33
36 50 31 32 29 22 34 219 1 65 36 244 54 277 5 10 33 90 61 178 33 102 72 200
109 270 40 76 60 127 65 165 6 42 14 60 36 80 38 34 131 171 124 182 -12 19 7
56 51 100 27 28 45 55 45 69 0 14 17 40 43 65 61 60 107 123 107 148 0 12 7
31 15 42 8 10 15 29 15 40 0 12 7 27 16 35 8 7 28 40 43 73 15 34 35 67 44 75
9 7 17 19 17 25 0 13 55 67 84 81 11 6 33 29 49 53 16 23 35 42 42 42 23 0 75
85 75 122 0 19 5 39 11 45 8 8 6 18 -6 37 -11 16 -16 39 -13 61 2 19 3 35 3
35 -1 0 -10 -9 -20 -20z m-1695 -380 c0 -5 -11 -10 -25 -10 -14 0 -25 5 -25
10 0 6 11 10 25 10 14 0 25 -4 25 -10z m200 -1055 c0 -8 -4 -15 -10 -15 -5 0
-10 7 -10 15 0 8 5 15 10 15 6 0 10 -7 10 -15z m-1509 -1707 c43 -12 47 -19
23 -43 -36 -35 -116 2 -85 39 16 19 14 19 62 4z m-36 -67 c28 -10 50 -25 50
-32 0 -8 -17 -22 -37 -31 -33 -16 -38 -23 -38 -53 0 -28 -5 -37 -30 -50 -58
-30 -109 -10 -96 39 3 13 17 31 31 40 17 11 25 26 25 46 0 19 8 34 22 44 12 9
23 16 23 16 0 0 23 -9 50 -19z"/>
<path d="M3713 4455 c-9 -25 4 -29 17 -6 7 15 7 21 0 21 -6 0 -13 -7 -17 -15z"/>
<path d="M3741 4392 c-6 -15 -23 -41 -37 -57 -51 -59 -77 -96 -70 -102 7 -8
83 72 101 107 13 27 28 80 21 80 -2 0 -9 -13 -15 -28z"/>
<path d="M7191 4295 c-158 -37 -414 -144 -496 -207 -5 -5 -38 -26 -72 -48 -34
-22 -127 -105 -206 -183 -112 -109 -162 -167 -215 -247 -83 -127 -182 -316
-182 -349 0 -7 25 -11 68 -11 l68 0 22 43 c105 206 172 304 300 436 81 84 241
210 316 251 241 130 408 177 661 187 157 6 301 -10 410 -44 192 -60 239 -79
295 -114 14 -9 63 -40 110 -69 220 -138 426 -366 542 -602 l48 -98 69 0 70 0
-20 53 c-184 478 -599 847 -1112 989 -108 30 -121 31 -342 34 -215 3 -237 2
-334 -21z"/>
<path d="M3595 4299 c-4 -6 -5 -12 -2 -15 2 -3 7 2 10 11 7 17 1 20 -8 4z"/>
<path d="M3469 4135 c-39 -53 -70 -98 -67 -100 2 -3 37 40 76 95 39 55 70 100
67 100 -2 0 -36 -43 -76 -95z"/>
<path d="M3473 4020 c-9 -13 -9 -21 -2 -26 12 -7 29 13 29 34 0 18 -14 15 -27
-8z"/>
<path d="M7113 3856 c-27 -24 -28 -27 -28 -123 1 -61 8 -125 19 -168 20 -78
71 -225 93 -269 30 -59 103 -106 167 -106 72 -1 167 -94 241 -237 16 -32 38
-69 47 -82 10 -13 18 -33 18 -45 0 -12 4 -26 9 -31 5 -6 28 -55 50 -110 23
-55 46 -108 51 -117 15 -27 53 -140 56 -168 21 -175 16 -212 -42 -281 -32 -39
-34 -45 -28 -88 10 -68 126 -283 183 -340 9 -9 27 -31 40 -50 33 -46 98 -91
133 -91 16 0 45 12 64 26 41 32 57 27 83 -23 58 -115 21 -266 -91 -369 -94
-86 -260 -151 -463 -179 -395 -56 -803 60 -1119 318 -208 170 -406 458 -483
705 l-25 82 -70 0 -70 0 6 -32 c3 -17 29 -87 56 -155 28 -68 50 -128 50 -133
0 -13 152 -261 198 -321 39 -52 202 -223 232 -244 8 -6 42 -33 75 -61 33 -28
80 -63 105 -77 153 -88 192 -108 255 -132 39 -15 79 -31 90 -36 51 -23 261
-68 365 -79 248 -26 545 26 739 130 42 23 87 52 102 66 14 13 29 24 33 24 18
0 96 97 121 148 36 76 48 144 42 237 -6 88 -21 133 -74 212 l-34 52 25 38 c45
69 54 134 42 283 -3 30 -8 66 -10 80 -3 14 -8 39 -12 55 -13 62 -65 234 -109
360 -25 72 -47 135 -49 140 -2 6 -7 21 -13 35 -6 14 -20 51 -32 84 -12 32 -33
77 -46 100 -13 22 -37 73 -54 111 -16 39 -45 97 -64 130 -19 33 -67 117 -106
186 -40 69 -84 138 -97 154 -13 15 -24 32 -24 37 0 19 -172 238 -212 270 -84
67 -212 108 -338 108 -58 0 -73 -4 -97 -24z"/>
<path d="M6918 3766 c-113 -57 -138 -97 -138 -224 0 -94 25 -192 75 -295 57
-117 104 -149 186 -126 24 7 49 13 54 14 6 2 27 10 48 18 l37 16 -26 38 c-29
43 -74 128 -80 152 -2 9 -13 42 -24 75 -22 65 -45 186 -55 289 -4 41 -11 67
-18 66 -7 0 -33 -10 -59 -23z"/>
<path d="M4578 3140 c-20 -5 -24 -17 -39 -115 -10 -61 -23 -139 -29 -175 -33
-194 -67 -420 -69 -459 -1 -24 -6 -66 -11 -93 -6 -28 -10 -55 -10 -59 0 -12
177 -11 184 0 7 10 30 142 41 231 14 111 19 123 56 155 22 18 42 25 70 25 92
0 101 -32 65 -240 -14 -82 -26 -156 -26 -165 0 -12 16 -15 89 -15 50 0 93 4
96 10 13 21 59 328 59 395 0 58 -4 76 -24 107 -61 90 -195 98 -292 17 -26 -22
-49 -35 -52 -30 -3 4 -1 32 4 62 5 30 21 119 35 199 13 80 25 146 25 147 0 5
-153 7 -172 3z"/>
<path d="M5694 3142 c-19 -3 -23 -15 -38 -110 -10 -59 -31 -189 -47 -290 -17
-100 -28 -186 -24 -191 3 -5 1 -12 -5 -16 -5 -3 -10 -25 -10 -48 0 -23 -7 -80
-15 -127 -24 -139 -29 -130 69 -130 93 0 100 4 109 65 3 22 13 85 22 140 9 55
16 115 17 133 1 18 5 35 9 38 4 2 6 15 3 29 -2 13 0 27 6 30 6 4 8 11 5 16 -3
5 -1 35 4 66 20 105 61 363 61 377 0 11 -18 15 -72 18 -40 2 -83 2 -94 0z"/>
<path d="M6063 3118 c-17 -4 -46 -25 -62 -45 -82 -100 6 -217 118 -158 38 19
75 94 66 134 -11 52 -67 84 -122 69z"/>
<path d="M3503 3096 c-34 -29 -58 -93 -49 -130 8 -33 38 -64 70 -72 60 -15
146 64 146 133 0 81 -103 123 -167 69z"/>
<path d="M8487 3083 c-4 -3 -7 -181 -7 -395 0 -304 3 -388 13 -388 8 0 4751 0
4900 0 4 0 7 178 7 395 l0 395 -2453 0 c-1350 0 -2457 -3 -2460 -7z m2412
-169 c5 -4 -11 -47 -95 -260 -35 -89 -64 -167 -64 -175 0 -7 -8 -30 -17 -51
-12 -26 -23 -38 -37 -38 -47 1 -47 11 -1 130 25 63 45 119 45 124 0 9 62 172
84 221 8 17 17 38 20 49 5 14 12 17 34 11 15 -4 29 -8 31 -11z m-1848 -47 c54
-36 69 -77 69 -188 0 -81 -4 -103 -23 -140 -62 -119 -223 -96 -253 36 -14 63
-12 179 3 202 9 13 12 23 9 23 -14 0 30 54 59 71 41 26 95 24 136 -4z m345 4
l24 -19 -40 -50 c-46 -57 -47 -62 -20 -62 38 0 89 -28 104 -59 23 -43 20 -117
-5 -158 -78 -125 -283 -52 -265 94 10 76 128 273 163 273 8 0 26 -8 39 -19z
m358 5 c49 -20 76 -61 76 -113 0 -56 -40 -135 -93 -181 -15 -13 -25 -28 -21
-33 3 -5 32 -9 65 -9 l59 0 0 -35 0 -35 -140 0 c-77 0 -140 3 -140 6 0 3 34
48 75 99 120 151 131 177 99 223 -22 32 -55 25 -74 -15 -14 -29 -19 -33 -59
-33 l-43 0 6 32 c18 88 103 131 190 94z m371 -1 c28 -12 41 -27 56 -61 30 -68
15 -120 -60 -206 -23 -25 -41 -51 -41 -57 0 -7 23 -11 60 -11 l60 0 0 -35 0
-35 -140 0 c-106 0 -140 3 -140 13 0 7 19 33 43 57 128 136 166 220 117 265
-25 22 -48 13 -61 -25 -10 -27 -15 -30 -55 -30 -40 0 -44 2 -44 25 0 39 20 71
58 93 44 26 96 28 147 7z m353 -197 l2 -208 -40 0 -40 0 -2 168 -3 167 -27 3
c-24 3 -28 8 -28 36 0 18 3 36 7 40 4 4 34 6 68 4 l60 -3 3 -207z m693 202
c18 -10 19 -23 19 -210 l0 -200 -50 0 -50 0 0 170 c0 163 -1 170 -20 170 -16
0 -20 7 -20 33 0 19 3 37 7 40 10 11 92 8 114 -3z m397 -17 c49 -36 54 -115
12 -161 -18 -19 -19 -23 -5 -28 38 -15 56 -96 32 -144 -57 -113 -257 -79 -257
43 0 35 21 90 39 104 15 11 15 13 0 25 -42 34 -28 134 24 168 40 26 115 23
155 -7z m384 -115 c3 -141 3 -143 26 -146 32 -5 28 -55 -5 -60 -19 -3 -23 -10
-23 -38 0 -34 0 -34 -45 -34 -45 0 -45 0 -45 35 l0 35 -86 0 -87 0 6 33 c4 28
57 130 77 147 7 7 70 110 70 116 0 3 7 16 16 29 13 19 25 25 55 25 l38 0 3
-142z m406 133 c14 -8 -2 -43 -90 -195 -22 -37 -58 -104 -79 -147 -22 -44 -41
-79 -44 -79 -10 0 -75 34 -75 40 0 3 17 33 39 66 35 54 121 222 121 237 0 3
-37 7 -82 9 -79 3 -83 4 -86 27 -6 43 19 51 157 51 69 0 132 -4 139 -9z m308
-34 c81 -94 65 -309 -28 -367 -48 -30 -119 -23 -154 16 -67 71 -83 190 -41
294 30 74 73 104 142 97 42 -4 54 -10 81 -40z m336 29 c19 -8 40 -26 46 -41
19 -40 15 -99 -8 -125 l-20 -23 21 -23 c31 -34 40 -87 20 -126 -21 -42 -75
-78 -117 -78 -120 0 -180 107 -113 201 19 27 19 31 5 51 -19 27 -21 87 -4 124
23 49 103 68 170 40z"/>
<path d="M8943 2793 c-14 -21 -18 -48 -18 -120 0 -87 2 -94 27 -119 l26 -27
25 27 c50 54 49 190 -1 249 -21 24 -39 21 -59 -10z"/>
<path d="M9297 2662 c-10 -11 -17 -35 -17 -59 0 -68 55 -96 98 -50 28 29 28
67 1 101 -24 30 -59 34 -82 8z"/>
<path d="M11454 2804 c-23 -34 -9 -78 26 -82 46 -7 72 76 31 98 -29 15 -39 13
-57 -16z"/>
<path d="M11452 2637 c-23 -27 -23 -62 -2 -85 24 -25 39 -27 65 -8 21 15 25
67 5 90 -15 19 -54 21 -68 3z"/>
<path d="M11827 2675 c-34 -70 -34 -75 3 -75 l30 0 0 65 c0 36 -1 65 -3 65 -2
0 -15 -25 -30 -55z"/>
<path d="M12534 2799 c-26 -29 -33 -169 -10 -222 15 -37 43 -48 72 -29 33 22
50 115 34 187 -18 81 -57 107 -96 64z"/>
<path d="M12907 2812 c-21 -23 -21 -41 -1 -70 29 -41 77 -20 77 35 0 26 -25
53 -48 53 -7 0 -19 -8 -28 -18z"/>
<path d="M12913 2645 c-31 -22 -35 -62 -8 -93 20 -23 25 -25 49 -14 45 20 44
86 -3 111 -13 7 -24 6 -38 -4z"/>
<path d="M5272 2957 c-9 -11 -17 -57 -24 -144 -1 -7 -14 -13 -29 -13 -36 0
-46 -20 -55 -104 l-7 -66 33 0 c31 0 32 -1 27 -32 -23 -125 -57 -336 -57 -351
0 -16 9 -17 93 -15 l92 3 32 190 c17 105 32 193 32 198 1 4 26 7 56 7 30 0 55
1 55 3 1 1 7 36 14 77 8 41 12 78 9 83 -2 4 -27 7 -54 7 l-50 0 7 53 c4 28 8
66 8 82 l1 30 -86 3 c-63 2 -89 -1 -97 -11z"/>
<path d="M3940 2804 c-249 -67 -360 -411 -173 -536 81 -55 199 -56 278 -2 20
13 40 24 45 24 17 0 11 -43 -15 -98 -28 -60 -65 -82 -136 -82 -33 0 -47 6 -69
30 -28 30 -30 30 -130 30 l-103 0 6 -45 c9 -59 23 -80 78 -116 101 -65 284
-70 391 -12 70 38 133 119 157 203 21 70 47 215 57 320 3 36 14 110 24 165 10
55 15 104 11 108 -4 4 -48 7 -97 5 -89 -3 -89 -3 -92 -30 -4 -34 -9 -35 -34
-3 -11 14 -41 31 -70 40 -61 18 -58 18 -128 -1z m163 -184 c36 -28 44 -79 22
-136 -22 -57 -67 -87 -131 -87 -58 0 -89 17 -110 60 -15 33 -15 38 1 79 9 23
32 57 51 74 29 25 43 30 88 30 39 0 60 -6 79 -20z"/>
<path d="M6595 2809 c-23 -5 -56 -25 -77 -45 -39 -39 -60 -38 -56 4 l3 27 -92
3 c-89 3 -93 2 -97 -20 -7 -36 -48 -299 -52 -333 -1 -16 -4 -30 -5 -30 -1 0
-2 -16 -4 -35 -1 -19 -5 -59 -9 -87 l-8 -53 96 0 c53 0 96 2 96 5 0 3 6 49 14
103 15 101 25 173 30 207 10 73 108 121 175 85 33 -17 34 -51 7 -217 -14 -87
-26 -164 -26 -171 0 -9 26 -12 93 -12 l94 0 33 204 c19 121 30 218 26 237 -9
46 -44 97 -78 115 -38 20 -112 26 -163 13z"/>
<path d="M7184 2806 c-111 -28 -205 -110 -243 -214 -29 -80 -35 -133 -21 -191
13 -56 62 -131 85 -131 8 0 15 -4 15 -10 0 -16 100 -40 168 -40 122 0 220 46
283 133 l31 42 -90 3 c-76 2 -95 0 -124 -18 -39 -24 -107 -26 -147 -5 -32 16
-41 33 -41 76 l0 29 213 2 212 3 3 65 c2 36 -2 82 -8 103 -14 48 -82 123 -128
142 -49 21 -149 26 -208 11z m121 -131 c34 -14 62 -56 49 -76 -3 -5 -54 -9
-115 -9 -121 0 -130 6 -80 54 24 23 61 39 104 45 4 1 23 -6 42 -14z"/>
<path d="M3434 2788 c-7 -10 -94 -516 -94 -545 0 -15 185 -19 194 -5 9 15 47
254 47 297 0 11 8 71 19 134 11 63 17 118 14 122 -8 14 -172 11 -180 -3z"/>
<path d="M5945 2788 c-3 -12 -29 -169 -41 -248 -2 -19 -7 -62 -10 -95 -3 -33
-12 -91 -19 -130 -7 -38 -11 -73 -8 -77 2 -5 44 -8 93 -8 85 0 90 1 95 23 12
55 46 278 51 335 3 34 11 94 18 132 8 38 11 72 8 75 -3 3 -45 5 -94 5 -62 0
-90 -4 -93 -12z"/>
<path d="M8914 2073 c-39 -110 -148 -334 -187 -385 -42 -56 -87 -126 -87 -135
0 -4 -10 -17 -22 -30 -19 -20 -20 -25 -8 -33 19 -12 97 -13 102 -1 2 5 18 17
35 28 18 11 43 34 55 51 72 98 88 122 116 173 33 60 123 279 140 342 l10 37
-68 0 -68 0 -18 -47z"/>
<path d="M7642 1995 c-17 -14 -33 -25 -38 -25 -14 0 -74 -72 -80 -97 -23 -89
82 -302 205 -419 18 -18 54 -38 79 -45 39 -11 52 -10 95 5 41 15 127 62 127
71 0 1 -37 40 -83 86 -114 116 -209 264 -237 369 -24 95 -22 93 -68 55z"/>
<path d="M930 710 c0 -5 5 -10 10 -10 6 0 10 5 10 10 0 6 -4 10 -10 10 -5 0
-10 -4 -10 -10z"/>
</g>
</svg>
