<?xml version="1.0" standalone="no"?>
<!DOCTYPE svg PUBLIC "-//W3C//DTD SVG 20010904//EN"
 "http://www.w3.org/TR/2001/REC-SVG-20010904/DTD/svg10.dtd">
<svg version="1.0" xmlns="http://www.w3.org/2000/svg"
 width="258.000000pt" height="177.000000pt" viewBox="0 0 258.000000 177.000000"
 preserveAspectRatio="xMidYMid meet">
<metadata>
Created by potrace 1.13, written by Peter Selinger 2001-2015
</metadata>
<g transform="translate(0.000000,177.000000) scale(0.100000,-0.100000)"
fill="#000000" stroke="none">
<path d="M160 1575 c0 -43 4 -75 10 -75 6 0 10 32 10 75 0 43 -4 75 -10 75 -6
0 -10 -32 -10 -75z"/>
<path d="M383 1630 c-15 -38 -2 -124 20 -128 9 -2 17 1 17 7 0 6 -4 11 -10 11
-15 0 -12 67 3 73 9 4 9 8 1 14 -7 4 -14 17 -16 28 -4 18 -6 18 -15 -5z"/>
<path d="M440 1575 c0 -80 17 -104 22 -32 2 34 7 42 23 42 16 0 21 -8 23 -42
4 -56 22 -55 22 1 0 48 -18 71 -50 63 -16 -4 -20 0 -20 19 0 13 -4 24 -10 24
-6 0 -10 -32 -10 -75z"/>
<path d="M1030 1626 c0 -19 -4 -22 -25 -19 -32 7 -53 -34 -39 -75 8 -22 16
-27 47 -29 l37 -1 0 74 c0 43 -4 74 -10 74 -5 0 -10 -11 -10 -24z m-5 -71 c0
-23 -4 -30 -20 -30 -21 0 -31 25 -21 51 11 28 41 12 41 -21z"/>
<path d="M1193 1630 c-15 -38 -2 -124 20 -128 9 -2 17 1 17 7 0 6 -4 11 -10
11 -15 0 -12 67 3 73 9 4 9 8 1 14 -7 4 -14 17 -16 28 -4 18 -6 18 -15 -5z"/>
<path d="M1250 1575 c0 -80 17 -104 22 -32 2 34 7 42 23 42 16 0 21 -8 23 -42
4 -56 22 -55 22 1 0 48 -18 71 -50 63 -16 -4 -20 0 -20 19 0 13 -4 24 -10 24
-6 0 -10 -32 -10 -75z"/>
<path d="M1810 1640 c0 -5 5 -10 10 -10 6 0 10 5 10 10 0 6 -4 10 -10 10 -5 0
-10 -4 -10 -10z"/>
<path d="M1973 1630 c-15 -38 -2 -124 20 -128 9 -2 17 1 17 7 0 6 -4 11 -10
11 -15 0 -12 67 3 73 9 4 9 8 1 14 -7 4 -14 17 -16 28 -4 18 -6 18 -15 -5z"/>
<path d="M2030 1576 l0 -74 37 1 c31 2 39 7 47 29 14 41 -7 82 -39 75 -21 -3
-25 0 -25 19 0 13 -4 24 -10 24 -6 0 -10 -31 -10 -74z m65 -21 c0 -23 -4 -30
-20 -30 -21 0 -31 25 -21 51 11 28 41 12 41 -21z"/>
<path d="M2440 1626 c0 -19 -4 -22 -25 -19 -32 7 -53 -34 -39 -75 8 -22 16
-27 47 -29 l37 -1 0 74 c0 43 -4 74 -10 74 -5 0 -10 -11 -10 -24z m-5 -71 c0
-23 -4 -30 -20 -30 -21 0 -31 25 -21 51 11 28 41 12 41 -21z"/>
<path d="M210 1553 c0 -63 17 -72 22 -10 2 34 7 42 23 42 16 0 21 -8 23 -42 4
-56 22 -55 22 1 0 51 -13 65 -58 64 -32 -1 -32 -1 -32 -55z"/>
<path d="M566 1594 c-34 -33 -9 -94 38 -94 13 0 29 7 36 15 10 13 7 14 -25 12
-23 -1 -40 3 -42 11 -3 8 8 12 36 12 29 0 41 4 41 14 0 20 -28 46 -50 46 -10
0 -26 -7 -34 -16z m59 -14 c4 -6 -7 -10 -25 -10 -18 0 -29 4 -25 10 3 6 15 10
25 10 10 0 22 -4 25 -10z"/>
<path d="M746 1594 c-20 -20 -20 -58 0 -78 20 -20 58 -21 74 -1 10 13 7 14
-25 12 -23 -1 -40 3 -42 11 -3 8 8 12 36 12 29 0 41 4 41 14 0 20 -28 46 -50
46 -10 0 -26 -7 -34 -16z m59 -14 c4 -6 -7 -10 -25 -10 -18 0 -29 4 -25 10 3
6 15 10 25 10 10 0 22 -4 25 -10z"/>
<path d="M850 1553 c0 -63 17 -72 22 -10 2 34 7 42 23 42 16 0 21 -8 23 -42 4
-56 22 -55 22 1 0 51 -13 65 -58 64 -32 -1 -32 -1 -32 -55z"/>
<path d="M1376 1594 c-34 -33 -9 -94 38 -94 13 0 29 7 36 15 10 13 7 14 -25
12 -23 -1 -40 3 -42 11 -3 8 8 12 36 12 29 0 41 4 41 14 0 20 -28 46 -50 46
-10 0 -26 -7 -34 -16z m59 -14 c4 -6 -7 -10 -25 -10 -18 0 -29 4 -25 10 3 6
15 10 25 10 10 0 22 -4 25 -10z"/>
<path d="M1536 1588 c14 -46 35 -88 43 -88 4 0 12 19 18 43 l9 42 8 -42 c9
-52 21 -54 40 -10 23 55 28 77 18 77 -5 0 -15 -19 -22 -41 l-14 -41 -10 37
c-6 20 -15 36 -21 36 -5 0 -15 -16 -21 -36 l-10 -37 -14 41 c-7 22 -17 41 -22
41 -5 0 -6 -10 -2 -22z"/>
<path d="M1703 1604 c-27 -11 -12 -23 22 -17 44 7 46 -11 3 -23 -26 -8 -33
-15 -33 -34 0 -23 4 -25 45 -26 l45 -1 -5 51 c-5 48 -7 51 -35 53 -16 1 -36 0
-42 -3z m55 -66 c-5 -16 -48 -24 -48 -10 0 11 17 20 38 21 8 1 12 -5 10 -11z"/>
<path d="M1810 1555 c0 -30 5 -55 10 -55 6 0 10 25 10 55 0 30 -4 55 -10 55
-5 0 -10 -25 -10 -55z"/>
<path d="M1870 1595 c-18 -22 -6 -41 29 -48 45 -9 40 -31 -5 -24 -30 5 -34 4
-24 -8 26 -31 90 -6 77 29 -3 8 -19 17 -36 21 -44 9 -40 29 5 22 30 -5 34 -4
24 8 -16 19 -54 19 -70 0z"/>
<path d="M2153 1604 c-27 -11 -12 -23 22 -17 44 7 46 -11 3 -23 -26 -8 -33
-15 -33 -34 0 -23 4 -25 45 -26 l45 -1 -5 51 c-5 48 -7 51 -35 53 -16 1 -36 0
-42 -3z m55 -66 c-5 -16 -48 -24 -48 -10 0 11 17 20 38 21 8 1 12 -5 10 -11z"/>
<path d="M2260 1553 c0 -63 17 -72 22 -10 2 34 7 42 23 42 16 0 21 -8 23 -42
4 -56 22 -55 22 1 0 51 -13 65 -58 64 -32 -1 -32 -1 -32 -55z"/>
<path d="M1084 1496 c0 -13 4 -22 9 -19 10 6 9 43 -2 43 -5 0 -8 -11 -7 -24z"/>
<path d="M300 1400 c0 -5 5 -10 10 -10 6 0 10 5 10 10 0 6 -4 10 -10 10 -5 0
-10 -4 -10 -10z"/>
<path d="M350 1335 c0 -43 4 -75 10 -75 6 0 10 32 10 75 0 43 -4 75 -10 75 -6
0 -10 -32 -10 -75z"/>
<path d="M390 1335 c0 -43 4 -75 10 -75 6 0 10 32 10 75 0 43 -4 75 -10 75 -6
0 -10 -32 -10 -75z"/>
<path d="M1020 1378 c-11 -18 -20 -46 -20 -63 0 -26 32 -95 44 -95 3 0 -2 16
-10 35 -7 19 -14 46 -14 60 0 14 7 41 14 60 19 44 12 45 -14 3z"/>
<path d="M1073 1390 c-15 -38 -2 -124 20 -128 9 -2 17 1 17 7 0 6 -4 11 -10
11 -15 0 -12 67 3 73 9 4 9 8 1 14 -7 4 -14 17 -16 28 -4 18 -6 18 -15 -5z"/>
<path d="M1423 1390 c-15 -38 -2 -124 20 -128 9 -2 17 1 17 7 0 6 -4 11 -10
11 -15 0 -12 67 3 73 9 4 9 8 1 14 -7 4 -14 17 -16 28 -4 18 -6 18 -15 -5z"/>
<path d="M1836 1375 c7 -19 14 -46 14 -60 0 -14 -7 -41 -14 -60 -8 -19 -13
-35 -10 -35 12 0 44 69 44 95 0 26 -32 95 -44 95 -3 0 2 -16 10 -35z"/>
<path d="M146 1348 c14 -46 35 -88 43 -88 4 0 12 19 18 43 l9 42 8 -42 c9 -52
21 -54 40 -10 23 55 28 77 18 77 -5 0 -15 -19 -22 -41 l-14 -41 -10 37 c-6 20
-15 36 -21 36 -5 0 -15 -16 -21 -36 l-10 -37 -14 41 c-7 22 -17 41 -22 41 -5
0 -6 -10 -2 -22z"/>
<path d="M300 1315 c0 -30 5 -55 10 -55 6 0 10 25 10 55 0 30 -4 55 -10 55 -5
0 -10 -25 -10 -55z"/>
<path d="M500 1355 c-18 -22 -6 -41 29 -48 45 -9 40 -31 -5 -24 -30 5 -34 4
-24 -8 26 -31 90 -6 77 29 -3 8 -19 17 -36 21 -44 9 -40 29 5 22 30 -5 34 -4
24 8 -16 19 -54 19 -70 0z"/>
<path d="M600 1313 c0 -63 17 -72 22 -10 2 34 7 42 23 42 16 0 21 -8 23 -42 4
-56 22 -55 22 1 0 51 -13 65 -58 64 -32 -1 -32 -1 -32 -55z"/>
<path d="M723 1364 c-27 -11 -12 -23 22 -17 44 7 46 -11 3 -23 -26 -8 -33 -15
-33 -34 0 -23 4 -25 45 -26 l45 -1 -5 51 c-5 48 -7 51 -35 53 -16 1 -36 0 -42
-3z m55 -66 c-5 -16 -48 -24 -48 -10 0 11 17 20 38 21 8 1 12 -5 10 -11z"/>
<path d="M830 1294 c0 -43 4 -74 10 -74 6 0 10 11 10 24 0 19 4 22 25 19 32
-7 53 34 39 75 -8 22 -16 27 -47 29 l-37 1 0 -74z m65 21 c0 -23 -4 -30 -20
-30 -21 0 -31 25 -21 51 11 28 41 12 41 -21z"/>
<path d="M1130 1313 c0 -29 5 -53 10 -53 6 0 10 18 10 41 0 32 4 42 20 46 30
8 24 22 -10 21 -29 -1 -30 -2 -30 -55z"/>
<path d="M1200 1326 c0 -51 13 -65 58 -64 32 1 32 1 32 55 0 63 -17 72 -22 11
-2 -35 -7 -43 -23 -43 -16 0 -21 8 -23 43 -4 55 -22 54 -22 -2z"/>
<path d="M1320 1355 c-18 -22 -6 -41 29 -48 45 -9 40 -31 -5 -24 -30 5 -34 4
-24 -8 26 -31 90 -6 77 29 -3 8 -19 17 -36 21 -44 9 -40 29 5 22 30 -5 34 -4
24 8 -16 19 -54 19 -70 0z"/>
<path d="M1540 1313 c0 -63 17 -72 22 -11 2 31 8 44 21 46 14 3 17 -4 17 -42
0 -58 18 -61 22 -4 2 31 8 44 21 46 14 3 17 -4 17 -42 0 -25 5 -46 10 -46 6 0
10 23 10 50 0 56 -17 73 -51 51 -11 -6 -19 -7 -19 -1 0 5 -16 9 -35 8 l-35 -1
0 -54z"/>
<path d="M1716 1354 c-34 -33 -9 -94 38 -94 13 0 29 7 36 15 10 13 7 14 -25
12 -23 -1 -40 3 -42 11 -3 8 8 12 36 12 29 0 41 4 41 14 0 20 -28 46 -50 46
-10 0 -26 -7 -34 -16z m59 -14 c4 -6 -7 -10 -25 -10 -18 0 -29 4 -25 10 3 6
15 10 25 10 10 0 22 -4 25 -10z"/>
<path d="M1900 1270 c0 -5 5 -10 10 -10 6 0 10 5 10 10 0 6 -4 10 -10 10 -5 0
-10 -4 -10 -10z"/>
<path d="M1560 864 c-228 -26 -522 -37 -1006 -38 -293 -1 -313 0 -333 18 -21
19 -21 19 -21 -2 0 -15 -5 -20 -15 -16 -9 4 -15 0 -15 -10 0 -9 6 -16 13 -16
7 0 5 -5 -5 -10 -11 -7 -15 -20 -13 -38 2 -15 4 -31 4 -35 1 -5 9 -7 19 -5 12
2 19 16 22 43 l5 40 260 2 c349 3 923 20 960 29 17 4 113 7 215 8 183 0 321
-14 345 -37 17 -16 -85 -183 -109 -179 -10 2 -27 -4 -37 -14 -17 -15 -19 -15
-19 -1 0 57 -62 6 -80 -66 -13 -52 -38 -108 -39 -86 -1 13 -51 59 -65 59 -8 0
-52 -85 -71 -135 -24 -68 -31 -73 -40 -28 -4 21 -13 49 -21 63 -8 14 -18 38
-24 54 -9 24 -14 27 -38 22 -15 -4 -37 -17 -48 -31 -13 -13 -25 -20 -30 -15
-5 5 -14 6 -20 2 -18 -12 -52 -105 -59 -162 -7 -53 -35 -123 -54 -134 -11 -7
-41 77 -41 115 0 49 -17 81 -42 77 -21 -3 -23 1 -23 52 0 54 0 55 -30 55 -22
0 -35 -8 -51 -32 -12 -18 -24 -29 -28 -25 -4 3 -18 -7 -30 -23 -13 -17 -30
-30 -38 -30 -7 0 -30 -31 -50 -70 -34 -64 -37 -67 -38 -38 0 39 -20 85 -34 80
-12 -3 -47 -67 -66 -120 -11 -30 -12 -31 -20 -10 -5 12 -14 50 -20 84 -14 79
-58 189 -75 189 -7 0 -30 -7 -50 -16 -42 -17 -55 -9 -55 32 0 33 -11 35 -48
12 -25 -15 -37 -18 -40 -10 -2 7 -9 12 -15 12 -7 0 -19 15 -27 33 -12 25 -22
33 -47 35 -26 3 -34 -2 -49 -28 -31 -52 -49 -35 -52 50 -2 54 -7 78 -19 87
-10 8 -13 20 -9 37 9 38 -12 32 -22 -6 -7 -23 -6 -36 3 -43 6 -5 15 -45 18
-88 4 -43 9 -83 13 -88 12 -20 54 -8 76 21 30 41 61 37 68 -8 4 -23 13 -37 34
-48 28 -14 32 -13 58 6 27 20 28 20 28 1 0 -52 33 -65 91 -36 l30 16 24 -53
c14 -30 31 -88 39 -131 27 -137 55 -152 96 -50 32 79 40 86 40 34 0 -44 14
-81 31 -81 5 0 25 34 44 75 20 45 40 75 49 75 8 0 23 13 33 30 9 16 24 29 32
27 8 -1 25 14 38 33 35 50 47 51 38 1 -9 -56 2 -101 25 -101 10 0 22 6 27 13
5 7 10 -10 14 -44 8 -71 37 -133 65 -137 25 -4 67 68 84 143 25 113 29 123 50
118 14 -4 23 4 37 33 20 43 55 54 61 19 2 -11 11 -28 19 -37 10 -11 18 -45 21
-88 2 -38 9 -70 13 -70 16 0 70 97 108 193 11 27 12 27 30 10 10 -10 21 -27
23 -38 10 -56 69 25 98 136 l12 47 21 -21 20 -20 18 21 c9 12 24 20 31 17 19
-7 61 36 83 83 22 46 46 70 64 64 10 -3 12 1 9 16 -4 15 -2 19 8 15 20 -8 17
14 -3 26 -17 10 -17 10 0 11 11 0 17 6 14 13 -2 6 -14 12 -26 11 -15 0 -18 3
-11 10 5 5 10 16 10 22 0 10 -5 10 -25 0 -21 -11 -39 -11 -102 0 -81 14 -284
25 -343 18z"/>
<path d="M1610 790 c-80 -5 -157 -15 -189 -25 -47 -15 -79 -16 -250 -9 -228 9
-241 9 -341 0 -41 -4 -174 -3 -295 1 -222 9 -278 6 -273 -12 3 -11 15 -11 383
-13 138 -1 322 -2 410 -4 276 -5 337 -3 406 15 75 19 362 28 442 13 29 -5 47
-5 47 1 0 12 -135 44 -175 41 -16 0 -91 -5 -165 -8z"/>
</g>
</svg>
