<?xml version="1.0" standalone="no"?>
<!DOCTYPE svg PUBLIC "-//W3C//DTD SVG 20010904//EN"
 "http://www.w3.org/TR/2001/REC-SVG-20010904/DTD/svg10.dtd">
<svg version="1.0" xmlns="http://www.w3.org/2000/svg"
 width="330.000000pt" height="184.000000pt" viewBox="0 0 330.000000 184.000000"
 preserveAspectRatio="xMidYMid meet">
<metadata>
Created by potrace 1.13, written by Peter Selinger 2001-2015
</metadata>
<g transform="translate(0.000000,184.000000) scale(0.100000,-0.100000)"
fill="#000000" stroke="none">
<path d="M150 1688 c-13 -35 -25 -69 -27 -75 -3 -7 0 -13 6 -13 6 0 13 11 17
25 5 20 12 25 39 25 27 0 34 -5 39 -25 4 -14 11 -25 17 -25 6 0 9 6 6 13 -2 6
-14 40 -27 75 -12 34 -28 62 -35 62 -7 0 -23 -28 -35 -62z m49 -5 c1 -7 -6
-13 -14 -13 -17 0 -18 4 -8 39 6 23 7 23 14 5 4 -10 8 -25 8 -31z"/>
<path d="M933 1730 c-15 -38 -2 -124 20 -128 9 -2 17 1 17 7 0 6 -4 11 -10 11
-15 0 -12 67 3 73 9 4 9 8 1 14 -7 4 -14 17 -16 28 -4 18 -6 18 -15 -5z"/>
<path d="M990 1675 c0 -80 17 -104 22 -32 2 34 7 42 23 42 16 0 21 -8 23 -42
4 -56 22 -55 22 1 0 48 -18 71 -50 63 -16 -4 -20 0 -20 19 0 13 -4 24 -10 24
-6 0 -10 -32 -10 -75z"/>
<path d="M1223 1730 c-15 -38 -2 -124 20 -128 9 -2 17 1 17 7 0 6 -4 11 -10
11 -15 0 -12 67 3 73 9 4 9 8 1 14 -7 4 -14 17 -16 28 -4 18 -6 18 -15 -5z"/>
<path d="M2540 1726 c0 -19 -4 -22 -25 -19 -32 7 -53 -34 -39 -75 8 -22 16
-27 47 -29 l37 -1 0 74 c0 43 -4 74 -10 74 -5 0 -10 -11 -10 -24z m-5 -71 c0
-23 -4 -30 -20 -30 -21 0 -31 25 -21 51 11 28 41 12 41 -21z"/>
<path d="M270 1695 c-18 -22 -6 -41 29 -48 45 -9 40 -31 -5 -24 -30 5 -34 4
-24 -8 26 -31 90 -6 77 29 -3 8 -19 17 -36 21 -44 9 -40 29 5 22 30 -5 34 -4
24 8 -16 19 -54 19 -70 0z"/>
<path d="M380 1695 c-18 -22 -6 -41 29 -48 45 -9 40 -31 -5 -24 -30 5 -34 4
-24 -8 26 -31 90 -6 77 29 -3 8 -19 17 -36 21 -44 9 -40 29 5 22 30 -5 34 -4
24 8 -16 19 -54 19 -70 0z"/>
<path d="M480 1666 c0 -51 13 -65 58 -64 32 1 32 1 32 55 0 63 -17 72 -22 11
-2 -35 -7 -43 -23 -43 -16 0 -21 8 -23 43 -4 55 -22 54 -22 -2z"/>
<path d="M590 1653 c0 -63 17 -72 22 -11 2 31 8 44 21 46 14 3 17 -4 17 -42 0
-58 18 -61 22 -4 2 31 8 44 21 46 14 3 17 -4 17 -42 0 -25 5 -46 10 -46 6 0
10 23 10 50 0 56 -17 73 -51 51 -11 -6 -19 -7 -19 -1 0 5 -16 9 -35 8 l-35 -1
0 -54z"/>
<path d="M766 1694 c-20 -20 -20 -58 0 -78 20 -20 58 -21 74 -1 10 13 7 14
-25 12 -23 -1 -40 3 -42 11 -3 8 8 12 36 12 29 0 41 4 41 14 0 20 -28 46 -50
46 -10 0 -26 -7 -34 -16z m59 -14 c4 -6 -7 -10 -25 -10 -18 0 -29 4 -25 10 3
6 15 10 25 10 10 0 22 -4 25 -10z"/>
<path d="M1113 1704 c-27 -11 -12 -23 22 -17 44 7 46 -11 3 -23 -26 -8 -33
-15 -33 -34 0 -23 4 -25 45 -26 l45 -1 -5 51 c-5 48 -7 51 -35 53 -16 1 -36 0
-42 -3z m55 -66 c-5 -16 -48 -24 -48 -10 0 11 17 20 38 21 8 1 12 -5 10 -11z"/>
<path d="M1346 1688 c3 -13 13 -36 21 -51 16 -32 11 -57 -12 -57 -8 0 -15 -5
-15 -11 0 -6 10 -9 22 -7 16 2 27 15 39 48 25 69 31 100 19 100 -6 0 -13 -14
-17 -30 -8 -43 -17 -44 -32 -4 -14 37 -37 48 -25 12z"/>
<path d="M1466 1694 c-32 -32 -10 -94 34 -94 26 0 50 27 50 55 0 28 -24 55
-50 55 -10 0 -26 -7 -34 -16z m59 -39 c0 -25 -4 -30 -25 -30 -16 0 -26 6 -28
18 -6 30 6 49 30 45 18 -2 23 -9 23 -33z"/>
<path d="M1570 1666 c0 -51 13 -65 58 -64 32 1 32 1 32 55 0 63 -17 72 -22 11
-2 -35 -7 -43 -23 -43 -16 0 -21 8 -23 43 -4 55 -22 54 -22 -2z"/>
<path d="M1680 1653 c0 -29 5 -53 10 -53 6 0 10 18 10 41 0 32 4 42 20 46 30
8 24 22 -10 21 -29 -1 -30 -2 -30 -55z"/>
<path d="M1810 1653 c0 -63 17 -72 22 -10 2 34 7 42 23 42 16 0 21 -8 23 -42
4 -56 22 -55 22 1 0 51 -13 65 -58 64 -32 -1 -32 -1 -32 -55z"/>
<path d="M1936 1694 c-34 -33 -9 -94 38 -94 13 0 29 7 36 15 10 13 7 14 -25
12 -23 -1 -40 3 -42 11 -3 8 8 12 36 12 29 0 41 4 41 14 0 20 -28 46 -50 46
-10 0 -26 -7 -34 -16z m59 -14 c4 -6 -7 -10 -25 -10 -18 0 -29 4 -25 10 3 6
15 10 25 10 10 0 22 -4 25 -10z"/>
<path d="M2036 1688 c14 -46 35 -88 43 -88 4 0 12 19 18 43 l9 42 8 -42 c9
-52 21 -54 40 -10 23 55 28 77 18 77 -5 0 -15 -19 -22 -41 l-14 -41 -10 37
c-6 20 -15 36 -21 36 -5 0 -15 -16 -21 -36 l-10 -37 -14 41 c-7 22 -17 41 -22
41 -5 0 -6 -10 -2 -22z"/>
<path d="M2250 1666 c0 -51 13 -65 58 -64 32 1 32 1 32 55 0 63 -17 72 -22 11
-2 -35 -7 -43 -23 -43 -16 0 -21 8 -23 43 -4 55 -22 54 -22 -2z"/>
<path d="M2360 1653 c0 -63 17 -72 22 -10 2 34 7 42 23 42 16 0 21 -8 23 -42
4 -56 22 -55 22 1 0 51 -13 65 -58 64 -32 -1 -32 -1 -32 -55z"/>
<path d="M2596 1694 c-34 -33 -9 -94 38 -94 13 0 29 7 36 15 10 13 7 14 -25
12 -23 -1 -40 3 -42 11 -3 8 8 12 36 12 29 0 41 4 41 14 0 20 -28 46 -50 46
-10 0 -26 -7 -34 -16z m59 -14 c4 -6 -7 -10 -25 -10 -18 0 -29 4 -25 10 3 6
15 10 25 10 10 0 22 -4 25 -10z"/>
<path d="M2700 1653 c0 -63 18 -72 22 -10 2 33 7 43 23 45 16 2 24 -7 36 -39
21 -57 34 -59 46 -7 l9 43 8 -42 c9 -52 21 -54 40 -10 23 55 28 77 18 77 -5 0
-15 -19 -22 -41 l-14 -41 -10 37 c-14 47 -28 47 -42 0 l-10 -37 -14 41 c-12
39 -15 41 -52 39 l-38 -1 0 -54z"/>
<path d="M2936 1694 c-34 -33 -9 -94 38 -94 13 0 29 7 36 15 10 13 7 14 -25
12 -23 -1 -40 3 -42 11 -3 8 8 12 36 12 29 0 41 4 41 14 0 20 -28 46 -50 46
-10 0 -26 -7 -34 -16z m59 -14 c4 -6 -7 -10 -25 -10 -18 0 -29 4 -25 10 3 6
15 10 25 10 10 0 22 -4 25 -10z"/>
<path d="M3053 1704 c-27 -11 -12 -23 22 -17 44 7 46 -11 3 -23 -26 -8 -33
-15 -33 -34 0 -23 4 -25 45 -26 l45 -1 -5 51 c-5 48 -7 51 -35 53 -16 1 -36 0
-42 -3z m55 -66 c-5 -16 -48 -24 -48 -10 0 11 17 20 38 21 8 1 12 -5 10 -11z"/>
<path d="M3160 1653 c0 -29 5 -53 10 -53 6 0 10 18 10 41 0 32 4 42 20 46 30
8 24 22 -10 21 -29 -1 -30 -2 -30 -55z"/>
<path d="M130 1500 c0 -5 5 -10 10 -10 6 0 10 5 10 10 0 6 -4 10 -10 10 -5 0
-10 -4 -10 -10z"/>
<path d="M800 1435 c0 -43 4 -75 10 -75 6 0 10 32 10 75 0 43 -4 75 -10 75 -6
0 -10 -32 -10 -75z"/>
<path d="M843 1490 c-15 -38 -2 -124 20 -128 9 -2 17 1 17 7 0 6 -4 11 -10 11
-15 0 -12 67 3 73 9 4 9 8 1 14 -7 4 -14 17 -16 28 -4 18 -6 18 -15 -5z"/>
<path d="M900 1500 c0 -5 5 -10 10 -10 6 0 10 5 10 10 0 6 -4 10 -10 10 -5 0
-10 -4 -10 -10z"/>
<path d="M1060 1435 c0 -43 4 -75 10 -75 6 0 10 32 10 75 0 43 -4 75 -10 75
-6 0 -10 -32 -10 -75z"/>
<path d="M1953 1490 c-15 -38 -2 -124 20 -128 9 -2 17 1 17 7 0 6 -4 11 -10
11 -15 0 -12 67 3 73 9 4 9 8 1 14 -7 4 -14 17 -16 28 -4 18 -6 18 -15 -5z"/>
<path d="M2200 1486 c0 -19 -4 -22 -25 -19 -32 7 -53 -34 -39 -75 8 -22 16
-27 47 -29 l37 -1 0 74 c0 43 -4 74 -10 74 -5 0 -10 -11 -10 -24z m-5 -71 c0
-23 -4 -30 -20 -30 -21 0 -31 25 -21 51 11 28 41 12 41 -21z"/>
<path d="M130 1415 c0 -30 5 -55 10 -55 6 0 10 25 10 55 0 30 -4 55 -10 55 -5
0 -10 -25 -10 -55z"/>
<path d="M190 1455 c-18 -22 -6 -41 29 -48 45 -9 40 -31 -5 -24 -30 5 -34 4
-24 -8 26 -31 90 -6 77 29 -3 8 -19 17 -36 21 -44 9 -40 29 5 22 30 -5 34 -4
24 8 -16 19 -54 19 -70 0z"/>
<path d="M363 1464 c-27 -11 -12 -23 22 -17 44 7 46 -11 3 -23 -26 -8 -33 -15
-33 -34 0 -23 4 -25 45 -26 l45 -1 -5 51 c-5 48 -7 51 -35 53 -16 1 -36 0 -42
-3z m55 -66 c-5 -16 -48 -24 -48 -10 0 11 17 20 38 21 8 1 12 -5 10 -11z"/>
<path d="M530 1413 c0 -63 17 -72 22 -11 2 31 8 44 21 46 14 3 17 -4 17 -42 0
-58 18 -61 22 -4 2 31 8 44 21 46 14 3 17 -4 17 -42 0 -25 5 -46 10 -46 6 0
10 23 10 50 0 56 -17 73 -51 51 -11 -6 -19 -7 -19 -1 0 5 -16 9 -35 8 l-35 -1
0 -54z"/>
<path d="M690 1426 c0 -51 13 -65 58 -64 32 1 32 1 32 55 0 63 -17 72 -22 11
-2 -35 -7 -43 -23 -43 -16 0 -21 8 -23 43 -4 55 -22 54 -22 -2z"/>
<path d="M900 1415 c0 -30 5 -55 10 -55 6 0 10 25 10 55 0 30 -4 55 -10 55 -5
0 -10 -25 -10 -55z"/>
<path d="M950 1394 c0 -43 4 -74 10 -74 6 0 10 11 10 24 0 19 4 22 25 19 32
-7 53 34 39 75 -8 22 -16 27 -47 29 l-37 1 0 -74z m65 21 c0 -23 -4 -30 -20
-30 -21 0 -31 25 -21 51 11 28 41 12 41 -21z"/>
<path d="M1106 1448 c3 -13 13 -36 21 -51 16 -32 11 -57 -12 -57 -8 0 -15 -5
-15 -11 0 -6 10 -9 22 -7 16 2 27 15 39 48 25 69 31 100 19 100 -6 0 -13 -14
-17 -30 -8 -43 -17 -44 -32 -4 -14 37 -37 48 -25 12z"/>
<path d="M1286 1454 c-31 -31 -12 -94 28 -94 24 0 54 26 43 37 -4 3 -13 0 -22
-7 -21 -18 -45 -5 -45 25 0 30 24 43 45 25 20 -17 32 -5 15 15 -16 19 -44 19
-64 -1z"/>
<path d="M1396 1454 c-32 -32 -10 -94 34 -94 26 0 50 27 50 55 0 28 -24 55
-50 55 -10 0 -26 -7 -34 -16z m59 -39 c0 -25 -4 -30 -25 -30 -16 0 -26 6 -28
18 -6 30 6 49 30 45 18 -2 23 -9 23 -33z"/>
<path d="M1500 1413 c0 -63 17 -72 22 -10 2 34 7 42 23 42 16 0 21 -8 23 -42
4 -56 22 -55 22 1 0 51 -13 65 -58 64 -32 -1 -32 -1 -32 -55z"/>
<path d="M1610 1413 c0 -63 17 -72 22 -10 2 34 7 42 23 42 16 0 21 -8 23 -42
4 -56 22 -55 22 1 0 51 -13 65 -58 64 -32 -1 -32 -1 -32 -55z"/>
<path d="M1736 1454 c-34 -33 -9 -94 38 -94 13 0 29 7 36 15 10 13 7 14 -25
12 -23 -1 -40 3 -42 11 -3 8 8 12 36 12 29 0 41 4 41 14 0 20 -28 46 -50 46
-10 0 -26 -7 -34 -16z m59 -14 c4 -6 -7 -10 -25 -10 -18 0 -29 4 -25 10 3 6
15 10 25 10 10 0 22 -4 25 -10z"/>
<path d="M1856 1454 c-31 -31 -12 -94 28 -94 24 0 54 26 43 37 -4 3 -13 0 -22
-7 -21 -18 -45 -5 -45 25 0 30 24 43 45 25 20 -17 32 -5 15 15 -16 19 -44 19
-64 -1z"/>
<path d="M2026 1454 c-34 -33 -9 -94 38 -94 13 0 29 7 36 15 10 13 7 14 -25
12 -23 -1 -40 3 -42 11 -3 8 8 12 36 12 29 0 41 4 41 14 0 20 -28 46 -50 46
-10 0 -26 -7 -34 -16z m59 -14 c4 -6 -7 -10 -25 -10 -18 0 -29 4 -25 10 3 6
15 10 25 10 10 0 22 -4 25 -10z"/>
<path d="M2310 1455 c-18 -22 -6 -41 29 -48 45 -9 40 -31 -5 -24 -30 5 -34 4
-24 -8 26 -31 90 -6 77 29 -3 8 -19 17 -36 21 -44 9 -40 29 5 22 30 -5 34 -4
24 8 -16 19 -54 19 -70 0z"/>
<path d="M2410 1394 c0 -43 4 -74 10 -74 6 0 10 11 10 24 0 19 4 22 25 19 32
-7 53 34 39 75 -8 22 -16 27 -47 29 l-37 1 0 -74z m65 21 c0 -23 -4 -30 -20
-30 -21 0 -31 25 -21 51 11 28 41 12 41 -21z"/>
<path d="M2533 1464 c-27 -11 -12 -23 22 -17 44 7 46 -11 3 -23 -26 -8 -33
-15 -33 -34 0 -23 4 -25 45 -26 l45 -1 -5 51 c-5 48 -7 51 -35 53 -16 1 -36 0
-42 -3z m55 -66 c-5 -16 -48 -24 -48 -10 0 11 17 20 38 21 8 1 12 -5 10 -11z"/>
<path d="M2656 1454 c-31 -31 -12 -94 28 -94 24 0 54 26 43 37 -4 3 -13 0 -22
-7 -21 -18 -45 -5 -45 25 0 30 24 43 45 25 20 -17 32 -5 15 15 -16 19 -44 19
-64 -1z"/>
<path d="M2766 1454 c-34 -33 -9 -94 38 -94 13 0 29 7 36 15 10 13 7 14 -25
12 -23 -1 -40 3 -42 11 -3 8 8 12 36 12 29 0 41 4 41 14 0 20 -28 46 -50 46
-10 0 -26 -7 -34 -16z m59 -14 c4 -6 -7 -10 -25 -10 -18 0 -29 4 -25 10 3 6
15 10 25 10 10 0 22 -4 25 -10z"/>
<path d="M2880 1370 c0 -5 5 -10 10 -10 6 0 10 5 10 10 0 6 -4 10 -10 10 -5 0
-10 -4 -10 -10z"/>
<path d="M1285 1054 c-52 -5 -156 -33 -173 -47 -10 -8 -11 -34 -7 -108 4 -61
1 -158 -9 -261 -9 -89 -18 -183 -20 -208 -2 -25 -2 -57 1 -71 9 -50 117 -80
258 -72 115 6 139 16 160 64 20 42 40 59 74 59 25 0 39 -43 21 -64 -17 -21 22
-43 86 -51 57 -6 274 19 305 35 24 13 24 29 -2 110 -19 57 -21 93 -23 300 -3
248 -9 285 -53 306 -18 8 -541 15 -618 8z m598 -29 c29 -12 19 -22 -40 -38
-203 -56 -445 -67 -593 -28 -47 12 -89 26 -94 31 -15 14 41 31 129 40 96 10
573 6 598 -5z m40 -56 c7 -25 -25 -40 -146 -69 -184 -44 -415 -44 -557 0 -41
13 -78 23 -82 22 -5 -1 -8 8 -8 21 l0 23 93 -25 c160 -42 409 -34 611 20 38
10 71 21 74 24 8 8 9 7 15 -16z m24 -529 l10 -25 -86 -1 c-75 -1 -168 -18
-224 -39 -13 -6 -20 0 -28 23 -6 17 -19 34 -29 37 -23 7 -97 -22 -104 -42 -5
-12 -9 -13 -21 -3 -31 26 -245 22 -344 -6 l-23 -7 6 94 c4 52 12 132 17 179 6
47 10 123 10 168 0 70 2 83 15 78 114 -44 160 -51 334 -50 180 0 257 11 390
54 l55 19 6 -227 c3 -125 11 -238 16 -252z m-7 -53 c47 -23 31 -40 -50 -53
-111 -18 -250 -18 -250 0 0 17 84 44 174 56 89 11 99 11 126 -3z m-491 -22
c14 -13 13 -17 -2 -32 -15 -15 -37 -18 -150 -18 -114 0 -137 3 -162 19 l-29
19 25 9 c74 28 291 30 318 3z"/>
</g>
</svg>
