<?xml version="1.0" standalone="no"?>
<!DOCTYPE svg PUBLIC "-//W3C//DTD SVG 20010904//EN"
 "http://www.w3.org/TR/2001/REC-SVG-20010904/DTD/svg10.dtd">
<svg version="1.0" xmlns="http://www.w3.org/2000/svg"
 width="304.000000pt" height="205.000000pt" viewBox="0 0 304.000000 205.000000"
 preserveAspectRatio="xMidYMid meet">
<metadata>
Created by potrace 1.13, written by Peter Selinger 2001-2015
</metadata>
<g transform="translate(0.000000,205.000000) scale(0.100000,-0.100000)"
fill="#000000" stroke="none">
<path d="M0 2010 c0 -5 11 -10 25 -10 24 0 25 -2 25 -65 0 -37 4 -65 10 -65 6
0 10 28 10 65 0 63 1 65 25 65 14 0 25 5 25 10 0 6 -27 10 -60 10 -33 0 -60
-4 -60 -10z"/>
<path d="M130 1945 c0 -43 4 -75 10 -75 6 0 10 16 10 35 0 34 1 35 40 35 39 0
40 -1 40 -35 0 -19 5 -35 10 -35 6 0 10 32 10 75 0 43 -4 75 -10 75 -5 0 -10
-13 -10 -30 0 -28 -2 -30 -40 -30 -38 0 -40 2 -40 30 0 17 -4 30 -10 30 -6 0
-10 -32 -10 -75z"/>
<path d="M280 1945 l0 -75 55 0 c30 0 55 5 55 10 0 6 -20 10 -45 10 -41 0 -45
2 -45 25 0 23 4 25 40 25 22 0 40 5 40 10 0 6 -18 10 -40 10 -33 0 -40 3 -40
20 0 17 7 20 45 20 25 0 45 5 45 10 0 6 -25 10 -55 10 l-55 0 0 -75z"/>
<path d="M432 1997 c-44 -46 -12 -127 49 -127 60 0 91 86 46 128 -30 28 -68
28 -95 -1z m82 -13 c32 -32 10 -94 -34 -94 -26 0 -50 27 -50 55 0 28 24 55 50
55 10 0 26 -7 34 -16z"/>
<path d="M580 1945 c0 -43 4 -75 10 -75 6 0 10 16 10 35 0 27 4 35 18 35 10 0
26 -15 36 -35 11 -19 26 -35 33 -35 11 0 10 8 -6 34 -19 29 -19 35 -6 46 18
15 19 42 3 58 -7 7 -31 12 -55 12 l-43 0 0 -75z m85 35 c0 -10 -12 -16 -32
-18 -28 -3 -33 0 -33 18 0 18 5 21 33 18 20 -2 32 -8 32 -18z"/>
<path d="M730 1945 l0 -75 55 0 c30 0 55 5 55 10 0 6 -20 10 -45 10 -41 0 -45
2 -45 25 0 23 4 25 40 25 22 0 40 5 40 10 0 6 -18 10 -40 10 -33 0 -40 3 -40
20 0 17 7 20 45 20 25 0 45 5 45 10 0 6 -25 10 -55 10 l-55 0 0 -75z"/>
<path d="M860 1946 c0 -44 4 -76 10 -76 6 0 10 28 11 63 l1 62 21 -62 c11 -35
26 -63 32 -63 6 0 21 28 32 63 l21 62 1 -62 c1 -35 5 -63 11 -63 6 0 10 32 10
76 0 66 -2 75 -17 72 -11 -2 -24 -25 -37 -66 l-20 -64 -22 64 c-13 39 -27 64
-37 66 -15 3 -17 -7 -17 -72z"/>
<path d="M1236 2007 c-30 -22 -16 -50 32 -66 31 -9 42 -18 40 -30 -4 -23 -46
-26 -69 -5 -25 23 -37 10 -14 -16 30 -34 105 -20 105 19 0 23 -20 40 -57 50
-15 4 -28 14 -28 22 0 18 42 24 61 8 8 -6 18 -9 22 -5 10 11 -28 36 -53 36
-12 0 -29 -6 -39 -13z"/>
<path d="M1350 2010 c0 -5 5 -10 10 -10 6 0 10 5 10 10 0 6 -4 10 -10 10 -5 0
-10 -4 -10 -10z"/>
<path d="M1670 1945 c0 -43 4 -75 10 -75 6 0 10 32 10 75 0 43 -4 75 -10 75
-6 0 -10 -32 -10 -75z"/>
<path d="M2563 2000 c-15 -38 -2 -124 20 -128 9 -2 17 1 17 7 0 6 -4 11 -10
11 -15 0 -12 67 3 73 9 4 9 8 1 14 -7 4 -14 17 -16 28 -4 18 -6 18 -15 -5z"/>
<path d="M2810 1996 c0 -19 -4 -22 -25 -19 -32 7 -53 -34 -39 -75 8 -22 16
-27 47 -29 l37 -1 0 74 c0 43 -4 74 -10 74 -5 0 -10 -11 -10 -24z m-5 -71 c0
-23 -4 -30 -20 -30 -21 0 -31 25 -21 51 11 28 41 12 41 -21z"/>
<path d="M1040 1970 c0 -5 5 -10 10 -10 6 0 10 5 10 10 0 6 -4 10 -10 10 -5 0
-10 -4 -10 -10z"/>
<path d="M1350 1925 c0 -30 5 -55 10 -55 6 0 10 25 10 55 0 30 -4 55 -10 55
-5 0 -10 -25 -10 -55z"/>
<path d="M1400 1923 c0 -63 17 -72 22 -11 2 31 8 44 21 46 14 3 17 -4 17 -42
0 -58 18 -61 22 -4 2 31 8 44 21 46 14 3 17 -4 17 -42 0 -25 5 -46 10 -46 6 0
10 23 10 50 0 56 -17 73 -51 51 -11 -6 -19 -7 -19 -1 0 5 -16 9 -35 8 l-35 -1
0 -54z"/>
<path d="M1560 1904 c0 -43 4 -74 10 -74 6 0 10 11 10 24 0 19 4 22 25 19 32
-7 53 34 39 75 -8 22 -16 27 -47 29 l-37 1 0 -74z m65 21 c0 -23 -4 -30 -20
-30 -21 0 -31 25 -21 51 11 28 41 12 41 -21z"/>
<path d="M1716 1958 c3 -13 13 -36 21 -51 16 -32 11 -57 -12 -57 -8 0 -15 -5
-15 -11 0 -6 10 -9 22 -7 16 2 27 15 39 48 25 69 31 100 19 100 -6 0 -13 -14
-17 -30 -8 -43 -17 -44 -32 -4 -14 37 -37 48 -25 12z"/>
<path d="M1896 1964 c-31 -31 -12 -94 28 -94 24 0 54 26 43 37 -4 3 -13 0 -22
-7 -21 -18 -45 -5 -45 25 0 30 24 43 45 25 20 -17 32 -5 15 15 -16 19 -44 19
-64 -1z"/>
<path d="M2006 1964 c-32 -32 -10 -94 34 -94 26 0 50 27 50 55 0 28 -24 55
-50 55 -10 0 -26 -7 -34 -16z m59 -39 c0 -25 -4 -30 -25 -30 -16 0 -26 6 -28
18 -6 30 6 49 30 45 18 -2 23 -9 23 -33z"/>
<path d="M2110 1923 c0 -63 17 -72 22 -10 2 34 7 42 23 42 16 0 21 -8 23 -42
4 -56 22 -55 22 1 0 51 -13 65 -58 64 -32 -1 -32 -1 -32 -55z"/>
<path d="M2220 1923 c0 -63 17 -72 22 -10 2 34 7 42 23 42 16 0 21 -8 23 -42
4 -56 22 -55 22 1 0 51 -13 65 -58 64 -32 -1 -32 -1 -32 -55z"/>
<path d="M2346 1964 c-34 -33 -9 -94 38 -94 13 0 29 7 36 15 10 13 7 14 -25
12 -23 -1 -40 3 -42 11 -3 8 8 12 36 12 29 0 41 4 41 14 0 20 -28 46 -50 46
-10 0 -26 -7 -34 -16z m59 -14 c4 -6 -7 -10 -25 -10 -18 0 -29 4 -25 10 3 6
15 10 25 10 10 0 22 -4 25 -10z"/>
<path d="M2466 1964 c-31 -31 -12 -94 28 -94 24 0 54 26 43 37 -4 3 -13 0 -22
-7 -21 -18 -45 -5 -45 25 0 30 24 43 45 25 20 -17 32 -5 15 15 -16 19 -44 19
-64 -1z"/>
<path d="M2636 1964 c-34 -33 -9 -94 38 -94 13 0 29 7 36 15 10 13 7 14 -25
12 -23 -1 -40 3 -42 11 -3 8 8 12 36 12 29 0 41 4 41 14 0 20 -28 46 -50 46
-10 0 -26 -7 -34 -16z m59 -14 c4 -6 -7 -10 -25 -10 -18 0 -29 4 -25 10 3 6
15 10 25 10 10 0 22 -4 25 -10z"/>
<path d="M1040 1880 c0 -5 5 -10 10 -10 6 0 10 5 10 10 0 6 -4 10 -10 10 -5 0
-10 -4 -10 -10z"/>
<path d="M290 1736 c0 -19 -4 -22 -25 -19 -32 7 -53 -34 -39 -75 8 -22 16 -27
47 -29 l37 -1 0 74 c0 43 -4 74 -10 74 -5 0 -10 -11 -10 -24z m-5 -71 c0 -23
-4 -30 -20 -30 -21 0 -31 25 -21 51 11 28 41 12 41 -21z"/>
<path d="M1040 1750 c0 -5 5 -10 10 -10 6 0 10 5 10 10 0 6 -4 10 -10 10 -5 0
-10 -4 -10 -10z"/>
<path d="M1370 1750 c0 -5 5 -10 10 -10 6 0 10 5 10 10 0 6 -4 10 -10 10 -5 0
-10 -4 -10 -10z"/>
<path d="M1690 1685 c0 -43 4 -75 10 -75 6 0 10 32 10 75 0 43 -4 75 -10 75
-6 0 -10 -32 -10 -75z"/>
<path d="M2700 1686 l0 -74 37 1 c31 2 39 7 47 29 14 41 -7 82 -39 75 -21 -3
-25 0 -25 19 0 13 -4 24 -10 24 -6 0 -10 -31 -10 -74z m65 -21 c0 -23 -4 -30
-20 -30 -21 0 -31 25 -21 51 11 28 41 12 41 -21z"/>
<path d="M2810 1685 c0 -43 4 -75 10 -75 6 0 10 32 10 75 0 43 -4 75 -10 75
-6 0 -10 -32 -10 -75z"/>
<path d="M0 1676 c0 -51 13 -65 58 -64 32 1 32 1 32 55 0 63 -17 72 -22 11 -2
-35 -7 -43 -23 -43 -16 0 -21 8 -23 43 -4 55 -22 54 -22 -2z"/>
<path d="M110 1663 c0 -63 17 -72 22 -10 2 34 7 42 23 42 16 0 21 -8 23 -42 4
-56 22 -55 22 1 0 51 -13 65 -58 64 -32 -1 -32 -1 -32 -55z"/>
<path d="M346 1704 c-34 -33 -9 -94 38 -94 13 0 29 7 36 15 10 13 7 14 -25 12
-23 -1 -40 3 -42 11 -3 8 8 12 36 12 29 0 41 4 41 14 0 20 -28 46 -50 46 -10
0 -26 -7 -34 -16z m59 -14 c4 -6 -7 -10 -25 -10 -18 0 -29 4 -25 10 3 6 15 10
25 10 10 0 22 -4 25 -10z"/>
<path d="M450 1663 c0 -63 18 -72 22 -10 2 33 7 43 23 45 16 2 24 -7 36 -39
21 -57 34 -59 46 -7 l9 43 8 -42 c9 -52 21 -54 40 -10 23 55 28 77 18 77 -5 0
-15 -19 -22 -41 l-14 -41 -10 37 c-14 47 -28 47 -42 0 l-10 -37 -14 41 c-12
39 -15 41 -52 39 l-38 -1 0 -54z"/>
<path d="M686 1704 c-20 -20 -20 -58 0 -78 20 -20 58 -21 74 -1 10 13 7 14
-25 12 -23 -1 -40 3 -42 11 -3 8 8 12 36 12 29 0 41 4 41 14 0 20 -28 46 -50
46 -10 0 -26 -7 -34 -16z m59 -14 c4 -6 -7 -10 -25 -10 -18 0 -29 4 -25 10 3
6 15 10 25 10 10 0 22 -4 25 -10z"/>
<path d="M803 1714 c-27 -11 -12 -23 22 -17 44 7 46 -11 3 -23 -26 -8 -33 -15
-33 -34 0 -23 4 -25 45 -26 l45 -1 -5 51 c-5 48 -7 51 -35 53 -16 1 -36 0 -42
-3z m55 -66 c-5 -16 -48 -24 -48 -10 0 11 17 20 38 21 8 1 12 -5 10 -11z"/>
<path d="M910 1663 c0 -29 5 -53 10 -53 6 0 10 18 10 41 0 32 4 42 20 46 30 8
24 22 -10 21 -29 -1 -30 -2 -30 -55z"/>
<path d="M1040 1665 c0 -30 5 -55 10 -55 6 0 10 25 10 55 0 30 -4 55 -10 55
-5 0 -10 -25 -10 -55z"/>
<path d="M1100 1705 c-18 -22 -6 -41 29 -48 45 -9 40 -31 -5 -24 -30 5 -34 4
-24 -8 26 -31 90 -6 77 29 -3 8 -19 17 -36 21 -44 9 -40 29 5 22 30 -5 34 -4
24 8 -16 19 -54 19 -70 0z"/>
<path d="M1270 1705 c-18 -22 -6 -41 29 -48 45 -9 40 -31 -5 -24 -30 5 -34 4
-24 -8 26 -31 90 -6 77 29 -3 8 -19 17 -36 21 -44 9 -40 29 5 22 30 -5 34 -4
24 8 -16 19 -54 19 -70 0z"/>
<path d="M1370 1665 c0 -30 5 -55 10 -55 6 0 10 25 10 55 0 30 -4 55 -10 55
-5 0 -10 -25 -10 -55z"/>
<path d="M1420 1663 c0 -63 17 -72 22 -11 2 31 8 44 21 46 14 3 17 -4 17 -42
0 -58 18 -61 22 -4 2 31 8 44 21 46 14 3 17 -4 17 -42 0 -25 5 -46 10 -46 6 0
10 23 10 50 0 56 -17 73 -51 51 -11 -6 -19 -7 -19 -1 0 5 -16 9 -35 8 l-35 -1
0 -54z"/>
<path d="M1580 1644 c0 -43 4 -74 10 -74 6 0 10 11 10 24 0 19 4 22 25 19 32
-7 53 34 39 75 -8 22 -16 27 -47 29 l-37 1 0 -74z m65 21 c0 -23 -4 -30 -20
-30 -21 0 -31 25 -21 51 11 28 41 12 41 -21z"/>
<path d="M1736 1698 c3 -13 13 -36 21 -51 16 -32 11 -57 -12 -57 -8 0 -15 -5
-15 -11 0 -6 10 -9 22 -7 16 2 27 15 39 48 25 69 31 100 19 100 -6 0 -13 -14
-17 -30 -8 -43 -17 -44 -32 -4 -14 37 -37 48 -25 12z"/>
<path d="M1900 1676 c0 -51 13 -65 58 -64 32 1 32 1 32 55 0 63 -17 72 -22 11
-2 -35 -7 -43 -23 -43 -16 0 -21 8 -23 43 -4 55 -22 54 -22 -2z"/>
<path d="M2010 1663 c0 -63 17 -72 22 -10 2 34 7 42 23 42 16 0 21 -8 23 -42
4 -56 22 -55 22 1 0 51 -13 65 -58 64 -32 -1 -32 -1 -32 -55z"/>
<path d="M2116 1698 c14 -46 35 -88 43 -88 4 0 12 19 18 43 l9 42 8 -42 c9
-52 21 -54 40 -10 23 55 28 77 18 77 -5 0 -15 -19 -22 -41 l-14 -41 -10 37
c-6 20 -15 36 -21 36 -5 0 -15 -16 -21 -36 l-10 -37 -14 41 c-7 22 -17 41 -22
41 -5 0 -6 -10 -2 -22z"/>
<path d="M2286 1704 c-34 -33 -9 -94 38 -94 13 0 29 7 36 15 10 13 7 14 -25
12 -23 -1 -40 3 -42 11 -3 8 8 12 36 12 29 0 41 4 41 14 0 20 -28 46 -50 46
-10 0 -26 -7 -34 -16z m59 -14 c4 -6 -7 -10 -25 -10 -18 0 -29 4 -25 10 3 6
15 10 25 10 10 0 22 -4 25 -10z"/>
<path d="M2403 1714 c-27 -11 -12 -23 22 -17 44 7 46 -11 3 -23 -26 -8 -33
-15 -33 -34 0 -23 4 -25 45 -26 l45 -1 -5 51 c-5 48 -7 51 -35 53 -16 1 -36 0
-42 -3z m55 -66 c-5 -16 -48 -24 -48 -10 0 11 17 20 38 21 8 1 12 -5 10 -11z"/>
<path d="M2510 1663 c0 -29 5 -53 10 -53 6 0 10 18 10 41 0 32 4 42 20 46 30
8 24 22 -10 21 -29 -1 -30 -2 -30 -55z"/>
<path d="M2593 1714 c-27 -11 -12 -23 22 -17 44 7 46 -11 3 -23 -26 -8 -33
-15 -33 -34 0 -23 4 -25 45 -26 l45 -1 -5 51 c-5 48 -7 51 -35 53 -16 1 -36 0
-42 -3z m55 -66 c-5 -16 -48 -24 -48 -10 0 11 17 20 38 21 8 1 12 -5 10 -11z"/>
<path d="M2866 1704 c-34 -33 -9 -94 38 -94 13 0 29 7 36 15 10 13 7 14 -25
12 -23 -1 -40 3 -42 11 -3 8 8 12 36 12 29 0 41 4 41 14 0 20 -28 46 -50 46
-10 0 -26 -7 -34 -16z m59 -14 c4 -6 -7 -10 -25 -10 -18 0 -29 4 -25 10 3 6
15 10 25 10 10 0 22 -4 25 -10z"/>
<path d="M2980 1620 c0 -5 5 -10 10 -10 6 0 10 5 10 10 0 6 -4 10 -10 10 -5 0
-10 -4 -10 -10z"/>
<path d="M10 1415 c0 -43 4 -75 10 -75 6 0 10 14 10 30 0 27 3 30 33 30 38 0
57 15 57 45 0 32 -20 45 -67 45 l-43 0 0 -75z m85 30 c0 -15 -8 -21 -32 -23
-30 -3 -33 -1 -33 23 0 24 3 26 33 23 24 -2 32 -8 32 -23z"/>
<path d="M150 1415 c0 -43 4 -75 10 -75 6 0 10 16 10 35 0 27 4 35 18 35 10 0
26 -15 36 -35 11 -19 26 -35 33 -35 11 0 10 8 -6 34 -19 29 -19 35 -6 46 18
15 19 42 3 58 -7 7 -31 12 -55 12 l-43 0 0 -75z m85 35 c0 -10 -12 -16 -32
-18 -28 -3 -33 0 -33 18 0 18 5 21 33 18 20 -2 32 -8 32 -18z"/>
<path d="M312 1467 c-44 -46 -12 -127 49 -127 60 0 91 86 46 128 -30 28 -68
28 -95 -1z m82 -13 c32 -32 10 -94 -34 -94 -26 0 -50 27 -50 55 0 28 24 55 50
55 10 0 26 -7 34 -16z"/>
<path d="M472 1467 c-44 -46 -12 -127 49 -127 60 0 91 86 46 128 -30 28 -68
28 -95 -1z m82 -13 c32 -32 10 -94 -34 -94 -26 0 -50 27 -50 55 0 28 24 55 50
55 10 0 26 -7 34 -16z"/>
<path d="M620 1415 c0 -43 4 -75 10 -75 6 0 10 16 10 35 0 33 2 35 35 35 19 0
35 5 35 10 0 6 -16 10 -35 10 -28 0 -35 4 -35 20 0 17 7 20 40 20 22 0 40 5
40 10 0 6 -22 10 -50 10 l-50 0 0 -75z"/>
<path d="M930 1415 l0 -75 45 0 c25 0 45 5 45 10 0 6 -16 10 -35 10 l-35 0 0
65 c0 37 -4 65 -10 65 -6 0 -10 -32 -10 -75z"/>
<path d="M1173 1473 c-4 -10 -11 -22 -17 -26 -8 -6 -7 -10 2 -14 7 -3 12 -23
12 -49 0 -24 5 -44 10 -44 6 0 10 20 10 45 0 33 4 45 15 45 11 0 15 -11 15
-40 0 -39 21 -64 38 -45 4 4 1 10 -5 12 -7 3 -13 20 -13 38 0 18 6 36 13 39
10 5 10 7 0 12 -7 3 -13 13 -13 23 0 24 -58 28 -67 4z m47 -13 c0 -5 -7 -10
-15 -10 -8 0 -15 5 -15 10 0 6 7 10 15 10 8 0 15 -4 15 -10z"/>
<path d="M2150 1480 c0 -5 5 -10 10 -10 6 0 10 5 10 10 0 6 -4 10 -10 10 -5 0
-10 -4 -10 -10z"/>
<path d="M2503 1473 c-4 -10 -11 -22 -17 -26 -8 -6 -7 -10 2 -14 7 -3 12 -23
12 -49 0 -24 5 -44 10 -44 6 0 10 20 10 44 0 26 5 47 13 50 10 5 10 7 0 12
-18 8 -16 24 2 24 8 0 15 5 15 10 0 17 -40 11 -47 -7z"/>
<path d="M750 1440 c0 -5 5 -10 10 -10 6 0 10 5 10 10 0 6 -4 10 -10 10 -5 0
-10 -4 -10 -10z"/>
<path d="M1056 1434 c-20 -20 -20 -58 0 -78 20 -20 58 -21 74 -1 10 13 7 14
-25 12 -23 -1 -40 3 -42 11 -3 8 8 12 36 12 29 0 41 4 41 14 0 20 -28 46 -50
46 -10 0 -26 -7 -34 -16z m59 -14 c4 -6 -7 -10 -25 -10 -18 0 -29 4 -25 10 3
6 15 10 25 10 10 0 22 -4 25 -10z"/>
<path d="M1353 1444 c-27 -11 -12 -23 22 -17 44 7 46 -11 3 -23 -26 -8 -33
-15 -33 -34 0 -23 4 -25 45 -26 l45 -1 -5 51 c-5 48 -7 51 -35 53 -16 1 -36 0
-42 -3z m55 -66 c-5 -16 -48 -24 -48 -10 0 11 17 20 38 21 8 1 12 -5 10 -11z"/>
<path d="M1470 1435 c-18 -22 -6 -41 29 -48 45 -9 40 -31 -5 -24 -30 5 -34 4
-24 -8 26 -31 90 -6 77 29 -3 8 -19 17 -36 21 -44 9 -40 29 5 22 30 -5 34 -4
24 8 -16 19 -54 19 -70 0z"/>
<path d="M1646 1434 c-34 -33 -9 -94 38 -94 13 0 29 7 36 15 10 13 7 14 -25
12 -23 -1 -40 3 -42 11 -3 8 8 12 36 12 29 0 41 4 41 14 0 20 -28 46 -50 46
-10 0 -26 -7 -34 -16z m59 -14 c4 -6 -7 -10 -25 -10 -18 0 -29 4 -25 10 3 6
15 10 25 10 10 0 22 -4 25 -10z"/>
<path d="M1758 1422 c20 -27 20 -28 0 -55 -16 -22 -17 -27 -5 -27 9 0 19 9 22
20 3 11 10 20 15 20 5 0 12 -9 15 -20 3 -11 13 -20 22 -20 12 0 11 5 -5 27
-20 27 -20 28 0 55 16 23 17 28 4 28 -8 0 -18 -9 -21 -20 -3 -11 -10 -20 -15
-20 -5 0 -12 9 -15 20 -3 11 -13 20 -21 20 -13 0 -12 -5 4 -28z"/>
<path d="M1866 1434 c-34 -33 -9 -94 38 -94 13 0 29 7 36 15 10 13 7 14 -25
12 -23 -1 -40 3 -42 11 -3 8 8 12 36 12 29 0 41 4 41 14 0 20 -28 46 -50 46
-10 0 -26 -7 -34 -16z m59 -14 c4 -6 -7 -10 -25 -10 -18 0 -29 4 -25 10 3 6
15 10 25 10 10 0 22 -4 25 -10z"/>
<path d="M1970 1393 c0 -29 5 -53 10 -53 6 0 10 18 10 41 0 32 4 42 20 46 30
8 24 22 -10 21 -29 -1 -30 -2 -30 -55z"/>
<path d="M2056 1434 c-31 -31 -12 -94 28 -94 24 0 54 26 43 37 -4 3 -13 0 -22
-7 -21 -18 -45 -5 -45 25 0 30 24 43 45 25 20 -17 32 -5 15 15 -16 19 -44 19
-64 -1z"/>
<path d="M2150 1395 c0 -30 5 -55 10 -55 6 0 10 25 10 55 0 30 -4 55 -10 55
-5 0 -10 -25 -10 -55z"/>
<path d="M2210 1435 c-18 -22 -6 -41 29 -48 45 -9 40 -31 -5 -24 -30 5 -34 4
-24 -8 26 -31 90 -6 77 29 -3 8 -19 17 -36 21 -44 9 -40 29 5 22 30 -5 34 -4
24 8 -16 19 -54 19 -70 0z"/>
<path d="M2326 1434 c-34 -33 -9 -94 38 -94 13 0 29 7 36 15 10 13 7 14 -25
12 -23 -1 -40 3 -42 11 -3 8 8 12 36 12 29 0 41 4 41 14 0 20 -28 46 -50 46
-10 0 -26 -7 -34 -16z m59 -14 c4 -6 -7 -10 -25 -10 -18 0 -29 4 -25 10 3 6
15 10 25 10 10 0 22 -4 25 -10z"/>
<path d="M2566 1434 c-32 -32 -10 -94 34 -94 26 0 50 27 50 55 0 28 -24 55
-50 55 -10 0 -26 -7 -34 -16z m59 -39 c0 -25 -4 -30 -25 -30 -16 0 -26 6 -28
18 -6 30 6 49 30 45 18 -2 23 -9 23 -33z"/>
<path d="M2670 1393 c0 -29 5 -53 10 -53 6 0 10 18 10 41 0 32 4 42 20 46 30
8 24 22 -10 21 -29 -1 -30 -2 -30 -55z"/>
<path d="M750 1350 c0 -5 5 -10 10 -10 6 0 10 5 10 10 0 6 -4 10 -10 10 -5 0
-10 -4 -10 -10z"/>
<path d="M23 1260 c-15 -38 -2 -124 20 -128 9 -2 17 1 17 7 0 6 -4 11 -10 11
-15 0 -12 67 3 73 9 4 9 8 1 14 -7 4 -14 17 -16 28 -4 18 -6 18 -15 -5z"/>
<path d="M80 1205 c0 -80 17 -104 22 -32 2 34 7 42 23 42 16 0 21 -8 23 -42 4
-56 22 -55 22 1 0 48 -18 71 -50 63 -16 -4 -20 0 -20 19 0 13 -4 24 -10 24 -6
0 -10 -32 -10 -75z"/>
<path d="M750 1256 c0 -19 -4 -22 -25 -19 -32 7 -53 -34 -39 -75 8 -22 16 -27
47 -29 l37 -1 0 74 c0 43 -4 74 -10 74 -5 0 -10 -11 -10 -24z m-5 -71 c0 -23
-4 -30 -20 -30 -21 0 -31 25 -21 51 11 28 41 12 41 -21z"/>
<path d="M206 1224 c-20 -20 -20 -58 0 -78 20 -20 58 -21 74 -1 10 13 7 14
-25 12 -23 -1 -40 3 -42 11 -3 8 8 12 36 12 29 0 41 4 41 14 0 20 -28 46 -50
46 -10 0 -26 -7 -34 -16z m59 -14 c4 -6 -7 -10 -25 -10 -18 0 -29 4 -25 10 3
6 15 10 25 10 10 0 22 -4 25 -10z"/>
<path d="M370 1183 c0 -29 5 -53 10 -53 6 0 10 18 10 41 0 32 4 42 20 46 30 8
24 22 -10 21 -29 -1 -30 -2 -30 -55z"/>
<path d="M456 1224 c-34 -33 -9 -94 38 -94 13 0 29 7 36 15 10 13 7 14 -25 12
-23 -1 -40 3 -42 11 -3 8 8 12 36 12 29 0 41 4 41 14 0 20 -28 46 -50 46 -10
0 -26 -7 -34 -16z m59 -14 c4 -6 -7 -10 -25 -10 -18 0 -29 4 -25 10 3 6 15 10
25 10 10 0 22 -4 25 -10z"/>
<path d="M573 1234 c-27 -11 -12 -23 22 -17 44 7 46 -11 3 -23 -26 -8 -33 -15
-33 -34 0 -23 4 -25 45 -26 l45 -1 -5 51 c-5 48 -7 51 -35 53 -16 1 -36 0 -42
-3z m55 -66 c-5 -16 -48 -24 -48 -10 0 11 17 20 38 21 8 1 12 -5 10 -11z"/>
<path d="M806 1224 c-20 -20 -20 -58 0 -78 20 -20 58 -21 74 -1 10 13 7 14
-25 12 -23 -1 -40 3 -42 11 -3 8 8 12 36 12 29 0 41 4 41 14 0 20 -28 46 -50
46 -10 0 -26 -7 -34 -16z m59 -14 c4 -6 -7 -10 -25 -10 -18 0 -29 4 -25 10 3
6 15 10 25 10 10 0 22 -4 25 -10z"/>
<path d="M910 1183 c0 -29 5 -53 10 -53 6 0 10 18 10 41 0 32 4 42 20 46 30 8
24 22 -10 21 -29 -1 -30 -2 -30 -55z"/>
<path d="M990 1140 c0 -5 5 -10 10 -10 6 0 10 5 10 10 0 6 -4 10 -10 10 -5 0
-10 -4 -10 -10z"/>
<path d="M1130 991 c-49 -26 -97 -92 -105 -145 -8 -48 2 -74 42 -117 l24 -26
-32 -54 c-18 -30 -49 -79 -68 -109 -48 -73 -64 -111 -52 -123 11 -11 31 -1 31
18 0 7 6 15 14 18 11 4 14 -5 14 -39 0 -103 79 -135 207 -84 42 16 63 38 93
95 22 43 26 63 27 144 l1 95 85 78 c46 43 97 86 113 94 27 15 28 15 21 -2 -5
-11 -11 -53 -15 -94 -4 -41 -14 -93 -24 -114 -13 -30 -16 -53 -11 -95 5 -41 2
-70 -11 -106 -21 -63 -28 -195 -10 -195 7 0 27 7 44 15 24 12 32 24 37 55 4
22 4 44 0 50 -4 6 1 17 11 24 14 11 16 23 11 74 -3 34 -2 60 2 57 5 -2 18 6
30 19 20 21 20 25 7 70 -12 41 -12 48 0 53 8 3 14 15 14 28 0 18 4 22 20 18
24 -6 25 5 9 74 -27 115 -60 142 -126 103 -48 -28 -163 -121 -163 -132 0 -14
-47 -39 -63 -32 -14 5 -13 10 7 37 47 62 51 170 7 221 -39 46 -131 59 -191 27z
m148 -27 c62 -40 53 -168 -15 -231 -44 -39 -87 -51 -109 -29 -8 9 -21 16 -29
16 -22 0 -75 69 -75 98 1 62 60 147 113 164 29 9 87 0 115 -18z m345 -186 c6
-41 4 -48 -13 -53 -11 -4 -20 -13 -20 -21 0 -8 -5 -23 -12 -33 -9 -15 -9 -28
0 -58 7 -24 8 -39 2 -41 -6 -2 -10 -10 -10 -17 0 -7 -7 -16 -16 -19 -13 -5
-15 -18 -11 -66 3 -39 0 -66 -8 -78 -7 -10 -13 -34 -12 -55 0 -20 -4 -42 -10
-48 -20 -20 -20 70 0 125 14 38 17 66 13 110 -5 45 -2 68 14 103 13 31 20 67
20 112 0 117 50 147 63 39z m-336 -115 c16 -74 7 -177 -18 -228 -43 -87 -174
-133 -220 -76 -31 37 -21 190 14 216 58 43 79 67 69 77 -9 9 -17 6 -33 -8 -22
-19 -22 -19 -10 4 11 21 17 23 64 17 42 -5 58 -2 82 14 41 27 43 26 52 -16z"/>
<path d="M1015 218 c-15 -46 -34 -89 -42 -96 -29 -30 -9 -62 43 -68 47 -6 88
13 92 43 4 25 -31 53 -65 53 l-23 0 25 69 c29 79 29 81 12 81 -7 0 -26 -36
-42 -82z m54 -111 c15 -19 4 -27 -35 -27 -39 0 -52 14 -27 29 25 14 49 13 62
-2z"/>
<path d="M1174 223 c-4 -43 -8 -98 -9 -123 l0 -45 38 -3 c44 -4 82 17 92 48
10 31 -12 50 -57 50 l-40 0 7 75 c6 62 4 75 -8 75 -11 0 -17 -20 -23 -77z m84
-120 c-2 -12 -14 -19 -35 -21 -27 -3 -31 -1 -26 17 7 28 66 31 61 4z"/>
</g>
</svg>
