<?xml version="1.0" standalone="no"?>
<!DOCTYPE svg PUBLIC "-//W3C//DTD SVG 20010904//EN"
 "http://www.w3.org/TR/2001/REC-SVG-20010904/DTD/svg10.dtd">
<svg version="1.0" xmlns="http://www.w3.org/2000/svg"
 width="295.000000pt" height="179.000000pt" viewBox="0 0 295.000000 179.000000"
 preserveAspectRatio="xMidYMid meet">
<metadata>
Created by potrace 1.13, written by Peter Selinger 2001-2015
</metadata>
<g transform="translate(0.000000,179.000000) scale(0.100000,-0.100000)"
fill="#000000" stroke="none">
<path d="M120 1605 l0 -75 55 0 c30 0 55 5 55 10 0 6 -20 10 -45 10 -41 0 -45
2 -45 25 0 23 4 25 40 25 22 0 40 5 40 10 0 6 -18 10 -40 10 -33 0 -40 3 -40
20 0 17 7 20 45 20 25 0 45 5 45 10 0 6 -25 10 -55 10 l-55 0 0 -75z"/>
<path d="M593 1660 c-15 -38 -2 -124 20 -128 9 -2 17 1 17 7 0 6 -4 11 -10 11
-15 0 -12 67 3 73 9 4 9 8 1 14 -7 4 -14 17 -16 28 -4 18 -6 18 -15 -5z"/>
<path d="M880 1605 c0 -43 4 -75 10 -75 6 0 10 32 10 75 0 43 -4 75 -10 75 -6
0 -10 -32 -10 -75z"/>
<path d="M920 1605 c0 -43 4 -75 10 -75 6 0 10 32 10 75 0 43 -4 75 -10 75 -6
0 -10 -32 -10 -75z"/>
<path d="M1193 1660 c-15 -38 -2 -124 20 -128 9 -2 17 1 17 7 0 6 -4 11 -10
11 -15 0 -12 67 3 73 9 4 9 8 1 14 -7 4 -14 17 -16 28 -4 18 -6 18 -15 -5z"/>
<path d="M1250 1605 c0 -80 17 -104 22 -32 2 34 7 42 23 42 16 0 21 -8 23 -42
4 -56 22 -55 22 1 0 48 -18 71 -50 63 -16 -4 -20 0 -20 19 0 13 -4 24 -10 24
-6 0 -10 -32 -10 -75z"/>
<path d="M1540 1605 c0 -80 17 -104 22 -32 2 34 7 42 23 42 16 0 21 -8 23 -42
4 -56 22 -55 22 1 0 48 -18 71 -50 63 -16 -4 -20 0 -20 19 0 13 -4 24 -10 24
-6 0 -10 -32 -10 -75z"/>
<path d="M1770 1605 c0 -43 4 -75 10 -75 6 0 10 32 10 75 0 43 -4 75 -10 75
-6 0 -10 -32 -10 -75z"/>
<path d="M2100 1606 l0 -74 37 1 c31 2 39 7 47 29 14 41 -7 82 -39 75 -21 -3
-25 0 -25 19 0 13 -4 24 -10 24 -6 0 -10 -31 -10 -74z m65 -21 c0 -23 -4 -30
-20 -30 -21 0 -31 25 -21 51 11 28 41 12 41 -21z"/>
<path d="M2440 1670 c0 -5 5 -10 10 -10 6 0 10 5 10 10 0 6 -4 10 -10 10 -5 0
-10 -4 -10 -10z"/>
<path d="M240 1635 c0 -10 50 -105 55 -105 9 0 56 102 51 108 -8 7 -10 4 -33
-41 l-19 -39 -19 41 c-15 35 -35 55 -35 36z"/>
<path d="M376 1624 c-34 -33 -9 -94 38 -94 13 0 29 7 36 15 10 13 7 14 -25 12
-23 -1 -40 3 -42 11 -3 8 8 12 36 12 29 0 41 4 41 14 0 20 -28 46 -50 46 -10
0 -26 -7 -34 -16z m59 -14 c4 -6 -7 -10 -25 -10 -18 0 -29 4 -25 10 3 6 15 10
25 10 10 0 22 -4 25 -10z"/>
<path d="M480 1583 c0 -63 17 -72 22 -10 2 34 7 42 23 42 16 0 21 -8 23 -42 4
-56 22 -55 22 1 0 51 -13 65 -58 64 -32 -1 -32 -1 -32 -55z"/>
<path d="M650 1596 c0 -51 13 -65 58 -64 32 1 32 1 32 55 0 63 -17 72 -22 11
-2 -35 -7 -43 -23 -43 -16 0 -21 8 -23 43 -4 55 -22 54 -22 -2z"/>
<path d="M773 1634 c-27 -11 -12 -23 22 -17 44 7 46 -11 3 -23 -26 -8 -33 -15
-33 -34 0 -23 4 -25 45 -26 l45 -1 -5 51 c-5 48 -7 51 -35 53 -16 1 -36 0 -42
-3z m55 -66 c-5 -16 -48 -24 -48 -10 0 11 17 20 38 21 8 1 12 -5 10 -11z"/>
<path d="M966 1618 c3 -13 13 -36 21 -51 16 -32 11 -57 -12 -57 -8 0 -15 -5
-15 -11 0 -6 10 -9 22 -7 16 2 27 15 39 48 25 69 31 100 19 100 -6 0 -13 -14
-17 -30 -8 -43 -17 -44 -32 -4 -14 37 -37 48 -25 12z"/>
<path d="M1376 1624 c-34 -33 -9 -94 38 -94 13 0 29 7 36 15 10 13 7 14 -25
12 -23 -1 -40 3 -42 11 -3 8 8 12 36 12 29 0 41 4 41 14 0 20 -28 46 -50 46
-10 0 -26 -7 -34 -16z m59 -14 c4 -6 -7 -10 -25 -10 -18 0 -29 4 -25 10 3 6
15 10 25 10 10 0 22 -4 25 -10z"/>
<path d="M1666 1624 c-32 -32 -10 -94 34 -94 26 0 50 27 50 55 0 28 -24 55
-50 55 -10 0 -26 -7 -34 -16z m59 -39 c0 -25 -4 -30 -25 -30 -16 0 -26 6 -28
18 -6 30 6 49 30 45 18 -2 23 -9 23 -33z"/>
<path d="M1826 1624 c-34 -33 -9 -94 38 -94 13 0 29 7 36 15 10 13 7 14 -25
12 -23 -1 -40 3 -42 11 -3 8 8 12 36 12 29 0 41 4 41 14 0 20 -28 46 -50 46
-10 0 -26 -7 -34 -16z m59 -14 c4 -6 -7 -10 -25 -10 -18 0 -29 4 -25 10 3 6
15 10 25 10 10 0 22 -4 25 -10z"/>
<path d="M1940 1625 c-18 -22 -6 -41 29 -48 45 -9 40 -31 -5 -24 -30 5 -34 4
-24 -8 26 -31 90 -6 77 29 -3 8 -19 17 -36 21 -44 9 -40 29 5 22 30 -5 34 -4
24 8 -16 19 -54 19 -70 0z"/>
<path d="M2226 1624 c-34 -33 -9 -94 38 -94 13 0 29 7 36 15 10 13 7 14 -25
12 -23 -1 -40 3 -42 11 -3 8 8 12 36 12 29 0 41 4 41 14 0 20 -28 46 -50 46
-10 0 -26 -7 -34 -16z m59 -14 c4 -6 -7 -10 -25 -10 -18 0 -29 4 -25 10 3 6
15 10 25 10 10 0 22 -4 25 -10z"/>
<path d="M2338 1614 c-18 -38 0 -79 35 -79 15 1 26 -4 24 -10 -2 -5 -18 -9
-36 -9 -38 2 -41 -13 -4 -22 44 -11 58 6 61 78 l3 65 -36 1 c-29 1 -38 -3 -47
-24z m57 -29 c0 -23 -4 -30 -20 -30 -21 0 -31 25 -21 51 11 28 41 12 41 -21z"/>
<path d="M2440 1585 c0 -30 5 -55 10 -55 6 0 10 25 10 55 0 30 -4 55 -10 55
-5 0 -10 -25 -10 -55z"/>
<path d="M2490 1583 c0 -63 17 -72 22 -10 2 34 7 42 23 42 16 0 21 -8 23 -42
4 -56 22 -55 22 1 0 51 -13 65 -58 64 -32 -1 -32 -1 -32 -55z"/>
<path d="M1084 1526 c0 -13 4 -22 9 -19 10 6 9 43 -2 43 -5 0 -8 -11 -7 -24z"/>
<path d="M113 1420 c-15 -38 -2 -124 20 -128 9 -2 17 1 17 7 0 6 -4 11 -10 11
-15 0 -12 67 3 73 9 4 9 8 1 14 -7 4 -14 17 -16 28 -4 18 -6 18 -15 -5z"/>
<path d="M1290 1416 c0 -19 -4 -22 -25 -19 -32 7 -53 -34 -39 -75 8 -22 16
-27 47 -29 l37 -1 0 74 c0 43 -4 74 -10 74 -5 0 -10 -11 -10 -24z m-5 -71 c0
-23 -4 -30 -20 -30 -21 0 -31 25 -21 51 11 28 41 12 41 -21z"/>
<path d="M1390 1430 c0 -5 5 -10 10 -10 6 0 10 5 10 10 0 6 -4 10 -10 10 -5 0
-10 -4 -10 -10z"/>
<path d="M1443 1420 c-15 -38 -2 -124 20 -128 9 -2 17 1 17 7 0 6 -4 11 -10
11 -15 0 -12 67 3 73 9 4 9 8 1 14 -7 4 -14 17 -16 28 -4 18 -6 18 -15 -5z"/>
<path d="M1560 1366 l0 -74 37 1 c31 2 39 7 47 29 14 41 -7 82 -39 75 -21 -3
-25 0 -25 19 0 13 -4 24 -10 24 -6 0 -10 -31 -10 -74z m65 -21 c0 -23 -4 -30
-20 -30 -21 0 -31 25 -21 51 11 28 41 12 41 -21z"/>
<path d="M186 1384 c-32 -32 -10 -94 34 -94 26 0 50 27 50 55 0 28 -24 55 -50
55 -10 0 -26 -7 -34 -16z m59 -39 c0 -25 -4 -30 -25 -30 -16 0 -26 6 -28 18
-6 30 6 49 30 45 18 -2 23 -9 23 -33z"/>
<path d="M350 1343 c0 -63 17 -72 22 -11 2 31 8 44 21 46 14 3 17 -4 17 -42 0
-58 18 -61 22 -4 2 31 8 44 21 46 14 3 17 -4 17 -42 0 -25 5 -46 10 -46 6 0
10 23 10 50 0 56 -17 73 -51 51 -11 -6 -19 -7 -19 -1 0 5 -16 9 -35 8 l-35 -1
0 -54z"/>
<path d="M526 1384 c-34 -33 -9 -94 38 -94 13 0 29 7 36 15 10 13 7 14 -25 12
-23 -1 -40 3 -42 11 -3 8 8 12 36 12 29 0 41 4 41 14 0 20 -28 46 -50 46 -10
0 -26 -7 -34 -16z m59 -14 c4 -6 -7 -10 -25 -10 -18 0 -29 4 -25 10 3 6 15 10
25 10 10 0 22 -4 25 -10z"/>
<path d="M630 1343 c0 -29 5 -53 10 -53 6 0 10 18 10 41 0 32 4 42 20 46 30 8
24 22 -10 21 -29 -1 -30 -2 -30 -55z"/>
<path d="M708 1374 c-18 -38 0 -79 35 -79 15 1 26 -4 24 -10 -2 -5 -18 -9 -36
-9 -38 2 -41 -13 -4 -22 44 -11 58 6 61 78 l3 65 -36 1 c-29 1 -38 -3 -47 -24z
m57 -29 c0 -23 -4 -30 -20 -30 -21 0 -31 25 -21 51 11 28 41 12 41 -21z"/>
<path d="M826 1384 c-20 -20 -20 -58 0 -78 20 -20 58 -21 74 -1 10 13 7 14
-25 12 -23 -1 -40 3 -42 11 -3 8 8 12 36 12 29 0 41 4 41 14 0 20 -28 46 -50
46 -10 0 -26 -7 -34 -16z m59 -14 c4 -6 -7 -10 -25 -10 -18 0 -29 4 -25 10 3
6 15 10 25 10 10 0 22 -4 25 -10z"/>
<path d="M1003 1394 c-27 -11 -12 -23 22 -17 44 7 46 -11 3 -23 -26 -8 -33
-15 -33 -34 0 -23 4 -25 45 -26 l45 -1 -5 51 c-5 48 -7 51 -35 53 -16 1 -36 0
-42 -3z m55 -66 c-5 -16 -48 -24 -48 -10 0 11 17 20 38 21 8 1 12 -5 10 -11z"/>
<path d="M1110 1343 c0 -63 17 -72 22 -10 2 34 7 42 23 42 16 0 21 -8 23 -42
4 -56 22 -55 22 1 0 51 -13 65 -58 64 -32 -1 -32 -1 -32 -55z"/>
<path d="M1390 1345 c0 -30 5 -55 10 -55 6 0 10 25 10 55 0 30 -4 55 -10 55
-5 0 -10 -25 -10 -55z"/>
<path d="M1686 1384 c-34 -33 -9 -94 38 -94 13 0 29 7 36 15 10 13 7 14 -25
12 -23 -1 -40 3 -42 11 -3 8 8 12 36 12 29 0 41 4 41 14 0 20 -28 46 -50 46
-10 0 -26 -7 -34 -16z m59 -14 c4 -6 -7 -10 -25 -10 -18 0 -29 4 -25 10 3 6
15 10 25 10 10 0 22 -4 25 -10z"/>
<path d="M1806 1384 c-31 -31 -12 -94 28 -94 24 0 54 26 43 37 -4 3 -13 0 -22
-7 -21 -18 -45 -5 -45 25 0 30 24 43 45 25 20 -17 32 -5 15 15 -16 19 -44 19
-64 -1z"/>
<path d="M1916 1384 c-32 -32 -10 -94 34 -94 26 0 50 27 50 55 0 28 -24 55
-50 55 -10 0 -26 -7 -34 -16z m59 -39 c0 -25 -4 -30 -25 -30 -16 0 -26 6 -28
18 -6 30 6 49 30 45 18 -2 23 -9 23 -33z"/>
<path d="M2020 1343 c0 -63 17 -72 22 -11 2 31 8 44 21 46 14 3 17 -4 17 -42
0 -58 18 -61 22 -4 2 31 8 44 21 46 14 3 17 -4 17 -42 0 -25 5 -46 10 -46 6 0
10 23 10 50 0 56 -17 73 -51 51 -11 -6 -19 -7 -19 -1 0 5 -16 9 -35 8 l-35 -1
0 -54z"/>
<path d="M2196 1384 c-34 -33 -9 -94 38 -94 13 0 29 7 36 15 10 13 7 14 -25
12 -23 -1 -40 3 -42 11 -3 8 8 12 36 12 29 0 41 4 41 14 0 20 -28 46 -50 46
-10 0 -26 -7 -34 -16z m59 -14 c4 -6 -7 -10 -25 -10 -18 0 -29 4 -25 10 3 6
15 10 25 10 10 0 22 -4 25 -10z"/>
<path d="M2310 1385 c-18 -22 -6 -41 29 -48 45 -9 40 -31 -5 -24 -30 5 -34 4
-24 -8 26 -31 90 -6 77 29 -3 8 -19 17 -36 21 -44 9 -40 29 5 22 30 -5 34 -4
24 8 -16 19 -54 19 -70 0z"/>
<path d="M180 1176 c0 -19 -4 -22 -25 -19 -32 7 -53 -34 -39 -75 8 -22 16 -27
47 -29 l37 -1 0 74 c0 43 -4 74 -10 74 -5 0 -10 -11 -10 -24z m-5 -71 c0 -23
-4 -30 -20 -30 -21 0 -31 25 -21 51 11 28 41 12 41 -21z"/>
<path d="M450 1126 l0 -74 37 1 c31 2 39 7 47 29 14 41 -7 82 -39 75 -21 -3
-25 0 -25 19 0 13 -4 24 -10 24 -6 0 -10 -31 -10 -74z m65 -21 c0 -23 -4 -30
-20 -30 -21 0 -31 25 -21 51 11 28 41 12 41 -21z"/>
<path d="M560 1125 c0 -43 4 -75 10 -75 6 0 10 32 10 75 0 43 -4 75 -10 75 -6
0 -10 -32 -10 -75z"/>
<path d="M1453 1180 c-15 -38 -2 -124 20 -128 9 -2 17 1 17 7 0 6 -4 11 -10
11 -15 0 -12 67 3 73 9 4 9 8 1 14 -7 4 -14 17 -16 28 -4 18 -6 18 -15 -5z"/>
<path d="M1700 1176 c0 -19 -4 -22 -25 -19 -32 7 -53 -34 -39 -75 8 -22 16
-27 47 -29 l37 -1 0 74 c0 43 -4 74 -10 74 -5 0 -10 -11 -10 -24z m-5 -71 c0
-23 -4 -30 -20 -30 -21 0 -31 25 -21 51 11 28 41 12 41 -21z"/>
<path d="M236 1144 c-32 -32 -10 -94 34 -94 26 0 50 27 50 55 0 28 -24 55 -50
55 -10 0 -26 -7 -34 -16z m59 -39 c0 -25 -4 -30 -25 -30 -16 0 -26 6 -28 18
-6 30 6 49 30 45 18 -2 23 -9 23 -33z"/>
<path d="M340 1116 c0 -51 13 -65 58 -64 32 1 32 1 32 55 0 63 -17 72 -22 11
-2 -35 -7 -43 -23 -43 -16 0 -21 8 -23 43 -4 55 -22 54 -22 -2z"/>
<path d="M606 1138 c3 -13 13 -36 21 -51 16 -32 11 -57 -12 -57 -8 0 -15 -5
-15 -11 0 -6 10 -9 22 -7 16 2 27 15 39 48 25 69 31 100 19 100 -6 0 -13 -14
-17 -30 -8 -43 -17 -44 -32 -4 -14 37 -37 48 -25 12z"/>
<path d="M786 1144 c-31 -31 -12 -94 28 -94 24 0 54 26 43 37 -4 3 -13 0 -22
-7 -21 -18 -45 -5 -45 25 0 30 24 43 45 25 20 -17 32 -5 15 15 -16 19 -44 19
-64 -1z"/>
<path d="M896 1144 c-32 -32 -10 -94 34 -94 26 0 50 27 50 55 0 28 -24 55 -50
55 -10 0 -26 -7 -34 -16z m59 -39 c0 -25 -4 -30 -25 -30 -16 0 -26 6 -28 18
-6 30 6 49 30 45 18 -2 23 -9 23 -33z"/>
<path d="M1000 1103 c0 -63 17 -72 22 -10 2 34 7 42 23 42 16 0 21 -8 23 -42
4 -56 22 -55 22 1 0 51 -13 65 -58 64 -32 -1 -32 -1 -32 -55z"/>
<path d="M1110 1103 c0 -63 17 -72 22 -10 2 34 7 42 23 42 16 0 21 -8 23 -42
4 -56 22 -55 22 1 0 51 -13 65 -58 64 -32 -1 -32 -1 -32 -55z"/>
<path d="M1236 1144 c-20 -20 -20 -58 0 -78 20 -20 58 -21 74 -1 10 13 7 14
-25 12 -23 -1 -40 3 -42 11 -3 8 8 12 36 12 29 0 41 4 41 14 0 20 -28 46 -50
46 -10 0 -26 -7 -34 -16z m59 -14 c4 -6 -7 -10 -25 -10 -18 0 -29 4 -25 10 3
6 15 10 25 10 10 0 22 -4 25 -10z"/>
<path d="M1356 1144 c-31 -31 -12 -94 28 -94 24 0 54 26 43 37 -4 3 -13 0 -22
-7 -21 -18 -45 -5 -45 25 0 30 24 43 45 25 20 -17 32 -5 15 15 -16 19 -44 19
-64 -1z"/>
<path d="M1526 1144 c-34 -33 -9 -94 38 -94 13 0 29 7 36 15 10 13 7 14 -25
12 -23 -1 -40 3 -42 11 -3 8 8 12 36 12 29 0 41 4 41 14 0 20 -28 46 -50 46
-10 0 -26 -7 -34 -16z m59 -14 c4 -6 -7 -10 -25 -10 -18 0 -29 4 -25 10 3 6
15 10 25 10 10 0 22 -4 25 -10z"/>
<path d="M1750 1060 c0 -5 5 -10 10 -10 6 0 10 5 10 10 0 6 -4 10 -10 10 -5 0
-10 -4 -10 -10z"/>
<path d="M685 867 c-44 -4 -111 -16 -150 -26 -78 -19 -72 -11 -94 -141 -18
-105 -51 -272 -62 -313 -17 -63 27 -95 51 -37 15 36 23 37 49 9 17 -18 19 -30
13 -68 -11 -72 -9 -144 5 -148 7 -3 21 10 32 29 11 18 26 40 34 48 8 8 25 35
37 60 12 24 33 53 47 63 13 10 35 40 49 65 14 26 22 38 19 28 -3 -10 -13 -48
-22 -83 -14 -59 -14 -66 0 -80 14 -15 19 -13 52 15 20 18 40 32 45 32 5 0 14
16 21 35 7 19 14 33 15 32 2 -2 -3 -40 -11 -86 -11 -60 -12 -88 -4 -97 13 -16
36 -8 44 17 5 14 12 18 29 13 17 -4 28 3 48 31 16 23 28 33 33 25 5 -8 12 -7
25 5 10 9 21 15 26 14 23 -4 32 5 54 51 27 57 45 66 36 18 -18 -101 -18 -134
-1 -148 37 -31 61 16 111 217 20 81 33 110 58 137 17 20 40 58 50 87 24 66 11
140 -34 182 l-29 27 -248 -2 c-136 -1 -284 -6 -328 -11z m560 -17 c23 -4 -145
-41 -253 -55 -193 -25 -305 -29 -403 -15 -49 7 -89 16 -89 20 0 21 228 49 435
53 116 2 293 1 310 -3z m45 -46 c0 -17 -23 -27 -140 -61 -77 -23 -105 -26
-290 -28 -113 -2 -241 1 -284 6 -44 5 -81 7 -84 4 -19 -19 35 -29 205 -38 219
-12 384 3 515 47 42 14 79 26 82 26 3 0 6 -16 6 -36 0 -35 -26 -94 -42 -94
-18 0 -40 -55 -73 -184 -32 -124 -49 -176 -59 -176 -2 0 -1 40 2 89 5 89 -1
107 -31 95 -8 -3 -25 -26 -38 -52 -16 -30 -30 -46 -40 -44 -9 1 -22 -4 -28
-12 -7 -8 -18 -13 -25 -10 -14 5 -66 -49 -66 -69 0 -8 -4 -7 -12 1 -17 17 -36
15 -42 -6 -3 -9 -2 8 1 38 12 102 10 134 -10 138 -13 3 -23 -9 -38 -42 -13
-31 -24 -43 -34 -40 -10 4 -19 -4 -26 -22 -20 -50 -22 -7 -4 67 16 64 16 72 2
86 -21 21 -30 13 -61 -53 -16 -34 -35 -58 -47 -61 -11 -3 -29 -25 -41 -52 -11
-25 -29 -52 -39 -59 -9 -6 -20 -26 -24 -43 -13 -60 -16 -20 -4 66 7 54 8 90 2
94 -5 3 -12 14 -16 24 -4 10 -11 16 -16 12 -6 -3 -14 2 -19 10 -9 18 -42 10
-42 -9 0 -7 -7 -21 -14 -32 -13 -17 -13 -12 -2 36 7 30 19 87 25 125 31 180
43 226 60 221 9 -3 54 -10 101 -16 131 -16 451 16 625 63 55 15 65 13 65 -9z"/>
<path d="M1572 598 c-1 -23 -7 -45 -14 -49 -7 -5 -9 -11 -6 -15 10 -10 40 4
33 15 -3 5 -1 28 4 50 7 31 6 41 -3 41 -8 0 -13 -16 -14 -42z"/>
<path d="M2032 628 c-7 -7 -12 -32 -12 -56 0 -40 2 -43 23 -37 24 8 47 32 47
50 0 6 -10 21 -23 33 -18 17 -26 19 -35 10z m38 -44 c0 -14 -7 -27 -15 -31
-23 -8 -28 1 -20 36 8 36 35 32 35 -5z"/>
<path d="M2270 628 c0 -4 5 -8 11 -8 8 0 9 -15 4 -46 -4 -32 -3 -44 4 -39 6 3
11 24 11 45 0 29 5 40 18 42 10 3 4 6 -15 9 -18 3 -33 2 -33 -3z"/>
<path d="M1717 623 c-11 -20 -15 -60 -7 -72 12 -21 47 -21 65 -1 20 22 37 80
24 80 -5 0 -9 -7 -9 -15 0 -20 -22 -65 -32 -65 -4 0 -8 8 -8 17 0 15 -2 14
-16 -3 -14 -18 -15 -16 -11 24 5 40 3 51 -6 35z"/>
<path d="M1817 601 c-23 -40 -22 -71 2 -71 25 0 51 37 51 72 0 38 -30 37 -53
-1z m43 0 c0 -22 -35 -69 -45 -60 -9 9 22 79 34 79 6 0 11 -9 11 -19z"/>
<path d="M1936 605 c-16 -61 -52 -78 -41 -19 4 24 3 34 -4 29 -6 -3 -11 -22
-11 -41 0 -31 3 -35 22 -32 25 3 52 48 46 76 -3 11 -6 7 -12 -13z"/>
<path d="M1960 611 c0 -10 -3 -33 -6 -50 -6 -27 -4 -31 14 -31 12 0 24 5 27
10 3 6 -3 10 -14 10 -12 0 -19 5 -17 13 13 40 15 67 6 67 -5 0 -10 -8 -10 -19z"/>
<path d="M2218 619 c-22 -13 -23 -27 -2 -51 14 -14 14 -18 3 -22 -40 -13 -42
-14 -16 -15 35 -1 48 26 21 46 -18 14 -18 15 6 33 26 21 18 27 -12 9z"/>
<path d="M2346 619 c-10 -32 -14 -89 -7 -89 10 0 25 89 17 97 -3 3 -8 0 -10
-8z"/>
<path d="M2380 608 c0 -13 -3 -33 -6 -45 -6 -20 -3 -23 25 -23 18 0 30 4 26
10 -3 5 -13 6 -22 3 -14 -5 -15 0 -10 35 3 23 1 42 -4 42 -5 0 -9 -10 -9 -22z"/>
<path d="M2456 593 c-4 -16 -9 -36 -12 -45 -4 -14 1 -18 25 -18 16 0 33 5 37
11 5 9 -1 10 -20 5 -26 -6 -26 -6 -20 34 7 45 0 55 -10 13z"/>
<path d="M1530 470 c0 -5 8 -10 18 -10 14 0 17 -8 15 -47 l-1 -48 10 48 c6 26
16 47 22 48 16 1 -26 17 -46 18 -10 1 -18 -3 -18 -9z"/>
<path d="M1690 470 c0 -5 5 -10 11 -10 8 0 9 -16 5 -51 -5 -34 -4 -49 4 -44 5
3 10 26 10 51 0 39 3 44 23 45 21 0 21 1 2 9 -28 12 -55 12 -55 0z"/>
<path d="M1782 468 c-16 -20 -43 -98 -33 -98 4 0 13 18 20 40 12 40 31 63 31
36 0 -8 -6 -17 -12 -20 -10 -5 -10 -7 -1 -12 7 -3 9 -12 6 -20 -3 -8 -1 -14 5
-14 14 0 20 69 7 87 -10 13 -13 13 -23 1z"/>
<path d="M2310 439 c-12 -22 -20 -48 -18 -57 2 -10 11 3 21 31 18 46 37 62 37
32 0 -8 -4 -15 -9 -15 -5 0 -8 -11 -7 -25 3 -52 26 -11 26 48 0 41 -26 34 -50
-14z"/>
<path d="M2563 466 c16 -12 18 -22 12 -57 -5 -29 -4 -40 4 -35 6 4 11 25 11
47 0 32 3 39 20 39 39 0 19 15 -23 17 -38 3 -40 2 -24 -11z"/>
<path d="M2700 461 c0 -11 -4 -22 -9 -25 -15 -10 -40 5 -34 20 3 8 0 14 -6 14
-6 0 -11 -10 -11 -22 0 -13 -3 -33 -6 -45 -4 -14 -2 -23 5 -23 6 0 11 9 11 20
0 29 38 27 42 -2 2 -16 7 -8 14 25 6 26 7 50 3 53 -5 3 -9 -4 -9 -15z"/>
<path d="M2745 468 c-11 -36 -16 -92 -7 -83 10 10 24 95 16 95 -3 0 -6 -6 -9
-12z"/>
<path d="M1627 452 c-19 -21 -23 -67 -7 -77 24 -15 66 49 54 80 -8 20 -27 19
-47 -3z m14 -56 l-21 -20 0 23 c0 14 8 33 18 44 17 19 17 19 20 -3 2 -13 -5
-31 -17 -44z"/>
<path d="M1841 426 c-14 -58 -15 -56 14 -56 14 0 25 5 25 10 0 6 -7 10 -15 10
-12 0 -14 8 -9 40 9 54 -1 51 -15 -4z"/>
<path d="M2132 428 c3 -40 5 -43 36 -46 27 -3 34 1 42 23 6 14 10 36 9 48 -1
15 -4 11 -11 -13 -12 -43 -28 -62 -28 -34 -1 19 -1 19 -15 0 -13 -17 -15 -17
-21 -3 -3 10 -3 28 0 42 4 15 2 25 -4 25 -7 0 -10 -17 -8 -42z"/>
<path d="M2231 433 c-6 -21 -11 -44 -11 -50 0 -15 46 -17 55 -3 3 6 -3 10 -14
10 -14 0 -21 6 -21 19 0 15 5 18 23 14 20 -4 21 -3 5 10 -10 8 -18 17 -18 20
0 3 8 8 18 10 13 4 12 5 -5 6 -17 1 -24 -7 -32 -36z"/>
<path d="M2385 429 c-9 -50 1 -64 10 -15 7 36 21 54 32 42 4 -4 1 -12 -5 -18
-7 -7 -8 -16 -3 -22 5 -6 11 -20 14 -31 2 -11 5 4 6 33 1 49 -1 52 -23 52 -21
0 -25 -6 -31 -41z"/>
<path d="M2805 450 c-18 -20 -15 -50 5 -50 6 0 9 -4 5 -10 -3 -5 -13 -6 -22
-3 -11 4 -14 3 -9 -5 10 -17 36 -15 43 4 4 10 0 20 -10 26 -18 10 -12 38 8 38
8 0 17 5 20 10 11 18 -22 10 -40 -10z"/>
<path d="M1907 433 c-3 -16 -9 -36 -12 -45 -6 -14 -2 -18 18 -18 14 0 29 5 32
11 4 6 0 9 -11 7 -16 -3 -19 3 -16 35 4 43 -3 49 -11 10z"/>
<path d="M1960 452 c0 -5 6 -17 14 -27 7 -10 12 -28 10 -39 -3 -12 2 -7 11 11
8 17 19 34 25 38 5 3 10 11 10 17 0 6 -8 4 -18 -5 -23 -21 -32 -21 -32 -2 0 8
-4 15 -10 15 -5 0 -10 -4 -10 -8z"/>
<path d="M2865 380 c-3 -5 -2 -10 4 -10 5 0 13 5 16 10 3 6 2 10 -4 10 -5 0
-13 -4 -16 -10z"/>
</g>
</svg>
