<?xml version="1.0" standalone="no"?>
<!DOCTYPE svg PUBLIC "-//W3C//DTD SVG 20010904//EN"
 "http://www.w3.org/TR/2001/REC-SVG-20010904/DTD/svg10.dtd">
<svg version="1.0" xmlns="http://www.w3.org/2000/svg"
 width="341.000000pt" height="179.000000pt" viewBox="0 0 341.000000 179.000000"
 preserveAspectRatio="xMidYMid meet">
<metadata>
Created by potrace 1.13, written by Peter Selinger 2001-2015
</metadata>
<g transform="translate(0.000000,179.000000) scale(0.100000,-0.100000)"
fill="#000000" stroke="none">
<path d="M222 1587 c-44 -46 -12 -127 49 -127 60 0 91 86 46 128 -30 28 -68
28 -95 -1z m82 -13 c32 -32 10 -94 -34 -94 -26 0 -50 27 -50 55 0 28 24 55 50
55 10 0 26 -7 34 -16z"/>
<path d="M723 1590 c-15 -38 -2 -124 20 -128 9 -2 17 1 17 7 0 6 -4 11 -10 11
-15 0 -12 67 3 73 9 4 9 8 1 14 -7 4 -14 17 -16 28 -4 18 -6 18 -15 -5z"/>
<path d="M780 1600 c0 -5 5 -10 10 -10 6 0 10 5 10 10 0 6 -4 10 -10 10 -5 0
-10 -4 -10 -10z"/>
<path d="M1230 1600 c0 -5 5 -10 10 -10 6 0 10 5 10 10 0 6 -4 10 -10 10 -5 0
-10 -4 -10 -10z"/>
<path d="M1283 1590 c-15 -38 -2 -124 20 -128 9 -2 17 1 17 7 0 6 -4 11 -10
11 -15 0 -12 67 3 73 9 4 9 8 1 14 -7 4 -14 17 -16 28 -4 18 -6 18 -15 -5z"/>
<path d="M1550 1600 c0 -5 5 -10 10 -10 6 0 10 5 10 10 0 6 -4 10 -10 10 -5 0
-10 -4 -10 -10z"/>
<path d="M1600 1535 c0 -43 4 -75 10 -75 6 0 10 32 10 75 0 43 -4 75 -10 75
-6 0 -10 -32 -10 -75z"/>
<path d="M1640 1535 c0 -43 4 -75 10 -75 6 0 10 32 10 75 0 43 -4 75 -10 75
-6 0 -10 -32 -10 -75z"/>
<path d="M1740 1536 l0 -74 37 1 c31 2 39 7 47 29 14 41 -7 82 -39 75 -21 -3
-25 0 -25 19 0 13 -4 24 -10 24 -6 0 -10 -31 -10 -74z m65 -21 c0 -23 -4 -30
-20 -30 -21 0 -31 25 -21 51 11 28 41 12 41 -21z"/>
<path d="M350 1565 c0 -10 50 -105 55 -105 9 0 56 102 51 108 -8 7 -10 4 -33
-41 l-19 -39 -19 41 c-15 35 -35 55 -35 36z"/>
<path d="M486 1554 c-34 -33 -9 -94 38 -94 13 0 29 7 36 15 10 13 7 14 -25 12
-23 -1 -40 3 -42 11 -3 8 8 12 36 12 29 0 41 4 41 14 0 20 -28 46 -50 46 -10
0 -26 -7 -34 -16z m59 -14 c4 -6 -7 -10 -25 -10 -18 0 -29 4 -25 10 3 6 15 10
25 10 10 0 22 -4 25 -10z"/>
<path d="M590 1513 c0 -29 5 -53 10 -53 6 0 10 18 10 41 0 32 4 42 20 46 30 8
24 22 -10 21 -29 -1 -30 -2 -30 -55z"/>
<path d="M780 1515 c0 -30 5 -55 10 -55 6 0 10 25 10 55 0 30 -4 55 -10 55 -5
0 -10 -25 -10 -55z"/>
<path d="M830 1513 c0 -63 17 -72 22 -11 2 31 8 44 21 46 14 3 17 -4 17 -42 0
-58 18 -61 22 -4 2 31 8 44 21 46 14 3 17 -4 17 -42 0 -25 5 -46 10 -46 6 0
10 23 10 50 0 56 -17 73 -51 51 -11 -6 -19 -7 -19 -1 0 5 -16 9 -35 8 l-35 -1
0 -54z"/>
<path d="M1006 1554 c-20 -20 -20 -58 0 -78 20 -20 58 -21 74 -1 10 13 7 14
-25 12 -23 -1 -40 3 -42 11 -3 8 8 12 36 12 29 0 41 4 41 14 0 20 -28 46 -50
46 -10 0 -26 -7 -34 -16z m59 -14 c4 -6 -7 -10 -25 -10 -18 0 -29 4 -25 10 3
6 15 10 25 10 10 0 22 -4 25 -10z"/>
<path d="M1230 1515 c0 -30 5 -55 10 -55 6 0 10 25 10 55 0 30 -4 55 -10 55
-5 0 -10 -25 -10 -55z"/>
<path d="M1396 1548 c14 -46 35 -88 43 -88 4 0 12 19 18 43 l9 42 8 -42 c9
-52 21 -54 40 -10 23 55 28 77 18 77 -5 0 -15 -19 -22 -41 l-14 -41 -10 37
c-6 20 -15 36 -21 36 -5 0 -15 -16 -21 -36 l-10 -37 -14 41 c-7 22 -17 41 -22
41 -5 0 -6 -10 -2 -22z"/>
<path d="M1550 1515 c0 -30 5 -55 10 -55 6 0 10 25 10 55 0 30 -4 55 -10 55
-5 0 -10 -25 -10 -55z"/>
<path d="M1866 1554 c-34 -33 -9 -94 38 -94 13 0 29 7 36 15 10 13 7 14 -25
12 -23 -1 -40 3 -42 11 -3 8 8 12 36 12 29 0 41 4 41 14 0 20 -28 46 -50 46
-10 0 -26 -7 -34 -16z m59 -14 c4 -6 -7 -10 -25 -10 -18 0 -29 4 -25 10 3 6
15 10 25 10 10 0 22 -4 25 -10z"/>
<path d="M1986 1554 c-31 -31 -12 -94 28 -94 24 0 54 26 43 37 -4 3 -13 0 -22
-7 -21 -18 -45 -5 -45 25 0 30 24 43 45 25 20 -17 32 -5 15 15 -16 19 -44 19
-64 -1z"/>
<path d="M2096 1554 c-32 -32 -10 -94 34 -94 26 0 50 27 50 55 0 28 -24 55
-50 55 -10 0 -26 -7 -34 -16z m59 -39 c0 -25 -4 -30 -25 -30 -16 0 -26 6 -28
18 -6 30 6 49 30 45 18 -2 23 -9 23 -33z"/>
<path d="M2200 1513 c0 -63 17 -72 22 -11 2 31 8 44 21 46 14 3 17 -4 17 -42
0 -58 18 -61 22 -4 2 31 8 44 21 46 14 3 17 -4 17 -42 0 -25 5 -46 10 -46 6 0
10 23 10 50 0 56 -17 73 -51 51 -11 -6 -19 -7 -19 -1 0 5 -16 9 -35 8 l-35 -1
0 -54z"/>
<path d="M2376 1554 c-34 -33 -9 -94 38 -94 13 0 29 7 36 15 10 13 7 14 -25
12 -23 -1 -40 3 -42 11 -3 8 8 12 36 12 29 0 41 4 41 14 0 20 -28 46 -50 46
-10 0 -26 -7 -34 -16z m59 -14 c4 -6 -7 -10 -25 -10 -18 0 -29 4 -25 10 3 6
15 10 25 10 10 0 22 -4 25 -10z"/>
<path d="M1124 1456 c0 -13 4 -22 9 -19 10 6 9 43 -2 43 -5 0 -8 -11 -7 -24z"/>
<path d="M200 1345 c0 -14 5 -25 10 -25 6 0 10 11 10 25 0 14 -4 25 -10 25 -5
0 -10 -11 -10 -25z"/>
<path d="M240 1345 c0 -14 5 -25 10 -25 6 0 10 11 10 25 0 14 -4 25 -10 25 -5
0 -10 -11 -10 -25z"/>
<path d="M1260 1345 c0 -14 5 -25 10 -25 6 0 10 11 10 25 0 14 -4 25 -10 25
-5 0 -10 -11 -10 -25z"/>
<path d="M1300 1345 c0 -14 5 -25 10 -25 6 0 10 11 10 25 0 14 -4 25 -10 25
-5 0 -10 -11 -10 -25z"/>
<path d="M1660 1295 c0 -43 4 -75 10 -75 6 0 10 32 10 75 0 43 -4 75 -10 75
-6 0 -10 -32 -10 -75z"/>
<path d="M1703 1350 c-15 -38 -2 -124 20 -128 9 -2 17 1 17 7 0 6 -4 11 -10
11 -15 0 -12 67 3 73 9 4 9 8 1 14 -7 4 -14 17 -16 28 -4 18 -6 18 -15 -5z"/>
<path d="M1760 1360 c0 -5 5 -10 10 -10 6 0 10 5 10 10 0 6 -4 10 -10 10 -5 0
-10 -4 -10 -10z"/>
<path d="M1920 1295 c0 -43 4 -75 10 -75 6 0 10 32 10 75 0 43 -4 75 -10 75
-6 0 -10 -32 -10 -75z"/>
<path d="M2813 1350 c-15 -38 -2 -124 20 -128 9 -2 17 1 17 7 0 6 -4 11 -10
11 -15 0 -12 67 3 73 9 4 9 8 1 14 -7 4 -14 17 -16 28 -4 18 -6 18 -15 -5z"/>
<path d="M3060 1346 c0 -19 -4 -22 -25 -19 -32 7 -53 -34 -39 -75 8 -22 16
-27 47 -29 l37 -1 0 74 c0 43 -4 74 -10 74 -5 0 -10 -11 -10 -24z m-5 -71 c0
-23 -4 -30 -20 -30 -21 0 -31 25 -21 51 11 28 41 12 41 -21z"/>
<path d="M286 1314 c-20 -20 -20 -58 0 -78 20 -20 58 -21 74 -1 10 13 7 14
-25 12 -23 -1 -40 3 -42 11 -3 8 8 12 36 12 29 0 41 4 41 14 0 20 -28 46 -50
46 -10 0 -26 -7 -34 -16z m59 -14 c4 -6 -7 -10 -25 -10 -18 0 -29 4 -25 10 3
6 15 10 25 10 10 0 22 -4 25 -10z"/>
<path d="M380 1325 c0 -10 50 -105 55 -105 9 0 56 102 51 108 -8 7 -10 4 -33
-41 l-19 -39 -19 41 c-15 35 -35 55 -35 36z"/>
<path d="M516 1314 c-34 -33 -9 -94 38 -94 13 0 29 7 36 15 10 13 7 14 -25 12
-23 -1 -40 3 -42 11 -3 8 8 12 36 12 29 0 41 4 41 14 0 20 -28 46 -50 46 -10
0 -26 -7 -34 -16z m59 -14 c4 -6 -7 -10 -25 -10 -18 0 -29 4 -25 10 3 6 15 10
25 10 10 0 22 -4 25 -10z"/>
<path d="M620 1273 c0 -63 17 -72 22 -10 2 34 7 42 23 42 16 0 21 -8 23 -42 4
-56 22 -55 22 1 0 51 -13 65 -58 64 -32 -1 -32 -1 -32 -55z"/>
<path d="M790 1273 c0 -63 17 -72 22 -11 2 31 8 44 21 46 14 3 17 -4 17 -42 0
-58 18 -61 22 -4 2 31 8 44 21 46 14 3 17 -4 17 -42 0 -25 5 -46 10 -46 6 0
10 23 10 50 0 56 -17 73 -51 51 -11 -6 -19 -7 -19 -1 0 5 -16 9 -35 8 l-35 -1
0 -54z"/>
<path d="M966 1314 c-32 -32 -10 -94 34 -94 26 0 50 27 50 55 0 28 -24 55 -50
55 -10 0 -26 -7 -34 -16z m59 -39 c0 -25 -4 -30 -25 -30 -16 0 -26 6 -28 18
-6 30 6 49 30 45 18 -2 23 -9 23 -33z"/>
<path d="M1070 1273 c0 -29 5 -53 10 -53 6 0 10 18 10 41 0 32 4 42 20 46 30
8 24 22 -10 21 -29 -1 -30 -2 -30 -55z"/>
<path d="M1156 1314 c-20 -20 -20 -58 0 -78 20 -20 58 -21 74 -1 10 13 7 14
-25 12 -23 -1 -40 3 -42 11 -3 8 8 12 36 12 29 0 41 4 41 14 0 20 -28 46 -50
46 -10 0 -26 -7 -34 -16z m59 -14 c4 -6 -7 -10 -25 -10 -18 0 -29 4 -25 10 3
6 15 10 25 10 10 0 22 -4 25 -10z"/>
<path d="M1390 1273 c0 -63 17 -72 22 -11 2 31 8 44 21 46 14 3 17 -4 17 -42
0 -58 18 -61 22 -4 2 31 8 44 21 46 14 3 17 -4 17 -42 0 -25 5 -46 10 -46 6 0
10 23 10 50 0 56 -17 73 -51 51 -11 -6 -19 -7 -19 -1 0 5 -16 9 -35 8 l-35 -1
0 -54z"/>
<path d="M1550 1286 c0 -51 13 -65 58 -64 32 1 32 1 32 55 0 63 -17 72 -22 11
-2 -35 -7 -43 -23 -43 -16 0 -21 8 -23 43 -4 55 -22 54 -22 -2z"/>
<path d="M1760 1275 c0 -30 5 -55 10 -55 6 0 10 25 10 55 0 30 -4 55 -10 55
-5 0 -10 -25 -10 -55z"/>
<path d="M1810 1254 c0 -43 4 -74 10 -74 6 0 10 11 10 24 0 19 4 22 25 19 32
-7 53 34 39 75 -8 22 -16 27 -47 29 l-37 1 0 -74z m65 21 c0 -23 -4 -30 -20
-30 -21 0 -31 25 -21 51 11 28 41 12 41 -21z"/>
<path d="M1966 1308 c3 -13 13 -36 21 -51 16 -32 11 -57 -12 -57 -8 0 -15 -5
-15 -11 0 -6 10 -9 22 -7 16 2 27 15 39 48 25 69 31 100 19 100 -6 0 -13 -14
-17 -30 -8 -43 -17 -44 -32 -4 -14 37 -37 48 -25 12z"/>
<path d="M2146 1314 c-31 -31 -12 -94 28 -94 24 0 54 26 43 37 -4 3 -13 0 -22
-7 -21 -18 -45 -5 -45 25 0 30 24 43 45 25 20 -17 32 -5 15 15 -16 19 -44 19
-64 -1z"/>
<path d="M2256 1314 c-32 -32 -10 -94 34 -94 26 0 50 27 50 55 0 28 -24 55
-50 55 -10 0 -26 -7 -34 -16z m59 -39 c0 -25 -4 -30 -25 -30 -16 0 -26 6 -28
18 -6 30 6 49 30 45 18 -2 23 -9 23 -33z"/>
<path d="M2360 1273 c0 -63 17 -72 22 -10 2 34 7 42 23 42 16 0 21 -8 23 -42
4 -56 22 -55 22 1 0 51 -13 65 -58 64 -32 -1 -32 -1 -32 -55z"/>
<path d="M2470 1273 c0 -63 17 -72 22 -10 2 34 7 42 23 42 16 0 21 -8 23 -42
4 -56 22 -55 22 1 0 51 -13 65 -58 64 -32 -1 -32 -1 -32 -55z"/>
<path d="M2596 1314 c-34 -33 -9 -94 38 -94 13 0 29 7 36 15 10 13 7 14 -25
12 -23 -1 -40 3 -42 11 -3 8 8 12 36 12 29 0 41 4 41 14 0 20 -28 46 -50 46
-10 0 -26 -7 -34 -16z m59 -14 c4 -6 -7 -10 -25 -10 -18 0 -29 4 -25 10 3 6
15 10 25 10 10 0 22 -4 25 -10z"/>
<path d="M2716 1314 c-31 -31 -12 -94 28 -94 24 0 54 26 43 37 -4 3 -13 0 -22
-7 -21 -18 -45 -5 -45 25 0 30 24 43 45 25 20 -17 32 -5 15 15 -16 19 -44 19
-64 -1z"/>
<path d="M2886 1314 c-34 -33 -9 -94 38 -94 13 0 29 7 36 15 10 13 7 14 -25
12 -23 -1 -40 3 -42 11 -3 8 8 12 36 12 29 0 41 4 41 14 0 20 -28 46 -50 46
-10 0 -26 -7 -34 -16z m59 -14 c4 -6 -7 -10 -25 -10 -18 0 -29 4 -25 10 3 6
15 10 25 10 10 0 22 -4 25 -10z"/>
<path d="M3110 1230 c0 -5 5 -10 10 -10 6 0 10 5 10 10 0 6 -4 10 -10 10 -5 0
-10 -4 -10 -10z"/>
<path d="M360 915 c-8 -2 -54 -9 -102 -16 -49 -7 -88 -15 -89 -18 0 -3 -2 -41
-5 -84 -5 -118 -33 -371 -50 -467 -22 -121 -24 -148 -11 -158 32 -23 110 -44
187 -49 76 -5 91 -3 142 20 56 25 72 43 92 109 7 22 39 39 56 28 10 -6 11 -17
3 -49 -8 -29 -8 -44 1 -55 43 -56 260 -44 343 20 l34 26 -3 91 -3 92 -28 3
c-23 3 -27 7 -21 24 4 12 1 24 -7 29 -11 6 -9 13 9 32 21 22 22 31 22 193 0
208 -2 211 -106 224 -62 8 -428 12 -464 5z m503 -30 c9 -4 17 -10 17 -14 0
-11 -235 -53 -326 -59 -82 -4 -254 17 -310 39 l-29 11 25 10 c54 22 571 32
623 13z m37 -54 c0 -27 -69 -58 -171 -78 -103 -19 -339 -13 -439 12 -36 9 -73
17 -82 18 -13 1 -18 10 -18 29 l0 27 38 -13 c126 -45 405 -46 567 -2 111 30
105 30 105 7z m2 -182 c-3 -103 -7 -128 -23 -151 -17 -23 -19 -35 -12 -70 7
-37 12 -43 36 -46 26 -3 27 -6 27 -58 l0 -54 -57 0 c-32 0 -96 -7 -143 -15
-110 -19 -107 -20 -113 14 -11 51 -85 52 -112 1 -13 -25 -17 -26 -70 -22 -31
2 -88 0 -128 -6 -40 -6 -98 -14 -131 -17 l-59 -7 6 29 c13 60 46 293 56 397 6
60 12 111 14 112 1 2 25 -3 52 -10 64 -17 231 -36 315 -36 89 0 230 25 282 49
24 10 48 18 53 17 6 -2 9 -50 7 -127z m13 -405 c15 -6 15 -8 -1 -25 -34 -37
-178 -64 -255 -48 -84 18 -59 38 79 63 86 15 152 19 177 10z m-456 -23 c21
-14 6 -39 -36 -57 -27 -12 -61 -17 -118 -15 -75 1 -175 24 -175 40 0 8 196 38
265 39 28 1 56 -2 64 -7z"/>
<path d="M769 677 c-37 -25 -54 -77 -25 -77 9 0 16 -8 16 -19 0 -11 6 -21 13
-24 16 -5 57 10 79 30 19 17 24 53 8 53 -5 0 -10 11 -10 24 0 21 -16 36 -39
36 -5 0 -23 -10 -42 -23z m51 -25 c0 -10 5 -23 11 -29 8 -8 4 -15 -12 -27 -31
-21 -38 -20 -32 4 3 13 -1 22 -11 26 -16 6 -16 8 0 25 22 24 44 24 44 1z"/>
<path d="M259 543 c-30 -35 -69 -103 -69 -118 0 -17 9 -19 29 -6 10 7 19 5 26
-6 9 -13 16 -13 33 -4 24 13 102 107 102 122 0 16 -27 21 -49 9 -17 -9 -21 -8
-21 5 0 20 -33 19 -51 -2z m65 -34 c29 24 17 -4 -14 -34 -17 -16 -30 -23 -30
-16 0 8 -8 11 -20 8 -24 -6 -25 1 -5 31 13 18 19 20 35 10 14 -9 22 -9 34 1z"/>
<path d="M753 509 c-12 -4 -27 -17 -33 -28 -6 -12 -16 -21 -23 -21 -7 0 -21
-14 -31 -32 l-19 -31 29 -24 c34 -27 43 -28 50 -8 4 8 16 15 28 15 31 0 48 40
40 91 -8 46 -11 50 -41 38z m11 -91 c-3 -4 -14 -8 -24 -8 -10 0 -22 -5 -25
-10 -7 -12 -25 -4 -25 11 0 5 7 9 15 9 9 0 18 8 22 18 3 9 11 23 17 31 8 10
12 7 18 -15 4 -15 5 -31 2 -36z"/>
<path d="M1155 829 c-27 -4 -32 -7 -14 -8 25 -1 26 -3 21 -52 -3 -37 -2 -50 7
-45 6 4 11 27 11 51 0 26 5 45 13 48 24 9 1 13 -38 6z"/>
<path d="M2456 831 c-4 -5 -9 -30 -12 -55 -7 -46 -7 -46 22 -45 25 2 26 2 6 6
-16 3 -22 9 -18 20 3 8 6 19 6 24 0 4 8 6 18 3 15 -5 15 -4 -2 10 -20 16 -14
38 9 29 8 -3 15 0 15 6 0 13 -36 15 -44 2z"/>
<path d="M1228 810 c-4 -14 -7 -38 -7 -55 1 -23 3 -25 6 -7 3 15 11 22 29 22
18 0 24 -6 25 -22 0 -22 1 -22 9 -3 5 11 9 36 9 55 l-1 35 -10 -27 c-6 -17
-17 -28 -28 -28 -13 0 -20 9 -22 28 l-3 27 -7 -25z"/>
<path d="M1388 819 c-24 -13 -23 -36 2 -49 26 -14 25 -28 -2 -32 -19 -3 -20
-4 -6 -10 9 -4 24 0 35 8 17 13 17 15 -11 38 l-28 23 23 17 c26 17 15 22 -13
5z"/>
<path d="M1527 783 c-6 -56 0 -71 9 -24 5 21 11 30 20 27 8 -3 14 -1 14 4 0 6
-7 10 -15 10 -23 0 -18 18 8 23 20 4 19 4 -4 6 -24 1 -27 -3 -32 -46z"/>
<path d="M1611 804 c-11 -14 -21 -32 -21 -40 0 -7 -3 -20 -7 -30 -4 -12 -3
-15 5 -10 7 4 12 15 12 26 0 26 38 14 43 -14 2 -11 5 -1 5 24 2 64 -10 79 -37
44z m29 -8 c0 -8 -7 -16 -15 -20 -15 -5 -21 14 -8 27 11 12 23 8 23 -7z"/>
<path d="M1760 820 c0 -5 6 -10 14 -10 10 0 13 -12 10 -47 l-3 -48 11 48 c9
35 16 47 30 47 10 0 18 5 18 10 0 6 -18 10 -40 10 -22 0 -40 -4 -40 -10z"/>
<path d="M1927 801 c-4 -18 -7 -43 -6 -55 0 -21 0 -21 11 2 13 25 64 33 55 7
-4 -8 -2 -17 2 -20 5 -3 11 16 13 41 2 25 0 48 -4 50 -5 3 -8 -4 -8 -15 0 -31
-47 -29 -52 2 -3 18 -5 16 -11 -12z"/>
<path d="M2041 816 c-7 -8 -14 -31 -16 -53 l-5 -38 11 35 c13 42 39 74 39 48
0 -9 -6 -19 -12 -21 -10 -4 -10 -8 1 -15 7 -5 10 -15 7 -21 -4 -6 -2 -11 3
-11 6 0 11 20 11 45 0 47 -16 59 -39 31z"/>
<path d="M2132 814 c-29 -20 -28 -30 6 -48 20 -11 23 -16 12 -19 -8 -3 -22 -8
-30 -10 -8 -3 -3 -6 12 -6 36 -1 46 18 20 40 -27 22 -27 28 0 38 12 4 17 11
11 14 -5 3 -19 -1 -31 -9z"/>
<path d="M2285 818 c-2 -7 -5 -30 -7 -50 -4 -33 -1 -38 18 -38 32 0 44 21 37
63 -4 28 -10 37 -25 37 -10 0 -20 -6 -23 -12z m35 -7 c0 -6 -5 -13 -11 -16 -6
-5 -4 -11 7 -19 19 -14 11 -36 -12 -36 -14 0 -21 60 -7 73 9 10 23 8 23 -2z"/>
<path d="M2366 808 c-3 -13 -6 -35 -6 -50 0 -23 4 -28 25 -28 14 0 25 4 25 9
0 5 -9 7 -21 4 -17 -5 -20 -2 -17 18 2 17 9 23 23 21 19 -2 19 -2 3 11 -24 19
-23 25 5 30 20 4 19 4 -4 6 -20 1 -28 -5 -33 -21z"/>
<path d="M2531 783 l2 -48 6 40 6 40 23 -39 c13 -22 27 -35 31 -30 13 14 21
84 10 84 -5 0 -9 -13 -9 -30 0 -38 -10 -38 -32 0 -25 44 -38 37 -37 -17z"/>
<path d="M2785 792 l-18 -37 -13 35 -14 35 6 -45 c9 -67 15 -69 41 -10 27 61
26 79 -2 22z"/>
<path d="M2821 784 c-6 -25 -9 -49 -6 -55 8 -12 42 -12 50 1 3 6 -5 10 -18 10
-20 0 -24 4 -20 20 3 11 13 20 22 21 10 0 11 2 4 6 -19 7 -16 31 5 36 13 4 13
5 -4 6 -18 1 -24 -8 -33 -45z"/>
<path d="M2900 805 c-5 -14 -10 -38 -9 -53 0 -26 1 -26 9 -4 12 27 40 29 40 2
0 -11 5 -20 10 -20 12 0 13 23 3 34 -5 4 -8 20 -8 34 0 37 -32 42 -45 7z m40
-4 c0 -5 -7 -11 -15 -15 -9 -3 -15 0 -15 9 0 8 7 15 15 15 8 0 15 -4 15 -9z"/>
<path d="M3034 785 c-3 -25 -4 -49 0 -52 3 -4 6 4 6 16 0 14 7 25 20 28 11 3
20 9 20 14 0 5 -7 6 -15 3 -8 -4 -15 -1 -15 5 0 6 9 11 20 11 11 0 20 5 20 10
0 6 -11 10 -24 10 -22 0 -26 -6 -32 -45z"/>
<path d="M3176 822 c-3 -5 -8 -27 -12 -49 -6 -40 -6 -41 22 -35 21 4 24 7 11
10 -25 5 -20 68 6 66 9 -1 17 2 17 7 0 11 -37 12 -44 1z"/>
<path d="M3260 804 c-6 -14 -10 -37 -10 -50 0 -22 3 -24 23 -18 12 3 28 11 35
16 19 16 14 56 -7 68 -28 14 -30 13 -41 -16z m45 -4 c11 -17 -5 -50 -24 -50
-14 0 -17 6 -13 30 4 29 25 40 37 20z"/>
<path d="M1327 813 c-4 -3 -6 -27 -6 -52 l1 -46 9 50 c8 51 7 60 -4 48z"/>
<path d="M1704 812 c-13 -8 -34 -46 -34 -61 0 -18 41 -34 53 -22 8 8 5 11 -10
11 -12 0 -25 4 -28 10 -9 15 13 50 38 60 13 5 16 9 7 9 -8 0 -20 -3 -26 -7z"/>
<path d="M2990 791 c0 -16 -3 -36 -6 -45 -3 -9 -2 -16 4 -16 5 0 12 20 14 45
2 25 0 45 -4 45 -5 0 -8 -13 -8 -29z"/>
<path d="M3118 775 c-2 -25 0 -45 4 -45 5 0 8 13 8 29 0 16 3 36 6 45 3 9 2
16 -4 16 -5 0 -12 -20 -14 -45z"/>
<path d="M3198 783 c7 -3 16 -2 19 1 4 3 -2 6 -13 5 -11 0 -14 -3 -6 -6z"/>
<path d="M1952 667 c-5 -7 -12 -31 -14 -54 -3 -41 -2 -43 24 -43 50 0 63 70
19 97 -15 9 -21 9 -29 0z m42 -33 c8 -20 -11 -54 -29 -54 -16 0 -19 20 -9 57
6 23 29 21 38 -3z"/>
<path d="M2053 670 c-13 -5 -23 -16 -23 -23 0 -8 -3 -29 -6 -46 -6 -28 -4 -31
20 -31 14 0 26 5 26 11 0 6 -7 9 -15 5 -11 -4 -15 1 -15 19 0 17 7 25 23 28
l22 4 -22 2 c-28 1 -31 21 -3 21 11 0 20 5 20 10 0 6 -1 10 -2 9 -2 0 -13 -4
-25 -9z"/>
<path d="M2280 642 c-16 -60 -13 -72 18 -71 24 2 25 2 4 6 -16 3 -22 9 -18 20
3 8 6 19 6 24 0 4 7 6 15 3 8 -4 15 -1 15 5 0 6 -7 11 -15 11 -24 0 -17 18 8
22 l22 3 -22 7 c-19 5 -24 1 -33 -30z"/>
<path d="M1130 659 c0 -6 7 -9 15 -5 12 4 15 -4 15 -46 0 -60 7 -61 11 -3 2
22 10 45 18 51 10 8 6 11 -23 12 -20 1 -36 -3 -36 -9z"/>
<path d="M1829 650 c-5 -33 -49 -42 -49 -11 0 12 -4 21 -10 21 -5 0 -9 -21 -9
-47 1 -27 4 -38 6 -25 3 15 11 22 29 22 18 0 24 -6 25 -22 1 -17 3 -15 10 11
6 18 8 43 6 55 -3 19 -4 19 -8 -4z"/>
<path d="M2132 663 c-18 -7 -44 -62 -38 -80 8 -20 60 -13 64 10 2 11 -3 17
-15 17 -15 0 -16 -2 -3 -10 12 -8 12 -10 -3 -16 -10 -3 -20 -4 -24 -1 -11 12
9 59 27 64 11 3 20 9 20 14 0 10 -8 10 -28 2z"/>
<path d="M2196 658 c-13 -39 -16 -89 -7 -83 6 3 11 13 11 21 0 22 30 16 39 -8
7 -18 9 -11 8 27 -2 44 -5 50 -25 53 -12 2 -24 -3 -26 -10z m37 -5 c8 -7 -11
-33 -23 -33 -5 0 -6 9 -3 20 5 20 15 25 26 13z"/>
<path d="M2360 663 c-1 -5 -5 -27 -9 -50 l-8 -43 31 1 c23 1 26 3 9 6 -35 7
-31 43 5 44 23 2 24 2 5 6 -32 6 -29 31 5 36 25 4 25 4 -5 6 -18 0 -33 -2 -33
-6z"/>
<path d="M2521 644 c-24 -30 -28 -79 -7 -87 32 -12 87 72 65 99 -17 21 -35 17
-58 -12z m49 -9 c0 -23 -30 -65 -46 -65 -17 0 -18 21 -2 55 12 27 48 35 48 10z"/>
<path d="M2745 661 c-13 -22 -34 -91 -27 -91 4 0 14 19 22 42 16 45 40 63 40
30 0 -11 -8 -23 -17 -25 -16 -4 -16 -5 -1 -6 9 0 19 -11 21 -23 2 -13 5 1 6
30 1 45 -1 52 -18 52 -11 0 -22 -4 -26 -9z"/>
<path d="M1207 625 c-9 -19 -14 -41 -11 -50 15 -38 64 3 64 53 0 45 -31 43
-53 -3z m43 4 c0 -25 -17 -59 -30 -59 -13 0 -13 36 0 61 14 25 30 24 30 -2z"/>
<path d="M1356 613 c-18 -53 -19 -61 -7 -47 5 5 14 26 21 47 6 20 16 37 21 37
11 0 12 -37 1 -42 -4 -1 0 -11 10 -20 17 -17 18 -17 18 5 -1 79 -40 92 -64 20z"/>
<path d="M1521 613 c1 -27 3 -40 6 -30 3 10 14 17 29 17 16 0 24 -6 24 -17 0
-15 2 -16 10 -3 5 8 9 31 8 50 0 23 -2 27 -5 13 -3 -18 -11 -23 -33 -23 -23 0
-27 3 -23 20 3 11 0 20 -6 20 -7 0 -11 -18 -10 -47z"/>
<path d="M1628 615 c-2 -25 0 -45 4 -45 5 0 8 20 8 45 0 25 -2 45 -4 45 -2 0
-6 -20 -8 -45z"/>
<path d="M1687 642 c-38 -42 -6 -102 34 -66 23 21 24 34 4 34 -9 0 -12 -6 -9
-15 4 -10 0 -15 -15 -15 -39 0 -24 51 19 69 23 9 23 10 4 10 -11 1 -28 -7 -37
-17z"/>
<path d="M2600 641 c0 -10 -3 -33 -6 -50 -4 -20 -3 -31 5 -31 6 0 11 14 11 31
0 24 4 30 15 25 8 -3 15 -1 15 4 0 6 -8 10 -17 10 -21 0 -6 16 22 23 13 3 9 5
-12 6 -26 1 -33 -3 -33 -18z"/>
<path d="M2830 638 c-26 -29 -23 -62 8 -66 12 -2 22 1 22 6 0 5 -7 9 -16 8
-27 -2 -27 22 0 49 14 14 21 25 16 25 -5 0 -19 -10 -30 -22z"/>
<path d="M2907 642 c-10 -10 -17 -28 -17 -41 0 -26 26 -39 43 -21 10 10 8 12
-5 7 -10 -3 -20 -2 -23 4 -11 17 6 49 26 49 10 0 19 5 19 10 0 16 -26 11 -43
-8z"/>
<path d="M2974 636 c-9 -37 -1 -61 22 -64 16 -2 26 6 38 33 10 20 15 41 13 48
-3 7 -8 4 -12 -8 -18 -53 -26 -66 -38 -62 -7 2 -11 18 -9 41 3 41 -5 48 -14
12z"/>
<path d="M3067 643 c-15 -53 -19 -85 -8 -79 6 4 11 19 11 34 0 34 14 57 30 47
8 -5 7 -12 -6 -26 -10 -12 -13 -19 -5 -19 6 0 16 -10 20 -22 7 -18 9 -11 8 27
-2 43 -5 50 -24 53 -14 2 -23 -3 -26 -15z"/>
<path d="M3156 626 c-9 -19 -16 -42 -15 -53 0 -10 7 0 15 22 17 46 34 67 34
43 0 -9 -6 -19 -12 -21 -9 -4 -10 -8 -2 -14 6 -4 14 -15 17 -23 3 -8 6 6 6 33
1 57 -19 64 -43 13z"/>
<path d="M3307 653 c-9 -13 1 -43 15 -43 5 0 6 -9 3 -20 -4 -11 -2 -20 4 -20
6 0 11 8 11 19 0 10 7 24 15 31 8 7 15 20 15 28 0 12 -4 11 -16 -6 -19 -28
-32 -28 -36 1 -2 14 -6 18 -11 10z"/>
<path d="M3237 632 c-10 -10 -17 -26 -17 -34 0 -23 23 -39 40 -28 13 8 12 10
-2 10 -9 0 -19 4 -23 10 -8 12 15 48 35 54 13 3 13 4 -1 5 -9 0 -23 -7 -32
-17z"/>
<path d="M1153 498 c-5 -7 -11 -32 -12 -55 -2 -36 0 -43 16 -43 31 0 44 15 42
51 -3 34 -15 59 -29 59 -4 0 -12 -6 -17 -12z m27 -17 c0 -6 -4 -13 -10 -16 -5
-3 -10 1 -10 9 0 9 5 16 10 16 6 0 10 -4 10 -9z m10 -46 c0 -8 -7 -15 -15 -15
-8 0 -15 7 -15 15 0 8 7 15 15 15 8 0 15 -7 15 -15z"/>
<path d="M1381 493 c0 -12 4 -25 9 -28 6 -3 11 -18 11 -33 1 -21 2 -23 6 -7 3
11 14 31 24 44 11 13 17 27 13 30 -3 3 -10 -2 -15 -12 -14 -24 -37 -21 -42 6
-4 22 -4 22 -6 0z"/>
<path d="M1473 502 c-7 -5 -16 -29 -19 -55 -6 -44 -5 -47 14 -44 29 4 40 17
15 17 -16 0 -20 5 -16 19 3 11 12 22 22 24 14 4 14 5 -1 6 -22 1 -24 21 -3 21
8 0 15 5 15 10 0 12 -10 13 -27 2z"/>
<path d="M1549 489 c-18 -35 -29 -79 -18 -79 5 0 9 7 9 15 0 20 22 65 32 65
13 0 9 -28 -4 -34 -10 -5 -10 -7 0 -12 6 -3 13 -13 13 -22 1 -9 5 1 9 23 4 22
5 45 3 52 -8 20 -31 15 -44 -8z"/>
<path d="M1636 498 c-8 -25 -12 -88 -5 -88 3 0 9 18 12 41 6 44 13 57 24 45 4
-4 2 -16 -5 -26 -7 -12 -8 -20 -2 -20 5 0 10 -9 10 -20 0 -11 4 -20 9 -20 5 0
8 21 7 48 -1 41 -4 47 -24 50 -12 2 -24 -3 -26 -10z"/>
<path d="M1906 484 c-29 -30 -33 -56 -12 -73 33 -28 94 51 66 84 -17 20 -23
19 -54 -11z m44 -18 c0 -13 -7 -29 -15 -36 -20 -17 -46 -5 -38 17 16 46 53 60
53 19z"/>
<path d="M1995 498 c-12 -39 -15 -89 -6 -83 6 3 11 15 11 26 0 13 7 19 23 19
21 1 22 1 3 15 -19 15 -19 15 2 15 12 0 22 5 22 10 0 15 -50 12 -55 -2z"/>
<path d="M2168 503 c-12 -3 -18 -14 -18 -31 0 -15 -3 -37 -6 -49 -5 -20 -2
-23 20 -23 14 0 26 4 26 10 0 5 -7 7 -15 4 -11 -5 -15 1 -15 20 0 20 5 26 23
27 16 1 18 2 5 6 -25 6 -23 23 3 23 11 0 17 5 14 10 -6 10 -9 11 -37 3z"/>
<path d="M2327 503 c-3 -5 -7 -28 -10 -53 -2 -25 -2 -37 0 -28 2 9 15 24 29
32 27 19 31 41 8 50 -20 8 -22 8 -27 -1z m33 -22 c0 -5 -7 -11 -15 -15 -9 -3
-15 0 -15 9 0 8 7 15 15 15 8 0 15 -4 15 -9z"/>
<path d="M2474 502 c-15 -10 -27 -92 -14 -92 5 0 10 9 10 21 0 14 5 19 18 17
9 -2 16 -11 16 -21 -1 -9 2 -17 6 -17 10 0 7 70 -3 88 -9 14 -17 15 -33 4z
m24 -24 c-2 -6 -10 -14 -16 -16 -7 -2 -10 2 -6 12 7 18 28 22 22 4z"/>
<path d="M2590 498 c0 -7 -3 -31 -6 -53 -4 -30 -3 -36 5 -25 6 8 11 28 11 44
0 24 2 27 15 16 8 -7 21 -10 28 -7 9 3 12 -5 10 -32 -2 -31 -1 -33 6 -11 5 14
9 38 10 54 1 28 0 29 -19 11 -18 -16 -20 -16 -35 -1 -20 19 -25 20 -25 4z"/>
<path d="M2697 503 c-3 -5 -7 -26 -8 -48 -4 -35 -1 -40 19 -43 12 -2 22 1 22
7 0 6 -5 10 -12 9 -6 -2 -14 5 -16 15 -2 12 3 17 20 18 17 1 18 3 6 6 -26 6
-22 31 5 36 19 4 19 4 -5 6 -15 0 -29 -2 -31 -6z"/>
<path d="M2786 494 c-3 -9 -6 -30 -5 -47 0 -18 3 -25 6 -17 2 8 7 21 9 29 3
10 11 4 25 -18 23 -39 34 -33 45 24 8 47 -5 41 -16 -7 l-7 -33 -19 42 c-20 46
-28 52 -38 27z"/>
<path d="M2902 496 c13 -9 16 -23 12 -52 -3 -29 -2 -34 5 -19 5 11 10 30 10
43 1 15 7 22 22 22 11 0 17 5 14 10 -3 6 -23 10 -43 10 -33 -1 -35 -2 -20 -14z"/>
<path d="M3006 494 c-22 -22 -49 -74 -37 -74 5 0 14 13 21 30 7 16 18 35 26
41 11 9 14 7 14 -9 0 -11 -6 -23 -12 -25 -10 -4 -10 -6 -1 -6 7 -1 10 -8 7
-16 -4 -8 -1 -15 5 -15 6 0 12 14 13 30 0 17 1 35 2 42 2 19 -20 20 -38 2z"/>
<path d="M3087 500 c-3 -8 -8 -32 -12 -52 -6 -38 -6 -38 27 -37 29 2 30 3 6 6
-25 4 -26 6 -16 39 9 36 5 73 -5 44z"/>
<path d="M1231 488 c0 -9 4 -20 9 -23 6 -3 11 -21 11 -38 2 -27 2 -28 6 -7 3
14 14 35 26 48 11 12 15 22 9 22 -6 0 -14 -4 -17 -10 -10 -16 -33 -12 -38 8
-4 15 -5 15 -6 0z"/>
<path d="M1727 493 c-12 -12 -7 -41 8 -47 20 -7 19 -24 -2 -29 -14 -4 -13 -5
4 -6 33 -2 39 20 13 41 -24 20 -20 33 15 41 16 4 15 5 -6 6 -14 0 -29 -2 -32
-6z"/>
<path d="M2240 476 c6 -17 4 -30 -6 -45 -8 -11 -11 -21 -6 -21 6 0 13 7 16 17
6 14 8 14 21 -3 16 -22 20 -12 5 16 -7 13 -6 21 5 30 8 7 15 17 15 23 0 5 -9
2 -20 -8 -18 -16 -20 -16 -20 -2 0 10 -4 17 -10 17 -6 0 -6 -9 0 -24z"/>
<path d="M2390 473 c0 -16 -3 -38 -6 -49 -5 -19 -2 -21 23 -16 19 4 22 7 11
10 -23 5 -23 32 -1 32 15 0 14 2 -3 14 -18 14 -18 15 6 25 l25 10 -27 0 c-24
1 -28 -3 -28 -26z"/>
<path d="M2547 486 c-4 -10 -7 -32 -6 -49 1 -31 1 -31 10 7 10 43 7 72 -4 42z"/>
<path d="M2120 340 c0 -4 9 -10 20 -13 16 -4 18 -11 13 -41 -4 -24 -2 -36 6
-36 6 0 11 17 11 40 0 22 5 40 10 40 6 0 10 3 10 8 0 4 -16 8 -35 9 -19 1 -35
-2 -35 -7z"/>
<path d="M2267 327 c-9 -31 -44 -35 -39 -4 2 9 -1 17 -7 17 -5 0 -11 -20 -13
-45 -2 -25 0 -45 4 -45 5 0 8 9 8 20 0 13 7 20 20 20 14 0 20 -7 20 -22 0 -16
3 -19 11 -11 5 5 9 30 7 54 -3 41 -4 42 -11 16z"/>
<path d="M2313 342 c-7 -4 -15 -27 -19 -50 -5 -34 -3 -43 10 -48 10 -4 22 -2
29 5 8 8 7 11 -6 11 -11 0 -17 8 -17 21 0 15 5 19 15 15 8 -3 15 -1 15 4 0 6
-7 10 -15 10 -8 0 -15 5 -15 10 0 6 9 10 20 10 11 0 20 5 20 10 0 12 -20 13
-37 2z"/>
<path d="M2486 328 c-8 -13 -17 -36 -20 -53 l-6 -30 12 25 c16 31 53 30 45 -1
-3 -10 -1 -19 4 -19 5 0 9 23 9 50 0 56 -18 67 -44 28z m34 -13 c0 -8 -7 -15
-15 -15 -16 0 -20 12 -8 23 11 12 23 8 23 -8z"/>
<path d="M2776 325 c-8 -30 -43 -32 -38 -2 2 14 -5 17 -50 16 -29 -1 -45 -3
-35 -6 14 -4 16 -11 10 -45 -4 -30 -3 -39 5 -34 7 4 12 23 12 42 0 28 4 34 21
34 20 0 21 -4 15 -41 -4 -26 -3 -38 4 -34 5 3 10 13 10 21 0 8 9 14 21 14 15
0 19 -5 15 -15 -3 -8 -2 -15 3 -15 5 0 11 19 15 41 8 47 2 64 -8 24z"/>
<path d="M2902 341 c-8 -4 -15 -26 -17 -47 -1 -21 -1 -31 2 -21 6 23 34 22 40
-3 3 -11 10 -20 15 -20 6 0 7 8 3 18 -5 9 -8 30 -9 46 -1 31 -13 41 -34 27z
m23 -21 c-3 -5 -10 -10 -16 -10 -5 0 -9 5 -9 10 0 6 7 10 16 10 8 0 12 -4 9
-10z"/>
<path d="M1140 313 c0 -16 -3 -38 -6 -50 -6 -21 -3 -23 27 -22 24 1 27 3 12 6
-28 5 -32 43 -5 44 14 0 14 2 -3 9 -19 9 -19 9 3 16 30 9 28 24 -3 24 -21 0
-25 -5 -25 -27z"/>
<path d="M1258 298 l-22 -43 -7 40 -6 40 -2 -47 c0 -26 3 -50 9 -53 10 -6 65
93 56 102 -2 3 -15 -15 -28 -39z"/>
<path d="M1354 328 c-14 -23 -21 -87 -10 -91 40 -13 68 34 47 79 -12 26 -26
31 -37 12z m30 -24 c9 -23 -2 -54 -20 -54 -15 0 -17 12 -8 48 7 26 19 29 28 6z"/>
<path d="M1435 328 c-2 -7 -9 -32 -13 -55 l-9 -41 34 3 c44 3 56 15 15 15 -18
0 -32 3 -32 8 0 16 19 34 29 28 6 -4 11 -2 11 3 0 6 -7 11 -15 11 -8 0 -15 5
-15 10 0 6 9 10 21 10 11 0 17 5 14 10 -9 14 -35 12 -40 -2z"/>
<path d="M1516 309 c-10 -50 -6 -80 6 -40 l9 34 21 -34 c19 -32 21 -32 34 -14
8 10 14 33 13 49 -1 30 -1 30 -13 -9 l-12 -40 -22 43 c-12 23 -24 42 -26 42
-2 0 -6 -14 -10 -31z"/>
<path d="M1640 320 c-24 -24 -26 -53 -5 -70 12 -10 19 -10 27 -2 9 9 8 12 -6
12 -13 0 -17 7 -14 28 2 19 8 27 21 26 18 -2 23 11 7 21 -5 3 -18 -3 -30 -15z"/>
<path d="M1703 290 l-10 -50 38 0 c22 0 39 5 39 11 0 7 -11 9 -30 6 -25 -5
-30 -3 -30 13 0 13 8 20 28 22 l27 4 -25 11 c-25 12 -25 12 8 12 43 1 42 21
-2 21 -32 0 -34 -2 -43 -50z"/>
<path d="M1900 313 c0 -16 -3 -38 -7 -51 -5 -21 -3 -23 23 -20 27 3 29 6 31
51 2 44 1 47 -22 47 -21 0 -25 -5 -25 -27z m38 5 c-6 -18 -28 -21 -28 -4 0 9
7 16 16 16 9 0 14 -5 12 -12z m0 -49 c-2 -6 -8 -10 -13 -10 -5 0 -11 4 -13 10
-2 6 4 11 13 11 9 0 15 -5 13 -11z"/>
<path d="M1981 323 c0 -12 4 -25 9 -28 6 -3 11 -21 11 -38 l2 -32 4 29 c3 16
12 40 20 53 10 14 11 23 4 23 -6 0 -11 -4 -11 -10 0 -17 -28 -11 -33 8 -4 13
-5 12 -6 -5z"/>
<path d="M2558 306 c-5 -41 0 -56 16 -56 19 0 44 31 51 65 5 27 4 26 -10 -7
-9 -20 -24 -39 -32 -42 -13 -5 -15 0 -10 34 3 22 2 40 -3 40 -4 0 -10 -15 -12
-34z"/>
<path d="M2816 318 c-19 -26 -21 -54 -5 -63 16 -10 59 35 59 62 0 30 -33 31
-54 1z m44 -1 c0 -19 -30 -58 -40 -52 -13 8 10 65 26 65 8 0 14 -6 14 -13z"/>
<path d="M1305 306 c-3 -14 -7 -38 -10 -52 -4 -15 -2 -23 4 -20 11 7 26 85 17
93 -3 3 -7 -6 -11 -21z"/>
<path d="M2980 250 c0 -5 5 -10 10 -10 6 0 10 5 10 10 0 6 -4 10 -10 10 -5 0
-10 -4 -10 -10z"/>
</g>
</svg>
