<?xml version="1.0" encoding="UTF-8" standalone="no"?>
<svg
   xmlns:dc="http://purl.org/dc/elements/1.1/"
   xmlns:cc="http://creativecommons.org/ns#"
   xmlns:rdf="http://www.w3.org/1999/02/22-rdf-syntax-ns#"
   xmlns:svg="http://www.w3.org/2000/svg"
   xmlns="http://www.w3.org/2000/svg"
   xmlns:sodipodi="http://sodipodi.sourceforge.net/DTD/sodipodi-0.dtd"
   xmlns:inkscape="http://www.inkscape.org/namespaces/inkscape"
   version="1.0"
   width="160.000000pt"
   height="160.000000pt"
   viewBox="0 0 160.000000 160.000000"
   preserveAspectRatio="xMidYMid meet"
   id="svg2"
   inkscape:version="0.91 r13725"
   sodipodi:docname="the_difference_4A.svg">
  <defs
     id="defs50" />
  <sodipodi:namedview
     pagecolor="#ffffff"
     bordercolor="#666666"
     borderopacity="1"
     objecttolerance="10"
     gridtolerance="10"
     guidetolerance="10"
     inkscape:pageopacity="0"
     inkscape:pageshadow="2"
     inkscape:window-width="1861"
     inkscape:window-height="1056"
     id="namedview48"
     showgrid="false"
     inkscape:zoom="1.4895879"
     inkscape:cx="143.9089"
     inkscape:cy="155.87924"
     inkscape:window-x="59"
     inkscape:window-y="24"
     inkscape:window-maximized="1"
     inkscape:current-layer="svg2" />
  <metadata
     id="metadata4">
Created by potrace 1.13, written by Peter Selinger 2001-2015
<rdf:RDF>
  <cc:Work
     rdf:about="">
    <dc:format>image/svg+xml</dc:format>
    <dc:type
       rdf:resource="http://purl.org/dc/dcmitype/StillImage" />
  </cc:Work>
</rdf:RDF>
</metadata>
  <g
     transform="translate(0.000000,160.000000) scale(0.100000,-0.100000)"
     fill="#000000"
     stroke="none"
     id="g6">
    <path
       d="M660 1561 c-249 -34 -482 -225 -582 -476 -37 -92 -55 -416 -28 -514 5 -20 35 -75 66 -121 30 -47 61 -99 69 -116 7 -17 28 -41 46 -54 19 -13 52 -40 74 -60 75 -68 201 -134 320 -166 57 -16 152 -18 210 -4 22 5 78 14 124 19 95 12 159 38 265 108 154 102 230 201 285 371 56 171 64 373 19 486 -11 28 -29 79 -39 113 -20 63 -101 182 -162 236 -61 53 -191 110 -357 156 -84 23 -227 33 -310 22z m290 -32 c197 -54 316 -106 374 -164 69 -69 136 -167 155 -229 11 -34 29 -88 41 -120 32 -89 31 -267 -4 -399 -59 -229 -162 -358 -387 -485 -62 -35 -94 -43 -286 -68 -146 -20 -199 -15 -305 28 -67 27 -172 92 -218 133 -19 17 -52 44 -73 59 -21 15 -43 40 -50 55 -6 14 -23 42 -37 61 -25 35 -32 47 -77 126 -30 54 -50 230 -34 305 6 27 11 71 11 97 0 66 25 154 62 225 18 33 33 56 34 51 1 -5 5 -21 8 -36 4 -19 13 -28 26 -28 13 0 20 -7 20 -19 0 -23 25 -45 41 -35 7 4 19 -2 28 -15 15 -19 21 -21 45 -11 24 9 30 7 46 -12 17 -21 21 -22 51 -11 28 11 34 10 45 -5 12 -16 14 -16 44 2 23 13 35 15 43 7 16 -16 42 -14 58 5 8 10 21 13 36 9 12 -3 32 0 43 7 16 11 22 10 34 -7 13 -18 14 -18 41 -1 20 13 30 15 38 7 16 -16 42 -14 57 4 9 11 16 13 24 5 15 -15 42 -12 56 5 12 14 16 13 41 -11 26 -25 31 -26 55 -15 35 16 45 4 17 -19 -24 -19 -31 -60 -11 -60 16 0 48 30 48 46 0 7 -6 15 -12 17 -7 3 -1 6 14 6 15 1 30 6 33 12 4 5 17 9 28 8 42 -4 129 14 134 27 3 8 18 14 34 14 17 0 33 7 40 19 7 10 20 16 29 14 20 -5 29 6 36 43 3 16 1 23 -6 19 -5 -3 -10 -15 -10 -26 0 -15 -6 -20 -22 -17 -15 2 -27 -4 -33 -17 -7 -12 -21 -20 -37 -20 -15 0 -34 -9 -42 -20 -12 -17 -18 -18 -35 -8 -16 10 -20 9 -25 -4 -5 -12 -16 -14 -46 -10 -22 3 -40 1 -40 -3 0 -19 -43 -23 -56 -5 -11 15 -14 15 -37 0 -24 -15 -26 -15 -46 6 -12 13 -21 27 -21 31 0 5 -14 -2 -31 -14 -30 -23 -31 -23 -45 -4 -14 19 -14 19 -39 -4 -23 -21 -26 -22 -42 -7 -17 14 -20 14 -42 -4 -18 -15 -27 -17 -37 -8 -8 6 -14 18 -14 25 0 19 -16 18 -24 -1 -6 -17 -47 -20 -63 -4 -8 8 -13 5 -18 -10 -8 -26 -60 -30 -69 -5 -5 14 -10 13 -31 -10 -30 -33 -43 -33 -51 0 l-6 25 -23 -21 c-27 -26 -60 -20 -70 12 -5 14 -10 17 -18 9 -18 -18 -55 -13 -62 9 -7 23 -16 25 -32 9 -17 -17 -33 -1 -33 31 0 25 -4 29 -22 27 -20 -2 -23 3 -26 36 -8 93 181 260 367 324 88 30 106 33 216 33 91 0 139 -5 195 -21z m130 -518 c0 -12 -29 -35 -36 -28 -11 10 5 37 21 37 8 0 15 -4 15 -9z"
       id="path8" />
    <path
       d="M443 1389 c11 -6 17 -22 17 -44 0 -22 -6 -38 -17 -44 -14 -8 -8 -10 27 -9 25 0 35 3 22 5 -20 4 -23 10 -20 45 2 31 8 42 21 44 40 6 28 14 -19 14 -38 -1 -45 -3 -31 -11z"
       id="path10" />
    <path
       d="M612 1388 c-7 -7 -12 -26 -12 -43 0 -52 33 -71 66 -38 13 13 19 14 22 5 6 -19 40 -14 52 8 6 11 7 31 3 47 -7 27 -8 27 -13 -11 -7 -52 -30 -61 -30 -12 0 20 -4 36 -10 36 -5 0 -10 -9 -10 -20 0 -14 -7 -20 -22 -20 -18 0 -20 -2 -8 -10 12 -8 13 -11 2 -22 -11 -11 -16 -9 -28 6 -29 40 -4 85 31 56 10 -8 15 -9 15 -2 0 6 -9 16 -19 22 -24 13 -24 13 -39 -2z"
       id="path12" />
    <path
       d="M836 1393 c-4 -4 -24 -6 -44 -4 l-38 2 1 -45 c0 -40 3 -46 22 -46 12 0 25 5 28 10 3 6 -3 10 -14 10 -12 0 -21 5 -21 10 0 6 9 10 20 10 11 0 20 4 20 9 0 5 -9 7 -20 4 -14 -4 -20 0 -20 11 0 23 35 20 70 -6 37 -27 38 -38 3 -38 -24 -1 -26 -2 -10 -11 9 -5 23 -7 29 -3 7 5 25 7 41 6 38 -3 62 15 46 34 -6 8 -18 14 -25 14 -8 0 -14 5 -14 10 0 6 10 10 22 10 16 0 19 3 11 11 -8 8 -17 8 -31 0 -14 -7 -23 -8 -27 -1 -7 12 -38 13 -49 3z m51 -21 c10 -11 26 -22 36 -25 10 -4 15 -11 12 -17 -10 -16 -34 -12 -52 10 -10 11 -23 20 -30 20 -14 0 -17 12 -6 23 11 11 21 8 40 -11z"
       id="path14" />
    <path
       d="M1043 1383 c20 -5 24 -52 5 -71 -9 -9 -8 -12 8 -11 10 0 28 4 39 9 17 7 17 9 3 9 -21 1 -26 56 -5 64 6 3 -6 5 -28 5 -22 0 -32 -2 -22 -5z"
       id="path16" />
    <path
       d="m 720,1260 c 0,-5 7,-13 16,-18 12,-7 15,-20 12,-51 -2,-22 0,-41 4,-41 5,0 8,20 8,44 0,34 18.40678,47.6949 32.40678,50.6949 9,3 2,5 -16,6 -19,1 -45.40678,3.3051 -41.40678,9.3051 3,6 1,10 -4,10 -6,0 -11,-4 -11,-10 z"
       id="path18"
       inkscape:connector-curvature="0"
       sodipodi:nodetypes="sccsscccss" />
    <path
       d="M856 1249 c-2 -8 -7 -31 -11 -52 -5 -30 -2 -39 11 -44 21 -8 56 32 52 60 -4 26 -46 55 -52 36z m42 -34 c4 -26 -23 -64 -36 -50 -16 17 -2 77 17 73 9 -2 17 -12 19 -23z"
       id="path20" />
    <path
       d="m 1170,1234 c 0,-5 5,6 10,6 6,0 10,-7 10,-15 0,-18 -16.5595,-6.1818 -17.5595,11.8182 -1,15 -20.4405,-45.8182 -20.4405,-66.8182 -1,-8 3,-5 8,8 11,26 27,29 33,5 3,-10 5,-4 6,14 0,17 -2,38 -5,47 -7,18 -24,6 -24,-10 z"
       id="path22"
       inkscape:connector-curvature="0"
       sodipodi:nodetypes="sssccccccs" />
    <path
       d="M317 1243 c-14 -14 -6 -41 14 -46 24 -7 20 -33 -5 -31 -16 2 -21 -8 -10 -19 10 -10 64 25 64 41 0 22 24 8 31 -19 5 -16 7 -5 7 31 -1 30 -3 45 -5 33 -2 -13 -11 -23 -18 -23 -7 0 -16 10 -18 23 -4 18 -5 17 -6 -7 -1 -21 -5 -27 -17 -22 -9 3 -20 6 -25 6 -18 0 -9 21 14 30 21 8 21 9 1 9 -11 1 -24 -2 -27 -6z"
       id="path24" />
    <path
       d="M440 1235 c-18 -22 -9 -70 14 -70 11 0 22 7 24 15 5 13 3 13 -11 1 -14 -11 -18 -11 -23 2 -8 21 -2 48 11 49 6 0 18 -16 28 -36 20 -41 23 -42 49 -19 15 14 19 14 16 3 -2 -9 6 -16 20 -18 12 -2 22 1 22 7 0 6 -7 8 -16 4 -13 -5 -15 1 -14 28 3 49 -1 59 -10 24 l-8 -30 -2 30 c-3 28 -3 28 -9 -8 -3 -21 -10 -38 -16 -38 -5 0 -13 17 -16 38 -3 21 -7 32 -8 25 -1 -9 -6 -10 -20 -3 -14 8 -22 7 -31 -4z"
       id="path26" />
    <path
       d="m 600,1205 c 0,-51 18,-60 44,-23 15,21 10.0678,0.661 11.0678,-17.339 1,-11 10.9322,18.339 15.9322,39.339 10,40 4,60 -10,37 -6,-9 -11,-10 -15,-2 -4,6 -16,11 -27,11 -16,0 -19,-7 -19,-45 z m 38,8 c 2,-11 -4,-26 -13,-33 -13,-11 -15,-8 -15,25 0,39 22,46 28,8 z"
       id="path28"
       inkscape:connector-curvature="0"
       sodipodi:nodetypes="scccccssccsc" />
    <path
       d="m 698.61017,1239.4067 c -2,-24 -14.1695,-10.0507 -22.1695,1.9493 -8,11 -9,7 -4,-15 24.01695,-69.7119 45.64407,-103.6272 38.79662,-15.356 -2,30 -11.62712,49.4067 -12.62712,28.4067 z"
       id="path30"
       inkscape:connector-curvature="0"
       sodipodi:nodetypes="ccccc" />
    <path
       d="M931 1231 c-14 -25 -14 -68 -1 -76 20 -13 41 17 38 53 -3 41 -22 52 -37 23z m27 -28 c-4 -34 -28 -43 -28 -10 0 25 7 37 22 37 5 0 8 -12 6 -27z"
       id="path32" />
    <path
       d="M1043 1243 c14 -4 18 -13 15 -38 -1 -19 1 -37 5 -41 4 -4 7 9 7 29 0 21 5 37 10 37 6 0 10 5 10 10 0 6 -15 9 -32 9 -19 -1 -25 -3 -15 -6z"
       id="path34" />
    <path
       d="m 1205.9831,1243.8475 c 9,-3 22.0169,-7.8306 19.0169,-46.8475 -4,-31 -3,-37 4,-22 5,11 10.8475,36.7797 10.8475,48.7797 1,12 18.0169,18.0678 25.0169,20.0678 6,3 -12.8644,4.1525 -29.8644,4.1525 -16,0 -35.0169,-1.1525 -29.0169,-4.1525 z"
       id="path36"
       inkscape:connector-curvature="0"
       sodipodi:nodetypes="cccccsc" />
    <path
       d="m 1097,1211 c -4,-19 -5,-36 -2,-39 3,-3 1.4887,2.7132 5,11 9.322,22 27,6 33,-16 3,-10 5,16 5,38 0,22 -2,48 -5,39 -2,-10 -10.5424,-34.8475 -15.5424,-34.8475 -10.0847,0 -7.4576,24.8475 -9.4576,34.8475 -2,10 -7,-13 -11,-33 z"
       id="path38"
       inkscape:connector-curvature="0"
       sodipodi:nodetypes="csscscssc" />
    <path
       d="M777 979 c-51 -68 -55 -146 -11 -194 29 -31 81 -33 117 -5 27 21 57 96 57 140 0 37 -48 80 -98 87 -36 5 -42 2 -65 -28z m127 -19 c28 -28 29 -30 17 -72 -23 -83 -32 -97 -67 -108 -44 -15 -71 -5 -90 32 -22 42 -12 111 22 156 23 30 31 33 58 28 17 -4 44 -20 60 -36z"
       id="path40" />
    <path
       d="M970 975 c-7 -8 -9 -22 -6 -31 6 -15 8 -15 26 1 11 10 20 24 20 32 0 18 -25 17 -40 -2z m30 -4 c0 -5 -7 -14 -15 -21 -12 -10 -15 -10 -15 2 0 8 3 18 7 21 9 10 23 9 23 -2z"
       id="path42" />
    <path
       d="M457 843 c-4 -3 -7 -21 -7 -38 0 -35 -28 -125 -39 -125 -3 0 -19 14 -34 31 -15 18 -30 29 -33 26 -4 -3 -6 -52 -5 -109 1 -57 -3 -168 -9 -247 -6 -79 -10 -145 -8 -147 2 -2 41 -5 86 -7 l82 -4 2 171 c3 154 1 174 -16 201 -11 17 -27 37 -37 45 -18 14 -18 17 3 78 12 34 28 62 35 62 16 0 36 38 29 56 -6 14 -37 19 -49 7z m38 -13 c8 -13 -14 -42 -26 -34 -5 3 -9 14 -9 25 0 20 24 26 35 9z m-64 -200 c15 -14 31 -34 37 -45 5 -11 10 -93 10 -182 l-1 -163 -75 0 -74 0 6 32 c3 17 9 126 13 241 l6 209 26 -34 c14 -18 38 -44 52 -58z"
       id="path44" />
    <path
       d="M830 735 c-6 -8 -18 -33 -25 -57 -7 -24 -27 -76 -45 -117 -17 -40 -29 -75 -26 -78 3 -3 10 5 15 18 5 13 19 47 31 74 12 28 28 71 36 98 8 26 18 47 21 47 3 0 3 -36 0 -80 -5 -58 -21 -125 -62 -247 -30 -92 -54 -172 -52 -177 2 -6 25 55 51 134 27 80 52 152 56 160 10 18 25 -17 69 -160 29 -93 51 -143 51 -114 0 16 -78 240 -94 272 -13 25 -15 49 -9 121 3 50 9 91 12 91 3 -1 28 -48 56 -106 27 -58 51 -101 53 -95 2 6 -18 52 -43 103 -71 139 -72 140 -95 113z"
       id="path46" />
  </g>
</svg>
