<?xml version="1.0" standalone="no"?>
<!DOCTYPE svg PUBLIC "-//W3C//DTD SVG 20010904//EN"
 "http://www.w3.org/TR/2001/REC-SVG-20010904/DTD/svg10.dtd">
<svg version="1.0" xmlns="http://www.w3.org/2000/svg"
 width="160.000000pt" height="160.000000pt" viewBox="0 0 160.000000 160.000000"
 preserveAspectRatio="xMidYMid meet">
<metadata>
Created by potrace 1.13, written by Peter Selinger 2001-2015
</metadata>
<g transform="translate(0.000000,160.000000) scale(0.100000,-0.100000)"
fill="#000000" stroke="none">
<path d="M699 1560 c-300 -44 -494 -220 -625 -566 -50 -133 -52 -209 -9 -402
70 -310 253 -485 564 -539 81 -14 115 -14 235 -5 158 13 257 37 323 80 108 70
268 264 329 396 53 116 68 319 33 445 -57 205 -178 384 -330 488 -83 58 -300
126 -384 122 -11 -1 -72 -9 -136 -19z m371 -44 c108 -42 153 -69 223 -135 146
-136 251 -348 263 -529 7 -100 -16 -239 -51 -316 -67 -147 -204 -316 -315
-389 -67 -44 -177 -75 -290 -83 -47 -3 -100 -7 -119 -9 -57 -6 -231 24 -300
51 -104 40 -127 54 -212 133 -69 63 -86 87 -124 165 -55 115 -87 243 -93 371
-3 84 -1 110 18 165 79 235 187 398 324 487 159 103 276 135 476 128 92 -3
117 -7 200 -39z"/>
<path d="M815 1096 c-67 -30 -118 -125 -101 -189 12 -49 62 -95 112 -103 24
-3 44 -9 44 -13 0 -8 -104 -121 -111 -121 -8 0 -71 89 -73 103 -5 38 -47 51
-64 21 -10 -17 -102 -57 -111 -49 -3 3 4 12 15 19 48 36 59 45 54 49 -3 3 -27
-15 -55 -39 -27 -24 -41 -41 -31 -37 13 4 17 3 12 -5 -12 -20 -28 -13 -63 28
-49 57 -59 53 -61 -27 -1 -38 -6 -165 -11 -283 -5 -118 -7 -217 -5 -220 3 -2
24 -5 47 -6 23 0 67 -4 98 -8 l56 -7 6 208 5 208 -41 36 c-27 23 -38 40 -32
48 14 24 91 51 134 47 37 -3 45 -9 72 -50 17 -25 35 -49 40 -52 5 -3 32 20 60
50 28 31 55 54 60 50 5 -3 6 -48 3 -101 -6 -87 -12 -110 -71 -256 -35 -89 -62
-167 -61 -174 2 -8 32 61 67 152 36 92 68 160 72 153 3 -7 31 -85 60 -173 60
-179 57 -170 64 -163 3 3 -6 39 -20 79 -109 303 -105 288 -97 390 l8 94 36
-75 c19 -41 46 -104 59 -139 12 -35 25 -59 27 -52 7 20 -69 201 -114 273 l-23
36 34 37 c42 43 69 127 59 179 -8 45 -63 96 -102 96 -15 -1 -40 -7 -57 -14z
m118 -34 c22 -21 27 -34 27 -74 0 -57 -19 -108 -54 -143 -19 -19 -35 -25 -69
-25 -138 0 -148 206 -12 265 38 16 73 9 108 -23z m-270 -276 c6 -16 -19 -30
-28 -16 -7 11 2 30 15 30 4 0 10 -6 13 -14z m-99 -319 c-7 -212 -12 -250 -32
-242 -9 4 -47 10 -84 12 -37 3 -68 11 -70 17 -3 10 2 202 14 459 l3 77 87 -90
86 -91 -4 -142z"/>
<path d="M585 930 c3 -18 -2 -29 -15 -38 -18 -11 -20 -9 -20 18 0 16 -4 30 -8
30 -11 0 -2 -59 10 -66 5 -3 15 0 23 6 8 6 18 9 22 7 5 -3 19 1 33 9 l25 15
-26 -5 c-21 -4 -27 0 -37 22 -11 27 -11 27 -7 2z"/>
<path d="M428 923 c-19 -5 -23 -15 -10 -27 4 -4 12 -22 19 -39 8 -24 12 -27
12 -11 1 11 7 29 15 39 13 18 14 18 20 -3 9 -27 22 -28 35 -3 7 13 6 23 -3 36
-11 16 -12 14 -8 -15 3 -23 1 -31 -7 -26 -6 4 -11 16 -11 27 0 10 -4 19 -9 19
-5 0 -15 2 -23 4 -7 2 -21 2 -30 -1z m32 -17 c0 -8 -4 -17 -9 -21 -12 -7 -24
12 -16 25 9 15 25 12 25 -4z"/>
</g>
</svg>
