<?xml version="1.0" encoding="UTF-8" standalone="no"?>
<svg
   xmlns:dc="http://purl.org/dc/elements/1.1/"
   xmlns:cc="http://creativecommons.org/ns#"
   xmlns:rdf="http://www.w3.org/1999/02/22-rdf-syntax-ns#"
   xmlns:svg="http://www.w3.org/2000/svg"
   xmlns="http://www.w3.org/2000/svg"
   xmlns:sodipodi="http://sodipodi.sourceforge.net/DTD/sodipodi-0.dtd"
   xmlns:inkscape="http://www.inkscape.org/namespaces/inkscape"
   version="1.0"
   width="160.000000pt"
   height="160.000000pt"
   viewBox="0 0 160.000000 160.000000"
   preserveAspectRatio="xMidYMid meet"
   id="svg2"
   inkscape:version="0.91 r13725"
   sodipodi:docname="the_difference_4B.svg">
  <defs
     id="defs68" />
  <sodipodi:namedview
     pagecolor="#ffffff"
     bordercolor="#666666"
     borderopacity="1"
     objecttolerance="10"
     gridtolerance="10"
     guidetolerance="10"
     inkscape:pageopacity="0"
     inkscape:pageshadow="2"
     inkscape:window-width="1861"
     inkscape:window-height="1056"
     id="namedview66"
     showgrid="false"
     inkscape:zoom="1.4085622"
     inkscape:cx="74.758563"
     inkscape:cy="167.09718"
     inkscape:window-x="59"
     inkscape:window-y="24"
     inkscape:window-maximized="1"
     inkscape:current-layer="svg2" />
  <metadata
     id="metadata4">
Created by potrace 1.13, written by Peter Selinger 2001-2015
<rdf:RDF>
  <cc:Work
     rdf:about="">
    <dc:format>image/svg+xml</dc:format>
    <dc:type
       rdf:resource="http://purl.org/dc/dcmitype/StillImage" />
  </cc:Work>
</rdf:RDF>
</metadata>
  <g
     transform="translate(0.000000,160.000000) scale(0.100000,-0.100000)"
     fill="#000000"
     stroke="none"
     id="g6">
    <path
       d="M700 1559 c-87 -8 -157 -27 -220 -59 -120 -61 -203 -116 -244 -161 -52 -58 -146 -196 -146 -215 0 -7 -12 -39 -26 -71 -25 -56 -26 -62 -21 -213 7 -215 39 -349 108 -453 17 -25 67 -84 113 -130 73 -74 95 -90 200 -141 101 -49 131 -59 224 -73 134 -20 243 -7 407 47 91 29 123 46 177 89 111 89 207 223 252 353 34 97 44 195 36 358 -8 152 -18 184 -97 305 -46 71 -183 211 -252 259 -41 29 -183 91 -233 101 -44 10 -190 12 -278 4z m346 -40 c125 -50 149 -65 248 -154 106 -95 191 -214 232 -321 25 -67 26 -73 21 -254 -4 -174 -6 -189 -32 -255 -60 -146 -149 -267 -260 -352 -75 -57 -188 -99 -330 -124 -85 -15 -273 -6 -332 15 -128 46 -297 145 -328 192 -8 13 -36 47 -61 76 -91 102 -139 257 -150 483 -6 114 -4 125 25 218 30 95 58 157 72 157 4 0 9 10 13 23 11 46 123 153 219 210 158 95 226 113 433 116 148 2 151 1 230 -30z"
       id="path8" />
    <path
       d="M467 1414 c14 -6 5 -75 -11 -86 -7 -5 -3 -8 9 -8 11 0 27 5 35 10 12 7 12 10 1 10 -9 0 -12 11 -9 40 3 35 1 40 -17 39 -11 0 -15 -3 -8 -5z"
       id="path10" />
    <path
       d="M575 1396 c3 -14 7 -37 10 -49 3 -17 11 -23 27 -22 17 1 25 11 35 43 6 23 8 42 3 42 -5 0 -11 -13 -15 -28 -8 -39 -45 -39 -45 0 0 15 -5 30 -10 33 -7 4 -9 -3 -5 -19z"
       id="path12" />
    <path
       d="M676 1401 c-21 -23 -15 -71 9 -71 19 0 30 45 18 71 l-8 21 -19 -21z m19 -42 c-6 -19 -9 -20 -16 -6 -11 20 0 52 13 39 6 -6 7 -20 3 -33z"
       id="path14" />
    <path
       d="M936 1409 c-2 -8 -7 -30 -10 -49 -4 -26 -3 -31 4 -20 9 13 12 12 25 -4 8 -11 17 -17 21 -14 3 4 -4 16 -15 27 -19 19 -19 21 -3 30 16 9 16 11 0 27 -14 14 -18 15 -22 3z m24 -13 c0 -3 -4 -8 -10 -11 -5 -3 -10 -1 -10 4 0 6 5 11 10 11 6 0 10 -2 10 -4z"
       id="path16" />
    <path
       d="M726 1379 c-9 -47 -7 -55 7 -34 13 17 14 17 20 -5 9 -34 27 -14 26 28 l-2 37 -7 -35 -7 -35 -8 33 c-10 44 -21 48 -29 11z"
       id="path18" />
    <path
       d="M807 1403 c-13 -12 -8 -83 6 -83 22 0 37 23 37 57 0 25 -4 33 -18 33 -10 0 -22 -3 -25 -7z m33 -27 c0 -13 -7 -29 -15 -36 -13 -11 -15 -8 -15 17 0 16 3 33 7 36 13 14 23 6 23 -17z"
       id="path20" />
    <path
       d="M867 1403 c-10 -9 -9 -83 1 -83 4 0 14 5 22 10 13 8 12 10 -2 10 -10 0 -18 5 -18 10 0 6 5 10 10 10 7 0 7 6 0 19 -9 17 -6 20 18 24 l27 4 -26 2 c-14 0 -29 -2 -32 -6z"
       id="path22" />
    <path
       d="M1072 1390 c-1 -14 -5 -36 -8 -50 -5 -19 -4 -22 5 -14 7 7 11 28 8 50 -2 22 -4 28 -5 14z"
       id="path24" />
    <path
       d="m 1111,1368 c 1,-24 3,-51 6,-41 7.0981,31.9413 26,33 32,33 8,0 10.2038,10.4272 -1,12 -19.2745,2.7058 -31,26 0,31 25,4 25,4 -5,6 -32,1 -33,0 -32,-41 z"
       id="path26"
       inkscape:connector-curvature="0"
       sodipodi:nodetypes="ccssccc" />
    <path
       d="M 951.63726,1245.8578 C 949.63726,1210.8578 949,1215 933,1238 c -11,15 -26,22 -49,22 -19,0 -34,-5 -34,-11 0,-8 -4.63726,-5.1323 -12.63726,0.8677 -8.27451,22.8432 -29.39101,9.4937 -47.90194,3.6715 0,0 -21.29996,26.3965 -44.4608,5.4608 -8.797,-7.9518 -4.18629,-45 -4.18629,-45 L 742,1169 l 13.14218,3.9167 6.76959,33.3677 c 17.80388,-3.0689 40.45097,29.3332 33.45097,-10.6668 -5,-27 -5,-30 4,-17 6,10 20.63726,36.3824 32.63726,42.3824 19,10 20,9 14,-15 -5,-22 -3,-26 16,-25 13,0 24.64709,3.6373 18.64709,6.6373 -7,2 -20.64709,10.3627 -20.64709,17.3627 0,7 9.82355,16 16.82355,18 10,4 10,6 0,6 -24,2 -16.82355,21 8.17645,21 21,0 23.04411,-19.2942 20.04411,-42.2942 -2,-16 -1,-22 1,-15 6,17 24.98372,48.39 30.32847,11.9756 1.45463,-9.9106 -1.73532,-23.9216 4.26468,-23.9216 13,0 23,47.098 17,76.098 -3,18 -5,15 -6,-11 z M 780,1241 c 0,-6 -4,-13 -10,-16 -5,-3 -10,1 -10,9 0,9 5,16 10,16 6,0 10,-4 10,-9 z m 50,-1 c 0,-5 -5,-10 -11,-10 -5,0 -7,5 -4,10 3,6 3.85783,3.6274 6.85783,3.6274 2,0 8.14217,2.3726 8.14217,-3.6274 z"
       id="path28"
       inkscape:connector-curvature="0"
       sodipodi:nodetypes="ccsscssccccccccccsccsccssccscssssscss" />
    <path
       d="m 273,1263 c 15,-4 18,-12 14,-41 l -5,-37 11,38 c 6,20 16,37 24,37 8,0 10.45097,-26.7452 11.45097,-49.7452 1,-21 3,-30 6,-20 2,9 13.54903,29.7452 22.54903,29.7452 9,0 13,-6 9,-15 -3,-8 -1,-15 4,-15 6,0 9,19 9,43 -1,23 1.09806,44.7452 -0.90194,32.7452 C 373.09806,1237.7452 340,1223 340,1250 c 0,17 -6,20 -42,19 -24,-1 -35,-3 -25,-6 z"
       id="path30"
       inkscape:connector-curvature="0"
       sodipodi:nodetypes="ccccsccscsccscc" />
    <path
       d="M407 1229 c-9 -23 -15 -45 -12 -47 2 -3 7 3 11 12 8 21 31 21 37 -1 3 -10 5 -4 6 13 0 16 -5 38 -12 48 -12 16 -15 14 -30 -25z m33 1 c0 -5 -4 -10 -10 -10 -5 0 -10 5 -10 10 0 6 5 10 10 10 6 0 10 -4 10 -10z"
       id="path32" />
    <path
       d="m 593,1225 c 4,-27 2,-56 4,-43 3,13 12,38 23,38 11,0 20,-25 23,-38 2,-13 4,16 5,43 0,29 -1.72548,44.549 -4.72548,32.549 -10,-29 -41.27452,-25.9019 -46.27452,2.0981 -2,13 -8.10336,-6.9494 -4,-34.6471 z"
       id="path34"
       inkscape:connector-curvature="0"
       sodipodi:nodetypes="scsccccs" />
    <path
       d="M984 1258 c-4 -6 2 -19 14 -29 28 -22 28 -29 0 -29 -17 0 -19 -3 -10 -12 10 -9 16 -8 29 5 16 15 16 18 -1 36 -10 11 -15 25 -11 30 3 6 2 11 -4 11 -5 0 -13 -5 -17 -12z"
       id="path36" />
    <path
       d="m 1109,1263 c -11,-2 -19,-19 -22,-46 -3,-23 -4,-43 -3,-45 2,-1 14,2 27,7 17,7 19,10 7,10 -10,1 -18,7 -18,15 0,8 8,17 18,19 16,4 16,5 0,6 -25,1 -22,18 4,24 27,7 26.7255,-10.5687 36.7255,-51.5687 6,-26 9,-29 15,-15 4,10 2.2745,43.5687 -7.7255,58.5687 -16,24 -24,27 -57,18 z"
       id="path38"
       inkscape:connector-curvature="0"
       sodipodi:nodetypes="cccccscccccsc" />
    <path
       d="m 1187,1263 c -4,-3 -23.5687,-57.608 -23.5687,-66.608 0,-14 2,-14 11,-1 8,11 25.5687,50.608 21.5687,22.608 -4,-36 -3,-38 22,-37 17,1 21,3 10,6 -21,5 -24,29 -5,36 10,4 10,6 0,6 -20,1 -15,21 5,21 14,0 15,2 2,10 -18,11 -34,13 -43,3 z"
       id="path40"
       inkscape:connector-curvature="0"
       sodipodi:nodetypes="csccccccscc" />
    <path
       d="M1259 1268 c-1 -2 -2 -20 -3 -41 -2 -25 0 -34 6 -25 8 10 11 10 15 1 2 -7 9 -13 15 -13 6 0 3 9 -6 19 -16 18 -16 20 0 29 19 10 11 32 -12 32 -8 0 -14 -1 -15 -2z m26 -18 c-3 -5 -11 -10 -16 -10 -6 0 -7 5 -4 10 3 6 11 10 16 10 6 0 7 -4 4 -10z"
       id="path42" />
    <path
       d="M1312 1255 c0 -11 4 -33 8 -50 6 -25 8 -26 9 -7 0 12 8 34 17 47 9 14 12 25 6 25 -5 0 -13 -8 -17 -17 -7 -17 -8 -16 -15 2 l-9 20 1 -20z"
       id="path44" />
    <path
       d="M 459.35291,1259.0981 C 466.35291,1256.0981 477,1235 474,1212 c -4,-37 0,-32 16,21 8,24 41.68643,24.451 22.68643,23.451 -12,0 -60.33352,4.6471 -53.33352,2.6471 z"
       id="path46"
       inkscape:connector-curvature="0"
       sodipodi:nodetypes="ccccc" />
    <path
       d="m 680,1226 c -6,-21 -9,-45.0981 -6,-48.0981 3,-4 6,1 6,10 0,22 27,22 33,0 3,-12 5,-9 6,8 0,14 -5,39.0981 -13,49.0981 -12,17 -14,16 -26,-19 z m 25,4 c 3,-5 1,-10 -4,-10 -6,0 -11,5 -11,10 0,6 2,10 4,10 3,0 8,-4 11,-10 z"
       id="path48"
       inkscape:connector-curvature="0"
       sodipodi:nodetypes="ccscccccsssc" />
    <path
       d="M161 1172 c-1 -17 6 -24 29 -28 17 -4 30 -10 30 -14 0 -14 32 -20 46 -9 11 9 18 8 29 -1 10 -8 23 -9 42 -3 23 8 31 6 44 -11 16 -19 18 -19 42 -3 22 14 26 14 31 2 6 -17 47 -20 63 -4 7 7 13 8 17 0 5 -7 15 -7 33 0 15 5 39 7 55 4 17 -4 35 -2 43 5 12 10 18 10 30 0 12 -10 18 -10 30 0 13 10 19 10 34 -4 10 -9 25 -14 35 -10 10 4 25 -1 36 -11 11 -10 28 -15 40 -12 13 3 20 0 20 -10 0 -8 9 -17 20 -20 11 -3 20 -12 20 -19 0 -22 40 -56 57 -49 9 3 26 -4 39 -16 17 -16 31 -20 53 -16 17 4 33 2 36 -3 8 -13 48 -13 62 1 8 8 17 8 31 0 14 -7 29 -8 46 -1 16 6 27 6 31 0 9 -15 41 -12 55 5 7 8 16 12 21 9 9 -5 79 60 79 74 0 5 9 17 20 27 11 10 19 30 19 44 -1 21 -2 22 -6 6 -7 -27 -23 -46 -34 -39 -5 3 -9 -9 -9 -27 0 -28 -3 -31 -25 -27 -15 3 -25 1 -24 -6 3 -26 -2 -36 -18 -36 -9 0 -25 -8 -35 -17 -17 -15 -20 -15 -35 -1 -12 13 -20 14 -34 5 -14 -9 -26 -9 -48 0 -24 9 -33 8 -42 -3 -15 -19 -36 -18 -47 2 -7 13 -13 14 -31 5 -29 -16 -55 -6 -70 26 -9 20 -15 23 -20 14 -15 -23 -46 -8 -51 24 -4 22 -11 30 -25 30 -13 0 -21 8 -23 22 -3 19 -6 21 -22 11 -26 -17 -54 6 -39 33 13 25 4 24 -29 -2 -26 -20 -27 -20 -42 -2 -12 16 -20 17 -44 8 -22 -7 -30 -7 -34 3 -3 9 -11 8 -33 -5 -27 -16 -29 -16 -42 1 -12 16 -14 16 -26 2 -15 -18 -42 -21 -57 -6 -8 8 -15 6 -24 -5 -17 -21 -37 -19 -50 6 -11 19 -13 19 -29 5 -23 -21 -38 -20 -51 4 -10 19 -12 19 -36 4 -23 -16 -26 -15 -44 1 -16 14 -23 16 -32 7 -18 -18 -35 -14 -43 11 -4 13 -8 17 -12 10 -8 -21 -33 -15 -43 10 l-9 22 0 -23z"
       id="path50" />
    <path
       d="m 1002,1113 c 6,-2 28,-13.6274 28,-39 0,-19 5,-34 10,-34 6,0 6.1765,14.9216 5.1765,21.9216 C 1038.6274,1086 1068,1109 1084,1113 c 9,3 -17,5 -39,5 -22,0 -50,-2 -43,-5 z"
       id="path52"
       inkscape:connector-curvature="0"
       sodipodi:nodetypes="cssccsc" />
    <path
       d="m 1187,1103 c -11,-11 -17,-13 -17,-5 0,7 -7,12 -15,12 -8,0 -15,-6 -15,-12 0,-7 -3,-40 -5,-54 -3,-16 0,-12 9,10 14,33 15,50 22,29 8,-28 24,-30 24,-3 0,11 4,20 9,20 4,0 6,-11 3,-25 -2,-15 0,-41 7,-41 6,0 11,32 11,51 0,39 -8,43 -33,18 z"
       id="path54"
       inkscape:connector-curvature="0"
       sodipodi:nodetypes="sssscccsscsss" />
    <path
       d="M1238 1074 c-5 -41 1 -48 34 -35 l23 10 -22 0 c-27 1 -31 18 -5 24 16 4 16 5 0 6 -28 2 -21 19 10 24 26 4 26 4 -4 6 -29 1 -32 -2 -36 -35z"
       id="path58" />
    <path
       d="M627 1040 c-31 -36 -43 -99 -27 -132 21 -39 51 -67 81 -73 43 -10 35 -25 -13 -25 -45 0 -128 32 -128 49 0 12 -36 24 -49 17 -6 -4 -6 -18 -1 -36 8 -29 -10 -111 -30 -133 -4 -5 -23 10 -42 32 -19 23 -38 41 -42 41 -3 0 -6 -89 -5 -197 1 -121 -3 -223 -10 -262 -10 -52 -10 -66 1 -72 11 -8 114 -3 144 6 8 2 14 65 19 191 l8 188 -31 26 -31 25 16 58 c19 68 50 95 86 75 12 -6 48 -15 80 -19 32 -4 61 -10 64 -13 3 -3 8 -56 10 -118 4 -103 2 -120 -21 -188 -39 -111 -66 -203 -65 -220 0 -8 2 -10 4 -5 2 6 23 70 46 143 24 72 46 132 50 132 8 0 59 -132 79 -202 7 -27 16 -48 20 -48 11 0 -36 151 -71 229 -25 55 -29 76 -29 155 l0 91 51 -93 c28 -52 53 -92 55 -89 3 3 -25 62 -62 131 l-66 127 20 22 c31 34 52 83 52 120 0 27 -8 42 -35 66 -48 42 -94 42 -128 1z m111 -5 c39 -33 48 -74 26 -117 -39 -78 -83 -90 -129 -36 -24 28 -27 39 -22 82 3 38 11 55 31 73 35 30 57 29 94 -2z m-208 -195 c0 -5 -7 -10 -15 -10 -8 0 -15 5 -15 10 0 6 7 10 15 10 8 0 15 -4 15 -10z m-16 -390 c-4 -111 -11 -178 -18 -182 -6 -4 -28 -8 -48 -8 -20 0 -42 -2 -50 -5 -32 -12 -36 8 -22 100 10 64 12 135 8 244 l-7 155 72 -65 72 -64 -7 -175z"
       id="path60" />
    <path
       d="M890 985 c-14 -16 -6 -35 16 -35 8 0 14 10 14 25 0 28 -12 32 -30 10z m17 -17 c-3 -8 -6 -5 -6 6 -1 11 2 17 5 13 3 -3 4 -12 1 -19z"
       id="path62" />
    <path
       d="M816 964 c-3 -9 -3 -20 0 -25 8 -13 34 9 34 27 0 19 -26 18 -34 -2z m24 -4 c0 -5 -5 -10 -11 -10 -5 0 -7 5 -4 10 3 6 8 10 11 10 2 0 4 -4 4 -10z"
       id="path64" />
    <path
       id="path4196"
       d="m 1104.5001,1107.0576 c -1,-14 -5,-36 -8,-50 -5,-19 -4,-22 5,-14 7,7 11,28 8,50 -2,22 -4,28 -5,14 z"
       inkscape:connector-curvature="0"
       sodipodi:nodetypes="scccs" />
  </g>
</svg>
