<?xml version="1.0" standalone="no"?>
<!DOCTYPE svg PUBLIC "-//W3C//DTD SVG 20010904//EN"
 "http://www.w3.org/TR/2001/REC-SVG-20010904/DTD/svg10.dtd">
<svg version="1.0" xmlns="http://www.w3.org/2000/svg"
 width="160.000000pt" height="160.000000pt" viewBox="0 0 160.000000 160.000000"
 preserveAspectRatio="xMidYMid meet">
<metadata>
Created by potrace 1.13, written by Peter Selinger 2001-2015
</metadata>
<g transform="translate(0.000000,160.000000) scale(0.100000,-0.100000)"
fill="#000000" stroke="none">
<path d="M695 1559 c-60 -9 -130 -22 -155 -28 -43 -12 -140 -69 -140 -83 0 -3
-39 -35 -88 -70 -110 -81 -172 -153 -221 -259 -48 -104 -68 -185 -76 -314 -10
-141 14 -231 99 -380 76 -133 159 -224 261 -285 22 -13 42 -27 45 -30 3 -4 56
-23 118 -44 132 -43 216 -48 379 -21 105 18 168 45 286 122 97 64 118 84 190
176 74 94 90 124 124 221 61 179 66 274 23 428 -46 164 -106 257 -247 383 -75
67 -120 98 -198 135 -89 44 -110 50 -195 57 -71 6 -123 4 -205 -8z m256 -9
c30 -6 99 -33 154 -60 128 -64 258 -181 335 -301 58 -90 107 -235 116 -344 11
-120 -61 -343 -148 -460 -103 -137 -191 -209 -343 -281 -86 -41 -254 -69 -360
-60 -171 14 -389 122 -473 234 -15 20 -30 39 -33 42 -15 12 -98 149 -118 195
-12 27 -31 88 -41 135 -16 72 -17 101 -10 189 20 230 106 395 267 514 38 29
91 71 117 94 69 61 144 85 331 107 65 7 155 6 206 -4z"/>
<path d="M761 1294 c0 -11 3 -14 6 -6 3 7 2 16 -1 19 -3 4 -6 -2 -5 -13z"/>
<path d="M773 1238 c0 -7 -4 -21 -8 -30 -4 -11 -3 -18 4 -18 21 0 11 -21 -15
-30 -32 -12 -24 -26 27 -47 21 -8 39 -19 39 -23 0 -5 -22 -11 -50 -15 -27 -4
-50 -11 -50 -17 0 -6 6 -8 14 -5 8 3 31 9 50 13 20 3 39 10 42 16 9 14 -15 36
-47 43 -36 8 -37 18 -4 33 25 12 34 32 14 32 -7 0 -8 11 -4 30 4 17 2 30 -3
30 -5 0 -9 -6 -9 -12z"/>
<path d="M708 990 c-79 -65 -71 -186 14 -212 l39 -11 -25 -26 c-13 -14 -31
-42 -39 -61 -8 -19 -33 -55 -55 -80 -23 -24 -39 -47 -36 -50 8 -8 92 91 105
125 14 35 38 65 52 65 6 0 7 -32 3 -87 -6 -86 -30 -176 -67 -261 -10 -23 -19
-51 -19 -60 0 -10 -7 -27 -15 -38 -8 -10 -14 -30 -14 -44 1 -22 2 -23 8 -5 4
11 15 37 24 57 9 21 17 42 17 48 0 6 6 21 14 33 8 12 17 39 20 59 7 40 26 62
26 30 0 -10 14 -31 30 -47 17 -16 30 -39 30 -52 0 -13 9 -31 20 -40 11 -10 20
-27 20 -38 0 -11 5 -27 11 -35 7 -11 8 -4 3 25 -4 22 -15 48 -25 58 -11 10
-19 29 -19 43 0 15 -11 34 -27 48 -25 21 -27 30 -27 92 0 38 4 103 8 144 8 60
11 71 20 56 6 -10 26 -36 44 -58 17 -22 32 -46 32 -53 0 -8 5 -17 10 -20 24
-15 -5 52 -39 91 -20 23 -42 53 -50 67 -13 24 -11 28 22 63 44 47 53 85 30
140 -12 30 -26 45 -48 53 -46 16 -57 14 -97 -19z m112 -21 c44 -46 41 -87 -9
-140 -36 -37 -43 -40 -73 -34 -46 9 -68 38 -68 90 0 62 45 112 102 114 10 1
31 -13 48 -30z"/>
<path d="M446 795 c-3 -9 -4 -20 -1 -25 5 -8 -43 -120 -51 -120 -3 0 -18 14
-35 31 -17 17 -32 29 -35 27 -6 -7 -13 -119 -19 -305 l-5 -163 80 0 80 0 0
168 0 168 -29 28 -30 29 29 57 c18 36 37 60 50 63 16 4 21 12 18 29 -4 28 -42
37 -52 13z m39 -13 c0 -18 -20 -15 -23 4 -3 10 1 15 10 12 7 -3 13 -10 13 -16z
m-37 -372 l-4 -155 -64 0 -65 0 3 110 c1 61 5 159 8 219 l6 108 60 -63 59 -64
-3 -155z"/>
</g>
</svg>
