<?xml version="1.0" standalone="no"?>
<!DOCTYPE svg PUBLIC "-//W3C//DTD SVG 20010904//EN"
 "http://www.w3.org/TR/2001/REC-SVG-20010904/DTD/svg10.dtd">
<svg version="1.0" xmlns="http://www.w3.org/2000/svg"
 width="160.000000pt" height="160.000000pt" viewBox="0 0 160.000000 160.000000"
 preserveAspectRatio="xMidYMid meet">
<metadata>
Created by potrace 1.13, written by Peter Selinger 2001-2015
</metadata>
<g transform="translate(0.000000,160.000000) scale(0.100000,-0.100000)"
fill="#000000" stroke="none">
<path d="M646 1555 c-78 -13 -142 -35 -266 -93 -39 -19 -144 -121 -200 -197
-74 -98 -137 -282 -148 -427 -9 -124 54 -325 137 -438 99 -135 216 -235 355
-304 67 -33 90 -39 189 -48 61 -5 135 -7 162 -3 200 24 395 133 508 280 130
172 187 328 189 523 1 114 -14 167 -88 316 -42 84 -61 110 -135 181 -47 45
-97 88 -111 96 -120 66 -191 98 -238 108 -88 19 -255 22 -354 6z m189 -117
c-29 -62 -51 -115 -49 -117 2 -2 13 4 24 14 28 25 26 14 -19 -116 -22 -63 -38
-116 -35 -118 2 -2 13 8 25 23 29 37 35 26 11 -21 -11 -21 -35 -76 -53 -123
-32 -83 -50 -98 -30 -23 6 21 11 46 11 57 0 16 -2 17 -16 5 -16 -13 -16 -9
-10 45 5 33 12 70 17 83 4 12 6 29 3 36 -3 8 0 26 5 40 13 33 5 35 -18 5 -17
-21 -18 -18 -24 88 -4 60 -10 137 -13 172 l-7 62 116 0 116 0 -54 -112z m165
98 c105 -25 296 -139 355 -211 17 -20 42 -50 56 -66 35 -39 103 -180 130 -269
19 -63 21 -86 15 -174 -9 -131 -29 -212 -78 -311 -110 -222 -273 -363 -493
-426 -113 -33 -301 -31 -396 4 -138 50 -288 162 -385 288 -57 74 -116 201
-139 297 -19 80 -25 218 -10 242 5 8 10 24 11 36 10 90 82 259 142 334 73 89
164 172 183 167 11 -3 22 -1 25 4 10 16 105 60 162 75 61 16 71 11 73 -36 0
-14 2 -34 4 -45 3 -11 7 -76 11 -145 3 -69 8 -127 11 -130 2 -2 8 2 13 10 6 8
10 10 10 4 0 -20 -31 -218 -36 -228 -3 -6 4 -1 15 12 l21 24 -3 -55 c-1 -30
-5 -53 -8 -51 -4 2 -10 -7 -13 -20 -7 -27 -36 -44 -36 -21 0 8 -4 15 -10 15
-5 0 -10 -7 -10 -15 0 -21 -30 -31 -41 -14 -7 11 -9 9 -9 -7 0 -27 -22 -46
-43 -38 -9 3 -15 0 -14 -8 1 -35 -5 -47 -25 -50 -12 -2 -23 -9 -26 -16 -2 -7
2 -10 12 -6 11 4 16 0 16 -14 0 -12 -5 -24 -10 -27 -7 -4 -6 -13 1 -26 7 -15
7 -24 -2 -35 -9 -11 -8 -14 3 -14 12 0 15 13 15 55 0 52 26 125 45 125 3 0 14
8 24 17 18 18 22 20 71 29 29 6 31 4 27 -17 -5 -24 -5 -24 11 -4 19 24 34 26
58 7 9 -9 20 -13 23 -10 8 8 55 -41 53 -55 -3 -26 2 -37 17 -37 10 0 14 -6 10
-15 -3 -8 3 -21 15 -28 13 -9 17 -20 13 -32 -4 -9 -2 -20 3 -24 15 -9 26 -128
13 -136 -7 -4 -7 -12 0 -25 7 -13 7 -21 -1 -26 -6 -3 -9 -17 -6 -30 2 -14 -1
-25 -9 -28 -8 -3 -14 -12 -14 -21 0 -8 -9 -15 -19 -15 -11 0 -23 -5 -26 -11
-4 -6 -13 -8 -20 -5 -8 3 -19 -2 -25 -10 -7 -8 -21 -14 -31 -14 -10 0 -20 -4
-23 -9 -8 -12 -58 -11 -73 1 -7 5 -16 7 -21 4 -14 -9 -42 33 -42 64 0 16 -4
31 -9 35 -5 3 -7 20 -4 39 3 18 1 36 -5 40 -6 3 -8 14 -5 24 2 10 -3 24 -11
31 -21 17 -21 67 0 75 18 7 10 26 -12 26 -8 0 -17 -12 -20 -27 -3 -16 -12 -37
-20 -47 -14 -19 -14 -19 -34 2 -12 12 -22 22 -24 22 -2 0 -4 -35 -5 -77 -1
-43 -6 -102 -12 -132 -13 -64 -5 -76 58 -84 47 -6 46 -6 58 71 8 48 21 55 31
15 5 -19 2 -30 -10 -39 -16 -11 -16 -13 6 -16 16 -2 23 -9 22 -25 0 -19 4 -21
28 -16 17 3 28 1 28 -5 0 -7 11 -9 30 -5 22 4 30 2 30 -8 0 -8 8 -4 19 11 16
20 21 22 35 11 14 -12 16 -10 16 9 0 20 4 22 30 17 21 -5 29 -3 27 6 -1 7 9
11 27 10 24 -2 27 1 23 19 -4 14 0 22 12 25 13 3 17 11 13 30 -3 14 1 28 8 33
9 6 9 12 -2 29 -11 19 -11 23 5 32 15 9 16 13 6 26 -10 11 -10 19 -1 34 10 16
9 19 -3 19 -18 0 -20 21 -3 38 9 9 8 12 -6 12 -15 0 -17 5 -13 29 5 23 2 30
-14 34 -16 4 -19 11 -14 26 5 17 2 21 -14 21 -23 0 -26 12 -11 41 9 17 7 19
-16 19 -24 0 -26 3 -22 30 5 33 -3 38 -22 15 -16 -19 -33 -9 -27 16 5 20 -9
27 -15 8 -2 -6 -11 -10 -20 -8 -13 3 -8 24 33 124 27 66 60 142 74 168 33 65
34 88 0 57 -33 -31 -32 -18 10 105 18 55 32 102 29 104 -2 2 -13 -4 -24 -14
-20 -18 -20 -18 -4 21 9 21 29 65 45 97 33 64 37 65 129 43z m-520 -1044 l42
-39 -7 -79 c-3 -43 -9 -82 -11 -86 -5 -8 -70 -5 -79 4 -4 4 6 238 10 238 1 0
21 -17 45 -38z m48 0 c3 -21 1 -22 -17 -12 -26 13 -28 43 -3 38 9 -2 18 -14
20 -26z m22 -61 c0 -11 -4 -23 -10 -26 -6 -4 -10 5 -10 19 0 14 5 26 10 26 6
0 10 -9 10 -19z"/>
<path d="M489 1473 c-13 -16 -12 -17 4 -4 9 7 17 15 17 17 0 8 -8 3 -21 -13z"/>
<path d="M614 1468 l-19 -23 23 19 c21 18 27 26 19 26 -2 0 -12 -10 -23 -22z"/>
<path d="M449 1443 c-13 -16 -12 -17 4 -4 9 7 17 15 17 17 0 8 -8 3 -21 -13z"/>
<path d="M589 1383 l-24 -28 28 24 c25 23 32 31 24 31 -2 0 -14 -12 -28 -27z"/>
<path d="M565 1284 c-22 -20 -31 -31 -20 -26 18 9 74 62 64 62 -2 -1 -22 -17
-44 -36z"/>
<path d="M585 1228 l-50 -53 53 50 c28 27 52 51 52 52 0 8 -9 -1 -55 -49z"/>
<path d="M579 1133 l-24 -28 28 24 c15 14 27 26 27 28 0 8 -8 1 -31 -24z"/>
<path d="M1056 1144 c-5 -14 -4 -15 9 -4 17 14 19 20 6 20 -5 0 -12 -7 -15
-16z"/>
<path d="M1300 1135 c-7 -9 -10 -18 -7 -21 3 -3 10 4 17 15 13 25 8 27 -10 6z"/>
<path d="M1380 1101 c0 -5 9 -7 20 -4 11 3 20 7 20 9 0 2 -9 4 -20 4 -11 0
-20 -4 -20 -9z"/>
<path d="M600 1085 c-7 -9 -11 -18 -8 -20 3 -3 11 1 18 10 7 9 11 18 8 20 -3
3 -11 -1 -18 -10z"/>
<path d="M1135 1083 c-44 -12 -50 -24 -52 -120 -1 -53 2 -93 8 -93 5 0 9 13 9
30 0 22 7 33 29 45 34 17 67 59 76 97 5 20 2 29 -13 37 -22 12 -25 12 -57 4z
m58 -19 c18 -18 -52 -114 -84 -114 -13 0 -11 94 3 108 12 12 70 17 81 6z"/>
<path d="M1320 1047 c-33 -40 -52 -67 -48 -67 6 0 80 91 77 94 -2 2 -15 -10
-29 -27z"/>
<path d="M1011 988 c-7 -29 -20 -59 -29 -65 -9 -7 -11 -13 -5 -13 5 0 9 -12 6
-27 -3 -24 -2 -25 6 -8 5 11 12 28 15 38 3 9 15 17 26 17 16 0 20 -6 20 -34 0
-19 5 -38 11 -42 8 -5 10 0 6 17 -3 13 -8 47 -12 74 -14 113 -24 123 -44 43z
m20 -41 c-18 -18 -22 -2 -9 34 l13 34 3 -29 c2 -16 -1 -33 -7 -39z"/>
<path d="M594 978 l-29 -33 33 29 c30 28 37 36 29 36 -2 0 -16 -15 -33 -32z"/>
<path d="M875 960 c-38 -22 -65 -40 -59 -40 6 0 33 12 58 26 26 15 50 23 53
20 4 -3 -10 -40 -31 -82 -20 -41 -36 -79 -34 -84 3 -9 108 56 108 67 0 2 -20
-7 -45 -20 -25 -14 -45 -24 -45 -21 0 2 18 40 40 84 22 44 40 82 40 85 0 10
-17 4 -85 -35z"/>
<path d="M1455 980 c-20 -22 -30 -54 -13 -44 5 3 7 8 4 11 -2 3 7 16 22 29 15
13 22 24 16 24 -6 0 -19 -9 -29 -20z"/>
<path d="M1399 818 c-46 -51 -61 -73 -35 -48 49 47 132 140 123 140 -3 0 -42
-42 -88 -92z"/>
<path d="M69 863 c-13 -16 -12 -17 4 -4 9 7 17 15 17 17 0 8 -8 3 -21 -13z"/>
<path d="M515 840 c-3 -5 -1 -10 4 -10 6 0 11 5 11 10 0 6 -2 10 -4 10 -3 0
-8 -4 -11 -10z"/>
<path d="M1304 808 l-19 -23 23 19 c12 11 22 21 22 23 0 8 -8 2 -26 -19z"/>
<path d="M993 754 l-28 -26 33 22 c29 20 39 30 28 30 -3 0 -18 -12 -33 -26z"/>
<path d="M269 743 c-13 -16 -12 -17 4 -4 9 7 17 15 17 17 0 8 -8 3 -21 -13z"/>
<path d="M615 725 c-30 -30 -32 -64 -4 -99 24 -30 23 -31 -27 -11 -35 14 -37
14 -19 0 11 -8 37 -20 58 -26 41 -11 42 -13 51 -75 5 -36 1 -49 -35 -104 -22
-34 -38 -64 -35 -67 2 -3 22 22 43 56 21 34 42 61 47 61 6 0 36 -21 68 -46 32
-25 58 -41 58 -36 0 10 -108 92 -121 92 -4 0 -11 21 -15 46 -6 45 -6 47 45 98
67 68 66 85 -1 21 -47 -46 -49 -47 -20 -10 43 54 42 86 -3 108 -48 23 -61 21
-90 -8z m84 -2 c26 -15 31 -22 26 -43 -9 -35 -44 -70 -71 -70 -16 0 -29 10
-39 30 -20 39 -19 47 10 75 29 30 34 30 74 8z"/>
<path d="M234 698 l-19 -23 23 19 c21 18 27 26 19 26 -2 0 -12 -10 -23 -22z"/>
<path d="M956 693 c-6 -14 -5 -15 5 -6 7 7 10 15 7 18 -3 3 -9 -2 -12 -12z"/>
<path d="M1450 635 c-8 -9 -8 -15 -2 -15 12 0 26 19 19 26 -2 2 -10 -2 -17
-11z"/>
<path d="M1404 598 c-19 -23 -19 -23 2 -5 11 9 24 14 29 10 4 -5 5 -2 1 5 -9
16 -10 16 -32 -10z"/>
<path d="M945 590 c-3 -5 -1 -10 4 -10 6 0 11 5 11 10 0 6 -2 10 -4 10 -3 0
-8 -4 -11 -10z"/>
<path d="M273 578 c-20 -26 -26 -41 -15 -34 12 7 36 46 29 46 -3 0 -9 -6 -14
-12z"/>
<path d="M1295 580 c-3 -5 -2 -10 4 -10 5 0 13 5 16 10 3 6 2 10 -4 10 -5 0
-13 -4 -16 -10z"/>
<path d="M369 563 c-13 -16 -12 -17 4 -4 16 13 21 21 13 21 -2 0 -10 -8 -17
-17z"/>
<path d="M169 553 c-13 -16 -12 -17 4 -4 9 7 17 15 17 17 0 8 -8 3 -21 -13z"/>
<path d="M290 545 c-7 -9 -11 -18 -8 -20 3 -3 11 1 18 10 7 9 11 18 8 20 -3 3
-11 -1 -18 -10z"/>
<path d="M1249 543 c-13 -16 -12 -17 4 -4 9 7 17 15 17 17 0 8 -8 3 -21 -13z"/>
<path d="M339 523 c-13 -16 -12 -17 4 -4 16 13 21 21 13 21 -2 0 -10 -8 -17
-17z"/>
<path d="M1144 518 l-19 -23 23 19 c21 18 27 26 19 26 -2 0 -12 -10 -23 -22z"/>
<path d="M284 498 l-29 -33 33 29 c30 28 37 36 29 36 -2 0 -16 -15 -33 -32z"/>
<path d="M992 499 c-13 -16 -20 -29 -15 -29 9 1 47 50 41 54 -1 2 -13 -10 -26
-25z"/>
<path d="M353 488 c-15 -20 -25 -38 -20 -38 3 0 12 11 21 25 17 26 16 35 -1
13z"/>
<path d="M1090 429 c0 -5 5 -7 10 -4 6 3 10 8 10 11 0 2 -4 4 -10 4 -5 0 -10
-5 -10 -11z"/>
<path d="M864 238 l-19 -21 28 18 c28 18 33 25 19 25 -5 0 -17 -10 -28 -22z"/>
<path d="M921 201 c-28 -32 -51 -61 -51 -65 0 -3 17 13 37 36 20 24 46 53 57
66 11 12 17 22 14 22 -3 0 -29 -26 -57 -59z"/>
<path d="M480 230 c-8 -5 -12 -12 -9 -15 4 -3 12 1 19 10 14 17 11 19 -10 5z"/>
<path d="M739 193 c-13 -16 -12 -17 4 -4 16 13 21 21 13 21 -2 0 -10 -8 -17
-17z"/>
<path d="M790 199 c0 -5 5 -7 10 -4 6 3 10 8 10 11 0 2 -4 4 -10 4 -5 0 -10
-5 -10 -11z"/>
<path d="M1086 160 c-35 -39 -46 -57 -27 -45 12 7 74 85 68 85 -3 0 -21 -18
-41 -40z"/>
<path d="M555 180 c-3 -5 -3 -10 1 -10 4 0 -1 -10 -12 -21 -19 -22 -19 -22 4
-8 12 8 22 22 22 31 0 20 -6 23 -15 8z"/>
<path d="M580 169 c0 -5 5 -7 10 -4 6 3 10 8 10 11 0 2 -4 4 -10 4 -5 0 -10
-5 -10 -11z"/>
<path d="M959 163 c-13 -16 -12 -17 4 -4 16 13 21 21 13 21 -2 0 -10 -8 -17
-17z"/>
<path d="M643 143 c-10 -10 -14 -15 -8 -11 6 4 22 12 36 17 15 6 18 10 8 10
-9 1 -25 -7 -36 -16z"/>
<path d="M590 110 c-9 -6 -10 -10 -3 -10 6 0 15 5 18 10 8 12 4 12 -15 0z"/>
<path d="M777 103 c-4 -3 -7 -11 -7 -17 0 -6 5 -5 12 2 6 6 9 14 7 17 -3 3 -9
2 -12 -2z"/>
</g>
</svg>
