<?xml version="1.0" standalone="no"?>
<!DOCTYPE svg PUBLIC "-//W3C//DTD SVG 20010904//EN"
 "http://www.w3.org/TR/2001/REC-SVG-20010904/DTD/svg10.dtd">
<svg version="1.0" xmlns="http://www.w3.org/2000/svg"
 width="225.000000pt" height="258.000000pt" viewBox="0 0 225.000000 258.000000"
 preserveAspectRatio="xMidYMid meet">
<metadata>
Created by potrace 1.13, written by Peter Selinger 2001-2015
</metadata>
<g transform="translate(0.000000,258.000000) scale(0.100000,-0.100000)"
fill="#000000" stroke="none">
<path d="M0 1290 l0 -1290 1110 0 1110 0 0 1290 0 1290 -1110 0 -1110 0 0
-1290z m2200 484 l0 -786 -32 6 c-146 26 -355 29 -603 10 -105 -8 -257 -49
-277 -74 -20 -25 -11 -55 19 -64 56 -18 202 -36 291 -36 l102 0 0 -57 c0 -32
-4 -64 -8 -70 -6 -10 -109 -15 -423 -20 l-415 -6 -12 49 c-55 222 -60 257 -53
369 l6 109 59 -132 c34 -77 63 -129 68 -124 5 5 -21 72 -61 158 -61 131 -68
150 -53 158 82 43 131 153 113 252 -12 61 -39 86 -129 115 l-68 22 -2 178 -2
179 27 0 c16 0 114 -5 218 -10 229 -11 743 -15 752 -6 7 7 9 453 2 460 -6 7
-1156 21 -1364 17 -104 -1 -194 -6 -198 -11 -5 -4 -10 -87 -10 -183 l-2 -175
-28 -6 -28 -6 2 -527 c1 -291 -2 -535 -5 -544 -4 -9 -1 -21 8 -28 8 -7 13 -18
10 -24 -3 -9 60 -12 253 -12 142 0 265 -2 274 -3 11 -3 15 -11 12 -25 l-5 -22
20 23 c11 12 25 22 31 22 17 0 28 32 34 100 3 36 14 85 26 110 l20 45 -3 -100
c-3 -78 -14 -138 -47 -268 l-44 -169 -125 3 c-69 2 -208 2 -310 1 -102 -2
-193 -3 -202 -2 -17 0 -18 52 -18 945 l0 945 1090 0 1090 0 0 -786z m-834 674
l332 2 7 -37 c4 -20 5 -122 3 -226 l-3 -190 -375 8 c-206 4 -413 10 -460 14
-47 3 -155 3 -240 0 -85 -3 -222 -3 -305 0 l-150 6 -8 90 c-4 50 -6 144 -5
210 3 118 3 119 28 126 14 5 209 5 435 2 226 -3 559 -5 741 -5z m-1216 -378
c0 -5 -9 -10 -20 -10 -11 0 -20 5 -20 10 0 6 9 10 20 10 11 0 20 -4 20 -10z
m269 -151 c-1 -44 1 -82 3 -85 3 -2 57 -7 121 -10 65 -4 115 -9 113 -11 -7 -7
-154 -4 -203 3 l-43 6 -1 -33 -1 -34 -7 30 c-5 25 -12 31 -41 36 l-35 6 38 2
c36 1 37 2 38 39 1 20 2 42 4 47 1 6 3 27 3 48 3 71 12 36 11 -44z m-39 -15
l0 -51 -37 -7 c-21 -3 -82 -6 -135 -6 l-98 0 0 38 c0 80 -4 77 141 77 l129 0
0 -51z m320 -6 l0 -58 -69 0 c-37 0 -96 3 -130 6 l-61 7 0 38 c0 65 -2 64 135
64 l125 0 0 -57z m-482 -85 c-21 -2 -55 -2 -75 0 -21 2 -4 4 37 4 41 0 58 -2
38 -4z m125 -20 c-18 -2 -48 -2 -65 0 -18 2 -4 4 32 4 36 0 50 -2 33 -4z m135
0 c-10 -2 -26 -2 -35 0 -10 3 -2 5 17 5 19 0 27 -2 18 -5z m183 -14 c-34 -6
-65 -6 -80 0 -20 7 -7 9 54 9 l80 0 -54 -9z m-301 -88 c0 -44 3 -87 6 -96 6
-14 -8 -16 -125 -14 l-131 2 0 87 c0 48 3 90 7 93 3 4 60 7 125 7 l118 0 0
-79z m288 68 l62 2 0 -54 c0 -52 -2 -55 -32 -68 -18 -7 -46 -26 -64 -41 -32
-28 -35 -29 -107 -22 l-75 7 -6 45 c-8 58 -8 106 1 127 5 15 15 17 82 10 42
-4 104 -7 139 -6z m-240 -149 l0 -25 -8 25 c-4 14 -8 45 -8 70 l1 45 8 -45 c4
-25 7 -56 7 -70z m393 -1 c32 -12 67 -32 79 -44 47 -50 35 -173 -24 -241 -27
-31 -39 -37 -81 -41 -65 -6 -128 11 -167 46 -74 66 -34 243 67 287 41 18 59
17 126 -7z m-323 -55 c55 -4 92 -10 92 -16 0 -8 -49 -9 -157 -5 -87 4 -193 7
-235 7 -43 0 -78 4 -78 9 0 5 10 11 23 13 28 4 233 -1 355 -8z m5 -42 c48 -2
75 -7 71 -14 -8 -12 -435 0 -449 13 -10 10 196 10 378 1z m1 -42 c52 0 67 -3
63 -13 -3 -8 -1 -36 4 -62 10 -56 46 -99 96 -117 33 -12 33 -12 33 -78 0 -36
3 -88 6 -116 l6 -51 -73 2 c-41 0 -171 2 -289 3 l-216 2 0 221 0 221 150 -6
c83 -3 182 -6 220 -6z m276 -217 c0 -19 -45 -143 -52 -143 -4 0 -8 34 -8 75
l0 75 30 0 c17 0 30 -3 30 -7z m-175 -242 c23 -5 -69 -8 -222 -7 -145 1 -263
4 -263 9 0 9 434 8 485 -2z m1405 -16 c41 -3 105 -11 143 -17 60 -10 67 -14
67 -34 0 -18 -8 -25 -37 -33 -88 -23 -179 -34 -348 -41 -197 -8 -287 -6 -412
12 -138 19 -137 35 3 73 94 25 371 55 459 49 28 -2 84 -6 125 -9z m-1330 -17
c0 -5 -121 -7 -269 -6 -148 1 -267 6 -264 11 6 11 533 6 533 -5z m140 -162
c17 -70 30 -129 28 -131 -2 -1 -31 -5 -65 -7 -44 -3 -63 -1 -63 8 0 15 48 227
56 248 4 9 8 16 9 14 2 -2 17 -61 35 -132z m1400 -27 l0 -101 -132 9 c-73 4
-165 7 -204 5 -81 -3 -84 0 -84 88 l0 45 63 3 c86 4 292 31 320 42 12 5 25 9
30 9 4 1 7 -44 7 -100z m-437 -34 c4 -41 16 -101 27 -132 28 -79 20 -128 -21
-137 -43 -8 -62 2 -54 31 4 17 1 29 -9 37 -12 9 -13 20 -6 56 5 25 12 85 16
133 6 73 10 87 24 87 14 0 18 -13 23 -75z m405 -78 l32 1 0 -329 0 -329 -1090
0 -1090 0 0 313 0 314 238 6 c212 6 400 2 411 -9 4 -4 -20 -93 -34 -128 -6
-14 -5 -18 6 -14 8 2 24 38 35 79 l21 74 74 0 73 0 26 -82 c14 -46 28 -83 33
-83 12 0 8 23 -13 85 -23 68 -25 82 -7 82 6 0 191 4 410 8 l397 7 0 -29 c0
-17 -3 -32 -6 -36 -4 -3 -28 5 -55 18 -60 31 -81 31 -115 1 l-28 -23 30 -16
c17 -9 53 -21 79 -28 l48 -12 -44 -22 c-24 -12 -72 -28 -107 -35 -41 -8 -68
-20 -77 -33 -13 -18 -19 -19 -177 -8 -218 14 -935 24 -1073 14 l-110 -8 -3
-187 c-3 -186 -3 -187 20 -200 18 -10 188 -13 848 -14 454 0 914 -4 1022 -9
l197 -8 5 24 c3 13 7 75 10 138 6 121 -13 241 -39 241 -7 0 -15 6 -18 14 -3 7
-18 16 -34 20 -47 11 -193 68 -193 76 0 4 26 16 57 26 64 21 73 34 45 62 -20
20 -20 20 -79 -1 -67 -23 -93 -19 -93 17 0 33 20 36 195 29 77 -4 155 -6 173
-6z m-205 -67 c-9 -8 -107 -40 -120 -39 -4 0 19 13 52 28 54 25 91 31 68 11z
m-336 -21 c54 -24 44 -37 -14 -19 -70 21 -93 32 -87 42 7 12 36 5 101 -23z
m243 17 c0 -2 -7 -6 -15 -10 -8 -3 -15 -1 -15 4 0 6 7 10 15 10 8 0 15 -2 15
-4z m-170 -85 c0 -15 -21 -26 -110 -55 -106 -35 -164 -46 -145 -27 6 5 48 19
95 32 47 12 101 33 120 45 43 28 40 28 40 5z m269 -51 c88 -32 82 -44 -12 -24
-96 20 -137 39 -137 64 0 20 1 20 38 4 20 -9 70 -29 111 -44z m-201 -5 c37 -2
99 -12 137 -24 l70 -22 -139 6 c-77 3 -171 5 -210 6 -75 0 -73 5 14 31 25 8
49 12 53 10 5 -2 38 -5 75 -7z m-643 -25 c143 -10 555 -27 735 -31 47 -1 124
1 172 6 l86 7 12 -58 c14 -65 9 -290 -6 -303 -5 -4 -103 -4 -219 0 -115 4
-531 8 -922 8 -707 1 -898 5 -909 23 -7 11 -6 340 1 346 20 21 735 22 1050 2z"/>
<path d="M453 2350 c0 -41 2 -60 4 -42 4 28 8 32 34 32 22 0 29 -5 29 -19 0
-11 5 -23 10 -26 7 -4 8 13 4 52 -7 63 -14 82 -14 40 0 -23 -4 -27 -29 -27
-26 0 -30 4 -34 33 -2 17 -4 -2 -4 -43z"/>
<path d="M962 2356 l-2 -70 -29 46 c-24 38 -47 58 -67 58 -2 0 -4 -25 -4 -57
0 -75 13 -63 19 17 2 15 44 -26 67 -66 19 -31 25 -11 21 67 l-3 74 -2 -69z"/>
<path d="M990 2398 c0 -19 2 -20 10 -8 13 19 13 30 0 30 -5 0 -10 -10 -10 -22z"/>
<path d="M1401 2375 c-6 -24 -15 -46 -20 -49 -5 -3 -17 14 -28 39 -10 25 -21
45 -25 45 -14 0 -9 -19 18 -72 25 -49 27 -51 40 -33 8 11 20 37 26 57 16 55
28 47 28 -20 l0 -59 84 -1 c83 -2 85 -1 110 29 43 51 31 85 -37 96 -30 4 -35
2 -40 -18 -4 -13 -7 -39 -7 -56 0 -33 0 -33 -50 -33 -57 0 -69 21 -22 38 l27
10 -28 1 c-22 1 -28 5 -25 19 2 12 16 19 48 23 30 4 37 7 20 9 -14 2 -32 3
-40 2 -8 -1 -27 3 -42 7 -25 9 -27 7 -37 -34z m239 -18 c0 -26 -28 -57 -52
-57 -15 0 -18 8 -18 43 0 54 4 58 41 45 19 -7 29 -17 29 -31z"/>
<path d="M230 2400 c0 -5 11 -10 26 -10 24 0 25 -2 22 -47 -3 -41 -6 -48 -26
-51 -44 -6 -12 -20 35 -15 53 6 83 23 40 23 -20 0 -27 5 -27 19 0 10 -3 32 -6
49 -6 28 -4 31 22 35 16 2 3 5 -28 6 -33 0 -58 -3 -58 -9z"/>
<path d="M582 2393 c-5 -10 -12 -31 -16 -48 -4 -16 -9 -38 -12 -47 -3 -10 -1
-18 5 -18 6 0 11 9 11 20 0 16 7 20 31 20 22 0 32 -5 36 -20 3 -11 10 -20 15
-20 6 0 8 6 5 14 -3 8 -11 33 -17 55 -13 48 -44 71 -58 44z m36 -36 c2 -12 -3
-17 -17 -17 -23 0 -24 1 -15 25 8 19 28 15 32 -8z"/>
<path d="M1053 2402 c-13 -2 -23 -8 -23 -13 0 -6 4 -8 9 -5 12 8 21 -19 21
-65 0 -21 4 -39 8 -39 5 0 7 25 4 57 -5 53 -4 56 17 50 11 -3 23 -2 26 3 6 9
-31 17 -62 12z"/>
<path d="M665 2343 c13 -32 28 -59 33 -61 6 -2 17 18 26 44 18 54 20 78 6 69
-5 -3 -10 -12 -10 -20 0 -8 -5 -26 -11 -42 l-11 -28 -16 44 c-10 24 -22 46
-29 48 -6 2 -1 -20 12 -54z"/>
<path d="M758 2340 l4 -60 44 0 c24 0 44 5 44 10 0 6 -18 10 -40 10 -45 0 -56
23 -17 34 l22 7 -22 9 c-34 14 -28 30 12 30 19 0 35 5 35 10 0 6 -19 10 -42
10 l-43 0 3 -60z"/>
<path d="M1200 2340 l0 -60 40 0 c22 0 40 5 40 11 0 6 -14 9 -32 7 l-33 -3 2
53 c1 28 -2 52 -7 52 -6 0 -10 -27 -10 -60z"/>
<path d="M1291 2368 c0 -18 4 -42 9 -53 6 -15 9 -6 9 33 1 28 -3 52 -9 52 -5
0 -10 -15 -9 -32z"/>
<path d="M855 2200 c-11 -4 -32 -6 -47 -3 -15 3 -39 2 -53 -1 -23 -6 -25 -10
-25 -67 0 -38 4 -58 10 -54 6 4 8 10 5 15 -9 15 7 40 25 40 11 0 22 5 25 11 4
6 -4 9 -22 7 -20 -2 -28 1 -28 12 0 10 12 16 37 18 41 3 48 -9 45 -73 -2 -32
15 -42 59 -31 35 9 22 24 -16 18 -39 -6 -41 20 -2 35 l27 11 -27 1 c-20 1 -28
6 -28 20 0 20 18 31 51 31 10 0 19 5 19 10 0 12 -27 12 -55 0z"/>
<path d="M1269 2200 c-7 -18 4 -119 11 -105 3 6 3 35 0 65 -3 30 -8 48 -11 40z"/>
<path d="M446 2192 c-2 -4 -1 -14 5 -22 5 -8 9 -30 9 -47 0 -18 5 -33 10 -33
6 0 10 6 10 14 0 8 11 17 24 20 26 6 44 42 29 56 -13 12 -81 22 -87 12z m73
-26 c10 -12 8 -17 -9 -26 -25 -13 -40 -6 -40 21 0 23 32 26 49 5z"/>
<path d="M565 2193 c-18 -3 -20 -10 -17 -64 3 -49 7 -59 19 -55 8 3 26 6 39 6
13 0 24 5 24 11 0 7 -10 9 -24 7 -14 -3 -30 -2 -37 2 -14 9 -3 30 17 30 8 0
14 5 14 10 0 6 -9 10 -21 10 -30 0 -18 24 14 28 15 2 27 8 27 13 0 9 -17 10
-55 2z"/>
<path d="M638 2193 c-8 -15 4 -103 14 -103 6 0 8 7 4 15 -8 22 11 18 35 -6 25
-25 39 -17 16 9 -15 17 -15 19 1 35 13 13 14 21 6 35 -11 18 -69 29 -76 15z
m46 -9 c19 -7 21 -30 3 -37 -20 -8 -41 9 -34 27 7 18 9 18 31 10z"/>
<path d="M937 2174 c-15 -15 -27 -37 -27 -50 0 -22 23 -54 40 -54 21 0 40 14
39 29 0 10 -2 11 -6 4 -7 -19 -50 -16 -57 4 -9 22 26 69 49 65 10 -2 15 2 13
9 -8 23 -24 20 -51 -7z"/>
<path d="M1000 2191 c0 -6 5 -13 10 -16 6 -3 10 -30 11 -58 l1 -52 9 45 c5 25
7 51 4 58 -3 8 6 12 25 12 17 0 30 5 30 10 0 6 -20 10 -45 10 -25 0 -45 -4
-45 -9z"/>
<path d="M1180 2139 l0 -61 33 7 c38 9 47 13 47 25 0 5 -13 5 -31 0 -36 -11
-45 3 -35 55 4 22 3 35 -4 35 -6 0 -10 -25 -10 -61z"/>
<path d="M1307 2193 c-4 -3 -7 -31 -6 -62 1 -39 3 -49 8 -31 5 18 15 26 34 28
37 5 34 22 -4 22 -40 0 -34 24 7 28 47 6 53 22 8 22 -23 0 -44 -3 -47 -7z"/>
<path d="M1409 2196 c-2 -2 -2 -29 -1 -60 l4 -56 49 0 c27 0 49 5 49 10 0 6
-20 10 -45 10 -33 0 -45 4 -45 15 0 8 9 15 19 15 29 0 35 18 9 22 -33 4 -28
22 7 26 51 6 53 22 4 22 -25 0 -48 -2 -50 -4z"/>
<path d="M269 2163 c-6 -16 -13 -44 -15 -63 l-5 -35 15 33 c12 26 21 33 38 30
13 -2 24 -11 26 -23 2 -11 9 -24 14 -30 17 -16 -1 65 -20 91 -23 31 -40 30
-53 -3z m36 -3 c3 -5 -1 -10 -10 -10 -9 0 -13 5 -10 10 3 6 8 10 10 10 2 0 7
-4 10 -10z"/>
<path d="M1530 2104 c0 -9 5 -14 12 -12 18 6 21 28 4 28 -9 0 -16 -7 -16 -16z"/>
<path d="M1455 943 c-24 -6 -45 -22 -45 -34 0 -31 95 -27 129 6 12 12 11 16
-13 25 -29 10 -38 11 -71 3z m58 -17 c4 -10 0 -12 -15 -8 -12 3 -19 1 -16 -4
4 -5 -7 -9 -22 -10 -33 -1 -31 22 3 29 40 8 45 7 50 -7z"/>
<path d="M598 408 c-13 -11 -14 -20 -3 -63 7 -27 13 -40 14 -28 1 13 12 27 30
36 29 14 29 14 36 -19 5 -28 10 -34 30 -34 14 0 25 5 25 10 0 6 -8 10 -17 8
-15 -2 -19 6 -21 45 -2 26 -7 47 -13 47 -5 0 -9 -5 -9 -11 0 -5 -10 -3 -22 5
-27 19 -30 19 -50 4z m48 -19 c7 -12 -12 -29 -33 -29 -7 0 -13 9 -13 20 0 22
34 28 46 9z"/>
<path d="M1065 396 l-19 -28 -17 21 c-14 17 -28 21 -73 21 l-56 0 0 -32 -1
-33 -27 33 c-15 18 -30 32 -34 32 -11 0 -9 -82 2 -100 7 -11 10 -3 10 30 l0
45 25 -38 c34 -49 49 -48 41 3 -6 36 -4 40 14 40 17 0 20 -7 20 -47 0 -25 3
-43 7 -39 4 4 6 24 4 45 -2 32 1 39 18 44 26 6 51 -26 51 -66 0 -17 4 -26 11
-22 6 4 8 13 5 21 -3 7 6 27 20 44 14 16 24 35 22 42 -3 7 -12 1 -23 -16z"/>
<path d="M246 401 c-4 -5 -8 -31 -11 -58 -3 -26 -2 -41 1 -33 16 36 56 40 73
8 11 -22 11 -21 6 6 -7 32 -41 86 -55 86 -5 0 -11 -4 -14 -9z m34 -37 c0 -8
-7 -14 -15 -14 -15 0 -21 21 -9 33 10 9 24 -2 24 -19z"/>
<path d="M328 350 c4 -68 17 -76 57 -35 45 44 25 95 -37 95 -22 0 -23 -3 -20
-60z m66 25 c8 -21 -11 -65 -28 -65 -9 0 -15 14 -18 40 -3 36 -1 40 18 40 12
0 24 -7 28 -15z"/>
<path d="M448 401 c-30 -5 -36 -9 -28 -21 5 -8 10 -30 10 -47 0 -26 5 -34 24
-39 26 -6 66 3 66 15 0 4 -15 5 -34 3 -40 -5 -56 13 -30 33 18 14 18 14 1 15
-25 0 -16 24 11 28 12 2 22 8 22 13 0 5 -1 8 -2 8 -2 -1 -20 -5 -40 -8z"/>
<path d="M740 381 c0 -54 16 -81 49 -81 16 0 33 5 36 10 4 6 -8 10 -29 10 -25
0 -36 4 -36 15 0 8 7 15 15 15 23 0 18 17 -7 24 -29 7 -14 23 27 29 24 3 21 4
-12 6 -41 1 -43 0 -43 -28z"/>
<path d="M121 342 c2 -63 19 -78 19 -17 0 25 4 33 14 29 8 -3 18 1 22 8 6 9
12 1 20 -27 l12 -40 1 46 c1 55 -6 65 -31 42 -17 -15 -19 -15 -38 2 -20 18
-20 18 -19 -43z"/>
<path d="M1153 388 c-19 -24 -22 -48 -11 -73 13 -29 36 -39 54 -24 17 14 30
78 18 89 -18 16 -51 20 -61 8z m45 -20 c16 -16 15 -30 -2 -53 -12 -16 -16 -17
-30 -6 -9 7 -16 21 -16 30 0 17 18 41 30 41 3 0 11 -5 18 -12z"/>
<path d="M1237 393 c-4 -3 -6 -29 -6 -57 1 -28 4 -41 6 -30 2 12 14 26 26 32
18 9 19 11 5 11 -29 1 -22 31 7 31 14 0 25 5 25 10 0 11 -53 14 -63 3z"/>
<path d="M1450 379 c-11 -19 -13 -19 -29 -5 -32 29 -41 19 -40 -41 1 -32 4
-44 6 -28 7 54 12 61 30 42 15 -14 17 -14 33 6 18 22 18 21 25 -26 4 -26 11
-47 16 -47 5 0 7 10 5 23 -3 12 -8 39 -11 60 -7 42 -19 47 -35 16z"/>
<path d="M1577 377 c-36 -12 -34 -48 2 -57 14 -3 26 -11 29 -18 6 -18 -28 -27
-49 -13 -11 6 -19 7 -19 1 0 -5 9 -14 21 -20 16 -9 25 -8 40 6 27 25 24 43
-13 58 l-31 14 23 12 c18 9 25 10 28 1 2 -6 10 -11 18 -11 9 0 14 -11 14 -35
0 -19 5 -35 10 -35 6 0 10 18 10 40 0 29 4 40 15 40 8 0 15 4 15 8 0 4 -16 6
-36 4 -20 -3 -39 0 -43 5 -4 7 -16 7 -34 0z"/>
<path d="M1510 337 c0 -26 4 -47 8 -47 9 0 8 78 -2 87 -3 4 -6 -15 -6 -40z"/>
<path d="M1694 335 c-7 -19 -14 -42 -14 -52 1 -17 1 -17 14 0 20 26 54 22 62
-8 3 -14 10 -23 14 -20 5 3 5 18 0 34 -22 78 -54 98 -76 46z m44 -3 c2 -7 -3
-12 -12 -12 -9 0 -16 7 -16 16 0 17 22 14 28 -4z"/>
<path d="M1781 333 c0 -21 4 -47 9 -58 8 -19 9 -18 9 4 1 22 2 23 26 7 37 -25
54 -19 21 7 l-29 24 23 16 c13 9 21 20 17 23 -4 4 -15 0 -25 -9 -24 -22 -32
-21 -32 3 0 11 -4 20 -10 20 -5 0 -10 -17 -9 -37z"/>
<path d="M1970 355 c-19 -23 -4 -45 30 -45 23 0 30 -4 30 -20 0 -22 -20 -26
-38 -8 -8 8 -12 8 -12 1 0 -6 7 -16 16 -23 13 -11 19 -10 36 7 28 28 17 53
-22 53 -20 0 -30 5 -30 15 0 8 8 15 18 15 9 0 24 5 32 10 11 7 8 10 -16 10
-17 0 -37 -7 -44 -15z"/>
<path d="M1878 310 c4 -54 13 -59 72 -40 29 9 19 13 -27 10 -38 -2 -44 14 -10
25 l22 8 -23 4 c-29 6 -23 29 6 25 12 -2 22 2 22 7 0 6 -15 11 -32 11 l-33 0
3 -50z"/>
<path d="M2067 273 c-4 -3 -7 -11 -7 -17 0 -6 5 -5 12 2 6 6 9 14 7 17 -3 3
-9 2 -12 -2z"/>
<path d="M891 203 c1 -55 17 -109 18 -60 1 32 25 37 41 7 6 -11 15 -20 21 -20
6 0 6 7 -1 19 -5 11 -7 33 -4 49 7 33 3 37 -43 47 l-33 7 1 -49z m58 14 c13
-16 5 -27 -21 -27 -11 0 -18 7 -18 20 0 23 22 27 39 7z"/>
<path d="M94 203 c-19 -45 -7 -79 31 -89 35 -9 53 1 61 31 8 31 1 40 -23 30
-17 -7 -17 -7 0 -14 15 -6 16 -9 3 -26 -12 -17 -17 -18 -40 -7 -18 8 -26 19
-26 36 0 44 10 56 47 56 20 0 32 4 28 10 -3 6 -20 10 -36 10 -25 0 -33 -6 -45
-37z"/>
<path d="M459 218 c-10 -19 -12 -19 -21 -5 -17 32 -28 17 -28 -39 0 -34 4 -53
10 -49 6 3 10 16 10 28 0 14 10 26 25 34 24 11 25 10 25 -27 0 -22 5 -42 12
-46 8 -5 9 4 5 32 -4 21 -7 51 -7 67 0 32 -15 35 -31 5z"/>
<path d="M562 214 l-19 -28 -12 22 c-6 12 -16 22 -22 22 -5 0 -3 -13 6 -30 8
-16 15 -38 15 -49 0 -11 5 -23 10 -26 6 -3 10 3 10 14 0 11 10 36 21 56 26 43
19 57 -9 19z"/>
<path d="M641 226 c-20 -24 -9 -52 18 -48 18 3 22 -1 19 -15 -2 -10 -11 -17
-21 -17 -9 1 -17 -2 -17 -7 0 -15 37 -10 50 6 16 20 5 45 -20 45 -12 0 -20 7
-20 16 0 12 6 15 21 11 13 -3 19 -1 16 6 -6 18 -32 20 -46 3z"/>
<path d="M980 211 c0 -16 3 -43 6 -60 6 -27 10 -31 40 -31 19 0 34 5 34 10 0
6 -13 10 -30 10 -20 0 -30 5 -30 15 0 8 9 15 20 15 11 0 20 5 20 10 0 6 -9 10
-20 10 -14 0 -20 7 -20 21 0 18 4 20 25 15 14 -4 25 -2 25 4 0 5 -16 10 -35
10 -32 0 -35 -3 -35 -29z"/>
<path d="M1121 227 c-18 -22 -24 -73 -12 -96 16 -29 49 -27 64 5 l12 27 6 -24
7 -24 1 26 c1 16 9 30 24 37 22 10 22 11 -5 11 -19 1 -28 6 -28 17 0 12 7 15
25 12 35 -7 42 8 8 17 -19 4 -31 2 -38 -8 -9 -12 -12 -12 -23 -1 -16 18 -27
18 -41 1z m34 -53 c0 -29 -4 -40 -17 -42 -14 -3 -18 3 -18 26 0 17 3 38 6 47
11 28 29 10 29 -31z"/>
<path d="M209 209 c-26 -50 1 -111 40 -90 29 16 36 49 15 73 -18 19 -18 20 11
16 27 -3 30 -7 33 -45 2 -24 6 -43 10 -43 4 0 6 20 4 45 -3 35 -1 45 11 45 9
0 19 5 22 10 4 7 -19 10 -65 8 -56 -1 -73 -5 -81 -19z m51 -51 c0 -22 -27 -35
-42 -20 -6 6 -7 23 -3 42 7 30 8 31 26 14 10 -9 19 -26 19 -36z"/>
<path d="M710 175 c0 -30 5 -55 10 -55 6 0 10 11 10 25 0 33 18 32 31 -1 14
-39 19 -25 12 37 -6 49 -7 52 -16 26 -11 -34 -27 -35 -27 -2 0 14 -4 25 -10
25 -5 0 -10 -25 -10 -55z"/>
<path d="M812 218 c-16 -20 -26 -88 -13 -88 6 0 11 7 11 15 0 23 41 19 47 -5
9 -34 25 -23 18 13 -8 36 -31 77 -44 77 -5 0 -13 -6 -19 -12z m32 -23 c4 -10
-1 -15 -14 -15 -13 0 -18 5 -14 15 4 8 10 15 14 15 4 0 10 -7 14 -15z"/>
<path d="M1322 183 c0 -24 4 -45 9 -49 5 -3 9 5 9 18 1 22 2 22 25 -7 16 -20
25 -25 25 -14 0 8 -4 19 -10 25 -6 6 -3 16 10 27 21 18 22 17 24 -27 1 -28 2
-28 69 -31 57 -2 69 1 77 16 17 30 12 49 -12 49 -21 -1 -22 -2 -6 -14 16 -11
16 -15 3 -32 -15 -19 -15 -19 -30 1 -9 11 -14 29 -13 40 2 16 11 20 43 20 l40
0 -3 -50 c-3 -48 11 -56 20 -12 3 18 5 18 31 -3 21 -17 27 -18 27 -6 0 8 -8
19 -17 25 -17 9 -17 11 2 24 16 12 17 17 6 30 -14 18 -127 21 -148 4 -9 -6
-13 -6 -13 1 0 6 -32 10 -84 9 l-84 -2 0 -42z m307 28 c16 -10 6 -31 -15 -31
-8 0 -14 9 -14 20 0 22 7 25 29 11z m-241 -13 c-7 -20 -48 -23 -48 -4 0 11 9
16 26 16 16 0 24 -5 22 -12z m102 -23 c0 -32 -2 -35 -30 -35 -36 0 -42 26 -7
33 l22 4 -22 8 c-33 11 -28 25 7 25 28 0 30 -3 30 -35z"/>
<path d="M1670 180 l0 -50 44 0 c25 0 47 4 50 9 4 5 -11 7 -34 4 -33 -5 -40
-3 -40 11 0 9 7 16 15 16 8 0 15 5 15 10 0 6 -7 10 -15 10 -8 0 -15 7 -15 16
0 12 6 15 25 10 14 -4 25 -2 25 4 0 5 -16 10 -35 10 l-35 0 0 -50z"/>
<path d="M1755 220 c-3 -5 3 -10 14 -10 18 0 21 -7 22 -52 l2 -53 10 53 c8 40
14 52 28 52 12 0 19 -7 19 -19 0 -14 8 -21 28 -23 40 -5 36 -33 -5 -32 -18 1
-30 -2 -27 -7 8 -14 48 -11 69 5 19 14 19 14 0 35 -10 12 -25 19 -32 17 -7 -3
-15 -1 -18 3 -8 13 23 34 40 27 8 -3 15 -1 15 4 0 14 -44 12 -58 -2 -9 -9 -12
-9 -12 0 0 15 -86 17 -95 2z"/>
<path d="M1937 124 c-11 -11 3 -24 18 -18 8 4 12 10 9 15 -6 11 -18 12 -27 3z"/>
</g>
</svg>
