<?xml version="1.0" encoding="UTF-8" standalone="no"?>
<svg
   xmlns:dc="http://purl.org/dc/elements/1.1/"
   xmlns:cc="http://creativecommons.org/ns#"
   xmlns:rdf="http://www.w3.org/1999/02/22-rdf-syntax-ns#"
   xmlns:svg="http://www.w3.org/2000/svg"
   xmlns="http://www.w3.org/2000/svg"
   xmlns:sodipodi="http://sodipodi.sourceforge.net/DTD/sodipodi-0.dtd"
   xmlns:inkscape="http://www.inkscape.org/namespaces/inkscape"
   version="1.0"
   width="228.000000pt"
   height="258.000000pt"
   viewBox="0 0 228.000000 258.000000"
   preserveAspectRatio="xMidYMid meet"
   id="svg2"
   inkscape:version="0.91 r13725"
   sodipodi:docname="tones_2.svg">
  <defs
     id="defs114" />
  <sodipodi:namedview
     pagecolor="#ffffff"
     bordercolor="#666666"
     borderopacity="1"
     objecttolerance="10"
     gridtolerance="10"
     guidetolerance="10"
     inkscape:pageopacity="0"
     inkscape:pageshadow="2"
     inkscape:window-width="1861"
     inkscape:window-height="1056"
     id="namedview112"
     showgrid="false"
     inkscape:zoom="2.0697947"
     inkscape:cx="117.34736"
     inkscape:cy="121.2617"
     inkscape:window-x="59"
     inkscape:window-y="24"
     inkscape:window-maximized="1"
     inkscape:current-layer="svg2" />
  <metadata
     id="metadata4">
Created by potrace 1.13, written by Peter Selinger 2001-2015
<rdf:RDF>
  <cc:Work
     rdf:about="">
    <dc:format>image/svg+xml</dc:format>
    <dc:type
       rdf:resource="http://purl.org/dc/dcmitype/StillImage" />
  </cc:Work>
</rdf:RDF>
</metadata>
  <g
     transform="translate(0.000000,258.000000) scale(0.100000,-0.100000)"
     fill="#000000"
     stroke="none"
     id="g6">
    <path
       d="M40 1290 l0 -1290 1105 0 1105 0 0 1290 0 1290 -1105 0 -1105 0 0 -1290z m400 1255 c0 -12 -14 -15 -62 -15 -103 0 -106 -2 -113 -75 l-7 -63 -57 4 c-31 3 -75 7 -98 10 l-43 5 0 75 0 74 190 0 c162 0 190 -2 190 -15z m1800 -755 c0 -609 -3 -770 -12 -770 -7 -1 -44 -5 -83 -10 -38 -5 -140 -14 -225 -20 -119 -8 -188 -19 -295 -47 -209 -53 -239 -74 -215 -147 12 -38 26 -43 190 -71 177 -30 225 -34 373 -29 l147 4 -1 -57 c-1 -32 -4 -85 -8 -118 l-6 -60 -8 72 c-4 39 -11 83 -17 97 l-9 25 -458 0 c-252 0 -524 4 -605 7 -100 5 -182 3 -253 -6 -63 -8 -110 -9 -115 -4 -5 5 -23 72 -40 149 -26 117 -31 152 -25 213 3 41 6 128 6 195 l0 122 45 -94 c25 -51 56 -121 70 -155 14 -33 42 -95 61 -136 31 -66 36 -73 45 -54 9 21 -19 90 -185 446 l-36 77 31 6 c35 8 121 91 148 145 35 68 53 159 47 241 -6 88 -22 125 -73 167 -36 30 -201 92 -243 92 -12 0 -21 6 -21 14 0 15 332 24 1190 29 l464 3 13 44 c8 25 14 65 15 90 2 70 -13 224 -24 235 -6 6 -154 10 -401 11 -216 0 -477 6 -582 12 -104 6 -299 11 -432 12 -236 0 -243 1 -243 20 0 20 7 20 885 20 l885 0 0 -770z m-1035 700 c171 -9 401 -12 828 -12 95 -1 90 2 89 -63 0 -11 4 -49 9 -84 10 -65 -4 -186 -22 -197 -5 -3 -316 -7 -692 -10 -375 -3 -779 -6 -897 -7 l-215 -2 -2 65 c-2 36 -7 109 -13 162 -11 108 -6 155 19 161 28 8 688 -2 896 -13z m-1079 -120 c85 -3 144 -12 144 -23 0 -6 -35 -8 -99 -4 -102 5 -126 11 -115 28 3 5 9 7 13 5 4 -3 29 -6 57 -6z m-28 -57 c-10 -2 -26 -2 -35 0 -10 3 -2 5 17 5 19 0 27 -2 18 -5z m182 -13 c0 -12 -64 -12 -100 0 -19 6 -9 8 38 9 35 1 62 -3 62 -9z m-96 -35 c44 -8 83 -12 88 -9 4 3 8 -31 8 -75 0 -57 4 -81 13 -83 6 0 30 -2 52 -3 91 -3 105 -5 105 -15 0 -5 -7 -10 -15 -10 -27 0 -115 -50 -158 -89 l-42 -37 -87 4 -88 4 0 164 c0 190 -13 174 124 149z m396 -250 c33 -14 64 -25 71 -25 25 0 90 -58 110 -98 18 -37 21 -56 17 -135 -5 -111 -26 -165 -93 -236 -36 -39 -57 -52 -97 -61 -104 -26 -244 7 -312 73 -55 53 -70 103 -63 210 9 128 67 221 173 273 63 30 120 30 194 -1z m-361 -112 c14 -12 -24 -23 -87 -25 -76 -2 -88 2 -79 26 5 13 19 15 84 10 43 -4 80 -8 82 -11z m-33 -78 c-4 -13 -18 -15 -68 -13 -88 4 -90 26 -1 30 79 3 77 4 69 -17z m-14 -99 c-10 -125 58 -237 169 -277 l58 -21 0 -123 c0 -67 5 -150 12 -184 9 -48 9 -65 0 -74 -13 -13 -253 -14 -318 -2 l-33 6 0 363 0 363 58 1 59 1 -5 -53z m349 -316 c18 0 18 -2 -2 -52 -12 -29 -25 -67 -29 -84 -4 -17 -16 -53 -26 -80 -17 -44 -19 -46 -25 -24 -9 32 -11 213 -3 235 5 13 14 15 37 11 16 -3 38 -6 48 -6z m26 -270 c-4 -122 -8 -145 -41 -244 -20 -60 -42 -140 -48 -177 -13 -75 -11 -73 -103 -83 -16 -2 -33 -4 -36 -5 -11 -2 -18 -68 -10 -103 5 -19 6 -49 3 -66 -4 -32 -4 -32 -66 -32 -33 0 -91 3 -129 7 l-67 6 2 230 3 230 140 1 140 1 -3 -37 c-2 -21 1 -38 5 -38 17 0 30 16 37 43 5 20 12 27 31 27 36 0 56 51 59 152 3 81 5 88 72 263 13 33 17 -24 11 -175z m-282 -140 c67 -8 56 -11 -40 -11 -150 0 -175 1 -175 11 0 11 124 12 215 0z m125 -10 c0 -5 -2 -10 -4 -10 -3 0 -8 5 -11 10 -3 6 -1 10 4 10 6 0 11 -4 11 -10z m1845 -115 l0 -110 -95 -8 c-139 -12 -375 0 -537 27 -148 25 -163 29 -163 50 0 19 31 31 175 71 102 29 166 40 300 51 94 8 193 18 220 23 28 5 61 8 75 8 l25 -2 0 -110z m-1868 71 c-2 -7 -58 -12 -146 -14 -143 -3 -177 0 -167 17 9 13 317 10 313 -3z m227 -259 l7 -37 -66 0 c-58 0 -66 2 -62 18 3 9 10 42 17 72 11 54 17 74 41 135 11 29 12 27 34 -60 12 -50 25 -107 29 -128z m1630 -89 c3 -57 9 -187 12 -289 l6 -187 -29 -6 c-16 -4 -41 -2 -56 3 -25 10 -26 13 -20 61 5 46 4 50 -16 50 -22 0 -28 14 -11 25 6 3 10 30 10 58 0 29 7 107 15 172 8 66 15 141 15 168 0 47 0 47 34 47 l34 0 6 -102z m-163 31 c10 -16 14 -46 29 -223 6 -71 8 -132 3 -137 -15 -14 -629 -32 -798 -24 -88 5 -245 6 -350 4 -365 -8 -593 -5 -606 8 -16 16 -17 339 0 356 8 8 82 14 222 18 115 3 213 9 216 13 3 3 292 4 641 2 528 -3 635 -5 643 -17z m-1805 -229 l51 0 5 -81 c3 -50 10 -84 17 -89 11 -6 11 -15 0 -44 -10 -28 -10 -39 -1 -48 9 -9 17 0 33 40 l22 52 173 0 173 0 17 -55 c26 -81 50 -64 30 21 l-7 32 58 6 c32 4 159 4 283 1 275 -8 524 -7 690 0 90 5 137 3 169 -7 l44 -13 -59 -32 c-70 -37 -103 -47 -208 -64 -74 -13 -81 -16 -114 -56 l-36 -43 -773 0 -773 0 0 188 c0 104 3 191 6 195 3 3 38 4 77 1 40 -2 95 -4 123 -4z m1858 -227 c-9 -35 -14 -39 -99 -64 -38 -11 -113 -36 -165 -55 -55 -20 -114 -34 -139 -34 -43 0 -44 0 -26 20 10 11 25 20 34 20 56 0 266 68 331 106 67 41 72 41 64 7z m64 -90 c60 -6 62 -6 62 -34 l0 -29 -192 0 c-210 1 -219 6 -76 42 46 11 90 24 98 29 8 5 22 6 30 3 8 -3 43 -8 78 -11z"
       id="path8" />
    <path
       d="M1146 2454 c-9 -23 -7 -36 3 -30 12 8 21 46 11 46 -4 0 -11 -7 -14 -16z"
       id="path10" />
    <path
       d="M373 2442 c-9 -5 -9 -19 -2 -51 5 -23 8 -50 7 -59 -2 -9 5 -18 15 -20 31 -6 67 7 67 25 0 15 1 15 18 0 23 -21 36 -21 56 -1 18 17 22 94 5 94 -6 0 -8 -8 -4 -19 10 -31 -5 -71 -26 -71 -22 0 -43 35 -36 61 3 10 1 22 -4 25 -5 3 -9 -6 -9 -20 0 -14 -5 -26 -10 -26 -6 0 -8 10 -4 24 5 20 0 25 -27 35 -17 6 -32 11 -33 11 -1 0 -6 -4 -13 -8z m41 -18 c13 -5 14 -9 5 -20 -9 -11 -6 -18 12 -34 24 -20 24 -20 5 -35 -29 -22 -34 -19 -41 23 -4 20 -9 45 -12 55 -5 18 5 21 31 11z"
       id="path12" />
    <path
       d="M969 2438 c0 -7 -1 -31 -2 -53 -2 -40 -2 -40 -42 -40 -30 0 -41 4 -43 18 -2 11 3 17 17 17 28 0 36 18 9 22 -32 4 -19 23 15 22 15 -1 27 2 27 7 0 5 -18 9 -40 9 l-40 0 0 -54 c0 -50 2 -54 26 -60 30 -8 94 10 94 26 0 6 9 3 20 -7 24 -22 41 -11 18 11 -14 15 -14 18 3 35 27 27 29 25 29 -23 0 -42 1 -43 33 -42 49 2 56 6 18 13 -41 7 -51 26 -19 36 l23 8 -22 4 c-15 3 -23 12 -23 25 0 16 5 19 25 16 14 -3 28 -2 30 3 3 4 -26 8 -64 7 -38 0 -74 3 -80 6 -6 4 -11 1 -12 -6z m59 -25 c5 -18 -28 -29 -38 -12 -5 7 -6 17 -3 22 7 12 35 5 41 -10z"
       id="path14" />
    <path
       d="M583 2432 c-22 -3 -33 -22 -13 -22 6 0 10 -23 10 -51 0 -31 4 -48 10 -44 6 3 10 28 10 56 0 44 2 49 22 49 12 0 18 3 14 7 -8 9 -24 10 -53 5z"
       id="path16" />
    <path
       d="M680 2430 c0 -5 6 -10 14 -10 15 0 29 -51 20 -74 -3 -8 -1 -17 5 -21 7 -4 11 11 11 44 0 39 4 51 15 51 16 0 19 -15 16 -67 -2 -18 2 -33 8 -33 6 0 11 11 11 25 0 33 42 35 58 3 9 -19 11 -14 11 37 1 42 -2 56 -9 45 -5 -8 -10 -23 -10 -32 0 -27 -39 -23 -49 5 -5 12 -7 25 -4 30 2 4 -19 7 -46 7 -28 0 -51 -4 -51 -10z"
       id="path18" />
    <path
       d="M1169 2422 c-29 -24 -20 -47 21 -56 27 -5 30 -8 20 -21 -9 -11 -17 -12 -32 -4 -16 9 -19 8 -16 -3 7 -19 43 -22 57 -4 19 22 6 46 -24 46 -34 0 -31 33 3 38 12 2 22 8 22 13 0 15 -26 10 -51 -9z"
       id="path20" />
    <path
       d="M1365 2432 c-27 -6 -35 -20 -35 -63 0 -53 22 -68 55 -35 42 43 29 109 -20 98z m30 -32 c7 -22 -18 -70 -35 -70 -19 0 -16 70 3 82 19 12 25 10 32 -12z"
       id="path22" />
    <path
       d="M1502 2403 c-1 -24 -5 -43 -9 -43 -5 0 -19 17 -33 37 l-25 37 -6 -50 c-4 -27 -2 -53 2 -58 5 -6 9 7 9 30 l1 39 24 -30 c31 -38 48 -24 42 36 l-4 44 -1 -42z"
       id="path24" />
    <path
       d="M1530 2396 c0 -68 6 -76 55 -76 24 0 47 5 50 10 4 6 -12 10 -39 10 -50 0 -64 22 -23 35 l22 8 -22 4 c-15 3 -23 12 -23 25 0 17 5 20 30 16 17 -3 33 -1 36 4 3 4 -15 8 -40 8 l-46 0 0 -44z"
       id="path26" />
    <path
       d="M1683 2433 c-13 -2 -23 -9 -23 -14 0 -6 9 -8 20 -4 20 6 23 0 33 -65 3 -14 5 -4 6 23 1 34 5 47 16 47 11 0 15 -12 15 -50 0 -29 5 -50 11 -50 6 0 8 9 4 20 -10 31 48 28 63 -2 10 -21 11 -20 11 14 1 40 -7 68 -19 68 -5 0 -6 -9 -3 -20 5 -17 0 -20 -26 -20 -30 0 -38 14 -32 53 1 7 -37 7 -76 0z"
       id="path28" />
    <path
       d="M1862 2380 c0 -58 1 -61 9 -29 4 20 4 49 -1 65 -7 23 -8 16 -8 -36z"
       id="path30" />
    <path
       d="M1967 2383 l5 -48 -20 30 c-22 35 -50 60 -58 52 -3 -3 -2 -27 2 -54 l8 -48 6 40 6 40 22 -42 c12 -24 27 -43 32 -43 6 0 10 27 10 60 0 33 -4 60 -9 60 -5 0 -6 -21 -4 -47z"
       id="path32" />
    <path
       d="M2023 2418 c-32 -40 -14 -108 27 -108 21 0 50 36 50 62 0 20 -8 22 -30 8 -13 -9 -13 -11 -1 -19 24 -15 -5 -44 -30 -30 -36 19 -18 86 20 76 24 -6 29 8 5 17 -23 9 -30 8 -41 -6z"
       id="path34" />
    <path
       d="M1140 2274 c0 -8 5 -12 10 -9 6 3 10 10 10 16 0 5 -4 9 -10 9 -5 0 -10 -7 -10 -16z"
       id="path36" />
    <path
       d="M1223 2270 c-6 -21 -28 -27 -38 -10 -13 22 -21 8 -22 -40 0 -27 3 -50 8 -50 5 0 9 16 9 35 0 28 3 33 16 28 11 -4 23 2 35 18 l19 24 0 -47 c0 -26 3 -49 8 -52 10 -6 9 86 -1 102 -12 18 -28 15 -34 -8z"
       id="path38" />
    <path
       d="M1373 2284 c-9 -4 -13 -27 -13 -65 0 -38 4 -58 10 -54 6 3 10 14 10 24 0 12 7 17 22 17 13 -1 27 8 34 22 20 41 27 38 20 -10 -5 -32 -4 -48 3 -48 6 0 11 10 11 22 0 20 1 20 18 5 23 -21 39 -22 23 -3 -10 12 -9 20 4 39 13 21 13 26 1 36 -8 6 -29 11 -47 11 -19 -1 -45 1 -59 4 -14 3 -31 3 -37 0z m55 -36 c-4 -28 -21 -33 -42 -13 -20 21 -12 35 20 35 20 0 25 -4 22 -22z m80 0 c-7 -19 -38 -22 -38 -4 0 10 9 16 21 16 12 0 19 -5 17 -12z"
       id="path40" />
    <path
       d="M821 2254 c-21 -27 -26 -50 -15 -78 7 -18 64 -23 64 -5 0 6 -8 8 -19 4 -31 -10 -45 18 -26 54 8 17 19 31 23 31 21 -1 42 -31 42 -59 0 -17 5 -31 10 -31 6 0 10 9 10 20 0 30 34 25 49 -6 6 -15 13 -25 14 -23 8 11 -6 118 -14 113 -5 -3 -9 -14 -9 -25 0 -14 -7 -19 -25 -19 -20 0 -25 5 -25 26 0 22 -2 25 -15 14 -10 -9 -15 -9 -15 -1 0 20 -28 11 -49 -15z"
       id="path42" />
    <path
       d="M1047 2273 c-13 -13 -7 -21 13 -16 17 5 20 0 20 -31 0 -28 -5 -38 -22 -45 -15 -5 -18 -10 -9 -15 16 -10 83 2 76 14 -3 5 -12 7 -20 3 -12 -4 -15 4 -15 36 0 30 4 41 15 41 8 0 15 5 15 10 0 11 -63 14 -73 3z"
       id="path44" />
    <path
       d="M1546 2258 c-9 -12 -16 -37 -16 -55 0 -42 31 -53 70 -24 23 17 29 18 34 6 7 -18 37 -20 54 -3 19 19 13 88 -8 88 -5 0 -3 -13 3 -30 10 -25 9 -33 -6 -47 -16 -16 -19 -16 -27 -3 -5 8 -10 30 -10 48 0 17 -4 32 -10 32 -5 0 -10 -7 -10 -17 0 -14 -2 -15 -17 -1 -33 28 -42 29 -57 6z m61 -34 c7 -19 -15 -44 -39 -44 -25 0 -33 25 -19 56 9 21 14 23 32 14 11 -6 23 -18 26 -26z"
       id="path46" />
    <path
       d="M1719 2276 c-2 -2 -2 -29 -1 -60 3 -47 7 -56 22 -56 11 0 31 10 46 23 21 18 26 29 21 49 -8 30 -70 62 -88 44z m59 -28 c19 -19 14 -45 -10 -62 -27 -19 -38 -7 -38 42 0 24 4 32 18 32 10 0 23 -5 30 -12z"
       id="path48" />
    <path
       d="M720 2245 c0 -34 -46 -36 -53 -2 -2 12 -4 -3 -4 -33 0 -30 2 -45 4 -32 3 17 11 22 34 22 19 0 29 -5 29 -15 0 -8 5 -15 11 -15 6 0 8 7 5 16 -3 9 -6 31 -6 50 0 19 -4 34 -10 34 -5 0 -10 -11 -10 -25z"
       id="path50" />
    <path
       d="M769 2266 c-8 -9 3 -96 13 -96 5 0 6 19 2 48 -7 50 -8 54 -15 48z"
       id="path52" />
    <path
       d="M350 2241 c-14 -26 -13 -74 2 -89 18 -18 39 -15 65 10 17 15 23 17 23 7 1 -10 3 -9 11 4 5 9 17 17 24 17 8 0 15 5 15 11 0 7 -9 9 -21 6 -16 -4 -20 -1 -17 16 2 17 9 22 31 20 15 -1 27 2 27 8 0 5 -18 9 -40 9 -33 0 -38 -3 -33 -17 6 -17 5 -17 -14 0 -26 23 -60 22 -73 -2z m68 -33 c2 -18 -4 -31 -19 -42 -27 -18 -49 -6 -49 28 0 50 62 63 68 14z"
       id="path54" />
    <path
       d="M540 2256 c0 -3 5 -28 11 -56 10 -49 21 -61 34 -40 5 8 11 8 20 0 17 -14 35 16 34 57 -1 25 -2 24 -13 -11 -10 -33 -14 -37 -20 -20 -7 18 -8 18 -21 1 -11 -16 -13 -16 -19 -1 -3 8 -6 26 -6 39 0 13 -4 27 -10 30 -5 3 -10 4 -10 1z"
       id="path56" />
    <path
       d="M1815 2180 c-3 -5 -1 -10 4 -10 6 0 11 5 11 10 0 6 -2 10 -4 10 -3 0 -8 -4 -11 -10z"
       id="path58" />
    <path
       d="M1700 881 c-58 -14 -65 -19 -68 -42 -6 -51 84 -61 191 -20 34 13 37 48 5 60 -49 18 -65 18 -128 2z m99 -10 c16 -11 8 -16 -49 -31 -25 -7 -48 -17 -51 -22 -8 -12 -49 -1 -49 13 0 6 8 6 20 -1 14 -7 20 -7 20 0 0 5 -4 10 -10 10 -5 0 -10 4 -10 9 0 6 19 14 43 19 56 13 69 13 86 3z m2 -37 c-18 -8 -47 -17 -65 -19 -19 -3 -10 3 24 14 66 23 88 25 41 5z"
       id="path60" />
    <path
       d="M406 595 c-38 -38 -26 -115 18 -115 13 0 27 7 30 16 12 32 6 81 -13 98 -17 16 -20 16 -35 1z m42 -59 c-2 -23 -8 -31 -23 -31 -24 0 -34 48 -14 71 18 22 41 -2 37 -40z"
       id="path62" />
    <path
       d="M574 551 c1 -59 2 -60 32 -66 32 -6 64 1 64 15 0 4 -17 7 -37 6 -28 -1 -38 3 -41 17 -2 12 3 17 17 17 12 0 21 5 21 10 0 6 -9 10 -20 10 -11 0 -20 7 -20 15 0 10 11 15 35 15 19 0 35 5 35 10 0 6 -20 10 -44 10 l-43 0 1 -59z"
       id="path64" />
    <path
       d="M773 594 c-9 -24 5 -44 32 -44 18 0 25 -5 25 -19 0 -29 -18 -36 -41 -15 -23 20 -26 2 -3 -20 21 -22 31 -20 50 9 23 35 10 65 -27 65 -17 0 -28 4 -24 9 3 5 25 9 50 8 l45 -2 0 -47 c0 -27 5 -48 10 -48 6 0 10 23 10 50 0 28 5 50 10 50 6 0 10 3 10 8 0 4 -32 8 -71 9 -53 1 -72 -2 -76 -13z"
       id="path66" />
    <path
       d="M1117 603 c-6 -12 4 -133 12 -133 3 0 21 9 39 20 30 18 37 33 33 70 -4 32 -71 66 -84 43z m68 -47 c8 -24 6 -31 -15 -48 -23 -19 -24 -19 -31 -1 -4 10 -8 33 -8 51 -1 29 2 33 21 30 14 -2 26 -14 33 -32z"
       id="path68" />
    <path
       d="M1620 578 c0 -45 -15 -67 -24 -36 -6 22 -7 22 -21 4 -14 -19 -15 -19 -21 0 -15 49 -24 58 -18 19 3 -22 10 -48 16 -59 10 -19 11 -18 23 4 l13 23 7 -22 c5 -17 10 -20 18 -12 13 13 27 111 15 111 -4 0 -8 -15 -8 -32z"
       id="path70" />
    <path
       d="M470 545 c0 -62 17 -75 22 -17 l3 37 18 -32 c25 -47 37 -41 37 17 0 28 -4 50 -9 50 -6 0 -7 -16 -4 -35 3 -19 3 -35 0 -35 -3 0 -15 16 -27 35 -12 19 -26 35 -31 35 -5 0 -9 -25 -9 -55z"
       id="path72" />
    <path
       d="M934 565 c-7 -19 -14 -45 -13 -57 l0 -23 11 23 c16 32 58 30 58 -3 0 -14 5 -25 10 -25 14 0 2 67 -16 98 -20 31 -33 28 -50 -13z m40 0 c3 -9 0 -15 -9 -15 -8 0 -15 7 -15 15 0 8 4 15 9 15 5 0 11 -7 15 -15z"
       id="path74" />
    <path
       d="M1010 558 c0 -24 5 -50 10 -58 7 -11 10 -5 10 24 l0 39 28 -36 c15 -20 30 -36 35 -37 4 0 7 25 7 55 0 34 -4 55 -11 55 -8 0 -9 -13 -5 -42 6 -37 5 -40 -9 -28 -9 8 -23 26 -31 42 -21 40 -34 35 -34 -14z"
       id="path76" />
    <path
       d="M1440 553 l-1 -48 -28 35 c-16 19 -33 32 -36 28 -4 -4 -14 0 -22 8 -9 8 -27 14 -41 12 -48 -6 -57 -118 -9 -118 24 0 47 17 47 34 0 5 -8 2 -18 -7 -35 -32 -57 -12 -43 40 5 21 14 29 34 31 24 3 27 0 27 -25 1 -15 7 -39 15 -53 14 -25 14 -25 15 14 l0 40 33 -32 c18 -18 36 -29 40 -26 11 11 8 102 -3 109 -6 4 -10 -12 -10 -42z"
       id="path78" />
    <path
       d="M1653 545 c0 -33 2 -50 4 -37 7 34 50 30 56 -5 2 -16 5 0 6 35 0 36 -3 62 -9 62 -6 0 -8 -11 -4 -25 5 -22 3 -25 -19 -25 -20 0 -27 6 -30 28 -2 15 -4 0 -4 -33z"
       id="path80" />
    <path
       d="m 1785,576 c -9,-13 -15,-37 -13,-53 3,-26 7,-28 51,-31 42,-3 49,0 54,17 3,12 9,21 13,21 5,0 15,3 24,6 11,4 16,0 16,-14 0,-12 5,-24 12,-28 8,-5 9,2 5,26 -4,18 -7,43 -7,56 0,13 -5,24 -11,24 -5,0 -9,-10 -7,-22 2,-18 -2,-24 -24,-26 -21,-3 -27.9663,17.46047 -31.9663,35.46047 -2,13 -4.0337,-13.46047 -5.0337,-39.46047 -1,-46 -2,-48 -30,-48 -40,0 -57,23 -42,56 8,19 17,25 32,21 13,-3 19,-1 16,6 -7,22 -36,18 -52,-7 z"
       id="path82"
       inkscape:connector-curvature="0"
       sodipodi:nodetypes="ccccscsccssccccscccc" />
    <path
       d="m 1741.5506,542.10116 c 0,-27 4.8989,-54 6.8989,-38 2,15 2,81.0785 0,94.0785 -2,12 -6.8989,-28.0785 -6.8989,-56.0785 z"
       id="path84"
       inkscape:connector-curvature="0"
       sodipodi:nodetypes="sccs" />
    <path
       d="M490 423 c0 -22 2 -25 10 -13 13 20 13 40 0 40 -5 0 -10 -12 -10 -27z"
       id="path86" />
    <path
       d="M604 438 c-3 -5 -9 -6 -14 -3 -5 3 -14 -13 -20 -35 -6 -22 -13 -40 -15 -40 -3 0 -11 15 -19 33 -18 41 -20 7 -2 -42 14 -38 26 -30 46 32 16 49 30 38 30 -24 l0 -51 33 7 c47 10 61 28 15 20 -34 -7 -38 -5 -38 14 0 14 6 21 20 21 11 0 20 5 20 10 0 6 -9 10 -20 10 -11 0 -20 7 -20 15 0 10 10 15 30 15 17 0 30 4 30 9 0 11 -70 20 -76 9z"
       id="path88" />
    <path
       d="M1183 433 c-9 -3 -13 -25 -12 -66 1 -56 2 -60 12 -35 l12 26 29 -24 c15 -14 31 -22 35 -19 3 4 -5 15 -18 26 -23 19 -23 20 -6 39 14 15 15 23 6 34 -13 16 -40 25 -58 19z m42 -33 c0 -8 -8 -16 -17 -18 -13 -2 -18 3 -18 18 0 15 5 20 18 18 9 -2 17 -10 17 -18z"
       id="path90" />
    <path
       d="M1922 431 c-10 -6 -12 -21 -7 -55 l7 -46 -41 0 c-30 0 -41 4 -41 15 0 8 6 15 13 15 6 0 4 5 -5 11 -29 16 -22 39 12 39 17 0 30 4 30 9 0 5 -36 9 -80 9 l-80 0 0 -54 c0 -53 16 -76 22 -31 l3 22 23 -23 c27 -27 44 -22 19 5 -14 17 -14 20 4 42 l19 23 0 -50 0 -51 53 3 c28 2 62 4 74 5 50 3 70 64 33 101 -22 22 -37 25 -58 11z m-133 -37 c-15 -18 -39 -18 -39 -1 0 20 9 25 31 20 15 -4 17 -8 8 -19z m185 7 c20 -22 14 -56 -10 -65 -25 -10 -34 2 -34 45 0 44 16 51 44 20z"
       id="path92" />
    <path
       d="M398 423 c19 -4 22 -11 22 -49 0 -37 -3 -44 -20 -44 -11 0 -20 -4 -20 -10 0 -16 64 -12 86 5 18 14 17 15 -10 9 -27 -6 -29 -5 -23 17 4 13 7 32 7 42 0 10 8 17 20 17 11 0 20 5 20 10 0 6 -23 9 -52 9 -29 -1 -43 -4 -30 -6z"
       id="path94" />
    <path
       d="M790 369 c0 -37 4 -58 10 -54 6 3 10 23 10 43 l0 37 26 -33 c14 -18 30 -30 35 -27 5 4 8 27 7 53 -1 44 -2 44 -5 10 -2 -21 -7 -38 -11 -38 -4 0 -17 16 -30 35 -12 19 -27 35 -32 35 -6 0 -10 -27 -10 -61z"
       id="path96" />
    <path
       d="M912 423 c-16 -3 -22 -9 -18 -20 3 -8 6 -29 6 -48 0 -31 2 -33 43 -38 23 -3 46 -2 52 4 5 5 -1 9 -19 9 -33 0 -69 18 -61 30 3 5 12 7 20 3 8 -3 15 -1 15 5 0 5 -9 12 -21 15 -30 8 -13 27 24 27 24 0 28 3 17 10 -16 10 -19 10 -58 3z"
       id="path98" />
    <path
       d="M1080 370 c0 -63 3 -66 48 -54 33 9 27 24 -8 18 -34 -7 -43 14 -10 23 11 3 20 9 20 14 0 5 -9 9 -20 9 -11 0 -20 7 -20 15 0 10 10 15 29 15 17 0 33 5 36 10 4 6 -10 10 -34 10 l-41 0 0 -60z"
       id="path100" />
    <path
       d="M1615 421 c-3 -2 -5 -14 -5 -25 0 -12 -5 -28 -10 -36 -7 -12 -13 -6 -26 25 -11 24 -19 34 -21 24 -2 -8 5 -35 16 -58 l19 -43 15 23 c8 13 18 37 21 53 9 39 21 23 21 -27 0 -41 1 -42 38 -45 21 -2 37 1 37 7 0 6 -13 11 -30 11 -34 0 -38 7 -12 26 16 13 16 13 0 14 -12 0 -18 8 -18 21 0 17 5 20 25 17 14 -3 28 -1 31 3 3 5 -3 9 -13 10 -10 1 -33 2 -51 3 -18 1 -35 0 -37 -3z"
       id="path102" />
    <path
       d="M994 395 c3 -13 11 -36 16 -51 9 -24 13 -25 25 -13 18 18 33 95 16 85 -6 -4 -11 -18 -11 -31 0 -38 -18 -39 -26 0 -3 19 -11 35 -16 35 -6 0 -7 -11 -4 -25z"
       id="path104" />
    <path
       d="M1366 368 c8 -64 18 -78 34 -47 12 21 13 21 26 5 12 -17 13 -17 22 1 16 30 24 93 12 93 -5 0 -10 -15 -10 -33 0 -42 -9 -52 -26 -29 -13 16 -14 15 -20 -5 -11 -38 -24 -26 -24 22 0 25 -5 45 -10 45 -7 0 -8 -19 -4 -52z"
       id="path106" />
    <path
       d="M1480 394 c-6 -14 -9 -40 -9 -57 1 -24 3 -26 6 -9 5 26 53 33 53 7 0 -8 5 -15 11 -15 15 0 1 60 -19 83 -21 23 -31 22 -42 -9z m40 -15 c0 -5 -7 -9 -15 -9 -15 0 -20 12 -9 23 8 8 24 -1 24 -14z"
       id="path108" />
    <path
       d="M2010 324 c0 -17 22 -14 28 4 2 7 -3 12 -12 12 -9 0 -16 -7 -16 -16z"
       id="path110" />
  </g>
</svg>
