<?xml version="1.0" standalone="no"?>
<!DOCTYPE svg PUBLIC "-//W3C//DTD SVG 20010904//EN"
 "http://www.w3.org/TR/2001/REC-SVG-20010904/DTD/svg10.dtd">
<svg version="1.0" xmlns="http://www.w3.org/2000/svg"
 width="226.000000pt" height="258.000000pt" viewBox="0 0 226.000000 258.000000"
 preserveAspectRatio="xMidYMid meet">
<metadata>
Created by potrace 1.13, written by Peter Selinger 2001-2015
</metadata>
<g transform="translate(0.000000,258.000000) scale(0.100000,-0.100000)"
fill="#000000" stroke="none">
<path d="M40 1290 l0 -1290 1110 0 1110 0 0 1290 0 1290 -1110 0 -1110 0 0
-1290z m2200 839 l0 -430 -77 6 c-177 13 -307 8 -548 -21 -66 -8 -194 -19
-285 -24 -216 -12 -240 -16 -405 -60 -77 -21 -165 -43 -195 -50 -30 -6 -83
-25 -117 -40 -50 -24 -65 -36 -77 -65 -14 -32 -13 -39 8 -88 28 -63 38 -67
221 -97 72 -12 162 -27 200 -35 101 -21 230 -33 305 -30 207 8 395 6 394 -4
-1 -6 -2 -17 -3 -23 -1 -10 -94 -13 -424 -15 -434 -2 -644 -9 -667 -23 -15 -9
-15 -200 0 -280 5 -25 8 -46 7 -46 -9 -7 -393 -14 -447 -8 l-70 7 0 878 0 879
1090 0 1090 0 0 -431z m-27 -475 l27 -6 0 -168 0 -168 -217 -8 c-324 -13 -924
-10 -1003 5 -36 7 -132 23 -215 36 -140 21 -225 45 -225 63 1 35 67 64 268
117 48 13 112 31 142 40 30 8 78 18 105 21 28 3 57 8 65 11 8 2 65 7 125 9 61
3 146 9 190 14 44 5 112 12 150 15 39 3 79 9 90 12 61 18 418 23 498 7z m27
-603 l0 -179 -60 -1 -60 0 0 62 c0 34 -3 92 -6 130 -5 52 -3 67 7 69 8 1 -47
5 -121 8 l-135 5 0 33 0 32 88 5 c49 2 91 5 93 7 2 2 46 5 99 7 l95 2 0 -180z
m-422 118 c-3 -22 -8 -24 -53 -24 -47 0 -50 2 -53 27 -3 26 -1 27 45 30 56 4
66 -2 61 -33z m269 -43 c6 -6 27 -355 22 -360 -2 -2 -195 -6 -429 -10 -234 -3
-495 -8 -580 -11 -85 -3 -230 -7 -321 -10 l-167 -5 -11 47 c-32 142 -42 329
-18 338 37 15 296 20 866 18 348 -1 635 -4 638 -7z m137 -302 c12 -5 16 -20
16 -59 0 -50 -2 -54 -32 -68 -52 -23 -159 -55 -209 -62 l-46 -7 -16 44 c-31
82 -31 82 83 74 l100 -6 6 39 c6 35 10 40 38 44 17 2 34 5 38 5 3 1 13 -1 22
-4z m-1629 -92 c5 -22 9 -23 58 -18 64 7 232 13 655 22 l323 7 -6 -54 c-12
-109 -22 -119 -72 -79 -14 11 -33 20 -42 21 -9 0 -38 13 -66 29 -87 50 -119
63 -157 63 -48 0 -101 -26 -117 -56 -7 -13 -26 -28 -42 -34 -47 -18 -39 -50
18 -74 27 -12 66 -29 88 -39 34 -15 147 -48 233 -67 12 -3 22 -8 22 -12 0 -11
-184 -99 -240 -114 -67 -19 -166 -38 -239 -47 -47 -6 -58 -12 -93 -51 -21 -24
-57 -62 -78 -84 -46 -47 -47 -53 -19 -89 16 -21 29 -26 62 -26 70 0 227 49
384 121 24 10 47 19 52 19 5 0 31 7 57 15 27 8 87 24 134 35 46 12 90 26 97
32 9 7 17 7 28 -2 15 -13 147 -18 265 -11 56 4 75 0 140 -27 41 -18 82 -32 91
-32 8 0 36 -7 62 -16 l47 -16 0 -64 0 -64 -1090 0 -1090 0 0 368 0 367 264 0
265 1 6 -24z m1276 -17 c3 -16 23 -75 43 -129 27 -72 36 -108 32 -130 -4 -17
-9 -51 -12 -76 -4 -25 -10 -53 -15 -62 -11 -21 -64 -33 -146 -33 -86 0 -97 12
-81 88 14 67 6 90 -36 95 -30 4 -31 6 -12 81 8 31 18 86 21 123 l7 67 62 4
c120 7 130 5 137 -28z m350 -63 c-23 -16 -187 -82 -203 -82 -5 0 -8 7 -8 15 0
8 8 15 18 15 10 0 61 15 113 34 110 40 112 40 80 18z m-941 -22 c22 -11 44
-20 49 -20 6 0 35 -11 65 -25 30 -14 57 -25 60 -25 4 0 33 -13 66 -29 52 -24
58 -30 45 -41 -12 -10 -24 -10 -57 -1 -24 7 -79 21 -123 31 -63 16 -176 58
-204 77 -6 4 41 53 51 53 5 0 26 -9 48 -20z m960 -44 c0 -21 -6 -25 -41 -31
-22 -4 -65 -16 -94 -26 -60 -21 -75 -23 -75 -11 0 7 32 22 175 82 31 13 35 12
35 -14z m0 -141 l0 -66 -37 19 c-90 45 -105 52 -121 52 -28 0 0 17 63 38 95
32 95 32 95 -43z m-584 -56 c-3 -17 -6 -37 -6 -45 0 -19 -52 -41 -203 -85 -75
-22 -192 -61 -260 -88 -150 -60 -264 -97 -273 -88 -10 9 79 107 101 111 115
22 221 48 275 66 14 4 59 18 100 31 41 12 92 33 112 46 21 13 41 23 45 23 5 0
28 14 53 30 57 38 64 37 56 -1z m405 -25 c26 -13 60 -26 76 -30 15 -4 45 -16
66 -27 34 -18 37 -22 37 -63 0 -24 -3 -44 -7 -44 -14 1 -174 59 -224 81 -53
24 -54 26 -39 81 12 41 10 41 91 2z m-616 -14 c-3 -5 -14 -10 -23 -10 -15 0
-15 2 -2 10 20 13 33 13 25 0z"/>
<path d="M706 2360 c-244 -5 -290 -8 -300 -21 -17 -24 -3 -307 19 -392 16 -62
20 -68 39 -63 19 6 410 17 1015 30 128 3 235 7 237 9 7 7 6 342 -1 388 l-7 46
-246 6 c-260 7 -296 7 -756 -3z m759 -16 c127 -3 231 -7 232 -8 6 -6 10 -240
6 -318 l-6 -88 -171 -1 c-94 0 -373 -6 -621 -13 -247 -7 -451 -13 -452 -12
-11 8 -34 190 -36 291 l-2 129 40 8 c22 5 173 11 335 14 162 3 297 8 300 10 2
3 36 3 75 0 38 -3 174 -8 300 -12z"/>
<path d="M668 2264 c-6 -27 -11 -31 -32 -27 -17 4 -26 12 -26 24 0 35 -28 20
-35 -18 -9 -51 -15 -57 -31 -36 -11 15 -15 16 -23 4 -7 -11 -11 -5 -16 22 -4
21 -11 40 -16 43 -12 7 -11 -4 2 -66 11 -52 22 -63 34 -32 6 16 7 16 21 -2 14
-20 18 -16 47 64 3 8 6 -7 8 -35 2 -39 3 -43 6 -17 4 29 8 33 31 30 18 -2 28
-10 32 -28 10 -40 16 -9 10 50 -4 49 -6 52 -12 24z"/>
<path d="M710 2230 c0 -67 7 -75 55 -61 l30 9 -32 1 c-39 1 -45 27 -10 41 22
9 22 9 1 9 -19 1 -34 18 -34 38 0 3 16 2 35 -1 19 -4 35 -3 35 2 0 8 -45 22
-71 22 -5 0 -9 -27 -9 -60z"/>
<path d="M810 2251 c0 -16 -3 -43 -6 -60 -4 -20 -3 -31 5 -31 6 0 11 18 11 43
l0 42 21 -35 c21 -34 37 -50 51 -50 4 0 6 27 6 60 -1 71 -16 80 -20 13 l-3
-48 -28 48 c-16 26 -31 47 -33 47 -2 0 -4 -13 -4 -29z"/>
<path d="M982 2264 c-27 -18 -17 -38 23 -48 14 -4 25 -13 25 -22 0 -20 -30
-30 -40 -13 -5 7 -12 10 -16 6 -12 -12 23 -40 40 -34 22 9 36 49 24 64 -5 6
-19 13 -31 15 -31 4 -27 22 6 26 15 2 25 8 22 13 -9 13 -28 11 -53 -7z"/>
<path d="M1070 2250 c-6 -12 -10 -38 -8 -58 2 -30 7 -38 26 -40 49 -7 68 44
36 93 -20 30 -40 32 -54 5z m42 -17 c22 -20 23 -46 3 -63 -29 -24 -56 20 -39
64 8 20 13 20 36 -1z"/>
<path d="M1150 2211 c0 -39 4 -60 10 -56 6 3 10 22 10 41 0 22 4 33 11 29 5
-4 19 1 30 11 18 17 19 16 19 -24 0 -22 5 -44 10 -47 6 -4 10 13 10 44 0 55
-13 72 -37 48 -14 -14 -18 -14 -39 0 l-24 15 0 -61z"/>
<path d="M1262 2208 c3 -61 4 -63 31 -66 16 -2 35 2 43 8 11 10 17 8 32 -9 22
-28 42 -21 71 27 l22 37 -5 -32 c-3 -19 -1 -33 4 -33 6 0 10 17 10 37 l0 37
33 -32 c18 -18 36 -29 40 -26 11 11 8 104 -3 104 -5 0 -10 -19 -10 -42 l-1
-43 -29 33 c-32 35 -53 42 -43 15 4 -10 -6 -3 -23 16 -29 33 -30 33 -53 14
-12 -10 -26 -34 -30 -53 -6 -30 -11 -35 -39 -38 -24 -2 -32 1 -32 12 0 9 8 16
19 16 11 0 23 5 26 10 4 6 -5 10 -19 10 -19 0 -26 5 -26 20 0 16 7 20 30 20
17 0 30 5 30 10 0 6 -18 10 -40 10 l-41 0 3 -62z m162 16 c16 -23 17 -29 5
-51 -27 -50 -59 -38 -59 23 0 27 15 55 30 54 3 0 13 -12 24 -26z"/>
<path d="M1560 2223 c0 -65 9 -83 40 -83 16 0 35 3 44 6 28 11 17 20 -18 16
-40 -5 -56 13 -30 33 17 13 17 14 2 15 -32 0 -25 25 11 36 l36 12 -42 1 -43 1
0 -37z"/>
<path d="M516 2068 c-19 -26 -20 -51 -5 -80 8 -15 17 -19 39 -14 18 3 30 1 34
-7 2 -7 5 -2 5 9 2 45 61 58 61 14 0 -13 4 -19 11 -14 6 3 14 2 18 -5 5 -7 17
-8 38 -2 20 6 35 5 42 -2 11 -11 41 7 41 25 0 6 -7 5 -15 -2 -17 -14 -22 -6
-28 50 l-3 35 -8 -42 c-5 -24 -12 -43 -16 -43 -5 0 -15 -3 -24 -6 -13 -5 -16
2 -16 45 0 64 -20 68 -21 4 l-1 -48 -10 35 c-20 72 -50 80 -70 18 -11 -36 -17
-43 -38 -43 -20 0 -26 6 -28 28 -4 34 16 63 32 47 16 -16 30 -12 16 5 -18 21
-36 19 -54 -7z m119 -18 c3 -6 -1 -13 -10 -16 -19 -8 -30 0 -20 15 8 14 22 14
30 1z"/>
<path d="M822 2074 c-31 -21 -29 -60 3 -68 14 -4 25 -11 25 -17 0 -6 -9 -9
-20 -6 -23 6 -27 -11 -5 -19 18 -7 45 12 45 31 0 7 -13 18 -30 23 -34 12 -32
38 3 51 11 4 16 11 10 14 -5 3 -19 -1 -31 -9z"/>
<path d="M1200 2035 c0 -30 5 -55 10 -55 6 0 10 9 10 20 0 13 7 20 19 20 11 0
23 5 27 11 4 8 0 9 -15 4 -24 -7 -41 19 -23 37 14 14 52 -25 52 -54 0 -13 5
-30 10 -38 8 -12 10 -11 10 8 0 17 6 22 24 22 18 0 26 -7 29 -22 2 -13 5 1 6
30 0 29 -3 52 -9 52 -5 0 -10 -9 -10 -20 0 -13 -7 -20 -20 -20 -13 0 -20 7
-20 18 0 21 -38 42 -75 42 -24 0 -25 -3 -25 -55z"/>
<path d="M1603 2083 c-31 -4 -31 -5 -35 -65 -3 -68 2 -74 57 -64 43 8 39 25
-5 18 -25 -4 -30 -1 -30 16 0 12 9 23 20 27 11 3 20 10 20 15 0 4 -9 6 -20 3
-14 -4 -20 0 -20 11 0 10 11 19 30 23 17 3 30 9 30 14 0 5 -3 8 -7 7 -5 0 -22
-3 -40 -5z"/>
<path d="M950 2038 c0 -24 -3 -53 -6 -65 -4 -14 -2 -23 5 -23 6 0 11 19 11 47
0 44 1 45 19 29 17 -16 19 -15 34 6 16 23 16 23 16 -14 1 -50 21 -60 21 -11
l1 38 20 -24 c11 -14 18 -33 16 -43 -3 -10 -1 -18 4 -18 5 0 9 7 9 16 0 8 11
32 25 52 34 50 32 64 -3 22 l-29 -34 -17 26 c-24 37 -45 42 -66 16 l-17 -22
-14 22 c-21 33 -29 27 -29 -20z"/>
<path d="M1378 2055 c-24 -53 26 -109 68 -75 10 9 14 9 14 1 0 -6 5 -11 10
-11 6 0 10 15 10 33 l1 32 28 -32 c15 -18 31 -33 34 -33 4 0 7 25 7 55 0 62
-17 75 -22 18 l-3 -38 -14 28 c-14 27 -41 37 -41 15 0 -6 -10 -2 -23 10 -31
29 -55 28 -69 -3z m66 -17 c14 -23 -3 -53 -30 -53 -15 0 -20 9 -22 38 -3 35
-1 38 19 35 12 -2 27 -11 33 -20z"/>
<path d="M1670 1964 c0 -8 5 -12 10 -9 6 3 10 10 10 16 0 5 -4 9 -10 9 -5 0
-10 -7 -10 -16z"/>
<path d="M1020 1496 c-108 -25 -118 -29 -130 -60 -11 -31 5 -53 56 -77 l46
-20 101 26 c113 29 142 44 150 74 6 26 -7 37 -74 59 -53 19 -56 19 -149 -2z
m127 -18 c18 -7 33 -15 33 -18 0 -3 -40 -17 -90 -30 -71 -19 -90 -28 -90 -42
0 -22 -1 -22 -45 -1 -57 27 -43 43 18 18 28 -12 20 11 -9 24 -15 6 -24 15 -20
18 5 5 95 28 165 42 3 1 20 -4 38 -11z m58 -47 c-12 -11 -145 -51 -170 -51
-32 0 -8 12 72 35 87 26 112 30 98 16z"/>
<path d="M693 1093 c-23 -4 -33 -23 -13 -23 6 0 10 -18 10 -40 0 -22 5 -40 10
-40 6 0 10 20 10 45 0 33 4 45 15 45 8 0 15 5 15 10 0 10 -8 11 -47 3z"/>
<path d="M858 1081 c-15 -25 -28 -27 -28 -6 0 8 -4 15 -10 15 -6 0 -9 -23 -9
-52 1 -29 4 -43 6 -30 2 12 11 22 18 22 8 0 17 9 20 20 11 35 25 21 25 -25 0
-25 5 -45 10 -45 14 0 7 97 -8 112 -7 7 -14 4 -24 -11z"/>
<path d="M630 1041 c0 -28 5 -51 10 -51 6 0 10 20 10 44 0 25 -4 48 -10 51 -6
4 -10 -13 -10 -44z"/>
<path d="M932 1077 c-6 -7 -13 -30 -16 -52 -6 -35 -5 -37 6 -17 14 28 42 25
46 -6 2 -12 7 -20 12 -17 4 3 7 13 5 23 -12 60 -16 70 -29 75 -8 3 -19 0 -24
-6z m23 -16 c3 -5 1 -12 -5 -16 -5 -3 -10 1 -10 9 0 18 6 21 15 7z"/>
<path d="M1001 1038 c0 -33 3 -58 9 -58 6 0 10 12 10 28 l0 27 20 -25 c10 -14
22 -21 26 -17 4 4 0 15 -9 25 -21 23 -22 38 -2 46 8 3 15 11 15 17 0 7 -9 6
-25 -5 -30 -20 -32 -20 -38 2 -3 9 -5 -9 -6 -40z"/>
<path d="M1086 1040 c3 -25 7 -51 10 -57 4 -15 50 -17 59 -3 4 6 -7 10 -24 10
-21 0 -31 5 -31 15 0 8 9 15 20 15 11 0 20 5 20 10 0 6 -9 10 -20 10 -11 0
-20 7 -20 15 0 9 9 15 24 15 14 0 27 4 31 9 3 6 -11 9 -34 8 l-40 -1 5 -46z"/>
<path d="M1172 1078 c-23 -23 -14 -47 21 -50 42 -4 46 -34 3 -31 -20 2 -26 -1
-19 -8 6 -6 21 -9 34 -7 18 2 24 9 24 28 0 20 -6 26 -27 28 -32 4 -39 32 -9
32 11 0 23 5 26 10 9 14 -39 12 -53 -2z"/>
<path d="M1618 1082 c-19 -4 -21 -30 -9 -86 5 -26 7 -28 20 -13 7 10 19 17 27
17 7 0 20 10 28 22 15 21 15 20 9 -15 -7 -42 10 -49 52 -21 15 10 25 12 25 5
0 -6 5 -11 10 -11 6 0 10 7 10 15 0 23 41 19 47 -5 8 -31 24 -24 17 8 -14 59
-64 112 -64 67 0 -21 -13 -19 -28 5 -13 21 -51 27 -68 10 -7 -7 -20 -7 -35 -2
-13 5 -32 7 -41 4z m137 -36 c8 -24 6 -30 -15 -46 l-25 -19 -3 36 c-6 66 23
86 43 29z m-85 9 c15 -18 1 -40 -30 -48 -17 -4 -20 0 -20 29 0 27 4 34 19 34
10 0 24 -7 31 -15z m150 -16 c0 -5 -7 -9 -15 -9 -9 0 -12 6 -9 15 6 15 24 11
24 -6z"/>
<path d="M1299 1025 c-9 -30 -13 -55 -9 -55 4 0 10 9 13 20 7 26 44 26 52 0
11 -34 23 -13 15 28 -9 49 -17 62 -38 62 -12 0 -22 -16 -33 -55z m47 9 c-5
-13 -10 -14 -18 -6 -6 6 -8 18 -4 28 5 13 10 14 18 6 6 -6 8 -18 4 -28z"/>
<path d="M1437 1062 c-10 -10 -17 -28 -17 -40 0 -35 24 -49 85 -50 52 0 56 2
71 30 15 28 14 31 -7 54 -28 29 -46 31 -54 3 -4 -11 -19 -25 -33 -31 -22 -9
-23 -12 -9 -15 18 -5 23 -18 8 -27 -15 -9 -39 4 -44 23 -7 28 11 51 41 51 21
0 24 2 12 10 -22 14 -35 12 -53 -8z m121 -14 c17 -17 15 -43 -4 -58 -12 -11
-18 -10 -31 3 -14 13 -14 21 -5 42 13 28 22 31 40 13z"/>
<path d="M2040 1043 l-1 -38 -28 33 c-15 17 -31 32 -34 32 -4 0 -7 -25 -7 -55
0 -32 4 -55 10 -55 7 0 8 13 4 35 -8 42 6 46 35 9 11 -14 25 -23 31 -19 13 8
13 95 0 95 -5 0 -10 -17 -10 -37z"/>
<path d="M1861 1038 c1 -18 5 -44 9 -58 7 -22 8 -21 9 12 1 28 5 36 15 32 8
-3 17 -1 21 5 13 22 25 10 25 -23 0 -19 5 -38 10 -41 13 -8 13 46 0 81 -10 26
-11 26 -31 8 -19 -17 -21 -18 -30 -1 -16 27 -29 20 -28 -15z"/>
<path d="M707 933 c-11 -10 -8 -101 3 -108 6 -4 10 6 10 22 l1 28 25 -29 c29
-33 44 -28 21 7 -14 22 -14 26 1 41 16 16 16 18 -2 32 -21 15 -48 18 -59 7z
m51 -25 c-7 -20 -48 -23 -48 -4 0 11 9 16 26 16 16 0 24 -5 22 -12z"/>
<path d="M910 893 l-1 -48 -28 33 c-15 17 -31 32 -34 32 -4 0 -7 -20 -7 -45 0
-27 5 -45 11 -45 8 0 9 11 5 33 l-6 32 29 -35 c16 -19 31 -33 34 -30 9 10 14
120 5 120 -4 0 -8 -21 -8 -47z"/>
<path d="M946 914 c-9 -8 -16 -20 -16 -25 0 -19 31 -69 43 -70 6 0 3 -4 -8 -9
-11 -5 -38 -7 -60 -4 -22 2 -71 0 -110 -5 -56 -7 -26 -9 155 -10 124 -1 236
-4 249 -8 17 -4 22 -3 17 5 -4 7 -20 12 -35 12 -28 0 -28 1 -20 43 11 56 11
67 -1 67 -5 0 -10 -17 -10 -37 l0 -38 -23 39 c-37 66 -57 57 -49 -21 2 -24 8
-43 13 -43 5 0 6 18 3 40 -4 22 -4 40 0 40 5 0 46 -74 46 -85 0 -3 -29 -5 -65
-5 -69 0 -78 8 -50 44 22 29 19 36 -16 36 -17 0 -28 -4 -24 -10 3 -5 12 -7 20
-3 18 6 19 -7 2 -31 -12 -16 -14 -15 -36 8 -32 34 -25 61 17 61 34 0 42 9 16
19 -25 10 -42 7 -58 -10z"/>
<path d="M797 873 c6 -50 10 -60 18 -51 8 8 -7 98 -16 98 -5 0 -6 -21 -2 -47z"/>
<path d="M1046 874 c4 -64 14 -68 14 -6 0 29 -4 52 -8 52 -5 0 -7 -21 -6 -46z"/>
<path d="M1186 904 c-12 -31 -6 -63 13 -74 29 -15 58 -12 65 6 10 26 7 34 -14
34 -22 0 -27 -16 -7 -23 6 -2 9 -8 5 -12 -5 -5 -19 -3 -34 3 -38 18 -30 56 14
60 39 4 33 22 -8 22 -16 0 -30 -7 -34 -16z"/>
<path d="M1363 908 c-35 -17 -36 -36 -2 -53 36 -19 36 -51 1 -48 -14 2 -21 -1
-17 -7 10 -17 44 -11 55 9 15 30 12 40 -15 53 -14 6 -25 15 -25 19 0 5 11 11
25 15 14 3 25 10 25 15 0 12 -19 10 -47 -3z"/>
<path d="M1680 870 c0 -27 -4 -50 -8 -50 -5 0 -16 18 -25 40 -18 46 -37 53
-37 13 0 -16 -3 -38 -6 -50 -4 -14 -2 -23 5 -23 6 0 11 17 11 38 l1 37 20 -37
c27 -53 49 -50 49 6 0 24 3 51 6 60 3 9 1 16 -5 16 -7 0 -11 -20 -11 -50z"/>
<path d="M1736 911 c-14 -6 -19 -18 -20 -52 -1 -56 17 -73 57 -53 24 13 28 20
25 51 -3 40 -32 65 -62 54z m44 -30 c14 -27 13 -37 -6 -55 -27 -28 -44 -20
-44 22 0 21 3 42 7 45 12 13 32 7 43 -12z"/>
<path d="M1442 897 c-19 -23 -23 -61 -9 -81 14 -19 16 -19 40 -3 24 15 27 16
35 1 12 -22 60 -21 78 2 15 20 12 70 -6 88 -7 7 -9 -6 -8 -39 3 -47 2 -50 -22
-50 -23 0 -25 4 -24 43 0 23 -3 42 -8 42 -4 0 -8 -7 -8 -15 0 -12 -4 -11 -20
5 -23 23 -34 25 -48 7z m29 -21 c15 9 22 -25 9 -41 -17 -21 -40 -19 -40 4 0
27 13 58 18 43 2 -7 8 -10 13 -6z"/>
<path d="M1815 819 c-10 -15 3 -25 16 -12 7 7 7 13 1 17 -6 3 -14 1 -17 -5z"/>
</g>
</svg>
