<?xml version="1.0" encoding="UTF-8" standalone="no"?>
<svg
   xmlns:dc="http://purl.org/dc/elements/1.1/"
   xmlns:cc="http://creativecommons.org/ns#"
   xmlns:rdf="http://www.w3.org/1999/02/22-rdf-syntax-ns#"
   xmlns:svg="http://www.w3.org/2000/svg"
   xmlns="http://www.w3.org/2000/svg"
   xmlns:sodipodi="http://sodipodi.sourceforge.net/DTD/sodipodi-0.dtd"
   xmlns:inkscape="http://www.inkscape.org/namespaces/inkscape"
   version="1.0"
   width="201.000000pt"
   height="283.000000pt"
   viewBox="0 0 201.000000 283.000000"
   preserveAspectRatio="xMidYMid meet"
   id="svg2"
   inkscape:version="0.91 r13725"
   sodipodi:docname="travelling_salesman_problem_2.svg">
  <defs
     id="defs78" />
  <sodipodi:namedview
     pagecolor="#ffffff"
     bordercolor="#666666"
     borderopacity="1"
     objecttolerance="10"
     gridtolerance="10"
     guidetolerance="10"
     inkscape:pageopacity="0"
     inkscape:pageshadow="2"
     inkscape:window-width="1861"
     inkscape:window-height="1056"
     id="namedview76"
     showgrid="false"
     inkscape:zoom="1.4142136"
     inkscape:cx="130.66791"
     inkscape:cy="267.14209"
     inkscape:window-x="59"
     inkscape:window-y="24"
     inkscape:window-maximized="1"
     inkscape:current-layer="svg2" />
  <metadata
     id="metadata4">
Created by potrace 1.13, written by Peter Selinger 2001-2015
<rdf:RDF>
  <cc:Work
     rdf:about="">
    <dc:format>image/svg+xml</dc:format>
    <dc:type
       rdf:resource="http://purl.org/dc/dcmitype/StillImage" />
  </cc:Work>
</rdf:RDF>
</metadata>
  <g
     transform="translate(0.000000,283.000000) scale(0.100000,-0.100000)"
     fill="#000000"
     stroke="none"
     id="g6">
    <path
       d="M 20,1415 20,0 l 975,0 975,0 0,1415 0,1415 -975,0 -975,0 z m 1940,0 0,-1395 -960,0 -960,0 0,156 0,157 82,-8 c 103,-9 215,-43 293,-90 138,-84 171,-78 173,30 1,67 25,140 83,256 42,85 99,256 99,299 0,22 5,42 11,46 6,3 9,18 6,32 -4,20 7,40 51,94 31,37 58,68 61,68 4,-1 44,-32 91,-70 l 85,-70 93,0 92,0 0,-135 c 0,-113 -3,-142 -19,-173 -20,-40 -75,-245 -87,-327 -4,-27 -18,-83 -30,-124 -26,-79 -29,-101 -16,-101 10,0 49,140 92,335 37,163 49,205 59,205 12,0 71,-232 71,-277 0,-24 6,-46 15,-53 8,-7 15,-19 15,-28 0,-26 32,-146 41,-156 12,-13 12,25 0,56 -4,13 -11,44 -15,69 l -7,46 33,-3 c 18,-2 48,-9 66,-15 38,-13 90,-14 122,-4 22,7 23,9 16,119 -12,202 -32,266 -83,266 -12,0 -23,4 -23,10 0,5 -11,12 -24,16 -14,3 -27,12 -30,20 -3,7 -11,12 -18,9 -8,-3 -37,42 -81,128 -37,72 -68,137 -68,144 1,6 19,22 41,34 51,29 90,102 90,170 0,28 5,49 13,53 8,3 7,8 -5,16 -10,6 -18,23 -18,38 0,33 -31,86 -63,107 -13,8 -39,15 -58,14 -19,-1 -43,2 -54,5 -32,11 -72,-26 -80,-74 -5,-29 -12,-40 -24,-40 -23,0 -33,-11 -22,-24 5,-6 4,-40 -2,-77 -15,-99 -4,-153 40,-186 19,-15 54,-30 77,-34 31,-5 20,-7 -49,-8 l -90,-1 -57,45 c -58,45 -71,65 -43,65 8,0 15,5 15,10 0,6 -9,10 -19,10 -11,0 -23,5 -27,11 -3,6 -15,9 -25,6 -11,-3 -19,-4 -19,-3 0,1 13,33 30,71 16,39 30,78 30,89 0,10 35,51 78,91 42,40 91,96 107,123 17,28 37,53 46,55 21,6 33,55 18,73 -25,31 -79,10 -79,-31 0,-26 -127,-144 -155,-145 -12,0 -26,-5 -31,-10 -7,-7 -413.12719,-7.4678 -603.19165,5.1289 -156,-1 -112.99012,-2.4893 -76.99012,-5.4893 C 309.81823,1396.6396 603,1376 723,1378 c 162,3 217,1 217,-8 0,-6 -21,-38 -46,-70 -44,-56 -47,-58 -92,-58 -55,-1 -280,53 -437,105 -157,50 -149.91405,43.4248 -75,49 l 53.84959,-2.4893 L 290,1401 c -41,6 -82,14 -90,18 -8,4 -24,5 -35,1 -11,-4 -42,0 -70,10 l -50,17 -3,681 -2,682 960,0 960,0 z m -750,154 c 0,-6 -5,-19 -10,-29 -14,-25 -40,-15 -40,16 0,19 5,24 25,24 14,0 25,-5 25,-11 z m -50,-66 c 0,-37 -150,-206 -167,-189 -3,3 0,24 7,47 10,28 34,59 78,100 69,63 82,69 82,42 z M 110,1408 c 24,-10 24,-10 5,-18 -11,-4 -32,-10 -47,-14 -26,-6 -28,-4 -28,24 0,34 2,34 70,8 z m 80,-23 c 0,-8 -4,-15 -10,-15 -5,0 -10,7 -10,15 0,8 5,15 10,15 6,0 10,-7 10,-15 z m 790,-10 c 0,-8 -4,-15 -10,-15 -5,0 -10,7 -10,15 0,8 5,15 10,15 6,0 10,-7 10,-15 z m -855,-20 c -16,-14 -43,-35 -58,-46 l -28,-21 3,32 c 2,28 9,35 38,46 19,7 44,13 55,13 17,1 16,-3 -10,-24 z m 270,-35 c 33,-12 125,-37 205,-56 79,-20 151,-40 160,-44 22,-13 -162,-11 -296,3 l -110,12 -72,64 c -40,35 -72,67 -72,71 0,8 93,-17 185,-50 z m -211,-25 c 9,-35 16,-66 16,-69 0,-2 -24,-7 -52,-11 -29,-3 -65,-8 -80,-11 -26,-5 -28,-3 -28,29 0,29 8,42 52,81 29,25 57,46 64,46 6,0 19,-29 28,-65 z m 78,-3 c 32,-28 54,-53 50,-56 -4,-2 -27,-6 -52,-7 l -45,-4 -12,45 c -13,51 -16,100 -5,84 4,-6 33,-34 64,-62 z m 718,43 c 0,-22 -27,-60 -61,-85 -47,-34 -81,-42 -51,-12 11,11 33,40 51,65 21,31 36,44 46,41 8,-4 15,-8 15,-9 z m -49,-157 c -17,-40 -43,-91 -58,-114 -41,-59 -95,-124 -105,-124 -13,0 -9,41 12,110 22,71 30.04297,114.1719 18.04297,114.1719 C 791.04297,1164.1719 739,987 740,963 c 0,-21 -19,-24 -47,-6 -15,9 -69,51 -119,93 -50,41 -115,95 -145,119 l -54,44 80,-8 c 44,-4 132,-9 195,-11 102,-3 117,-6 129,-24 19,-28 47,-25 68,6 16,25 103,87 111,79 2,-2 -10,-36 -27,-77 z m 330,51 c 56,-5 111,-14 121,-20 28,-15 24,-90 -8,-148 -29,-55 -65,-79 -126,-87 -52,-6 -102,21 -119,64 -11,27 -6,152 7,186 7,19 -3,19 125,5 z m -423,-33 c -4,-25 -36,-34 -44,-12 -10,26 3,45 26,39 14,-4 20,-12 18,-27 z m -427,-35 c 41,-32 101,-82 134,-110 33,-28 82,-67 108,-87 26,-20 46,-38 44,-40 -2,-3 -21,3 -43,12 -21,9 -115,43 -209,75 l -170,58 -22,53 c -30,71 -29,86 5,91 70,10 79,7 153,-52 z m -181,-17 c 11,-31 19,-60 18,-64 -2,-4 -49,2 -105,13 l -103,20 0,38 c 0,36 1,38 38,42 20,2 58,4 84,5 l 47,2 z m 88,-245 c 93,-228 88,-210 66,-226 -10,-7 -24,-12 -30,-11 -7,2 -80,74 -163,162 l -151,158 0,57 0,58 108,-22 107,-22 z m 100,105 C 505,977 695,907 703,900 718,886 512,725 447,701 c -25,-10 -26,-7 -65,82 -41,96 -85,207 -96,244 -8,24 -21,26 132,-23 z M 276,711 332,646 304,632 c -87,-45 -87,-45 -126,6 -20,26 -45,63 -56,82 C 49,843 40,865 40,909 l 0,46 90,-90 C 180,816 245,746 276,711 Z m 485,189 c 5,0 9,-7 9,-15 0,-8 -6,-15 -14,-15 -18,0 -30,35 -19,52 5,10 8,8 11,-4 2,-10 8,-18 13,-18 z m 588,-124 c 49,-94 60,-127 44,-125 -20,3 -34,-2 -28,-11 3,-5 -3,-10 -13,-10 -25,0 -31,-24 -26,-102 l 4,-63 -21,60 c -15,43 -22,89 -24,160 -2,94 3,200 10,193 2,-2 26,-47 54,-102 z M 668,774 C 640,725 592,648 562,602 532,556 496.68525,500.74657 500.68525,496.74657 c 4,-4 10,-1 12,5 C 515.68525,508.74657 555,565 584,607 c 29,43 62,97 74,120 36,70 72,123 84,123 19,0 2,-100 -32,-190 -18,-47 -55,-134 -83,-195 -34,-73 -52,-127 -55,-162 -3,-37 -9,-53 -19,-53 -15,0 -15,-2 -36,95 -13,61 -14,72 -1,86 20,23 17,62 -6,77 -11,7 -20,17 -20,23 0,5 -13,39 -30,74 -34,73 -35,75 -17,75 17,0 169,102 226,152 24,21 46,37 48,34 2,-2 -20,-43 -49,-92 z M 65,788 c 21,-45 72,-127 101,-161 13,-16 24,-32 24,-36 0,-5 -28,-19 -62,-31 -35,-13 -69,-25 -75,-27 -10,-4 -13,28 -13,141 0,80 2,146 5,146 3,0 12,-15 20,-32 z M 443,603 c 14,-32 28,-69 32,-83 7,-23 6,-24 -10,-10 -9,8 -37,40 -61,71 -40,52 -43,59 -27,68 31,18 40,12 66,-46 z m -83,5 c 10,-13 36,-46 58,-74 25,-30 38,-55 33,-62 -9,-16 -141,-29 -141,-15 0,6 -19,34 -41,62 -23,29 -39,55 -36,58 5,5 96,50 106,52 2,1 11,-9 21,-21 z m 1040,12 c 0,-5 -2,-10 -4,-10 -3,0 -8,5 -11,10 -3,6 -1,10 4,10 6,0 11,-4 11,-10 z m 75,0 c 3,-5 1,-10 -4,-10 -6,0 -11,5 -11,10 0,6 2,10 4,10 3,0 8,-4 11,-10 z M 259,507 c 24,-32 42,-59 39,-62 -3,-3 -43,-10 -89,-15 -46,-5 -103,-12 -127,-16 l -43,-6 3,52 3,53 75,28 c 41,15 80,27 85,25 6,-1 30,-28 54,-59 z m 254,-23 c 7,-8 -11,-46 -27,-56 -29,-20 -35,4 -10,40 15,22 26,27 37,16 z m -68,-64 c 3,-11 15,-20 25,-20 13,0 22,-9 26,-27 4,-16 13,-52 20,-82 8,-30 12,-57 9,-59 -7,-8 -67,49 -128,122 -63,75 -62,86 5,86 28,0 38,-5 43,-20 z m -85,-46 c 25,-31 69,-80 99,-110 62,-62 51,-69 -29,-20 -88,54 -159,75 -358,102 -26,4 -32,9 -32,28 0,23 4,24 87,31 49,4 106,11 128,15 22,4 45,8 50,8 6,1 30,-24 55,-54 z M 556,204 c -3,-8 -10,-12 -16,-9 -7,4 -6,14 2,28 12,24 24,8 14,-19 z"
       id="path8"
       inkscape:connector-curvature="0"
       sodipodi:nodetypes="cccccccccccccccccccsccccccccscccscsscsccccccccssccccccsccscsccscccccccsssccscsccccscscscsccccccsscccccccscsssssccscccscsssssssssscccccccccccccsccsccscsccccccccscsccsccscscccccccccscccccccccccccsscccccccccccscccccccccccccccccccccccccscccsssccscccsccccsccsscccscccscccscscccccsccssccccccccccscsccsscsscsssccssccccccccccccsccccsccsccscscccccc" />
    <path
       d="m 566,2681 c -6,-10 -10.04211,-151.6842 -4.62526,-159.6842 C 575.85263,2519.3158 580,2574 580,2608 c 0,59 1,62 25,62 30,0 48,-30 39,-67 -9,-39 -21,-51 -55,-58 -26,-6 -42,-25 -20,-25 23,0 73,24 81,40 17,31 12,95 -8,113 -20,18 -67,23 -76,8 z"
       id="path10"
       inkscape:connector-curvature="0"
       sodipodi:nodetypes="scssccscss" />
    <path
       d="M855 2671 c-3 -11 -3 -32 1 -48 l7 -28 -30 28 c-39 36 -53 34 -53 -7 0 -19 -3 -41 -6 -50 -3 -9 -2 -16 4 -16 5 0 13 19 19 43 l9 42 23 -37 c13 -21 27 -38 32 -38 5 0 9 29 9 65 0 67 -4 79 -15 46z"
       id="path12" />
    <path
       d="M670 2663 c0 -5 9 -19 20 -33 11 -14 20 -37 20 -52 0 -15 5 -30 10 -33 6 -3 10 3 10 15 0 11 9 39 21 61 11 23 18 43 15 46 -2 3 -12 -9 -21 -27 -13 -25 -19 -29 -30 -20 -8 7 -17 20 -20 31 -6 18 -25 27 -25 12z"
       id="path14" />
    <path
       d="M925 2658 c-13 -36 -33 -108 -29 -108 2 0 13 9 24 20 26 26 60 26 60 1 0 -11 5 -23 12 -27 14 -9 4 76 -12 106 -12 22 -48 27 -55 8z m40 -19 c7 -20 -7 -38 -27 -39 -10 0 -10 22 -2 44 9 22 21 20 29 -5z"
       id="path16" />
    <path
       d="M1231 2644 c-25 -32 -28 -86 -5 -108 8 -9 18 -16 22 -16 15 0 72 40 72 51 0 6 -12 1 -26 -10 -35 -27 -52 -26 -65 3 -15 31 13 89 37 79 11 -4 15 -2 12 7 -8 24 -25 22 -47 -6z"
       id="path18" />
    <path
       d="M1017 2608 c6 -72 11 -83 12 -25 1 45 16 63 27 32 9 -22 19 -18 35 13 13 27 14 26 19 -32 7 -83 26 -83 22 -1 -3 60 -5 65 -27 65 -12 0 -26 -7 -29 -16 -6 -16 -8 -16 -24 0 -31 28 -39 19 -35 -36z"
       id="path20" />
    <path
       d="M1161 2638 c0 -13 4 -41 8 -63 9 -40 9 -40 10 17 0 31 -3 60 -9 63 -6 3 -10 -4 -9 -17z"
       id="path22" />
    <path
       d="m 510,2410 c 0,-33 4,-76 10,-76 6,0 10,6 10,14 0,8 14,33 31,37 17,4 33,13 36,21 11,29 21,13 16,-26 -4,-26 -2,-40 6,-40 6,0 11,12 11,27 l 0,27 35,-34 c 19,-18 37,-31 41,-28 3,4 -4,16 -16,28 -20,20 -21,25 -9,47 9,17 10,29 3,41 -15,23 -62,28 -70,8 -5,-14 -8,-14 -27,-1 -12,8 -34,15 -49,15 -28,0 -28,-1 -28,-60 z m 74,30 c 15,-15 -3,-40 -29,-40 -21,0 -25,5 -25,31 0,27 3,30 23,24 12,-4 26,-11 31,-15 z m 86,5 c 10,-12 10,-18 0,-29 -14,-18 -40,-10 -40,13 0,32 20,40 40,16 z"
       id="path24"
       inkscape:connector-curvature="0"
       sodipodi:nodetypes="ssssccsscccsccccsscssccscss" />
    <path
       d="M732 2443 c-20 -54 -22 -79 -6 -101 27 -39 61 -26 83 31 9 23 7 31 -20 62 -17 19 -35 35 -39 35 -4 0 -12 -12 -18 -27z m52 -22 c25 -28 9 -76 -25 -76 -19 0 -25 6 -27 27 -3 28 13 68 27 68 4 0 16 -9 25 -19z"
       id="path26" />
    <path
       d="M847 2453 c-4 -3 -7 -25 -7 -48 0 -78 63 -101 82 -29 9 35 -3 50 -29 35 -17 -10 -17 -10 0 -11 20 0 23 -32 4 -48 -19 -16 -37 0 -43 39 -7 39 5 54 46 62 19 3 17 5 -11 6 -20 0 -39 -2 -42 -6z"
       id="path28" />
    <path
       d="M939 2456 c-9 -9 3 -116 13 -116 6 0 8 7 4 15 -8 21 2 19 41 -11 35 -27 46 -19 13 11 -19 17 -19 18 5 37 31 24 32 54 3 62 -26 7 -73 8 -79 2z m77 -16 c21 0 17 -18 -10 -35 -27 -18 -56 -10 -56 15 0 20 17 31 38 24 8 -2 20 -4 28 -4z"
       id="path30" />
    <path
       d="M1593 2453 c-17 -6 -17 -85 -1 -101 7 -7 26 -12 44 -12 24 0 33 5 38 23 9 34 8 37 -14 37 -11 0 -20 -5 -20 -11 0 -5 5 -7 10 -4 6 3 10 -1 10 -9 0 -11 -9 -16 -30 -16 -23 0 -31 5 -36 25 -11 43 1 58 46 53 43 -4 54 6 18 16 -26 7 -48 7 -65 -1z"
       id="path32" />
    <path
       d="M1060 2408 c-24 -53 -27 -98 -4 -55 18 34 64 39 64 7 0 -11 5 -20 10 -20 13 0 13 51 0 84 -15 41 -47 34 -70 -16z m60 1 c0 -12 -7 -19 -19 -19 -27 0 -34 15 -15 34 19 19 34 12 34 -15z"
       id="path34" />
    <path
       d="M1151 2393 c0 -41 3 -52 9 -38 4 11 6 30 3 43 -6 25 14 31 23 7 8 -21 21 -19 27 5 11 41 27 19 27 -37 0 -61 11 -65 17 -6 8 72 -16 105 -47 68 -12 -14 -15 -14 -30 0 -26 24 -30 19 -29 -42z"
       id="path36" />
    <path
       d="M1276 2419 c-9 -46 -7 -79 4 -79 6 0 10 16 10 36 0 32 2 35 16 23 14 -11 18 -11 29 4 20 27 35 20 35 -17 0 -19 5 -38 10 -41 16 -10 12 59 -4 81 -13 17 -17 17 -37 5 -20 -12 -24 -11 -34 3 -17 23 -22 20 -29 -15z"
       id="path38" />
    <path
       d="M1466 2443 c-10 -10 -7 -113 3 -113 6 0 11 19 13 43 l4 42 18 -40 c23 -51 25 -53 36 -35 13 20 13 110 0 110 -5 0 -10 -19 -10 -42 l-1 -43 -19 37 c-21 40 -34 51 -44 41z"
       id="path40" />
    <path
       d="M1414 2424 c3 -9 6 -31 6 -50 0 -19 3 -34 8 -34 4 0 5 22 4 50 -2 27 -8 50 -14 50 -6 0 -7 -7 -4 -16z"
       id="path42" />
    <path
       d="M547 2238 c-20 -43 -40 -119 -33 -126 3 -3 11 9 17 26 9 26 17 32 39 32 22 0 29 -6 38 -32 l10 -33 0 35 c1 40 -28 122 -44 127 -6 2 -18 -11 -27 -29z m41 -22 c10 -22 8 -26 -9 -31 -27 -9 -33 -2 -25 30 8 32 20 32 34 1z"
       id="path44" />
    <path
       d="M720 2242 c-30 -24 -38 -87 -15 -112 23 -25 47 -25 70 0 l18 20 14 -20 c33 -47 93 -8 93 61 0 73 -62 87 -89 21 -10 -23 -17 -28 -39 -26 -15 2 -19 1 -9 -2 32 -10 12 -54 -25 -54 -30 0 -41 35 -23 76 14 33 17 35 46 29 20 -5 29 -3 25 3 -11 18 -46 20 -66 4z m164 -29 c8 -25 -7 -75 -26 -87 -21 -13 -48 8 -48 38 0 50 61 90 74 49z"
       id="path46" />
    <path
       d="M927 2253 c-11 -11 -8 -111 4 -118 6 -4 9 3 7 21 -4 38 13 39 50 3 18 -17 32 -26 32 -20 0 7 -11 23 -24 36 l-24 24 21 14 c19 12 20 17 8 31 -13 16 -62 22 -74 9z m63 -23 c0 -5 -4 -10 -9 -10 -5 0 -16 -3 -25 -6 -11 -4 -16 -1 -16 10 0 10 9 16 25 16 14 0 25 -4 25 -10z"
       id="path48" />
    <path
       d="m 1170,2257 c -3,-3 -33,-7 -68,-8 l -62,-2 1,-56 c 1,-43 3,-66 9,-47 4,14 8,53 9,69 -0.1213,64.1421 26,25 31,-33 l 6,-55 8,50 c 9,52 20,67 43,58 8,-3 13,-25 14,-62 1,-42 3,-49 8,-26 5,23 12,31 31,33 20,2 28,-3 36,-25 10,-25 11,-22 15,35 4,61 -7,89 -13,35 -2,-22 -9,-29 -30,-31 -24,-3 -27,0 -30,33 -2,20 -5,34 -8,32 z"
       id="path50"
       inkscape:connector-curvature="0"
       sodipodi:nodetypes="cccccccccccsccccccc" />
    <path
       d="M1286 2251 c-14 -22 -19 -118 -7 -125 8 -5 11 10 11 51 1 52 2 56 15 39 8 -10 16 -24 18 -30 2 -6 14 0 25 14 l21 25 1 -47 c0 -27 3 -48 8 -48 4 0 5 27 4 60 -4 65 -12 72 -37 38 -10 -13 -19 -18 -21 -12 -11 28 -31 47 -38 35z"
       id="path52" />
    <path
       d="M1419 2244 c-19 -23 1 -48 40 -52 33 -3 42 -27 19 -50 -17 -17 -38 -15 -38 3 0 8 -4 15 -10 15 -16 0 -12 -26 6 -41 20 -16 44 -3 63 36 12 25 12 30 -5 42 -10 7 -28 13 -41 13 -25 0 -30 12 -10 28 8 7 18 7 27 2 23 -15 34 -12 20 5 -16 20 -54 19 -71 -1z"
       id="path54" />
    <path
       d="m 637,2200 c -10,-71 -3,-90 35,-90 17,0 27,4 23,10 -3,6 -15.10877,8.4358 -24.5,5 -41,-15 -12.5,83 -15.5,137 l -10,1 z"
       id="path56"
       inkscape:connector-curvature="0"
       sodipodi:nodetypes="cscsccc" />
    <path
       d="M1540 2210 c0 -5 5 -10 10 -10 6 0 10 5 10 10 0 6 -4 10 -10 10 -5 0 -10 -4 -10 -10z"
       id="path58" />
    <path
       d="M1535 2171 c-3 -5 -1 -12 5 -16 5 -3 10 1 10 9 0 18 -6 21 -15 7z"
       id="path60" />
    <path
       d="M615 1998 c-56 -44 -76 -162 -33 -192 48 -34 117 -15 143 40 15 33 16 43 4 91 -19 81 -61 103 -114 61z m62 -6 c7 -4 20 -25 28 -46 31 -74 -2 -136 -72 -136 -69 0 -78 87 -17 160 26 31 40 36 61 22z"
       id="path62" />
    <path
       d="M1098 2013 c-10 -2 -18 -9 -18 -15 0 -6 10 -8 25 -4 21 5 25 3 25 -14 0 -11 -7 -23 -15 -26 -24 -10 -17 -34 12 -45 18 -7 30 -6 37 1 7 7 5 10 -6 10 -23 0 -32 18 -18 35 6 8 10 24 8 37 -3 23 -19 30 -50 21z"
       id="path64" />
    <path
       d="M1348 2001 c-16 -19 -28 -95 -16 -106 3 -4 13 19 22 49 9 31 20 56 24 56 19 0 32 -27 32 -64 0 -30 3 -37 10 -26 24 37 -2 110 -38 110 -10 0 -25 -9 -34 -19z"
       id="path66" />
    <path
       d="M1474 1989 c20 -24 26 -41 26 -80 0 -51 -22 -122 -49 -153 -15 -17 -15 -18 4 -15 13 3 28 23 43 59 39 94 19 220 -35 220 -10 0 -7 -9 11 -31z"
       id="path68" />
    <path
       d="M859 1963 c-44 -90 -23 -220 37 -232 16 -3 16 -1 -4 15 -28 23 -45 92 -36 142 3 21 17 56 29 80 17 30 20 42 10 42 -7 0 -23 -21 -36 -47z"
       id="path70" />
    <path
       d="M1218 1979 c-10 -5 -18 -17 -18 -26 0 -15 2 -15 18 0 10 10 27 17 37 17 15 0 17 -6 11 -41 -4 -23 -20 -61 -37 -85 -16 -24 -27 -49 -24 -54 8 -13 115 -13 115 0 0 6 -20 10 -45 10 -25 0 -45 3 -45 6 0 3 9 18 20 34 24 34 46 111 37 133 -7 19 -43 22 -69 6z"
       id="path72" />
    <path
       d="M984 1926 c-3 -9 -12 -16 -20 -16 -10 0 -14 -13 -14 -43 0 -64 13 -66 30 -5 12 40 21 54 37 56 24 4 38 -34 28 -79 -4 -16 -2 -29 3 -29 14 0 22 50 13 90 -6 30 -11 35 -39 38 -22 2 -34 -2 -38 -12z"
       id="path74" />
  </g>
</svg>
