<?xml version="1.0" encoding="UTF-8" standalone="no"?>
<svg
   xmlns:dc="http://purl.org/dc/elements/1.1/"
   xmlns:cc="http://creativecommons.org/ns#"
   xmlns:rdf="http://www.w3.org/1999/02/22-rdf-syntax-ns#"
   xmlns:svg="http://www.w3.org/2000/svg"
   xmlns="http://www.w3.org/2000/svg"
   xmlns:sodipodi="http://sodipodi.sourceforge.net/DTD/sodipodi-0.dtd"
   xmlns:inkscape="http://www.inkscape.org/namespaces/inkscape"
   version="1.0"
   width="221.000000pt"
   height="283.000000pt"
   viewBox="0 0 221.000000 283.000000"
   preserveAspectRatio="xMidYMid meet"
   id="svg2"
   inkscape:version="0.91 r13725"
   sodipodi:docname="travelling_salesman_problem_3.svg">
  <defs
     id="defs110" />
  <sodipodi:namedview
     pagecolor="#ffffff"
     bordercolor="#666666"
     borderopacity="1"
     objecttolerance="10"
     gridtolerance="10"
     guidetolerance="10"
     inkscape:pageopacity="0"
     inkscape:pageshadow="2"
     inkscape:window-width="1861"
     inkscape:window-height="1056"
     id="namedview108"
     showgrid="false"
     inkscape:zoom="1.0837264"
     inkscape:cx="45.75"
     inkscape:cy="40"
     inkscape:window-x="59"
     inkscape:window-y="24"
     inkscape:window-maximized="1"
     inkscape:current-layer="svg2" />
  <metadata
     id="metadata4">
Created by potrace 1.13, written by Peter Selinger 2001-2015
<rdf:RDF>
  <cc:Work
     rdf:about="">
    <dc:format>image/svg+xml</dc:format>
    <dc:type
       rdf:resource="http://purl.org/dc/dcmitype/StillImage" />
  </cc:Work>
</rdf:RDF>
</metadata>
  <g
     transform="translate(0.000000,283.000000) scale(0.100000,-0.100000)"
     fill="#000000"
     stroke="none"
     id="g6">
    <path
       d="M30 1415 l0 -1415 1090 0 1090 0 0 1415 0 1415 -1090 0 -1090 0 0 -1415z m2160 385 l0 -1010 -44 0 c-41 0 -45 2 -48 27 -3 27 -5 28 -49 25 -26 -2 -49 1 -53 6 -3 5 11 87 31 182 36 168 36 173 18 186 -11 8 -20 24 -20 37 0 17 -7 23 -31 25 l-30 3 -42 -204 c-23 -112 -42 -213 -42 -225 0 -12 8 -23 20 -27 48 -15 12 -25 -90 -25 -119 0 -133 -7 -110 -49 7 -14 21 -21 40 -21 29 0 30 -1 30 -50 0 -44 -2 -50 -21 -50 -12 0 -30 12 -41 26 -17 20 -26 24 -47 19 -31 -9 -73 -9 -164 -1 -56 5 -75 11 -100 33 -73 64 -117 112 -117 126 0 8 13 41 30 72 20 38 30 71 30 101 0 45 7 53 28 32 6 -6 15 -8 19 -5 4 4 -5 19 -19 34 l-26 26 25 21 c24 21 25 23 10 58 -9 21 -25 39 -39 43 -12 4 -33 18 -45 31 -33 36 -84 33 -117 -7 -14 -17 -26 -35 -26 -41 0 -6 -14 -8 -37 -4 -35 6 -37 5 -19 -9 18 -14 18 -16 2 -33 -26 -29 -56 -126 -56 -179 0 -64 16 -92 70 -121 36 -19 56 -23 98 -19 48 3 65 -4 42 -18 -5 -3 -43 -7 -85 -7 -41 -1 -75 -5 -75 -8 0 -4 18 -15 40 -25 23 -10 39 -24 36 -30 -2 -7 -1 -30 4 -51 l9 -39 -20 25 -21 25 5 -24 c3 -12 1 -34 -5 -47 -9 -19 -7 -29 13 -58 13 -20 32 -37 42 -38 13 -2 27 -23 42 -61 13 -32 38 -76 55 -97 l32 -40 94 0 c89 0 94 -1 94 -21 0 -25 -49 -139 -60 -139 -12 0 -33 -58 -25 -69 10 -18 36 -12 42 8 6 22 52 34 98 25 24 -4 31 -11 31 -27 -1 -30 39 -36 54 -7 9 17 6 25 -22 53 -43 41 -58 76 -58 136 0 48 1 49 43 69 53 25 68 42 61 70 -13 48 -91 68 -219 53 -63 -7 -83 -14 -97 -31 -27 -33 -22 -58 15 -80 l32 -20 -40 0 c-37 0 -43 5 -71 48 -28 43 -54 95 -54 108 0 3 9 2 21 -1 26 -9 59 20 59 52 0 34 13 28 34 -17 24 -49 45 -56 129 -42 34 6 88 13 120 16 l59 5 17 -42 c10 -23 26 -64 36 -90 9 -27 26 -57 37 -67 18 -17 20 -29 17 -122 -4 -99 -3 -103 16 -99 11 2 107 5 212 5 l193 1 0 -47 0 -48 -1070 0 -1070 0 0 1395 0 1395 1070 0 1070 0 0 -1010z m-185 -562 c-10 -43 -26 -123 -45 -233 -28 -158 -30 -165 -46 -165 -19 0 -18 10 11 158 14 70 30 154 37 187 13 71 15 75 34 75 10 0 13 -7 9 -22z m29 -96 c-7 -31 -22 -101 -34 -154 -12 -54 -26 -98 -31 -98 -11 0 -5 41 23 185 25 130 27 135 42 129 11 -4 11 -15 0 -62z m-794 -20 l75 -37 3 -58 c4 -71 -27 -141 -72 -164 -60 -31 -151 0 -177 60 -28 67 29 237 80 237 9 0 50 -17 91 -38z m750 -287 c10 -12 10 -15 -4 -15 -9 0 -16 7 -16 15 0 8 2 15 4 15 2 0 9 -7 16 -15z m90 -25 c0 -16 -7 -20 -37 -20 -21 0 -45 4 -52 9 -15 10 -4 14 59 24 14 3 26 5 28 6 1 0 2 -8 2 -19z m-810 -48 c0 -9 -7 -8 -26 5 -24 15 -25 17 -8 24 19 6 34 -6 34 -29z m172 -103 c12 -1 32 -3 43 -4 11 -1 44 -2 73 -3 28 -1 52 -6 52 -12 0 -5 -6 -10 -14 -10 -9 0 -12 -8 -8 -26 5 -25 5 -25 91 -21 l87 5 0 -84 -1 -84 -32 38 c-18 20 -35 48 -39 62 -3 14 -7 31 -10 38 -5 17 -69 15 -192 -7 -73 -13 -105 -15 -111 -7 -19 25 -51 97 -46 106 3 4 -6 30 -20 56 -41 77 -30 82 39 16 38 -37 74 -63 88 -63z m591 115 c86 -4 157 -10 157 -14 0 -5 -108 -8 -240 -7 -182 1 -240 4 -240 13 0 15 96 17 323 8z m-793 -25 l25 -20 -35 17 c-43 20 -47 24 -29 24 8 0 25 -10 39 -21z m-2 -31 c43 -23 48 -33 66 -123 8 -35 -13 -71 -36 -63 -31 12 -108 208 -82 208 5 0 28 -10 52 -22z m915 13 l37 -1 0 -294 c0 -277 -1 -295 -18 -300 -10 -4 -102 -5 -203 -4 l-184 3 2 205 c1 240 5 383 9 391 3 5 217 5 357 0z m-943 -145 c0 -6 -7 -1 -15 10 -8 10 -14 26 -14 34 0 16 28 -28 29 -44z m-35 14 c8 -16 15 -33 15 -37 -1 -13 -40 41 -40 55 0 20 9 14 25 -18z m595 10 c0 -6 -37 -10 -86 -10 -47 0 -83 3 -81 8 8 11 167 13 167 2z m-122 -163 c35 -35 -35 -68 -151 -70 -81 -2 -137 16 -137 43 0 30 28 43 113 49 95 7 152 0 175 -22z m122 -79 c0 -30 -14 -20 -33 24 l-17 41 25 -23 c14 -13 25 -32 25 -42z m-218 -85 c3 -32 8 -65 12 -73 5 -12 -3 -15 -38 -17 l-44 -1 24 54 c13 30 24 63 24 74 0 11 4 20 9 20 5 0 11 -26 13 -57z m31 -112 c10 -4 -14 -7 -55 -7 -45 -1 -65 2 -53 7 25 10 84 10 108 0z m47 -51 c0 -5 -5 -10 -11 -10 -5 0 -7 5 -4 10 3 6 8 10 11 10 2 0 4 -4 4 -10z"
       id="path8" />
    <path
       d="M396 2537 c-11 -8 -17 -23 -14 -38 3 -21 9 -24 46 -27 34 -3 42 -7 38 -18 -3 -9 -6 -20 -6 -24 0 -5 -9 -14 -21 -20 -17 -9 -23 -8 -35 7 -13 17 -13 17 -14 0 0 -43 73 -27 90 19 14 36 -3 54 -51 54 -22 0 -39 4 -39 9 0 17 30 33 55 29 17 -4 25 -1 25 8 0 18 -50 18 -74 1z"
       id="path10" />
    <path
       d="M956 2529 c-31 -25 -33 -57 -5 -93 25 -32 43 -33 63 -4 22 31 20 48 -6 48 -16 0 -19 -3 -10 -8 17 -11 4 -44 -16 -40 -23 5 -36 32 -28 61 7 30 40 44 61 27 18 -15 20 1 3 18 -17 17 -32 15 -62 -9z"
       id="path12" />
    <path
       d="M1300 2506 c0 -54 -11 -59 -31 -14 -15 35 -39 49 -39 24 0 -14 -4 -13 -29 5 -38 28 -63 22 -74 -18 -12 -41 -2 -80 24 -93 25 -14 46 1 65 45 l13 30 1 -32 c0 -46 20 -41 20 5 l1 37 20 -39 c13 -24 24 -35 30 -29 15 15 23 109 10 117 -7 5 -11 -7 -11 -38z m-98 -4 c9 -9 8 -20 -5 -47 -18 -37 -41 -46 -51 -19 -8 21 -8 69 0 77 10 9 42 3 56 -11z"
       id="path14" />
    <path
       d="M1788 2517 c-27 -32 -37 -31 -51 8 -3 6 -8 7 -12 2 -5 -4 1 -21 13 -37 12 -16 22 -39 22 -52 1 -17 4 -13 14 15 8 21 22 47 31 57 9 10 15 24 14 29 -2 6 -16 -4 -31 -22z"
       id="path16" />
    <path
       d="M610 2477 c0 -35 3 -66 6 -69 3 -4 19 -2 36 3 22 6 34 4 44 -5 11 -11 21 -12 49 -3 35 10 35 11 35 68 0 32 -4 61 -10 64 -6 4 -10 -16 -10 -54 0 -51 -3 -61 -20 -66 -34 -11 -43 3 -35 61 4 36 3 54 -4 54 -6 0 -11 -20 -11 -45 0 -40 -3 -47 -26 -55 -44 -17 -47 -14 -41 50 3 33 1 60 -4 60 -5 0 -9 -28 -9 -63z"
       id="path18" />
    <path
       d="M880 2493 l0 -46 -34 39 c-19 21 -36 37 -39 34 -3 -3 -8 -32 -12 -65 -5 -42 -4 -57 3 -50 6 6 12 30 14 55 l3 45 34 -47 c19 -26 38 -45 42 -42 13 7 11 124 -1 124 -5 0 -10 -21 -10 -47z"
       id="path20" />
    <path
       d="M1415 2530 c-4 -6 -3 -35 1 -66 l7 -56 41 5 c22 2 60 -1 83 -6 35 -9 45 -8 60 5 10 8 23 14 29 11 6 -2 14 5 17 17 7 27 42 26 61 -2 15 -21 16 -21 16 -3 0 11 -5 37 -11 58 -8 29 -15 37 -33 37 -23 0 -30 -10 -50 -73 -5 -16 -7 -16 -25 0 -14 12 -17 21 -10 29 14 17 0 43 -27 50 -38 10 -55 -2 -48 -31 3 -14 3 -36 0 -50 -6 -22 -12 -25 -51 -25 -33 0 -45 4 -45 15 0 8 9 15 20 15 11 0 20 5 20 10 0 6 -9 10 -20 10 -13 0 -20 7 -20 20 0 17 7 20 41 20 24 0 38 4 34 10 -8 13 -82 13 -90 0z m173 -27 c2 -8 -6 -13 -22 -13 -17 0 -26 5 -26 16 0 19 41 16 48 -3z m122 -26 c0 -4 -10 -5 -22 -1 -31 9 -33 11 -17 30 12 14 14 14 26 -2 7 -10 13 -22 13 -27z m-103 -41 c-2 -6 -18 -12 -35 -14 -30 -3 -32 -1 -32 27 l0 31 35 -17 c20 -9 34 -22 32 -27z"
       id="path22" />
    <path
       d="M505 2462 l0 -67 30 3 c47 6 68 24 23 19 -33 -3 -38 0 -38 18 0 13 10 27 23 33 l22 11 -22 0 c-40 2 -28 31 12 31 19 0 35 5 35 10 0 6 -19 10 -42 10 l-43 0 0 -68z"
       id="path24" />
    <path
       d="M1840 2430 c0 -5 5 -10 10 -10 6 0 10 5 10 10 0 6 -4 10 -10 10 -5 0 -10 -4 -10 -10z"
       id="path26" />
    <path
       d="M1300 2341 c0 -6 8 -16 18 -23 52 -37 56 -114 11 -199 -37 -68 -33 -89 5 -32 39 56 58 130 46 172 -13 48 -80 115 -80 82z"
       id="path28" />
    <path
       d="M1068 2323 c-46 -53 -51 -159 -11 -221 37 -57 51 -54 17 4 -23 40 -26 53 -21 106 3 39 13 71 26 89 12 16 21 31 21 34 0 11 -18 4 -32 -12z"
       id="path30" />
    <path
       d="M851 2291 c-34 -34 -39 -142 -9 -178 6 -7 27 -13 47 -13 31 0 40 6 60 37 32 49 39 112 16 147 -14 21 -25 26 -56 26 -25 0 -46 -7 -58 -19z m100 -22 c16 -31 2 -102 -26 -133 -27 -30 -34 -31 -59 -13 -25 18 -31 85 -13 130 14 33 20 37 51 37 26 0 38 -6 47 -21z"
       id="path32" />
    <path
       d="M1190 2199 c0 -37 4 -58 10 -54 6 3 10 31 10 61 0 30 -4 54 -10 54 -6 0 -10 -27 -10 -61z"
       id="path34" />
    <path
       d="M1260 1697 c-21 -11 -25 -20 -24 -55 1 -45 25 -82 54 -82 18 0 50 30 50 48 0 16 -40 26 -53 13 -8 -8 -5 -11 11 -11 12 0 22 -4 22 -9 0 -16 -27 -31 -43 -25 -20 7 -40 65 -31 88 8 22 47 30 73 16 14 -7 21 -7 21 0 0 6 -12 15 -26 20 -30 12 -24 12 -54 -3z"
       id="path36" />
    <path
       d="M186 1684 c-27 -27 -12 -64 25 -64 28 0 41 -24 24 -46 -12 -16 -17 -17 -34 -6 -30 18 -37 15 -16 -8 23 -25 37 -25 59 -1 27 30 17 64 -22 76 -47 14 -39 40 13 39 35 -2 37 0 20 12 -25 18 -50 18 -69 -2z"
       id="path38" />
    <path
       d="M280 1678 c0 -5 5 -8 10 -8 6 0 10 -25 10 -55 0 -30 5 -55 10 -55 6 0 10 24 10 54 0 49 2 55 23 58 13 3 6 6 -20 9 -24 2 -43 1 -43 -3z"
       id="path40" />
    <path
       d="M1198 1638 l-3 -53 -24 50 c-20 43 -24 47 -31 30 -12 -29 -12 -107 0 -100 6 3 10 23 11 43 l1 37 15 -35 c23 -54 36 -66 44 -43 11 27 10 123 0 123 -6 0 -11 -24 -13 -52z"
       id="path42" />
    <path
       d="M366 1629 c-4 -32 -3 -56 3 -62 8 -8 11 3 11 35 0 26 3 53 6 62 3 9 2 16 -4 16 -5 0 -12 -23 -16 -51z"
       id="path44" />
    <path
       d="M425 1625 c-4 -31 -6 -57 -4 -59 10 -10 159 -15 159 -6 0 6 -15 10 -33 10 l-34 0 5 55 c2 30 1 55 -4 55 -5 0 -10 -21 -11 -47 -2 -49 -15 -65 -48 -61 -18 3 -20 9 -17 56 5 69 -5 67 -13 -3z"
       id="path46" />
    <path
       d="M654 1617 c4 -78 12 -91 33 -59 14 20 17 21 28 6 6 -10 17 -14 23 -10 16 10 35 107 22 120 -7 7 -10 0 -10 -21 0 -18 -5 -44 -10 -59 -10 -26 -11 -26 -25 -8 -15 19 -15 19 -27 -1 -11 -18 -13 -13 -25 40 l-12 60 3 -68z"
       id="path48" />
    <path
       d="m 796,1658 c -9,-12 -16,-36 -16,-53 0,-52 36,-71 72,-38 17,15 18,15 18,0 0,-10 4,-17 9,-17 6,0 11,24 13,53 3,46 5,52 26,52 29,0 33,-19 5,-23 -31,-5 -30,-35 2,-56 34,-22 45,-19 16,5 l -24,20 21,15 c 27,19 28,40 3,54 -30,16 -61,12 -61,-7 0,-13 -3,-14 -12,-5 -7,7 -31.5,15.5 -36.5,15.5 -6,0 -9.32898,-9.8205 0.5,-11 50,-6 39,-64.5 10.5,-87 -43.28968,-34.1761 -71.5,23.5 -36.5,72.5 9,13 27,20.5 24,22.5 -3,3 -25,0.5 -34,-12.5 z"
       id="path50"
       inkscape:connector-curvature="0"
       sodipodi:nodetypes="cscsscsccccccsssssccc" />
    <path
       d="m 970,1626 c 0,-30 4.5,-61 9.5,-64 6,-4 9.74142,5.0022 10,20 l 0.5,29 38,-31.5 c 35,-25 39,-16 9,16 l -29,32.5 26,17 c 14,10 26,22 26,27 0,5 -16,-3 -35,-18 -33,-25 -35,-25 -35,-6 0,12 -4,24 -10,27 -6,4 -10,-15 -10,-49 z"
       id="path52"
       inkscape:connector-curvature="0"
       sodipodi:nodetypes="scscccccscscs" />
    <path
       d="M1086 1648 c-5 -21 -5 -50 0 -65 l8 -28 4 33 c2 17 2 47 0 65 l-4 32 -8 -37z"
       id="path54" />
    <path
       d="M917 1483 c-12 -11 -8 -123 4 -123 8 0 10 18 7 55 -4 52 -3 55 18 55 13 0 26 -5 30 -11 7 -12 -15 -31 -28 -23 -22 14 -4 -27 27 -60 20 -22 35 -32 35 -24 0 8 -11 25 -25 38 l-24 23 22 18 22 19 -24 20 c-23 20 -52 26 -64 13z"
       id="path56" />
    <path
       d="M1344 1483 c-18 -3 -22 -14 -28 -70 -4 -36 -5 -67 -3 -69 2 -2 23 0 48 5 l44 9 -37 1 c-32 1 -38 5 -38 22 0 12 8 23 20 26 11 3 20 10 20 15 0 6 -7 8 -15 4 -11 -4 -15 1 -15 19 0 22 4 25 36 25 21 0 33 4 29 10 -6 10 -22 11 -61 3z"
       id="path58" />
    <path
       d="M1434 1479 c-4 -8 3 -9 25 -4 38 8 42 -10 6 -27 -28 -13 -31 -48 -5 -56 13 -5 13 -3 1 11 -11 14 -10 18 12 28 27 12 41 34 31 50 -8 13 -61 11 -70 -2z"
       id="path60" />
    <path
       d="M165 1456 c-10 -15 -15 -40 -13 -68 3 -37 6 -43 28 -46 19 -2 30 4 43 27 26 45 22 78 -13 96 -28 15 -30 14 -45 -9z m55 -38 c0 -55 -39 -92 -54 -52 -17 44 3 95 34 87 14 -4 20 -14 20 -35z"
       id="path62" />
    <path
       d="M470 1453 c-12 -16 -23 -23 -26 -18 -12 26 -24 39 -30 32 -5 -4 0 -21 9 -36 9 -16 17 -41 17 -56 0 -15 4 -24 10 -20 6 3 10 16 10 28 0 12 11 39 25 60 30 43 17 51 -15 10z"
       id="path64" />
    <path
       d="M717 1473 c-10 -9 -7 -84 3 -108 6 -14 9 -1 9 43 1 63 1 63 28 60 35 -4 40 -24 8 -32 -34 -9 -31 -26 11 -59 46 -37 56 -27 13 12 -18 17 -28 31 -22 31 19 0 43 29 37 45 -6 15 -74 22 -87 8z"
       id="path66" />
    <path
       d="M1030 1459 c-6 -11 -10 -37 -8 -57 4 -47 36 -56 65 -18 l20 24 17 -29 c23 -40 52 -38 73 5 16 34 12 86 -7 86 -6 0 -5 -9 1 -24 14 -29 -13 -89 -35 -80 -20 8 -39 59 -31 83 4 12 2 21 -4 21 -6 0 -11 -7 -11 -17 0 -14 -2 -15 -17 -1 -31 26 -52 29 -63 7z m52 -54 c-7 -15 -20 -25 -32 -25 -18 0 -21 5 -18 33 2 19 8 31 16 30 6 -2 12 2 12 9 0 8 6 6 17 -4 14 -14 15 -22 5 -43z"
       id="path68" />
    <path
       d="M1243 1473 c-33 -4 -47 -23 -17 -23 12 0 15 -9 13 -40 -2 -21 0 -42 4 -46 4 -4 7 14 7 39 0 43 3 48 33 61 33 15 24 17 -40 9z"
       id="path70" />
    <path
       d="M260 1436 c0 -18 -3 -48 -6 -65 -4 -20 -3 -31 5 -31 6 0 11 17 11 40 0 22 4 40 8 40 5 0 16 -18 25 -40 26 -66 35 -55 51 58 2 12 0 22 -4 22 -4 0 -11 -21 -15 -47 l-8 -48 -23 53 c-27 60 -44 67 -44 18z"
       id="path72" />
    <path
       d="M511 1450 c-20 -39 -21 -68 -2 -91 19 -23 21 -23 48 -9 22 12 29 24 31 54 2 20 -2 44 -8 51 -15 19 -59 15 -69 -5z m50 -14 c15 9 22 -26 10 -52 -15 -33 -54 -30 -59 4 -4 24 30 72 36 53 2 -6 8 -9 13 -5z"
       id="path74" />
    <path
       d="M610 1416 c0 -60 19 -88 48 -69 27 16 44 60 37 93 -9 43 -24 37 -18 -7 6 -46 -15 -80 -42 -69 -14 5 -17 15 -13 56 3 28 1 50 -3 50 -5 0 -9 -24 -9 -54z"
       id="path76" />
    <path
       d="M1460 1360 c0 -5 5 -10 11 -10 5 0 7 5 4 10 -3 6 -8 10 -11 10 -2 0 -4 -4 -4 -10z"
       id="path78" />
    <path
       d="M760 1262 c0 -19 61 -102 94 -127 50 -38 56 -26 6 14 -22 17 -51 52 -66 76 -25 44 -34 53 -34 37z"
       id="path80" />
    <path
       d="M212 829 c66 -9 122 -42 166 -95 17 -21 34 -35 38 -31 11 11 -48 73 -101 106 -42 25 -61 31 -105 30 l-55 -1 57 -9z"
       id="path82" />
    <path
       d="M216 607 c-11 -8 -17 -22 -14 -38 2 -19 9 -24 32 -24 37 0 43 -16 15 -41 -20 -18 -21 -18 -35 1 -8 10 -14 14 -14 8 0 -6 7 -16 15 -23 13 -11 20 -11 40 0 45 24 23 85 -26 73 -20 -6 -24 4 -10 26 5 8 18 12 31 8 14 -3 20 -1 17 6 -6 18 -30 19 -51 4z"
       id="path84" />
    <path
       d="M358 583 c-4 -35 -48 -48 -48 -14 0 11 -4 23 -10 26 -6 4 -10 -13 -10 -44 0 -28 5 -51 10 -51 6 0 10 9 10 21 0 15 5 20 23 17 14 -2 21 -9 19 -20 -1 -9 2 -19 8 -23 6 -4 10 16 10 54 0 63 -6 81 -12 34z"
       id="path86" />
    <path
       d="m 615,600 c -19,-8 -19,-9 4,-9 23,-1 23,-3 18,-51 -4,-29 -2,-50 3,-50 6,0 10,15 10,34 0,50 9,66 36,66 21,0 24,-37 25,-74 1,-24 3,-35 6,-25 3,10 14,49 27,49 18,0 25,-7 30,-30 10,-51 21,-33 22,38 1,57 -1,63 -9,40 -13,-34 -57,-40 -57,-8 0,13 -7,20 -19,20 -10,0 -31,2 -47,5 -16,2 -38,0 -49,-5 z"
       id="path88"
       inkscape:connector-curvature="0"
       sodipodi:nodetypes="cccssscsscccsscc" />
    <path
       d="M815 572 c-12 -72 26 -114 75 -82 11 7 5 10 -22 10 -41 0 -52 21 -20 39 16 10 16 10 0 11 -30 0 -22 39 10 46 47 10 48 12 5 13 -40 1 -41 0 -48 -37z"
       id="path90" />
    <path
       d="M394 586 c-3 -7 -4 -33 -2 -57 2 -36 7 -45 25 -47 16 -2 26 5 37 27 18 33 21 91 6 91 -5 0 -7 -13 -4 -28 4 -19 0 -35 -14 -51 -28 -36 -46 -19 -38 35 5 43 1 58 -10 30z"
       id="path92" />
    <path
       d="M480 590 c0 -5 5 -10 11 -10 7 0 8 -14 4 -39 -4 -24 -2 -42 4 -46 7 -4 11 5 11 24 0 42 9 61 31 61 10 0 19 5 19 10 0 6 -18 10 -40 10 -22 0 -40 -4 -40 -10z"
       id="path94" />
    <path
       d="m 312,401 c -9,-5 -12,-25 -10,-62 3,-51 4,-54 28,-51 63,6 76,6 98,-1 13,-5 22,-4 22,1 0,5 -9,12 -21,15 -35.96441,1.08514 -25.21982,23.39009 -14,64 9,50 -10,46 -19,-5 -5,-28 -12,-51 -37,-56 -45,-9 -49,-8 -49,10 0,9 9,18 20,21 11,3 20,10 20,15 0,6 -7,8 -15,4 -10,-4 -15,1 -15,14 0,19 15,25 48,21 6,-1 12,3 12,9 0,12 -49,13 -68,1 z"
       id="path96"
       inkscape:connector-curvature="0"
       sodipodi:nodetypes="ccccscccsssscscsc" />
    <path
       d="M191 360 c-1 -25 -4 -56 -8 -69 -4 -17 -3 -22 5 -17 7 4 12 21 12 38 0 27 3 30 23 24 12 -3 25 -6 30 -6 4 0 7 -9 7 -19 0 -11 3 -22 8 -24 4 -3 8 22 9 54 2 37 -1 58 -7 54 -6 -3 -10 -15 -10 -26 0 -32 -52 -22 -61 11 -6 20 -7 15 -8 -20z"
       id="path98" />
    <path
       d="M596 367 c-16 -72 33 -118 69 -64 20 32 30 83 16 91 -7 5 -11 -2 -11 -19 0 -34 -28 -87 -43 -82 -7 2 -14 28 -17 58 l-6 54 -8 -38z"
       id="path100" />
    <path
       d="M707 393 c-12 -20 -18 -113 -8 -113 6 0 11 11 11 25 0 27 30 45 76 45 32 0 31 28 -2 40 -30 12 -71 13 -77 3z m69 -13 c26 0 5 -18 -26 -22 -19 -3 -30 0 -30 7 0 17 12 26 28 20 7 -3 20 -5 28 -5z"
       id="path102" />
    <path
       d="M462 338 c3 -48 5 -53 28 -56 l25 -3 -23 16 c-20 15 -22 23 -17 56 5 26 3 39 -5 39 -7 0 -10 -18 -8 -52z"
       id="path104" />
    <path
       d="M770 290 c0 -5 5 -10 11 -10 5 0 7 5 4 10 -3 6 -8 10 -11 10 -2 0 -4 -4 -4 -10z"
       id="path106" />
  </g>
</svg>
