<?xml version="1.0" standalone="no"?>
<!DOCTYPE svg PUBLIC "-//W3C//DTD SVG 20010904//EN"
 "http://www.w3.org/TR/2001/REC-SVG-20010904/DTD/svg10.dtd">
<svg version="1.0" xmlns="http://www.w3.org/2000/svg"
 width="197.000000pt" height="283.000000pt" viewBox="0 0 197.000000 283.000000"
 preserveAspectRatio="xMidYMid meet">
<metadata>
Created by potrace 1.13, written by Peter Selinger 2001-2015
</metadata>
<g transform="translate(0.000000,283.000000) scale(0.100000,-0.100000)"
fill="#000000" stroke="none">
<path d="M0 1415 l0 -1415 970 0 970 0 0 1415 0 1415 -970 0 -970 0 0 -1415z
m1920 730 l0 -664 -170 0 c-96 0 -172 4 -175 9 -11 18 -43 10 -48 -11 -4 -14
-11 -20 -21 -16 -9 4 -95 20 -193 37 -97 17 -180 33 -184 35 -3 2 -91 18 -195
35 -134 23 -220 31 -294 31 -58 -1 -142 2 -187 5 -67 5 -82 9 -86 24 -8 31
-69 22 -85 -12 -15 -32 -2 -68 24 -68 13 0 15 -8 12 -37 -7 -53 20 -354 37
-419 8 -32 12 -74 8 -102 -4 -37 -2 -51 11 -61 9 -7 16 -18 16 -23 0 -12 77
-213 102 -268 12 -25 20 -55 19 -67 -1 -12 8 -32 20 -44 22 -22 22 -22 38 -2
13 15 22 18 46 11 43 -11 171 -28 234 -30 40 -1 60 -7 75 -22 11 -11 32 -21
47 -22 15 -1 40 -9 56 -18 40 -23 266 -123 343 -153 36 -14 92 -32 125 -40 37
-8 66 -22 76 -35 20 -25 45 -19 58 15 5 12 37 42 71 66 51 36 72 44 118 48
107 8 102 16 102 -167 l0 -160 -950 0 -950 0 0 1395 0 1395 950 0 950 0 0
-665z m-1571 -529 c9 -10 7 -19 -8 -37 -18 -22 -21 -23 -36 -8 -14 13 -15 21
-6 38 13 24 33 27 50 7z m541 -52 c91 -14 208 -33 260 -44 108 -21 247 -47
303 -55 41 -7 51 -25 12 -25 -13 0 -48 -9 -77 -19 -29 -11 -78 -25 -108 -31
-30 -7 -80 -23 -110 -35 -53 -22 -284 -96 -305 -97 -5 -1 -56 28 -112 63 -56
35 -148 91 -205 123 -116 67 -188 123 -182 140 8 21 335 8 524 -20z m-470 -60
c14 -12 79 -53 145 -91 66 -39 155 -92 197 -119 l78 -50 -88 -39 c-48 -21
-123 -58 -168 -82 -45 -23 -85 -43 -91 -43 -10 0 -31 69 -86 291 -20 80 -39
154 -43 165 -7 17 -6 18 12 5 10 -8 30 -25 44 -37z m-20 -169 c22 -94 48 -192
57 -219 l15 -48 -28 -24 c-31 -25 -49 -30 -58 -15 -24 37 -67 449 -52 488 12
29 20 5 66 -182z m1170 115 c0 -25 -18 -36 -26 -16 -8 21 3 49 16 41 5 -3 10
-15 10 -25z m348 11 c1 -1 2 -32 2 -71 0 -68 -1 -70 -27 -76 -16 -3 -50 -12
-76 -19 l-48 -13 -58 51 c-32 29 -74 60 -92 70 -33 18 -33 18 -11 0 96 -75
142 -116 137 -121 -3 -3 -30 -13 -59 -22 l-53 -17 -25 82 c-14 45 -24 94 -21
108 5 24 10 26 67 30 46 3 249 1 264 -2z m-463 -99 c-38 -37 -110 -113 -158
-170 -77 -89 -92 -101 -113 -96 -14 4 -31 1 -39 -6 -13 -11 -27 -6 -83 32 -37
24 -91 60 -119 79 -29 18 -53 37 -53 41 0 6 157 58 177 58 5 0 38 12 74 26 35
14 105 36 154 49 50 14 110 31 135 39 25 8 56 15 70 15 22 0 17 -7 -45 -67z
m132 -22 c27 -81 28 -106 6 -113 -14 -4 -273 -111 -352 -144 -23 -10 2 26 79
112 124 139 203 214 225 212 15 -2 25 -18 42 -67z m333 -95 c0 -30 -2 -55 -5
-55 -2 0 -32 18 -66 40 -36 23 -56 41 -48 44 8 2 28 9 44 14 17 6 40 11 53 11
20 1 22 -3 22 -54z m-75 -26 c41 -28 75 -57 75 -64 0 -13 -69 -27 -196 -40
l-61 -7 -7 39 c-4 21 -10 48 -13 60 -4 19 2 24 59 41 34 11 64 21 65 21 1 1
36 -22 78 -50z m-916 -31 c36 -23 95 -62 130 -87 80 -56 75 -59 -130 -62 -96
-1 -192 -9 -254 -20 -165 -30 -168 -29 -176 8 -6 31 -5 33 65 69 82 44 277
133 290 134 5 0 39 -19 75 -42z m707 -24 l11 -52 -71 -11 c-125 -19 -319 -41
-324 -36 -3 2 6 9 19 14 140 54 306 124 314 132 21 21 40 3 51 -47z m177 -99
c-59 -31 -112 -57 -118 -58 -11 -2 -32 70 -22 79 6 6 168 30 220 33 21 1 -3
-15 -80 -54z m87 -23 c-24 -39 -85 -175 -128 -282 l-26 -65 -22 120 c-35 182
-38 163 31 201 99 54 160 81 163 72 2 -4 -6 -25 -18 -46z m-241 -3 c7 -27 12
-52 10 -53 -2 -2 -40 -24 -84 -48 -44 -25 -115 -66 -158 -93 -42 -26 -79 -46
-81 -44 -2 2 -34 53 -70 113 -41 65 -64 112 -58 118 5 5 87 18 183 29 96 11
179 21 184 23 6 3 22 5 36 5 22 1 27 -5 38 -50z m-464 11 c0 -29 -32 -41 -41
-16 -9 24 4 48 23 44 12 -2 18 -12 18 -28z m-712 -32 c7 -26 8 -24 -21 -32
-30 -10 -43 21 -17 40 26 19 32 18 38 -8z m647 10 c-1 -7 -55 -56 -121 -108
-67 -52 -146 -117 -178 -144 -87 -75 -92 -76 -143 -26 -23 23 -71 64 -105 92
-51 42 -63 57 -68 90 -4 22 -5 41 -3 43 2 2 44 11 93 20 50 9 101 19 115 22
14 2 106 7 205 10 99 3 182 7 184 9 9 8 21 3 21 -8z m766 -143 c-14 -57 -26
-115 -26 -127 0 -13 -7 -48 -16 -78 -8 -30 -25 -101 -36 -157 -21 -106 -32
-121 -41 -56 -2 21 -10 73 -17 115 -12 75 -12 77 18 150 54 130 100 236 119
270 16 30 18 31 21 10 2 -12 -8 -69 -22 -127z m-628 20 c34 -58 62 -109 62
-113 0 -4 -9 -13 -20 -20 -18 -11 -21 -9 -33 20 -8 18 -27 62 -42 98 -33 78
-46 120 -37 120 4 0 35 -48 70 -105z m-853 65 c0 -36 -29 -33 -33 3 -3 23 0
28 15 25 12 -2 18 -12 18 -28z m709 -7 c-41 -96 -64 -153 -64 -163 0 -6 -15
-43 -33 -83 -19 -40 -42 -93 -51 -119 -11 -27 -26 -48 -37 -51 -10 -3 -19 -1
-19 3 0 5 -36 37 -80 72 -44 35 -80 65 -80 68 0 9 365 310 376 310 2 0 -3 -17
-12 -37z m65 0 c7 -21 19 -51 26 -68 43 -99 55 -129 55 -139 -1 -6 -47 -40
-103 -76 -56 -36 -118 -80 -139 -99 -21 -19 -41 -31 -44 -28 -3 3 5 31 19 64
40 95 64 154 90 223 42 109 66 160 75 160 4 0 14 -17 21 -37z m-699 8 c0 -5 3
-23 6 -40 l7 -32 -37 22 c-42 24 -45 36 -13 49 29 12 37 12 37 1z m1220 -173
l23 -137 -59 -125 c-32 -69 -62 -125 -65 -126 -3 0 -43 59 -90 132 -46 72
-101 152 -121 177 -21 25 -38 51 -38 57 0 11 129 93 245 155 60 32 71 35 76
20 3 -9 16 -78 29 -153z m-1199 45 c26 -157 37 -229 33 -232 -7 -7 -32 20 -42
47 -6 15 -29 76 -52 136 -50 130 -48 149 13 113 35 -21 43 -32 48 -64z m1409
-181 l0 -217 -49 -18 c-27 -9 -51 -17 -54 -17 -6 0 14 104 46 240 14 58 28
127 32 154 7 50 14 76 21 76 2 0 4 -98 4 -218z m-1275 105 c77 -73 79 -76 60
-90 -94 -70 -133 -95 -139 -90 -3 4 -6 27 -6 52 0 25 -7 77 -15 116 -20 94
-20 108 3 96 9 -5 53 -43 97 -84z m727 -35 c74 -99 197 -291 200 -310 3 -14
-5 -17 -42 -16 -26 1 -47 7 -52 15 -5 8 -25 41 -44 74 -48 81 -93 162 -117
209 -18 38 -19 40 -1 53 24 18 25 17 56 -25z m-56 -59 c15 -32 49 -95 76 -140
27 -45 51 -89 54 -96 6 -18 10 -18 -248 31 -163 30 -198 40 -198 54 0 15 89
98 105 98 4 0 19 9 33 20 54 41 127 89 138 89 7 1 24 -25 40 -56z m-512 -42
c33 -27 74 -63 90 -80 l30 -31 -65 0 c-60 0 -217 22 -261 36 -16 5 -5 16 59
65 43 32 80 59 82 59 2 0 31 -22 65 -49z m951 -102 c8 -46 15 -96 15 -111 0
-28 0 -28 -70 -28 -39 0 -70 4 -70 10 0 12 103 220 107 216 2 -1 10 -40 18
-87z m-1197 26 c3 -25 2 -27 -12 -16 -19 16 -22 55 -3 49 6 -3 14 -17 15 -33z
m422 -37 c0 -22 -17 -41 -29 -34 -19 12 -13 46 9 46 11 0 20 -6 20 -12z m175
-58 c28 -6 61 -13 75 -15 14 -2 71 -12 127 -22 l101 -18 34 -47 c18 -25 44
-61 57 -79 20 -26 21 -31 8 -26 -10 4 -43 13 -75 22 -68 17 -138 45 -287 112
-60 28 -119 53 -130 57 -11 3 -30 14 -43 24 -23 18 -23 18 30 11 29 -4 76 -13
103 -19z m765 -55 c0 -8 -14 -17 -34 -21 -52 -9 -66 1 -26 19 45 20 60 20 60
2z m-347 -41 c20 -17 27 -31 27 -58 0 -20 -4 -36 -9 -36 -10 0 -101 110 -101
121 0 12 57 -6 83 -27z m37 15 c0 -5 -7 -9 -15 -9 -15 0 -20 12 -9 23 8 8 24
-1 24 -14z m198 -1 c-6 -18 -28 -21 -28 -4 0 9 7 16 16 16 9 0 14 -5 12 -12z
m-48 -7 c0 -9 -45 -49 -88 -80 -46 -31 -64 -22 -60 31 3 39 6 43 33 48 47 8
115 8 115 1z m157 -7 c-3 -3 -12 -4 -19 -1 -8 3 -5 6 6 6 11 1 17 -2 13 -5z
m-307 -130 c0 -8 -4 -14 -10 -14 -5 0 -10 9 -10 21 0 11 5 17 10 14 6 -3 10
-13 10 -21z"/>
<path d="M359 2643 c-4 -43 5 -139 14 -145 16 -10 59 1 73 18 6 8 14 11 17 7
4 -3 7 3 7 15 0 27 10 28 44 1 31 -24 35 -11 5 17 -20 18 -20 18 0 26 11 4 25
16 30 27 9 17 8 22 -9 31 -12 6 -35 10 -53 8 -30 -3 -32 -6 -35 -45 -3 -35 -6
-41 -17 -30 -9 9 -10 17 -3 31 8 15 6 22 -8 33 -19 14 -63 18 -65 6z m55 -22
c8 -12 -21 -34 -34 -26 -17 11 -11 35 9 35 11 0 22 -4 25 -9z m126 -1 c0 -12
-33 -30 -54 -30 -9 0 -16 9 -16 20 0 16 7 20 35 20 19 0 35 -4 35 -10z m-115
-81 c0 -19 -5 -24 -24 -24 -19 0 -25 6 -26 25 -3 35 2 40 28 31 14 -5 22 -17
22 -32z"/>
<path d="M1025 2642 c-5 -4 -11 -38 -12 -76 -3 -66 11 -84 19 -26 2 17 10 26
26 28 27 4 19 22 -9 22 -14 0 -19 6 -17 18 2 12 14 18 41 20 20 2 37 7 37 13
0 11 -70 12 -85 1z"/>
<path d="M1135 2633 c-27 -26 -35 -58 -24 -96 17 -61 56 -59 88 5 20 41 19 60
-7 91 -19 21 -36 22 -57 0z m46 -13 c26 -15 24 -53 -6 -87 -24 -27 -25 -28
-40 -9 -19 25 -19 56 1 84 17 25 19 26 45 12z"/>
<path d="M1340 2618 c-11 -18 -20 -44 -20 -58 0 -22 -1 -23 -16 -8 -16 15 -16
18 0 33 9 9 16 20 16 24 0 18 -27 31 -63 31 -32 0 -38 -3 -33 -16 3 -9 6 -41
6 -71 0 -57 8 -69 12 -20 1 15 4 27 6 27 13 0 62 -33 62 -41 0 -6 6 -9 14 -6
8 3 20 -1 27 -9 15 -19 61 -14 66 6 4 13 3 13 -6 0 -9 -13 -14 -13 -38 0 -53
29 -34 131 21 114 18 -6 19 -5 7 10 -20 24 -39 19 -61 -16z m-51 3 c12 -8 12
-12 2 -25 -17 -20 -37 -20 -45 0 -11 30 13 44 43 25z"/>
<path d="M566 2618 c-20 -70 44 -152 82 -105 14 18 24 74 17 97 -11 35 -20 22
-20 -29 0 -59 -13 -77 -40 -57 -13 9 -21 31 -25 67 -6 48 -7 51 -14 27z"/>
<path d="M680 2630 c0 -5 8 -10 18 -10 16 0 18 -7 14 -56 -3 -41 -2 -55 7 -50
6 4 11 29 11 57 0 48 0 49 33 50 30 1 31 1 7 9 -36 12 -90 12 -90 0z"/>
<path d="M806 2609 c-3 -17 -6 -47 -6 -65 0 -34 1 -34 44 -34 25 0 48 5 51 10
4 6 -12 10 -40 10 -39 0 -46 3 -43 17 2 10 16 21 33 24 l30 7 -27 1 c-21 1
-28 6 -28 21 0 17 7 20 40 20 22 0 40 5 40 10 0 6 -20 10 -44 10 -41 0 -44 -2
-50 -31z"/>
<path d="M1430 2578 c0 -69 7 -78 58 -75 53 3 55 17 2 17 -36 0 -40 3 -40 25
0 20 5 25 25 25 14 0 25 5 25 11 0 7 -10 9 -25 7 -20 -4 -25 -1 -25 14 0 16 5
19 24 14 13 -3 35 -2 48 3 18 8 12 10 -34 10 l-58 1 0 -52z"/>
<path d="M935 2590 c-8 -12 25 -21 42 -11 12 6 10 9 -11 13 -15 3 -29 2 -31
-2z"/>
<path d="M439 2409 c-26 -26 -11 -49 32 -49 34 0 43 -13 29 -40 -13 -24 -42
-26 -60 -5 -7 9 -15 13 -18 10 -10 -10 32 -45 54 -45 42 0 61 70 25 90 -11 5
-29 10 -40 10 -14 0 -19 5 -15 15 4 10 20 15 46 15 23 0 37 4 33 10 -11 17
-64 11 -86 -11z"/>
<path d="M798 2389 c-15 -95 21 -135 76 -84 23 21 27 33 24 60 -3 27 0 35 16
39 32 8 39 -4 33 -60 -3 -31 -2 -54 4 -54 5 0 9 28 9 61 l0 61 44 -6 c24 -4
47 -3 50 2 7 12 -86 23 -127 15 -38 -7 -47 -18 -47 -60 0 -35 -24 -66 -49 -61
-12 2 -17 19 -21 68 l-5 65 -7 -46z"/>
<path d="M1136 2414 c-38 -38 -32 -110 11 -120 50 -13 91 64 63 117 -13 23
-53 25 -74 3z m59 -18 c15 -22 15 -27 0 -55 -18 -35 -64 -45 -66 -13 -3 37 4
56 24 73 27 23 24 23 42 -5z"/>
<path d="M1246 2418 c-10 -31 -14 -128 -5 -128 5 0 9 17 10 38 0 20 4 46 8 56
6 16 12 12 39 -29 17 -26 33 -52 35 -58 8 -23 20 4 28 61 5 34 4 61 -2 67 -5
5 -9 -2 -10 -20 -1 -17 -4 -41 -8 -55 -6 -23 -8 -22 -41 28 -34 52 -47 62 -54
40z"/>
<path d="M544 2385 c-7 -19 -14 -40 -14 -47 0 -25 31 -58 54 -58 51 0 76 95
34 124 -36 25 -57 20 -74 -19z m66 5 c17 0 19 -32 5 -66 -14 -35 -32 -43 -53
-22 -26 26 -5 105 25 94 8 -3 18 -6 23 -6z"/>
<path d="M652 2358 l3 -63 55 3 c30 2 60 8 65 14 7 7 -9 9 -50 6 l-60 -3 3 53
c2 33 -1 52 -8 52 -7 0 -10 -21 -8 -62z"/>
<path d="M1056 2353 c-3 -27 -2 -51 4 -57 7 -7 10 4 10 31 0 23 3 48 6 57 3 9
2 16 -4 16 -5 0 -12 -21 -16 -47z"/>
<path d="M1390 2380 c0 -5 5 -10 11 -10 5 0 7 5 4 10 -3 6 -8 10 -11 10 -2 0
-4 -4 -4 -10z"/>
<path d="M1390 2330 c0 -5 5 -10 11 -10 5 0 7 5 4 10 -3 6 -8 10 -11 10 -2 0
-4 -4 -4 -10z"/>
<path d="M805 2116 c-31 -74 -4 -226 40 -226 11 0 8 9 -10 36 -29 43 -34 123
-11 179 9 21 11 37 5 41 -5 3 -16 -10 -24 -30z"/>
<path d="M1190 2135 c0 -3 9 -18 21 -34 29 -39 37 -136 15 -179 -19 -36 -20
-42 -6 -42 6 0 18 15 26 34 21 43 12 148 -16 194 -17 28 -40 43 -40 27z"/>
<path d="M597 2114 c-32 -17 -67 -89 -67 -135 0 -73 99 -106 142 -48 54 72 33
200 -31 199 -9 -1 -29 -8 -44 -16z m68 -24 c35 -39 15 -149 -31 -167 -23 -9
-63 6 -74 27 -16 31 7 105 42 135 36 30 40 31 63 5z"/>
<path d="M1100 2051 c0 -34 4 -61 10 -61 6 0 10 24 10 54 0 30 -4 58 -10 61
-6 4 -10 -17 -10 -54z"/>
<path d="M922 2067 c-18 -19 -22 -36 -22 -86 0 -39 4 -60 10 -56 6 3 10 25 10
48 0 59 19 93 50 88 34 -4 40 -17 40 -84 0 -36 4 -56 10 -52 6 3 10 32 10 64
0 63 -13 83 -61 94 -19 5 -31 1 -47 -16z"/>
<path d="M1103 1939 c-14 -14 -6 -39 12 -39 15 0 28 27 19 41 -7 12 -18 11
-31 -2z"/>
</g>
</svg>
