<?xml version="1.0" standalone="no"?>
<!DOCTYPE svg PUBLIC "-//W3C//DTD SVG 20010904//EN"
 "http://www.w3.org/TR/2001/REC-SVG-20010904/DTD/svg10.dtd">
<svg version="1.0" xmlns="http://www.w3.org/2000/svg"
 width="191.000000pt" height="278.000000pt" viewBox="0 0 191.000000 278.000000"
 preserveAspectRatio="xMidYMid meet">
<metadata>
Created by potrace 1.13, written by Peter Selinger 2001-2015
</metadata>
<g transform="translate(0.000000,278.000000) scale(0.100000,-0.100000)"
fill="#000000" stroke="none">
<path d="M20 1390 l0 -1390 945 0 945 0 0 1390 0 1390 -945 0 -945 0 0 -1390z
m1870 0 l0 -1370 -925 0 -925 0 0 1370 0 1370 925 0 925 0 0 -1370z"/>
<path d="M978 2680 c-1 -5 -32 -10 -67 -12 -61 -2 -64 -4 -77 -33 l-13 -30 -1
33 c0 17 -4 32 -10 32 -5 0 -10 -11 -10 -25 0 -20 -5 -25 -25 -25 -14 0 -25 5
-25 11 0 5 -4 7 -10 4 -5 -3 -10 -22 -10 -41 0 -19 5 -34 10 -34 6 0 10 9 10
19 0 17 18 31 41 31 5 0 8 -12 7 -27 -2 -19 2 -28 15 -31 10 -2 17 3 17 12 0
18 29 48 39 41 5 -2 6 -16 3 -30 -2 -15 0 -25 7 -25 7 0 11 20 11 50 0 28 4
50 9 50 6 0 7 -16 4 -35 -3 -19 -2 -42 3 -52 6 -13 10 -3 14 37 6 67 30 79 56
29 15 -30 15 -33 0 -44 -20 -15 -21 -25 -1 -25 19 0 38 36 30 60 -4 12 1 23
12 30 15 10 14 10 -9 6 -22 -5 -25 -3 -21 14 5 20 -2 29 -9 10z m-108 -50 c0
-5 -4 -10 -10 -10 -5 0 -10 5 -10 10 0 6 5 10 10 10 6 0 10 -4 10 -10z m-53
-52 c-3 -8 -6 -5 -6 6 -1 11 2 17 5 13 3 -3 4 -12 1 -19z"/>
<path d="M180 2673 c-41 -5 -66 -23 -32 -23 19 0 22 -5 22 -40 0 -27 -6 -42
-17 -49 -15 -9 -12 -10 17 -11 19 0 42 5 50 10 12 8 9 10 -12 10 -26 0 -28 2
-25 43 2 35 6 43 25 45 12 2 22 8 22 13 0 5 -3 8 -7 7 -5 0 -24 -3 -43 -5z"/>
<path d="M330 2665 c-18 -21 -8 -50 19 -53 l23 -4 -23 -24 c-26 -28 -39 -31
-39 -9 0 8 -4 15 -10 15 -15 0 -12 -40 4 -46 8 -3 24 -1 35 5 14 8 22 8 26 0
4 -6 17 4 31 25 31 46 56 49 44 6 -5 -18 -5 -32 1 -35 5 -4 9 -2 9 3 0 16 38
21 44 6 12 -32 126 36 126 76 0 24 -21 40 -52 40 -23 0 -30 -7 -47 -45 -11
-25 -22 -45 -26 -45 -3 0 2 14 10 31 9 17 15 38 13 47 -2 11 -14 -4 -31 -38
-18 -36 -25 -45 -20 -25 12 58 9 80 -12 83 -13 2 -26 -7 -37 -26 -14 -24 -22
-28 -48 -24 -17 2 -29 9 -27 16 5 16 47 20 47 5 0 -10 3 -10 11 -2 6 6 8 16 5
22 -10 16 -62 13 -76 -4z m130 -20 c0 -8 -7 -15 -15 -15 -9 0 -12 6 -9 15 4 8
10 15 15 15 5 0 9 -7 9 -15z m135 -6 c8 -11 -19 -45 -48 -61 -28 -15 -30 -4
-6 36 21 36 42 46 54 25z"/>
<path d="M718 2672 c-27 -2 -48 -7 -48 -13 0 -5 7 -9 16 -9 14 0 16 -8 12 -45
-8 -64 9 -66 19 -3 7 48 11 53 38 58 43 8 18 16 -37 12z"/>
<path d="M1030 2610 c0 -5 21 -10 46 -10 27 0 43 4 39 10 -3 6 -24 10 -46 10
-21 0 -39 -4 -39 -10z"/>
<path d="M590 2555 c0 -7 -7 -18 -16 -23 -10 -6 -13 -12 -6 -16 6 -3 18 1 26
10 18 17 21 44 6 44 -5 0 -10 -7 -10 -15z"/>
<path d="M256 2439 c-3 -17 -6 -64 -6 -104 0 -40 -11 -131 -24 -202 -48 -255
-60 -361 -60 -553 0 -150 4 -207 22 -300 25 -131 30 -150 41 -150 4 0 -4 51
-17 112 -36 173 -41 418 -12 631 12 89 31 205 42 257 11 52 22 150 25 218 6
120 2 153 -11 91z"/>
<path d="M430 2324 c-8 -1 -32 -5 -52 -9 -40 -6 -53 -25 -18 -25 19 0 19 -2
-5 -57 -15 -34 -22 -60 -16 -66 5 -5 20 19 37 62 26 63 32 70 59 73 17 2 29 7
28 13 -2 11 -12 14 -33 9z"/>
<path d="M735 2288 c-10 -66 -15 -77 -37 -89 -32 -17 -38 2 -18 61 18 54 18
73 1 54 -15 -15 -41 -113 -34 -129 7 -20 43 -19 73 2 22 16 23 16 17 -1 -5
-12 -3 -16 5 -14 7 3 17 20 22 38 l10 33 10 -31 c6 -18 16 -32 21 -33 10 -2
15 6 53 91 27 58 28 26 2 -35 -22 -51 -24 -65 -11 -65 4 0 18 24 29 53 l21 52
0 -47 c1 -66 20 -62 72 13 46 69 65 73 25 5 -38 -65 -36 -71 30 -70 52 1 58 3
72 30 20 39 19 39 36 25 10 -9 13 -23 10 -44 -5 -30 -5 -31 10 -13 16 20 16
20 31 0 14 -19 15 -19 55 3 22 12 38 18 35 13 -7 -12 32 -19 71 -13 50 8 52
23 4 23 -38 0 -41 2 -34 23 8 27 9 28 26 30 7 2 14 7 14 12 1 6 -2 9 -8 7 -5
-1 -8 5 -6 15 2 13 14 19 46 21 55 4 54 22 -2 22 -49 0 -58 -8 -76 -65 -12
-37 -14 -38 -22 -16 -4 12 -17 25 -28 28 -16 4 -18 8 -9 19 7 9 20 12 32 8 14
-4 18 -2 15 7 -7 21 -37 23 -58 4 -17 -15 -20 -15 -44 0 -19 12 -34 15 -53 9
-37 -11 -116 -11 -124 0 -4 4 -19 -9 -35 -29 -68 -87 -66 -86 -60 -29 5 37 3
51 -6 51 -7 0 -23 3 -35 7 -19 6 -25 1 -43 -33 -11 -22 -20 -47 -20 -56 0 -8
-5 -15 -11 -15 -6 0 -10 18 -9 43 3 62 1 64 -20 38 l-20 -23 0 26 c0 42 -18
30 -25 -16z m447 7 c-1 -5 -14 -13 -27 -17 -27 -7 -28 -7 -19 17 7 17 51 17
46 0z m-77 -5 c3 -5 -4 -27 -15 -50 -18 -35 -25 -40 -55 -40 -38 0 -42 6 -21
35 8 11 19 16 30 12 9 -4 16 -2 16 4 0 5 -7 12 -15 15 -12 5 -13 10 -4 20 13
16 55 19 64 4z m99 -29 c3 -4 17 -6 31 -4 39 8 45 -25 9 -54 -35 -28 -43 -28
-51 -5 -4 9 -15 23 -25 30 -23 17 -23 29 0 35 28 8 31 7 36 -2z"/>
<path d="M485 2288 c-11 -38 -50 -52 -58 -21 -3 13 -10 6 -25 -27 -12 -25 -22
-51 -22 -57 0 -24 16 -13 27 17 8 20 18 30 33 30 19 0 20 -4 14 -37 -8 -49 6
-35 34 34 22 53 28 93 14 93 -4 0 -12 -15 -17 -32z"/>
<path d="M556 2311 c-22 -5 -32 -16 -47 -56 -27 -72 -26 -75 31 -75 28 0 50 5
50 10 0 6 -18 10 -39 10 -34 0 -38 3 -34 20 3 13 14 20 29 20 13 0 24 5 24 10
0 6 -9 10 -20 10 -35 0 -11 28 31 35 21 4 37 11 33 16 -6 10 -14 10 -58 0z"/>
<path d="M1485 2205 c-29 -28 -33 -65 -7 -71 14 -4 16 -14 14 -62 -3 -48 -9
-63 -36 -92 -90 -97 -121 -153 -136 -243 -6 -37 -14 -77 -19 -90 -13 -34 -152
-126 -182 -120 -22 4 -70 -20 -59 -30 23 -20 186 -94 190 -87 3 5 39 13 79 16
65 6 79 12 129 49 67 49 152 138 152 158 0 8 -10 21 -22 30 -18 12 -20 18 -11
27 9 10 18 10 43 0 27 -11 34 -11 48 4 12 11 14 20 7 30 -23 31 -64 95 -93
147 l-32 56 49 -5 c86 -8 151 41 167 126 3 17 12 32 18 32 7 0 20 6 31 13 44
33 -16 97 -91 97 -15 0 -32 8 -39 17 -11 15 -16 16 -39 4 -22 -12 -31 -12 -68
3 -57 21 -64 20 -93 -9z m145 -20 c30 -8 76 -15 102 -15 35 0 54 -6 68 -20 25
-25 25 -37 2 -49 -13 -7 -33 -2 -78 20 -32 16 -92 34 -132 40 -64 11 -74 10
-85 -4 -8 -11 -17 -14 -26 -8 -12 8 -12 13 3 36 20 30 38 30 146 0z m40 15 c0
-5 -5 -10 -11 -10 -5 0 -7 5 -4 10 3 6 8 10 11 10 2 0 4 -4 4 -10z m29 -82
c44 -22 46 -25 45 -66 -2 -100 -145 -160 -204 -85 -34 43 -45 97 -31 144 l13
42 66 -6 c37 -4 86 -17 111 -29z m-205 -216 c6 -63 13 -85 37 -122 l31 -45
-44 -38 c-24 -21 -89 -76 -146 -123 -94 -77 -104 -83 -122 -71 -19 14 -19 14
3 34 12 11 43 35 69 53 44 31 47 36 43 69 -16 129 -15 150 5 183 24 39 103
137 111 138 4 0 9 -35 13 -78z m94 -74 l49 -84 -33 4 c-49 6 -87 65 -92 145
-4 59 -3 61 12 40 9 -11 38 -59 64 -105z m47 -108 c19 -21 15 -24 -22 -14 -13
4 -23 13 -23 20 0 20 24 17 45 -6z m-286 -61 c1 -21 -13 -37 -66 -78 -37 -28
-74 -51 -82 -51 -11 0 36 38 107 85 1 1 8 25 14 53 13 53 26 48 27 -9z m151
-12 c-80 -77 -210 -181 -216 -174 -3 3 16 22 42 43 26 22 88 74 138 116 50 43
93 78 96 78 3 -1 -24 -29 -60 -63z m15 -18 c-22 -22 -53 -50 -70 -62 -16 -11
-1 7 35 41 74 70 93 81 35 21z m75 2 c0 -38 -181 -190 -227 -191 -46 0 -26 31
59 93 24 18 35 22 32 12 -3 -8 -9 -15 -13 -15 -3 0 -26 -19 -51 -41 -45 -41
-45 -40 17 5 34 26 84 68 111 94 26 26 32 32 12 15 -51 -46 -62 -41 -15 7 42
43 75 52 75 21z m-402 -154 c28 -15 52 -34 52 -42 0 -12 -18 -6 -72 21 -86 43
-82 40 -74 53 7 11 18 8 94 -32z m31 27 c47 -23 25 -40 -23 -18 -36 18 -47 34
-23 34 8 0 28 -7 46 -16z m109 -36 c-8 -12 -21 -24 -29 -26 -8 -3 -3 7 10 22
30 32 39 34 19 4z"/>
<path d="M333 2093 c-3 -10 -19 -47 -35 -82 -31 -71 -31 -71 -19 -71 4 0 22
30 38 68 40 88 44 102 32 102 -5 0 -12 -8 -16 -17z"/>
<path d="M585 2090 c-22 -24 -35 -26 -35 -5 0 31 -21 13 -50 -45 -16 -33 -30
-64 -30 -70 0 -23 22 4 42 49 17 40 21 44 30 28 9 -18 13 -16 45 15 38 36 37
24 -4 -47 -24 -43 -28 -55 -15 -55 10 0 72 114 72 134 0 22 -33 20 -55 -4z"/>
<path d="M675 2040 c-20 -40 -34 -75 -31 -78 8 -7 9 -5 35 43 15 28 20 32 17
15 -6 -30 3 -70 15 -70 6 0 19 21 29 46 11 26 29 59 40 74 22 31 25 40 10 40
-5 0 -24 -25 -41 -55 -17 -31 -33 -54 -35 -53 -1 2 2 23 7 47 17 76 -5 71 -46
-9z"/>
<path d="M963 2103 c-22 -8 -14 -21 8 -16 19 5 20 3 14 -18 -4 -13 -16 -38
-26 -55 -11 -17 -19 -37 -19 -44 0 -25 27 10 51 65 20 45 28 55 49 55 22 -1
23 -2 7 -11 -21 -12 -47 -61 -47 -89 0 -32 41 -25 83 14 42 38 49 79 18 96
-20 10 -115 13 -138 3z m137 -50 c0 -11 -60 -63 -73 -63 -14 0 -6 28 13 53 21
26 60 33 60 10z"/>
<path d="M390 2087 c-32 -16 -35 -60 -5 -65 35 -7 38 -20 11 -47 -32 -32 -52
-28 -48 9 2 18 -1 25 -7 21 -16 -9 -13 -65 3 -71 41 -16 112 60 86 92 -7 7
-21 14 -31 14 -11 0 -19 4 -19 10 0 13 34 30 59 30 12 0 21 5 21 10 0 14 -40
12 -70 -3z"/>
<path d="M1295 2094 c-11 -3 -46 -9 -77 -16 -32 -6 -58 -14 -58 -18 0 -4 26
-1 58 6 31 8 98 14 147 14 62 0 85 3 75 10 -15 9 -105 12 -145 4z"/>
<path d="M653 2078 c-15 -19 -43 -75 -43 -88 0 -24 17 -6 38 42 22 51 24 70 5
46z"/>
<path d="M800 2078 c0 -4 -14 -30 -31 -58 -17 -28 -30 -53 -28 -54 9 -9 86
-12 104 -5 14 5 6 8 -27 8 -27 1 -48 4 -48 7 0 19 24 44 42 44 17 0 18 3 8 15
-17 21 -4 35 35 35 19 0 36 4 40 9 3 6 -16 9 -45 9 -27 -1 -50 -5 -50 -10z"/>
<path d="M1331 2003 c-20 -25 -38 -70 -30 -77 2 -2 16 21 30 51 14 29 25 53
23 53 -1 0 -12 -12 -23 -27z"/>
<path d="M1368 2003 c-28 -29 -48 -73 -48 -101 1 -9 10 5 20 32 11 27 29 59
41 72 13 13 20 24 18 24 -3 0 -17 -12 -31 -27z"/>
<path d="M611 1871 c-30 -32 -41 -31 -41 3 0 12 -4 16 -9 11 -14 -15 -81 -136
-81 -147 0 -20 21 5 47 55 18 36 28 46 31 35 6 -28 24 -21 59 19 27 31 32 34
33 18 0 -11 -11 -38 -25 -60 -26 -43 -30 -55 -17 -55 5 0 21 23 36 50 44 81
22 130 -33 71z"/>
<path d="M1015 1865 c-13 -16 -30 -46 -39 -65 l-16 -35 4 58 c6 72 -13 77 -44
11 -24 -48 -37 -55 -20 -10 28 74 -5 88 -65 29 -24 -24 -34 -30 -26 -16 27 52
-3 71 -52 33 -30 -24 -37 -25 -37 -4 0 31 -25 7 -58 -53 -18 -34 -28 -64 -24
-67 5 -3 19 17 32 44 22 46 40 64 40 40 0 -18 23 -10 52 17 40 38 44 23 9 -33
-35 -55 -43 -94 -11 -54 12 15 18 18 14 8 -10 -29 10 -20 29 12 13 21 26 30
43 30 24 0 25 -2 19 -40 -10 -58 11 -49 54 21 l21 34 0 -47 c0 -69 23 -63 59
16 16 35 34 66 40 70 16 10 14 1 -9 -44 -35 -68 -19 -95 38 -66 48 25 84 74
80 110 -3 30 -4 31 -57 31 -48 0 -56 -3 -76 -30z m119 6 c13 -21 -84 -125
-100 -108 -8 8 24 84 44 103 15 16 48 19 56 5z m-247 -26 c-4 -8 -17 -15 -29
-15 l-23 1 24 20 c26 21 37 19 28 -6z"/>
<path d="M1190 1890 c0 -6 -11 -28 -25 -51 -14 -22 -23 -44 -19 -50 3 -6 19
12 35 40 31 53 35 71 19 71 -5 0 -10 -5 -10 -10z"/>
<path d="M314 1847 c-64 -65 -73 -127 -17 -127 16 0 39 7 51 16 12 8 22 10 22
5 0 -17 42 -13 73 7 54 36 70 79 43 115 -16 21 -30 22 -61 1 -22 -15 -23 -14
-18 5 4 18 1 21 -22 21 -19 0 -41 -13 -71 -43z m71 -34 c-8 -15 -15 -33 -15
-38 0 -11 -55 -35 -78 -35 -35 0 12 86 65 121 27 18 28 18 35 -1 4 -11 1 -31
-7 -47z m95 16 c0 -23 -54 -79 -76 -79 -20 0 -17 30 6 68 24 39 70 46 70 11z"/>
<path d="M1217 1856 c-10 -22 -16 -44 -14 -50 6 -17 39 53 34 72 -2 11 -9 4
-20 -22z"/>
<path d="M1115 1749 c-4 -6 -4 -13 -1 -16 8 -8 36 5 36 17 0 13 -27 13 -35 -1z"/>
<path d="M1165 1749 c-4 -6 -5 -13 -2 -16 7 -7 27 6 27 18 0 12 -17 12 -25 -2z"/>
<path d="M1731 1708 c-2 -52 -18 -90 -49 -115 -15 -13 -21 -23 -14 -23 21 0
61 50 68 85 3 17 4 45 1 61 -4 26 -4 25 -6 -8z"/>
<path d="M1083 1620 c-5 -27 -7 -28 -18 -14 -17 25 -36 8 -28 -24 6 -24 5 -26
-11 -13 -23 20 -32 6 -19 -30 11 -28 10 -29 -4 -17 -15 12 -16 10 -9 -14 5
-21 3 -28 -9 -28 -22 0 -18 -24 8 -46 13 -11 33 -18 50 -16 32 4 35 -8 8 -32
-10 -9 -21 -31 -25 -47 -3 -16 -11 -29 -18 -28 -27 3 -38 -2 -38 -17 0 -10 -6
-14 -14 -11 -15 6 -26 -12 -26 -44 0 -10 -5 -19 -11 -19 -7 0 -9 -11 -5 -30 4
-22 2 -30 -9 -30 -25 0 -29 -23 -7 -41 29 -23 28 -29 -8 -29 -40 0 -38 -18 8
-60 20 -19 37 -40 37 -47 0 -7 9 -19 20 -26 18 -14 18 -16 2 -31 -21 -22 -22
-36 -1 -36 12 0 10 -6 -10 -21 -31 -24 -34 -49 -6 -56 25 -7 25 -15 1 -30 -11
-7 -22 -26 -26 -43 -6 -28 -10 -31 -35 -25 -26 6 -28 4 -35 -35 -5 -32 -10
-39 -20 -30 -19 16 -28 -4 -20 -47 6 -32 5 -34 -14 -28 -29 9 -38 -19 -16 -52
19 -28 21 -26 -32 -60 -17 -12 -17 -13 1 -27 16 -13 17 -18 6 -31 -7 -9 -19
-14 -27 -11 -8 4 -13 -2 -13 -16 0 -20 -1 -21 -20 -3 -28 25 -50 5 -50 -48 0
-38 -1 -39 -18 -24 -26 24 -32 21 -31 -15 1 -18 3 -25 6 -16 3 11 13 16 31 15
25 -2 27 0 24 35 -3 43 12 57 37 34 23 -21 31 -20 31 4 0 11 6 20 13 20 16 0
47 32 47 48 0 7 -7 12 -15 12 -8 0 -15 5 -15 10 0 6 4 10 8 10 5 0 18 9 30 21
l22 20 -21 27 -21 27 31 3 c30 3 31 5 25 38 -5 26 -3 34 9 34 16 0 27 20 27
51 0 15 5 17 29 13 26 -6 29 -3 37 32 8 31 17 43 47 57 40 20 41 37 2 37 -37
0 -41 20 -9 46 23 18 26 25 15 32 -10 8 -11 14 -2 31 13 24 7 41 -15 41 -11 0
-13 6 -9 20 4 12 2 20 -5 20 -12 0 -60 48 -60 61 0 5 9 9 19 9 30 0 34 17 9
40 l-23 21 23 6 c16 4 21 10 17 22 -4 9 -9 22 -12 29 -3 7 0 12 8 10 9 -2 15
8 17 25 2 15 9 27 18 27 8 0 14 9 14 19 0 14 8 21 28 23 20 2 28 9 30 28 2 18
12 30 35 39 18 7 27 15 20 18 -7 2 -10 10 -7 18 6 14 -47 45 -78 45 -10 0 -18
5 -18 10 0 6 6 10 14 10 19 0 29 46 15 73 -9 18 -9 20 2 10 21 -21 29 -15 30
20 1 17 3 24 6 15 7 -28 33 -22 33 7 0 14 5 25 10 25 6 0 10 -6 10 -14 0 -23
22 -31 36 -12 8 12 14 14 19 6 5 -8 13 -6 26 6 14 12 19 13 19 4 0 -7 3 -11 6
-7 4 3 4 14 0 23 -6 16 -8 15 -26 -1 -18 -16 -20 -16 -26 -1 -9 23 -20 20 -29
-6 -6 -23 -7 -22 -17 5 -13 35 -27 34 -35 -3z"/>
<path d="M1761 1609 c-13 -17 -21 -33 -18 -35 6 -6 47 45 47 57 0 14 -5 11
-29 -22z"/>
<path d="M838 1453 c-24 -27 -58 -68 -75 -93 -36 -53 -93 -164 -93 -182 0 -7
16 20 35 60 42 88 84 151 143 215 25 26 42 47 40 47 -3 0 -25 -21 -50 -47z"/>
<path d="M1432 1408 c4 -27 4 -27 -15 -10 -19 17 -19 16 -12 -28 l6 -45 -24
30 -25 30 -6 -25 c-3 -14 -7 -36 -9 -50 l-4 -25 -8 23 c-4 13 -13 21 -20 18
-8 -3 -16 1 -19 9 -9 24 -73 48 -111 41 -19 -4 -35 -11 -35 -16 0 -6 -14 -10
-31 -10 -25 0 -29 -3 -24 -19 4 -13 0 -20 -15 -24 -13 -3 -18 -11 -14 -20 4
-12 -4 -18 -31 -23 -24 -4 -35 -11 -31 -19 3 -8 -1 -19 -9 -25 -18 -15 -25
-81 -8 -87 20 -8 16 -31 -7 -38 -29 -9 -15 -25 22 -25 30 0 31 0 13 -20 -16
-18 -16 -20 -2 -20 10 0 17 -7 17 -16 0 -11 6 -14 21 -9 16 5 19 4 14 -5 -4
-7 -2 -16 4 -20 8 -5 4 -12 -13 -24 -29 -18 -34 -36 -11 -36 20 0 19 -29 0
-37 -14 -5 -14 -8 0 -29 16 -25 20 -45 8 -43 -21 3 -23 -3 -9 -23 20 -28 20
-38 2 -38 -16 0 -86 -59 -86 -72 0 -4 8 -8 18 -8 16 -1 16 -1 0 -14 -22 -17
-23 -32 -1 -44 15 -9 14 -11 -5 -21 -34 -18 -60 -64 -68 -119 -6 -46 -5 -52
10 -46 28 11 17 -3 -20 -25 -37 -22 -38 -41 -1 -41 22 0 22 -1 -3 -20 -19 -14
-22 -22 -14 -30 9 -9 17 -9 31 -1 18 9 20 7 15 -16 l-5 -26 31 22 c17 12 34
26 37 31 13 22 23 8 15 -20 -11 -37 -1 -38 31 -2 l24 27 3 -43 c2 -33 7 -42
17 -38 8 3 17 1 20 -4 12 -19 35 -10 41 15 6 24 7 24 20 8 13 -17 15 -17 29 2
47 61 46 61 61 27 7 -18 20 -32 28 -32 8 0 16 -5 18 -12 6 -16 48 -20 65 -6
11 9 16 9 23 -1 6 -11 15 -11 44 -1 19 6 45 8 57 5 15 -5 19 -4 14 4 -3 6 -28
11 -53 11 -26 -1 -54 -1 -62 0 -8 0 -30 -1 -47 -3 -26 -2 -33 1 -33 14 0 12
-6 16 -20 12 -17 -5 -20 0 -20 31 0 20 -4 36 -8 36 -12 0 -72 -61 -72 -73 0
-6 -7 -2 -15 9 -15 19 -15 19 -30 0 -8 -10 -16 -23 -17 -27 -2 -5 -13 -6 -25
-3 -13 4 -20 11 -17 16 3 5 3 21 0 35 -6 21 -11 24 -31 19 -14 -4 -25 -2 -25
4 0 18 -33 11 -58 -13 -14 -12 -22 -16 -18 -9 5 9 1 15 -12 19 -13 3 -19 10
-15 19 3 8 -2 21 -12 28 -16 11 -14 14 24 29 44 18 47 37 5 37 -28 0 -29 2 -9
41 9 16 13 34 10 39 -3 5 13 27 35 49 39 38 40 40 21 51 -21 10 -21 10 1 32
21 21 21 22 2 29 -17 6 -16 8 9 18 16 6 25 15 22 21 -3 6 5 10 19 10 24 0 25
3 25 58 -1 31 -6 63 -11 70 -7 8 -7 12 0 12 16 0 22 40 7 53 -10 10 -8 16 11
34 25 23 31 43 14 43 -5 0 -10 7 -10 16 0 9 -6 14 -13 11 -16 -6 -41 20 -27
28 16 10 12 22 -10 28 -13 3 -18 11 -14 20 3 8 -1 21 -8 28 -19 19 -17 68 3
82 9 7 14 17 12 24 -3 7 10 15 32 19 28 5 34 10 30 24 -4 12 1 19 16 23 15 4
20 11 15 23 -5 13 -1 15 21 11 20 -4 32 1 46 16 18 21 19 21 29 3 8 -15 12
-16 19 -5 6 10 9 7 9 -11 1 -23 2 -24 14 -7 14 18 33 7 22 -12 -3 -5 1 -11 9
-15 8 -3 15 -13 15 -22 0 -10 5 -14 15 -11 8 4 17 2 20 -4 11 -17 22 0 29 42
7 41 7 42 22 21 18 -27 34 -20 34 14 0 15 6 24 16 24 12 0 15 6 10 25 -4 14
-2 25 4 25 5 0 10 4 10 8 0 5 -7 9 -16 9 -12 0 -15 -8 -12 -29z"/>
<path d="M1150 1245 c-7 -9 -11 -17 -9 -20 3 -2 10 5 17 15 14 24 10 26 -8 5z"/>
<path d="M1126 1195 c-3 -9 -6 -22 -5 -28 0 -7 5 -1 10 12 5 13 8 26 5 28 -2
2 -6 -3 -10 -12z"/>
<path d="M1236 1175 c-9 -26 -7 -32 5 -12 6 10 9 21 6 23 -2 3 -7 -2 -11 -11z"/>
<path d="M796 1125 c-9 -26 -7 -32 5 -12 6 10 9 21 6 23 -2 3 -7 -2 -11 -11z"/>
<path d="M1211 1094 c0 -11 3 -14 6 -6 3 7 2 16 -1 19 -3 4 -6 -2 -5 -13z"/>
<path d="M231 1018 c-34 -16 -48 -32 -64 -67 -18 -41 -19 -52 -9 -100 15 -69
53 -127 98 -148 19 -9 33 -22 30 -28 -5 -14 -42 -152 -50 -187 -4 -16 -3 -28
2 -28 5 0 17 35 28 78 l19 77 3 -65 c4 -74 -22 -239 -49 -317 -10 -29 -14 -53
-10 -53 14 0 32 53 55 169 12 61 25 113 29 117 3 3 9 -7 13 -22 3 -16 19 -76
35 -134 16 -58 29 -113 29 -122 0 -10 5 -18 10 -18 6 0 10 6 10 13 0 19 -59
235 -81 295 -10 30 -19 75 -18 100 0 50 2 48 33 -38 18 -51 33 -77 39 -70 2 3
-12 50 -33 105 l-37 100 48 18 c67 25 94 70 94 158 0 59 -4 72 -31 110 -34 47
-84 79 -124 79 -14 0 -45 -10 -69 -22z m130 -21 c52 -35 79 -82 79 -139 0 -98
-43 -153 -120 -153 -40 0 -54 5 -81 30 -60 57 -86 155 -56 215 17 34 74 70
112 70 18 0 47 -10 66 -23z"/>
<path d="M1191 1024 c0 -11 3 -14 6 -6 3 7 2 16 -1 19 -3 4 -6 -2 -5 -13z"/>
<path d="M1181 984 c0 -11 3 -14 6 -6 3 7 2 16 -1 19 -3 4 -6 -2 -5 -13z"/>
<path d="M1171 934 c0 -11 3 -14 6 -6 3 7 2 16 -1 19 -3 4 -6 -2 -5 -13z"/>
<path d="M462 248 l1 -53 6 43 c6 42 6 43 24 22 18 -22 37 -19 37 6 0 16 16
19 25 4 3 -5 10 -10 16 -10 5 0 9 5 9 10 0 6 -7 10 -15 10 -8 0 -15 5 -15 10
0 6 -7 10 -15 10 -8 0 -15 -9 -15 -20 0 -11 -4 -20 -10 -20 -5 0 -14 9 -20 20
-19 35 -30 22 -28 -32z"/>
</g>
</svg>
