<?xml version="1.0" standalone="no"?>
<!DOCTYPE svg PUBLIC "-//W3C//DTD SVG 20010904//EN"
 "http://www.w3.org/TR/2001/REC-SVG-20010904/DTD/svg10.dtd">
<svg version="1.0" xmlns="http://www.w3.org/2000/svg"
 width="186.000000pt" height="278.000000pt" viewBox="0 0 186.000000 278.000000"
 preserveAspectRatio="xMidYMid meet">
<metadata>
Created by potrace 1.13, written by Peter Selinger 2001-2015
</metadata>
<g transform="translate(0.000000,278.000000) scale(0.100000,-0.100000)"
fill="#000000" stroke="none">
<path d="M820 2665 c-16 -30 -26 -31 -42 -5 -26 41 -27 18 -2 -30 14 -27 23
-54 19 -60 -3 -5 -1 -10 4 -10 6 0 11 15 11 34 0 48 18 55 22 9 4 -44 19 -52
47 -24 25 25 31 26 31 6 0 -22 47 -19 60 4 13 26 13 78 -1 87 -8 4 -9 -3 -4
-25 5 -24 2 -37 -10 -51 -25 -27 -35 -16 -36 38 -1 26 -3 39 -6 30 -6 -23 -9
-22 -40 2 -33 26 -37 25 -53 -5z m63 -29 c6 -15 -19 -56 -34 -56 -10 0 -12 30
-3 54 8 20 30 21 37 2z"/>
<path d="M190 2643 c0 -21 -3 -48 -6 -60 -6 -22 -7 -22 -30 -5 -17 13 -23 27
-24 55 0 20 -5 37 -10 37 -7 0 -8 -19 -4 -52 7 -53 10 -62 22 -64 4 0 15 -4
25 -9 27 -11 35 3 43 73 5 43 3 62 -5 62 -6 0 -11 -16 -11 -37z"/>
<path d="M323 2668 c-4 -7 -14 -31 -20 -53 l-13 -40 4 48 c4 47 -10 68 -16 25
-2 -15 -11 -24 -27 -26 -21 -3 -23 0 -19 22 3 14 1 26 -3 26 -5 0 -9 -11 -9
-24 0 -13 -3 -38 -6 -55 -4 -19 -2 -31 4 -31 6 0 12 10 14 23 2 14 11 23 26
25 19 3 22 -1 22 -28 0 -36 19 -37 35 -2 11 26 34 37 39 19 2 -6 7 -21 12 -32
7 -19 7 -19 11 -1 5 19 -23 102 -37 111 -5 3 -12 0 -17 -7z m27 -39 c0 -5 -7
-9 -15 -9 -15 0 -20 12 -9 23 8 8 24 -1 24 -14z"/>
<path d="M401 2671 c-14 -4 -26 -12 -29 -19 -2 -7 2 -10 12 -6 12 5 14 -1 9
-29 -3 -19 0 -43 6 -53 8 -15 10 -8 11 39 0 54 1 57 25 57 14 0 25 5 25 10 0
11 -22 12 -59 1z"/>
<path d="M500 2661 c-15 -30 -24 -101 -12 -101 6 0 12 10 14 23 5 33 42 30 46
-5 4 -32 32 -28 32 6 1 20 2 19 25 -7 27 -30 35 -15 11 19 -13 18 -12 21 5 32
18 11 19 9 19 -28 l0 -40 40 0 c22 0 40 5 40 10 0 6 -16 10 -35 10 -24 0 -35
5 -35 15 0 8 9 15 20 15 11 0 20 5 20 10 0 6 -9 10 -21 10 -30 0 -18 24 14 28
52 6 26 18 -42 19 -76 1 -86 -6 -76 -55 4 -20 2 -17 -10 10 -19 43 -41 55 -55
29z m120 0 c0 -12 -29 -35 -36 -28 -11 10 5 37 21 37 8 0 15 -4 15 -9z m-86
-32 c-10 -16 -24 -9 -24 12 0 18 2 19 15 9 8 -7 12 -16 9 -21z"/>
<path d="M1027 2673 c-4 -3 -7 -33 -7 -65 0 -68 14 -75 60 -30 26 26 29 27 33
10 6 -22 34 -23 59 -1 17 15 18 15 18 0 0 -10 5 -17 10 -17 6 0 10 23 10 50 0
29 -5 50 -11 50 -6 0 -8 -9 -3 -22 l6 -21 -27 21 c-32 26 -67 30 -59 7 4 -8 1
-15 -5 -15 -6 0 -11 6 -11 14 0 21 -56 36 -73 19z m57 -26 c8 -13 7 -24 -4
-44 -25 -44 -40 -40 -40 10 0 60 19 74 44 34z m85 -11 c10 -12 8 -19 -10 -37
-25 -25 -39 -13 -31 27 5 27 23 31 41 10z"/>
<path d="M1227 2673 c-10 -9 -9 -113 1 -113 4 0 7 17 5 38 l-3 37 17 -37 c22
-53 43 -50 43 6 0 24 3 51 6 60 3 9 1 16 -5 16 -6 0 -14 -19 -18 -42 l-6 -42
-14 39 c-15 44 -17 47 -26 38z"/>
<path d="M1316 2662 c-20 -23 -21 -61 0 -90 20 -29 50 -28 70 4 16 23 16 26 1
42 -13 13 -19 14 -29 4 -9 -9 -8 -12 5 -12 20 0 21 -4 7 -31 -15 -28 -28 -24
-47 16 -15 32 -16 37 -1 51 21 21 118 28 118 8 0 -7 -8 -17 -17 -23 -26 -14
-9 -25 17 -11 14 7 20 19 18 33 -3 20 -10 22 -64 24 -48 2 -65 -1 -78 -15z"/>
<path d="M1410 2559 c0 -5 5 -7 10 -4 6 3 10 8 10 11 0 2 -4 4 -10 4 -5 0 -10
-5 -10 -11z"/>
<path d="M368 2415 c-4 -50 -19 -133 -34 -185 -14 -52 -35 -126 -45 -165 -28
-100 -36 -282 -15 -359 19 -72 32 -87 21 -26 -4 25 -11 64 -15 88 -13 76 8
244 45 365 42 141 57 225 53 307 l-3 65 -7 -90z"/>
<path d="M483 2383 c-18 -2 -33 -9 -33 -15 0 -6 9 -8 20 -5 18 5 20 0 20 -48
0 -30 5 -57 10 -60 6 -4 10 17 10 54 0 57 2 61 23 61 12 0 17 -3 11 -8 -14 -9
-27 -102 -14 -102 6 0 10 7 10 16 0 13 5 12 30 -6 35 -25 39 -16 8 17 -19 20
-20 25 -8 33 14 9 40 14 40 8 0 -2 7 -21 15 -43 13 -37 14 -38 15 -12 0 16 9
40 20 54 28 36 24 54 -4 19 l-24 -29 -17 27 c-10 14 -26 26 -37 26 -10 0 -16
5 -13 10 6 10 -18 11 -82 3z m97 -38 c-7 -8 -20 -15 -29 -15 -13 1 -13 3 3 15
26 19 42 19 26 0z"/>
<path d="M823 2380 c-18 -7 -23 -17 -23 -48 0 -57 31 -79 64 -46 25 25 20 44
-11 43 -17 -1 -21 -3 -10 -6 21 -5 22 -17 2 -33 -12 -10 -17 -7 -27 15 -15 34
-1 59 36 63 14 2 24 8 21 13 -7 11 -23 11 -52 -1z"/>
<path d="M1235 2378 c-2 -7 -6 -31 -7 -53 -3 -39 -4 -39 -15 -15 -6 14 -14 34
-17 44 -6 19 -7 19 -21 0 -13 -17 -14 -17 -15 -1 0 9 -4 17 -10 17 -5 0 -7
-13 -4 -29 6 -29 -9 -71 -26 -71 -6 0 -10 21 -10 48 0 34 -3 43 -10 32 -15
-23 -12 -76 5 -90 18 -15 42 0 55 35 8 18 9 17 9 -7 1 -33 21 -38 22 -5 l0 22
16 -22 c29 -43 43 -29 43 42 0 62 -5 80 -15 53z"/>
<path d="M1623 2379 c-35 -10 -47 -31 -13 -22 18 5 20 0 20 -51 0 -31 5 -56
10 -56 6 0 10 27 10 60 0 53 2 60 20 60 11 0 20 5 20 10 0 12 -23 12 -67 -1z"/>
<path d="M1777 2384 c-2 -3 -18 -6 -33 -8 -19 -2 -30 -10 -32 -22 -6 -33 -22
-41 -38 -20 -13 18 -14 15 -14 -33 0 -29 4 -50 9 -47 4 3 6 17 3 31 -3 20 0
25 17 25 17 0 21 -6 21 -30 0 -27 3 -30 33 -29 17 0 41 4 52 9 16 7 13 9 -17
9 -44 1 -53 26 -15 41 21 8 20 11 -5 14 -29 3 -18 33 14 42 19 6 28 13 22 17
-6 3 -14 4 -17 1z m-50 -91 c-3 -10 -5 -4 -5 12 0 17 2 24 5 18 2 -7 2 -21 0
-30z"/>
<path d="M776 2364 c-3 -9 -6 -29 -6 -45 0 -39 -17 -28 -26 16 -8 46 -20 44
-28 -2 -8 -54 -7 -73 4 -73 6 0 10 12 10 28 l1 27 15 -27 c8 -16 18 -28 22
-28 5 0 13 27 18 60 9 56 4 80 -10 44z"/>
<path d="M948 2373 c-21 -2 -38 -9 -38 -15 0 -6 9 -8 20 -5 19 5 20 2 14 -45
-5 -37 -4 -49 5 -44 6 4 11 20 11 36 0 42 10 60 32 60 10 0 16 5 13 10 -3 6
-9 9 -13 8 -4 -1 -24 -3 -44 -5z"/>
<path d="M1260 2331 c0 -64 6 -71 60 -71 30 0 52 6 60 15 11 13 14 12 29 -7
14 -17 21 -19 38 -10 15 8 23 8 32 -1 10 -9 11 -6 5 16 l-6 28 37 -26 c49 -33
56 -25 13 14 -35 32 -34 33 12 61 8 4 12 11 8 15 -3 4 -18 -1 -32 -10 -19 -13
-26 -14 -26 -4 0 7 -3 9 -6 6 -4 -3 -15 -2 -25 4 -14 7 -23 5 -38 -10 -19 -19
-20 -19 -37 0 -30 34 -51 24 -61 -28 -5 -32 -13 -48 -23 -48 -11 0 -16 13 -18
48 -4 57 -22 63 -22 8z m120 -6 c0 -24 -12 -45 -25 -45 -21 0 -26 16 -15 44
10 26 40 27 40 1z m88 -9 c3 -28 -10 -46 -34 -46 -18 0 -25 27 -14 56 14 35
44 28 48 -10z"/>
<path d="M687 2318 c-5 -39 -3 -58 7 -47 8 9 14 89 6 89 -4 0 -10 -19 -13 -42z"/>
<path d="M987 2344 c-4 -4 -7 -23 -7 -41 0 -29 3 -34 21 -31 30 4 47 33 33 56
-12 19 -36 27 -47 16z m38 -24 c7 -12 -12 -40 -26 -40 -10 0 -12 34 -2 43 9
10 21 9 28 -3z"/>
<path d="M1248 2179 c-23 -13 -23 -27 -1 -52 17 -18 17 -20 -11 -43 -31 -27
-30 -42 3 -25 35 19 45 50 25 73 -18 19 -18 20 6 39 27 20 9 27 -22 8z"/>
<path d="M1384 2182 c-30 -3 -32 -6 -37 -54 -4 -28 -4 -55 -1 -59 8 -14 48
-10 71 6 12 9 24 11 27 6 5 -7 131 -8 131 -1 0 1 15 2 33 3 17 1 32 -1 32 -4
0 -17 31 -16 54 2 35 27 34 49 -1 48 -17 -1 -21 -3 -10 -6 21 -5 22 -17 2 -33
-18 -15 -31 -7 -38 25 -6 32 18 58 44 50 11 -4 19 -2 19 4 0 14 -57 14 -65 1
-5 -8 -11 -7 -21 1 -11 9 -21 9 -39 1 -20 -9 -25 -19 -25 -47 0 -33 -2 -36
-27 -33 -34 4 -41 25 -11 37 l23 10 -22 0 c-34 1 -28 19 10 30 30 9 28 10 -18
7 l-50 -3 -6 -44 -5 -44 -16 35 -16 35 -7 -38 c-6 -30 -11 -37 -31 -37 -15 0
-24 6 -24 15 0 8 9 15 20 15 11 0 20 5 20 10 0 6 -9 10 -21 10 -36 0 -19 34
21 40 42 6 28 17 -16 12z m103 -54 c-3 -7 -5 -2 -5 12 0 14 2 19 5 13 2 -7 2
-19 0 -25z m128 22 c-3 -5 -13 -10 -21 -10 -8 0 -14 5 -14 10 0 6 9 10 21 10
11 0 17 -4 14 -10z m15 -40 c0 -23 -13 -26 -29 -6 -9 11 -9 15 1 19 23 10 28
7 28 -13z"/>
<path d="M503 2173 c-18 -2 -33 -9 -33 -15 0 -5 7 -7 16 -4 13 5 15 -3 13 -49
-3 -76 8 -80 17 -6 9 80 33 85 26 6 -3 -37 -1 -55 7 -55 6 0 11 9 11 20 0 24
13 26 30 5 7 -8 17 -15 23 -15 6 0 0 11 -13 25 -13 14 -22 26 -19 28 2 2 16 8
32 15 l27 12 -6 -40 -7 -40 39 1 c30 2 33 3 12 6 -34 5 -41 43 -8 43 11 0 20
5 20 10 0 6 -9 10 -21 10 -30 0 -18 24 14 28 15 2 27 8 27 13 0 7 -12 8 -32 3
-32 -7 -68 -7 -118 0 -14 1 -40 1 -57 -1z m107 -22 c0 -12 -29 -23 -42 -15 -6
4 -5 10 3 15 18 11 39 11 39 0z"/>
<path d="M938 2133 l-4 -48 -18 42 -18 41 -64 -1 c-53 0 -65 -4 -70 -19 -6
-19 -6 -19 -20 -1 -26 34 -43 -19 -24 -77 7 -21 8 -18 9 19 1 41 2 43 15 26
13 -18 14 -17 30 11 l16 29 -6 -45 c-5 -31 -3 -42 4 -35 6 6 12 26 15 45 3 30
4 28 5 -12 l2 -48 40 0 c38 0 40 1 40 33 l1 32 17 -27 c21 -34 42 -36 42 -4 0
13 3 38 6 55 4 19 2 31 -4 31 -6 0 -12 -21 -14 -47z m-58 -13 c0 -38 -2 -40
-30 -40 -20 0 -30 5 -30 15 0 8 9 15 20 15 11 0 20 5 20 10 0 6 -10 10 -22 10
-25 0 -14 15 17 23 11 3 21 5 23 6 1 0 2 -17 2 -39z"/>
<path d="M963 2120 c-5 -34 -6 -63 -2 -66 13 -8 66 23 83 48 l16 22 0 -26 c0
-14 7 -32 16 -39 14 -11 20 -10 40 14 21 25 24 26 24 9 0 -31 28 -35 56 -7 19
20 24 34 22 62 -2 20 -9 38 -16 41 -9 3 -10 -2 -3 -20 6 -16 4 -34 -5 -57 -19
-46 -39 -35 -38 22 0 26 -3 47 -8 47 -4 0 -8 -7 -8 -16 0 -12 -5 -11 -19 7
-18 22 -20 23 -38 7 -15 -14 -20 -14 -31 -2 -7 8 -28 14 -46 14 -33 0 -33 -1
-43 -60z m68 40 c26 -14 24 -23 -12 -59 -40 -40 -49 -39 -43 7 10 67 16 73 55
52z m87 -28 c4 -24 -14 -62 -28 -62 -11 0 -14 73 -3 84 12 11 28 0 31 -22z"/>
<path d="M1768 2150 c-23 -17 -27 -18 -32 -4 -3 8 -10 12 -16 9 -7 -4 -5 -14
5 -28 8 -12 15 -30 15 -40 0 -10 5 -15 10 -12 6 3 10 15 10 26 0 12 10 29 23
39 12 10 19 21 16 24 -3 4 -17 -3 -31 -14z"/>
<path d="M500 1963 c-14 -19 -20 -38 -18 -62 3 -31 7 -36 27 -36 17 0 31 10
44 33 16 28 17 37 7 62 -15 37 -32 38 -60 3z m50 -32 c-1 -20 -24 -51 -39 -51
-14 0 -14 45 0 71 8 16 13 18 25 8 8 -6 14 -19 14 -28z"/>
<path d="M966 1941 l-21 -46 -3 38 c-2 20 -8 37 -13 37 -7 0 -8 -16 -4 -42 14
-95 27 -102 45 -28 7 28 16 52 20 55 5 3 4 -11 -2 -31 -5 -20 -7 -39 -3 -42 3
-3 8 4 12 16 8 31 31 27 39 -5 10 -49 12 -49 13 -3 1 66 -7 87 -36 93 -22 4
-28 -1 -47 -42z m56 -3 c-7 -7 -12 -8 -12 -2 0 14 12 26 19 19 2 -3 -1 -11 -7
-17z"/>
<path d="M1210 1965 c0 -32 -24 -75 -42 -75 -7 0 -9 16 -6 45 7 56 -8 60 -17
4 -12 -70 37 -91 70 -30 14 25 14 25 15 3 0 -30 24 -38 55 -18 24 16 26 16 35
-6 10 -27 13 -18 10 36 -2 36 0 39 15 26 13 -11 21 -11 36 -2 18 12 19 10 13
-27 -4 -24 -2 -41 5 -45 8 -5 11 12 11 53 0 62 -7 73 -30 46 -10 -12 -16 -13
-26 -4 -11 9 -18 8 -29 -1 -12 -10 -15 -10 -15 4 0 9 -5 16 -11 16 -7 0 -9 -9
-5 -23 6 -27 -17 -67 -40 -67 -17 0 -17 5 -5 48 6 20 6 32 0 32 -5 0 -9 -5 -9
-12 0 -6 -7 -3 -15 8 -14 18 -14 18 -15 -11z"/>
<path d="M580 1921 c0 -33 5 -63 10 -66 6 -4 10 6 10 24 0 18 7 34 18 40 16
10 16 10 0 11 -27 0 -22 30 5 30 18 0 19 2 7 10 -8 5 -23 10 -32 10 -15 0 -18
-9 -18 -59z"/>
<path d="M693 1973 c-13 -2 -23 -9 -23 -15 0 -5 7 -7 16 -4 15 6 16 0 11 -39
-4 -25 -3 -45 3 -45 5 0 12 21 16 46 5 33 12 48 28 54 20 8 20 9 -4 8 -14 0
-35 -3 -47 -5z"/>
<path d="M823 1970 c-20 -8 -23 -17 -23 -60 l0 -50 43 6 c56 9 60 14 9 14 -49
0 -57 20 -14 37 25 10 25 11 5 12 -32 1 -30 31 2 31 14 0 25 5 25 10 0 12 -17
12 -47 0z"/>
<path d="M1076 1958 c-33 -47 -2 -104 42 -79 14 9 13 10 -10 11 -22 0 -28 5
-28 23 0 32 14 49 33 41 12 -4 17 -1 17 10 0 24 -36 20 -54 -6z"/>
<path d="M778 1948 c-4 -25 -28 -37 -28 -14 0 9 -4 16 -10 16 -5 0 -10 -18
-10 -41 0 -25 4 -38 10 -34 6 4 8 11 5 16 -4 5 0 9 8 9 8 0 19 -10 25 -22 9
-20 11 -14 11 35 1 57 -5 76 -11 35z"/>
<path d="M1425 1890 c-3 -5 1 -10 9 -10 9 0 16 5 16 10 0 6 -4 10 -9 10 -6 0
-13 -4 -16 -10z"/>
<path d="M1043 1751 c8 -73 33 -138 58 -152 23 -12 25 -2 3 22 -24 27 -43 88
-44 142 0 28 -5 47 -11 47 -8 0 -10 -18 -6 -59z"/>
<path d="M1405 1669 c-11 -7 -40 -29 -65 -50 -35 -28 -52 -36 -72 -32 -22 4
-27 1 -30 -18 -2 -19 -15 -27 -72 -44 -97 -29 -125 -73 -96 -151 9 -24 14 -26
45 -21 31 5 35 3 35 -16 0 -29 42 -118 66 -139 48 -43 133 -59 191 -37 25 9
24 6 -17 -36 -32 -33 -77 -62 -157 -100 -61 -30 -119 -54 -130 -54 -36 -1 -83
-13 -93 -26 -14 -16 -2 -45 19 -46 60 -3 75 -7 87 -23 7 -11 11 -23 7 -29 -3
-6 0 -15 8 -21 15 -11 145 -403 137 -411 -2 -3 -28 71 -57 163 -54 170 -77
212 -116 212 -54 0 -57 -38 -14 -193 47 -170 107 -315 135 -324 13 -4 33 -24
46 -43 16 -23 33 -36 51 -38 21 -3 27 -9 27 -28 0 -15 6 -24 15 -24 8 0 15 -4
15 -10 0 -5 11 -10 24 -10 14 0 28 5 31 10 3 6 42 10 85 10 43 0 82 -4 85 -10
8 -13 48 -13 61 -1 5 5 20 11 33 13 l24 3 -27 32 c-15 18 -38 33 -53 35 -20 2
-29 11 -34 31 -4 16 -14 34 -22 40 -8 7 -21 30 -30 52 -9 22 -30 74 -47 115
l-31 75 64 130 c78 159 91 210 84 324 -5 93 -31 173 -74 229 l-25 33 22 52
c18 41 21 64 17 113 -2 34 -11 75 -19 91 -13 27 -13 32 4 52 26 33 22 63 -11
95 -33 31 -94 43 -126 25z m109 -30 c28 -22 35 -66 14 -87 -9 -9 -15 -8 -28 3
-14 13 -25 12 -90 -4 -130 -31 -224 -88 -282 -172 -16 -23 -17 -23 -34 -7 -21
21 -24 79 -5 101 7 9 51 28 98 43 59 19 100 39 135 68 103 84 141 95 192 55z
m-244 -63 c0 -3 -4 -8 -10 -11 -5 -3 -10 -1 -10 4 0 6 5 11 10 11 6 0 10 -2
10 -4z m236 -53 c25 -39 41 -120 34 -170 -9 -58 -58 -133 -105 -160 -74 -42
-175 -24 -224 39 -27 34 -51 101 -51 143 0 27 8 40 39 64 68 54 193 105 272
110 9 1 25 -11 35 -26z m73 -427 c28 -89 34 -170 19 -236 -13 -54 -15 -56 -90
-105 -43 -27 -101 -63 -129 -80 -74 -42 -76 -49 -41 -125 53 -114 112 -252
112 -261 0 -5 -10 -9 -22 -9 -12 0 -30 -7 -39 -16 -17 -16 -19 -15 -28 8 -5
13 -19 67 -31 119 -13 52 -47 175 -77 274 l-55 180 23 15 c160 106 174 121
253 273 l41 78 22 -25 c12 -15 31 -55 42 -90z m-123 35 c-55 -107 -85 -145
-167 -203 -45 -32 -86 -58 -91 -58 -5 0 -17 18 -25 40 -9 22 -20 40 -25 40
-19 0 -6 16 25 29 118 51 177 87 237 145 36 35 66 62 68 60 2 -1 -8 -25 -22
-53z m-388 -201 c10 -17 10 -20 -5 -20 -10 0 -25 5 -33 10 -13 9 -13 11 0 20
21 13 23 13 38 -10z m89 -33 c17 -42 9 -63 -12 -32 -23 32 -33 43 -46 47 -20
7 1 29 23 26 13 -2 26 -17 35 -41z m54 -149 c11 -40 34 -113 49 -163 15 -49
33 -117 40 -150 6 -33 18 -79 26 -103 14 -42 19 -90 8 -80 -3 3 -16 50 -30
104 -14 55 -49 174 -79 266 -56 169 -63 198 -45 198 5 0 19 -33 31 -72z m-111
10 c0 -10 2 -10 9 0 6 10 10 10 20 -1 14 -18 127 -362 136 -417 9 -55 -9 -51
-25 5 -7 25 -15 43 -18 41 -2 -3 3 -26 12 -52 17 -52 14 -74 -5 -28 -33 84
-54 183 -24 119 17 -39 18 -21 0 25 -10 25 -14 29 -15 15 -1 -14 -5 -10 -15
15 -7 19 -14 31 -14 27 -1 -8 42 -167 55 -203 5 -13 4 -16 -4 -9 -19 17 -82
183 -113 297 -33 122 -37 178 -14 178 8 0 15 -6 15 -12z m409 -111 l-59 -123
46 -109 c25 -61 46 -114 47 -120 1 -5 -14 -11 -33 -13 -35 -3 -37 -2 -60 55
-13 32 -45 106 -72 166 -27 59 -48 113 -46 119 3 8 208 137 235 147 1 1 -25
-54 -58 -122z m-188 -401 c13 -14 11 -26 -6 -26 -28 0 -44 41 -37 100 l6 55
13 -60 c8 -33 18 -64 24 -69z m246 -6 l11 -30 -94 0 c-52 0 -94 2 -94 4 0 3 4
16 10 30 9 25 13 26 83 26 72 0 73 0 84 -30z m-64 -43 c123 3 165 -6 175 -35
3 -11 -25 -12 -149 -8 -85 3 -160 5 -166 6 -7 0 -13 8 -13 18 0 23 11 35 22
24 5 -5 63 -7 131 -5z m-96 -63 c-3 -3 -12 -4 -19 -1 -8 3 -5 6 6 6 11 1 17
-2 13 -5z"/>
<path d="M1341 800 c0 -40 2 -42 11 -22 8 16 8 28 0 45 -9 19 -11 17 -11 -23z"/>
<path d="M1278 775 c2 -30 9 -55 14 -55 7 0 9 18 5 46 -7 66 -23 73 -19 9z"/>
<path d="M1130 675 c0 -5 5 -17 10 -25 5 -8 10 -10 10 -5 0 6 -5 17 -10 25 -5
8 -10 11 -10 5z"/>
<path d="M1121 640 c0 -8 4 -24 9 -35 5 -13 9 -14 9 -5 0 8 -4 24 -9 35 -5 13
-9 14 -9 5z"/>
<path d="M1156 600 c4 -19 11 -44 15 -55 6 -14 7 -9 3 15 -4 19 -11 44 -15 55
-6 14 -7 9 -3 -15z"/>
<path d="M1141 570 c0 -8 4 -24 9 -35 5 -13 9 -14 9 -5 0 8 -4 24 -9 35 -5 13
-9 14 -9 5z"/>
<path d="M1181 504 c0 -11 3 -14 6 -6 3 7 2 16 -1 19 -3 4 -6 -2 -5 -13z"/>
<path d="M309 1561 c-75 -23 -122 -67 -149 -138 -11 -30 -20 -73 -20 -96 0
-54 38 -134 89 -190 l41 -44 -50 -106 c-41 -85 -55 -127 -69 -214 -10 -59 -16
-110 -14 -113 10 -11 20 26 32 114 10 72 23 114 55 182 l43 89 8 -200 c5 -110
9 -242 9 -294 l1 -93 -80 -48 c-44 -27 -81 -54 -84 -61 -2 -6 0 -9 5 -7 5 3
41 25 79 48 39 23 74 45 79 48 5 3 7 -49 4 -122 -3 -69 -2 -126 2 -126 10 0
20 91 20 187 l0 81 35 22 c19 12 35 29 35 37 0 9 -20 75 -45 146 -53 152 -58
218 -6 82 19 -49 36 -85 38 -78 2 6 -11 54 -31 105 -29 77 -36 113 -42 205
l-7 111 47 -15 c130 -43 238 74 237 257 0 116 -43 183 -144 225 -39 16 -77 18
-118 6z m142 -40 c92 -49 127 -151 94 -276 -48 -183 -186 -219 -313 -82 -52
57 -72 105 -72 171 1 67 27 124 80 169 65 56 130 61 211 18z m-97 -985 c1 -19
-6 -33 -21 -43 -23 -15 -23 -15 -23 34 0 28 -2 79 -6 114 l-5 64 27 -70 c15
-38 27 -83 28 -99z"/>
<path d="M961 1069 c-17 -17 -31 -35 -31 -41 0 -6 9 1 21 16 11 14 30 33 42
41 12 8 16 15 10 15 -6 0 -25 -14 -42 -31z"/>
<path d="M1013 1040 c-18 -11 -33 -24 -33 -30 0 -6 10 -1 22 10 13 11 34 23
48 26 42 9 46 12 20 13 -14 1 -40 -8 -57 -19z"/>
<path d="M954 708 c1 -89 5 -110 20 -127 11 -12 26 -21 35 -20 11 0 9 3 -6 9
-28 11 -35 35 -44 150 l-7 95 2 -107z"/>
<path d="M881 702 c-2 -42 21 -110 42 -129 20 -18 20 -18 4 7 -9 14 -23 53
-31 85 -8 33 -15 50 -15 37z"/>
</g>
</svg>
