<?xml version="1.0" standalone="no"?>
<!DOCTYPE svg PUBLIC "-//W3C//DTD SVG 20010904//EN"
 "http://www.w3.org/TR/2001/REC-SVG-20010904/DTD/svg10.dtd">
<svg version="1.0" xmlns="http://www.w3.org/2000/svg"
 width="167.000000pt" height="278.000000pt" viewBox="0 0 167.000000 278.000000"
 preserveAspectRatio="xMidYMid meet">
<metadata>
Created by potrace 1.13, written by Peter Selinger 2001-2015
</metadata>
<g transform="translate(0.000000,278.000000) scale(0.100000,-0.100000)"
fill="#000000" stroke="none">
<path d="M0 1390 l0 -1390 825 0 825 0 0 1390 0 1390 -825 0 -825 0 0 -1390z
m1630 0 l0 -1370 -805 0 -805 0 0 1370 0 1370 805 0 805 0 0 -1370z"/>
<path d="M1177 2273 c18 -2 50 -2 70 0 21 2 7 4 -32 4 -38 0 -55 -2 -38 -4z"/>
<path d="M980 2255 c-19 -7 -40 -22 -46 -34 -14 -27 -118 -104 -159 -117 -17
-5 -31 -18 -34 -29 -2 -11 -10 -24 -18 -28 -12 -7 -10 -16 11 -52 l26 -43 -30
-29 c-17 -15 -30 -38 -30 -50 0 -12 -12 -34 -26 -48 -23 -23 -25 -32 -20 -68
10 -62 127 -419 144 -439 17 -20 48 -23 87 -8 36 14 40 33 21 92 -23 72 -13
70 13 -2 41 -111 40 -122 -14 -173 -42 -39 -46 -46 -36 -65 14 -26 38 -28 63
-6 17 16 20 13 53 -60 19 -42 35 -80 35 -85 0 -23 24 -27 74 -10 29 10 72 22
94 28 42 9 42 9 36 -18 -25 -114 -67 -228 -134 -365 -64 -133 -104 -234 -185
-474 -2 -6 -1 -12 4 -12 5 0 30 62 56 138 45 131 170 418 186 427 4 3 10 -30
14 -72 14 -177 23 -218 77 -357 31 -76 58 -134 61 -129 3 5 -19 71 -49 146
-44 111 -55 151 -60 214 -2 43 -10 112 -15 153 -10 72 -9 80 24 190 19 63 37
132 41 153 4 20 12 37 19 37 23 0 122 52 150 78 22 21 36 26 66 23 31 -2 42 2
55 21 9 12 16 33 16 47 0 50 -35 134 -75 179 -22 26 -39 54 -37 64 4 22 -23
34 -42 18 -18 -14 -62 7 -113 53 -19 18 -41 36 -50 40 -23 14 -81 -2 -98 -26
-19 -28 -19 -71 0 -87 14 -11 14 -15 1 -29 -20 -22 -66 -122 -66 -144 0 -10
-4 -16 -9 -12 -25 15 -78 137 -136 310 -35 105 -73 217 -84 249 -22 63 -27
101 -11 91 13 -8 98 37 144 77 39 34 39 36 27 66 -12 29 -11 34 14 63 23 28
25 38 20 73 -4 23 -10 44 -14 47 -3 3 -22 0 -41 -6z m38 -49 c2 -15 -4 -38
-12 -52 -19 -27 -218 -164 -240 -164 -8 0 -18 10 -22 22 -5 17 2 28 36 56 103
86 216 170 225 168 6 -1 11 -15 13 -30z m-34 -133 c8 -20 -22 -53 -84 -93 -55
-35 -66 -37 -80 -11 -9 17 -1 26 63 70 79 55 92 59 101 34z m-195 -164 c-16
-9 -29 -3 -29 16 0 18 34 24 38 6 2 -7 -2 -17 -9 -22z m-25 -42 c6 -26 5 -27
-14 -17 -17 9 -18 14 -9 31 12 24 14 23 23 -14z m108 -169 c82 -237 83 -241
65 -256 -12 -11 -22 10 -61 135 -26 82 -58 180 -72 220 -27 81 -29 93 -11 93
7 0 40 -80 79 -192z m-155 160 c-3 -8 -6 -5 -6 6 -1 11 2 17 5 13 3 -3 4 -12
1 -19z m49 -73 c6 -22 39 -125 73 -230 34 -104 61 -197 61 -206 0 -23 -38 -31
-51 -11 -10 15 -10 15 -5 0 8 -28 -32 -23 -44 5 -5 12 -34 101 -65 197 -56
173 -73 268 -47 263 6 -2 12 3 13 10 0 6 7 -4 14 -23 l14 -35 -6 38 c-5 34 -3
39 12 35 11 -2 23 -19 31 -43z m81 -189 c-3 -10 -48 123 -46 139 0 6 11 -21
25 -60 13 -38 23 -74 21 -79z m424 -62 c18 -20 64 -51 100 -70 80 -40 121 -87
148 -167 21 -61 18 -91 -13 -116 -22 -18 -50 -6 -43 19 7 29 -28 95 -80 151
-46 49 -178 124 -218 124 -15 0 -21 8 -23 31 -7 71 71 88 129 28z m149 -64 c0
-5 -2 -10 -4 -10 -3 0 -8 5 -11 10 -3 6 -1 10 4 10 6 0 11 -4 11 -10z m-170
-44 c91 -49 144 -98 176 -162 l27 -55 -30 -37 c-64 -80 -209 -121 -269 -76
-86 64 -90 224 -8 331 14 18 28 33 32 33 4 0 37 -15 72 -34z m-269 -90 c16
-66 10 -110 -17 -120 -17 -6 -18 7 -3 48 9 25 7 42 -8 87 -16 48 -17 56 -3 52
9 -2 21 -28 31 -67z m89 -121 c1 -59 76 -154 123 -156 21 -1 -115 -49 -139
-49 -6 0 -29 40 -51 88 l-40 88 25 29 c21 25 24 35 19 79 l-6 51 34 -55 c19
-30 35 -63 35 -75z m-150 -30 c10 -12 9 -16 -5 -21 -19 -8 -40 9 -31 25 10 15
21 14 36 -4z"/>
<path d="M731 1674 c0 -11 3 -14 6 -6 3 7 2 16 -1 19 -3 4 -6 -2 -5 -13z"/>
<path d="M751 1680 c0 -8 4 -22 9 -30 12 -18 12 -2 0 25 -6 13 -9 15 -9 5z"/>
<path d="M771 1625 c1 -19 18 -51 18 -35 0 8 -4 22 -9 30 -5 8 -9 11 -9 5z"/>
<path d="M791 1554 c0 -11 3 -14 6 -6 3 7 2 16 -1 19 -3 4 -6 -2 -5 -13z"/>
<path d="M806 1510 c3 -14 11 -32 16 -40 6 -10 7 -7 2 10 -3 14 -11 32 -16 40
-6 10 -7 7 -2 -10z"/>
<path d="M810 1425 c0 -5 5 -17 10 -25 5 -8 10 -10 10 -5 0 6 -5 17 -10 25 -5
8 -10 11 -10 5z"/>
<path d="M1118 2263 c7 -3 16 -2 19 1 4 3 -2 6 -13 5 -11 0 -14 -3 -6 -6z"/>
<path d="M1303 2263 c9 -2 23 -2 30 0 6 3 -1 5 -18 5 -16 0 -22 -2 -12 -5z"/>
<path d="M1062 2248 c-9 -3 21 -6 68 -6 86 1 85 5 -3 10 -26 2 -55 0 -65 -4z"/>
<path d="M1358 2253 c6 -2 18 -2 25 0 6 3 1 5 -13 5 -14 0 -19 -2 -12 -5z"/>
<path d="M1434 2235 c21 -8 53 -24 72 -36 19 -11 34 -18 34 -15 0 10 -85 55
-115 60 -24 5 -23 3 9 -9z"/>
<path d="M1290 2215 c41 -13 76 -23 78 -21 5 5 -119 46 -137 46 -9 -1 18 -12
59 -25z"/>
<path d="M1420 2160 c25 -16 58 -44 74 -62 l29 -33 -25 35 c-25 34 -93 89
-113 90 -5 0 10 -13 35 -30z"/>
<path d="M1000 1869 c0 -3 7 -20 16 -38 9 -17 13 -38 10 -46 -3 -8 -1 -15 4
-15 18 0 11 57 -10 81 -10 13 -19 21 -20 18z"/>
<path d="M576 1845 c-22 -58 -12 -195 15 -195 6 0 6 7 -1 19 -13 25 -13 147 0
172 6 11 7 19 1 19 -5 0 -11 -7 -15 -15z"/>
<path d="M921 1841 c6 -14 15 -47 19 -75 5 -38 9 -46 15 -33 9 22 -8 84 -30
112 -15 19 -16 19 -4 -4z"/>
<path d="M509 1808 c-7 -13 -9 -41 -5 -71 9 -81 21 -73 21 13 0 44 -1 80 -2
80 -1 0 -7 -10 -14 -22z"/>
</g>
</svg>
