<?xml version="1.0" standalone="no"?>
<!DOCTYPE svg PUBLIC "-//W3C//DTD SVG 20010904//EN"
 "http://www.w3.org/TR/2001/REC-SVG-20010904/DTD/svg10.dtd">
<svg version="1.0" xmlns="http://www.w3.org/2000/svg"
 width="193.000000pt" height="278.000000pt" viewBox="0 0 193.000000 278.000000"
 preserveAspectRatio="xMidYMid meet">
<metadata>
Created by potrace 1.13, written by Peter Selinger 2001-2015
</metadata>
<g transform="translate(0.000000,278.000000) scale(0.100000,-0.100000)"
fill="#000000" stroke="none">
<path d="M5 2768 c-3 -7 -4 -632 -3 -1388 l3 -1375 945 0 945 0 0 1385 0 1385
-943 3 c-749 2 -944 0 -947 -10z m1875 -1378 l0 -1370 -930 0 -930 0 0 1370 0
1370 930 0 930 0 0 -1370z"/>
<path d="M123 2683 c-18 -2 -33 -9 -33 -14 0 -6 9 -7 21 -4 21 7 21 5 14 -55
-5 -45 -4 -61 4 -56 6 4 11 32 11 62 0 51 1 54 25 54 14 0 25 5 25 10 0 10 -7
10 -67 3z"/>
<path d="M303 2676 c-47 -9 -54 -13 -64 -43 -6 -18 -9 -43 -7 -55 4 -22 5 -22
16 5 13 31 32 36 32 8 0 -11 5 -23 10 -26 13 -8 13 20 1 63 -8 25 -7 32 5 32
10 0 14 -15 15 -57 1 -32 4 -44 6 -28 9 76 15 95 28 95 8 0 15 -5 15 -11 0 -8
5 -8 15 1 33 27 15 31 -72 16z m-33 -41 c0 -8 -4 -15 -10 -15 -5 0 -7 7 -4 15
4 8 8 15 10 15 2 0 4 -7 4 -15z"/>
<path d="M486 2667 c-9 -36 -7 -107 4 -107 6 0 10 15 10 33 l1 32 14 -32 c8
-18 21 -33 30 -33 12 0 15 13 15 62 0 68 -16 70 -22 3 l-4 -40 -13 48 c-16 55
-26 66 -35 34z"/>
<path d="M667 2676 c-20 -8 -40 -10 -43 -5 -3 5 -14 9 -24 9 -36 0 -42 -102
-7 -108 27 -5 58 27 55 57 -2 14 3 26 11 29 11 4 13 -4 8 -41 -4 -27 -2 -49 3
-52 6 -4 10 14 10 45 0 43 3 53 20 57 11 3 20 9 20 14 0 12 -7 11 -53 -5z
m-39 -55 c-4 -33 -48 -45 -48 -13 0 36 10 50 31 45 15 -4 19 -13 17 -32z"/>
<path d="M840 2646 c0 -48 -13 -67 -25 -38 -6 14 -10 12 -21 -13 -14 -30 -14
-29 -12 23 3 61 -7 69 -17 12 -10 -57 10 -103 30 -70 3 6 15 10 25 10 10 0 24
8 29 18 9 15 10 15 11 -5 0 -13 5 -23 10 -23 6 0 10 14 10 30 0 20 5 30 15 30
10 0 15 -10 15 -30 0 -23 4 -30 20 -30 15 0 20 7 20 25 0 20 5 25 26 25 23 0
26 -3 22 -25 -3 -14 -1 -28 4 -31 6 -4 9 13 7 45 -3 38 -1 51 10 51 11 0 12
-10 8 -45 -4 -27 -3 -45 3 -45 6 0 10 20 10 45 0 39 3 47 25 55 39 15 29 23
-17 14 -24 -4 -52 -8 -63 -9 -11 -1 -23 -3 -27 -4 -3 0 -11 -13 -16 -28 -10
-27 -10 -27 -12 12 -2 34 -3 36 -9 15 -8 -30 -41 -40 -41 -13 0 10 -9 24 -20
31 -19 11 -20 10 -20 -32z m150 -6 c0 -5 -7 -10 -16 -10 -8 0 -12 5 -9 10 3 6
10 10 16 10 5 0 9 -4 9 -10z"/>
<path d="M1380 2679 c-19 -5 -47 -6 -62 -3 -23 5 -28 1 -35 -23 l-7 -28 -7 30
-6 30 -8 -32 c-8 -37 -38 -45 -51 -15 -6 14 -8 12 -14 -13 -11 -45 -11 -65 0
-65 6 0 10 9 10 20 0 15 7 20 25 20 18 0 25 -5 25 -20 0 -27 28 -15 36 16 4
15 13 24 25 24 15 0 19 -7 19 -31 0 -18 4 -28 10 -24 7 4 8 24 4 51 -4 30 -3
44 5 44 7 0 11 -20 11 -52 0 -62 9 -58 18 8 7 44 10 49 37 54 19 4 25 8 15 11
-8 3 -31 2 -50 -2z m-69 -42 c-13 -13 -26 -3 -16 12 3 6 11 8 17 5 6 -4 6 -10
-1 -17z"/>
<path d="M210 2655 c0 -18 -5 -25 -20 -25 -12 0 -21 7 -21 18 -1 9 -5 -3 -9
-28 -4 -25 -4 -49 1 -54 5 -6 9 1 9 17 0 20 5 27 20 27 15 0 20 -7 20 -27 0
-42 7 -23 14 40 4 36 2 57 -4 57 -5 0 -10 -11 -10 -25z"/>
<path d="M394 2657 c-27 -24 -26 -47 2 -47 20 0 18 -10 -8 -37 -12 -13 -17
-23 -10 -23 6 0 20 12 32 27 l21 28 -21 17 -22 18 26 11 c14 7 26 16 26 21 0
14 -18 9 -46 -15z"/>
<path d="M1158 2673 c-30 -5 -39 -23 -12 -23 13 0 15 -8 10 -52 -8 -62 8 -47
18 18 6 32 13 43 34 51 l27 11 -25 -1 c-14 0 -37 -2 -52 -4z"/>
<path d="M1415 2621 c-3 -6 17 -9 50 -8 30 1 55 5 55 10 0 10 -98 9 -105 -2z"/>
<path d="M307 2473 c-2 -4 -8 -60 -11 -123 -5 -76 -16 -148 -34 -210 -36 -129
-37 -278 -3 -395 13 -44 27 -84 32 -90 13 -14 11 -2 -17 103 -23 86 -26 109
-21 207 3 74 12 131 27 175 14 44 25 109 31 199 8 126 8 154 -4 134z"/>
<path d="M735 2390 c-21 -41 -32 -50 -62 -50 -20 0 -21 3 -13 26 12 32 12 34
0 34 -6 0 -15 -12 -21 -27 -6 -15 -13 -30 -17 -33 -4 -3 -12 -24 -18 -47 -9
-35 -9 -43 2 -43 8 0 16 11 20 25 6 26 31 45 58 45 13 0 14 -5 6 -26 -12 -30
-13 -54 -2 -54 11 1 74 158 69 173 -2 6 -12 -4 -22 -23z"/>
<path d="M784 2388 c-25 -20 -63 -89 -64 -115 0 -26 19 -12 30 21 9 27 15 32
34 29 22 -5 23 -8 15 -36 -11 -40 -12 -37 5 -37 14 0 24 34 33 106 6 51 -13
63 -53 32z m36 -18 c0 -5 -9 -14 -20 -20 -22 -12 -27 -1 -8 18 14 14 28 16 28
2z"/>
<path d="M1077 2399 c-14 -8 -77 -117 -77 -134 0 -16 22 -1 35 25 11 22 23 30
41 30 22 0 25 -3 20 -22 -19 -68 -19 -71 -5 -66 21 7 45 111 34 144 -12 32
-23 37 -48 23z m27 -34 c4 -10 -1 -15 -16 -15 -17 0 -18 2 -8 15 7 8 14 15 15
15 2 0 5 -7 9 -15z"/>
<path d="M1160 2364 c-23 -53 -23 -54 -10 -54 10 0 33 39 44 78 13 42 -14 23
-34 -24z"/>
<path d="M915 2348 c-30 -66 -40 -108 -27 -108 5 0 15 14 22 30 9 22 19 30 37
30 19 0 24 -4 19 -16 -17 -45 -18 -64 -2 -64 9 0 16 8 16 20 0 11 11 45 25 76
14 31 25 63 25 70 0 27 -19 14 -30 -21 -6 -19 -15 -35 -20 -35 -5 0 -16 -3
-26 -7 -15 -6 -16 -2 -10 35 3 23 4 42 1 42 -4 0 -17 -24 -30 -52z"/>
<path d="M450 2330 c0 -5 19 -10 43 -11 23 0 50 -2 59 -4 10 -2 20 0 23 5 5 8
-52 20 -97 20 -16 0 -28 -4 -28 -10z"/>
<path d="M1130 2264 c0 -17 22 -14 28 4 2 7 -3 12 -12 12 -9 0 -16 -7 -16 -16z"/>
<path d="M752 2137 l-34 -41 7 37 c8 44 -11 53 -21 10 -20 -91 -33 -110 -53
-75 -10 16 -12 15 -30 -8 l-20 -25 14 55 c17 64 18 70 7 70 -13 0 -46 -116
-39 -134 8 -20 36 -21 43 -2 3 8 15 11 30 8 13 -2 32 2 41 9 13 11 17 11 20 2
7 -20 58 -15 88 9 l27 21 -6 -21 c-5 -16 -3 -22 8 -22 8 0 16 10 18 23 5 34
22 24 34 -19 9 -30 13 -35 19 -22 4 10 2 32 -4 49 -6 18 -10 33 -9 33 2 1 17
9 35 19 l32 18 -19 -56 c-15 -44 -16 -55 -5 -55 7 0 16 14 20 30 8 38 18 38
32 1 14 -37 62 -50 99 -26 36 23 40 42 16 75 l-22 29 30 6 c17 4 30 11 30 16
0 15 -44 10 -68 -7 l-23 -15 27 -32 26 -31 -22 -18 c-25 -20 -40 -23 -40 -7 0
6 -6 9 -12 6 -7 -2 -18 8 -24 22 -10 23 -8 29 20 53 39 33 28 48 -15 18 l-31
-23 7 23 c5 17 4 21 -6 17 -8 -2 -22 2 -31 10 -24 21 -66 9 -86 -26 l-16 -28
-20 30 c-12 17 -25 32 -31 33 -5 2 -25 -16 -43 -39z m176 11 c-6 -16 -36 -34
-44 -25 -9 9 15 37 33 37 8 0 13 -5 11 -12z m-118 -42 c0 -22 -36 -56 -60 -56
-15 0 -12 27 6 55 21 33 54 33 54 1z"/>
<path d="M1163 2143 c-6 -21 -15 -46 -18 -55 -5 -12 -2 -18 7 -18 14 0 38 59
38 94 0 29 -15 17 -27 -21z"/>
<path d="M1281 2154 c-37 -31 -42 -75 -11 -97 19 -13 20 -16 4 -58 -23 -64
-21 -156 4 -206 40 -78 101 -110 193 -101 l41 4 -24 -19 c-61 -50 -197 -105
-325 -132 -64 -13 -76 -13 -108 1 -69 28 -136 0 -90 -38 9 -7 25 -20 35 -30
10 -9 26 -18 37 -20 22 -4 20 10 28 -333 3 -143 7 -281 9 -307 4 -57 -9 -62
-30 -12 -13 32 -13 40 1 78 14 36 16 75 12 253 -6 223 -11 248 -55 259 -12 4
-29 1 -37 -6 -23 -19 -38 -88 -30 -139 4 -25 10 -112 14 -193 6 -127 9 -151
27 -175 11 -15 23 -47 26 -71 7 -49 22 -72 50 -72 15 0 17 -3 8 -19 -14 -27
-13 -41 5 -41 8 0 23 -9 32 -20 11 -12 30 -20 49 -20 46 0 131 -38 137 -61 4
-16 13 -19 44 -18 21 1 48 -2 61 -6 19 -6 22 -4 22 19 0 38 -16 63 -50 81 -25
13 -28 18 -20 44 8 30 0 44 -42 74 -14 10 -20 38 -28 144 -5 73 -12 143 -16
157 -5 23 0 27 72 61 138 63 170 89 206 164 28 58 32 79 36 171 3 89 1 115
-17 169 -12 35 -21 64 -19 65 108 47 157 107 161 192 2 40 7 53 30 72 38 33
37 83 -2 123 -27 27 -35 29 -105 29 -60 0 -76 3 -76 14 0 23 -20 29 -38 12
-16 -14 -22 -13 -67 9 -67 33 -115 32 -154 -1z m149 -14 c59 -26 80 -30 159
-30 79 0 93 -3 115 -22 35 -33 42 -79 16 -103 -21 -19 -21 -19 -43 7 -46 54
-195 108 -304 108 -42 0 -54 -4 -63 -20 -12 -23 -36 -17 -46 12 -9 30 39 75
84 77 8 1 44 -12 82 -29z m89 -79 c33 -10 80 -30 105 -45 42 -24 45 -29 51
-79 8 -66 -13 -125 -62 -168 -89 -78 -222 -84 -288 -14 -54 56 -67 131 -39
226 27 92 35 99 108 99 35 0 91 -8 125 -19z m15 -418 c24 -111 26 -130 16
-210 -7 -53 -20 -104 -37 -137 -24 -49 -33 -57 -99 -90 -40 -19 -96 -45 -125
-56 -29 -12 -64 -32 -77 -45 -20 -20 -22 -27 -11 -46 13 -25 61 -260 54 -267
-2 -2 -26 4 -54 14 -39 14 -53 15 -64 6 -13 -11 -15 25 -21 260 -3 150 -5 284
-3 298 2 21 18 31 112 73 102 44 117 54 200 137 49 50 93 90 96 90 4 0 9 -12
13 -27z m-146 -77 c-53 -50 -87 -72 -163 -105 -53 -22 -100 -41 -105 -41 -5 0
-10 21 -12 48 l-3 47 96 22 c53 11 129 37 170 56 41 19 76 35 79 36 3 0 -25
-28 -62 -63z m-342 -42 c6 -8 19 -14 28 -14 12 0 16 -10 16 -47 l0 -48 -21 43
c-17 34 -26 42 -48 42 -29 0 -51 16 -51 38 0 17 60 7 76 -14z m52 -429 c1
-180 -2 -294 -8 -290 -11 7 -14 585 -2 585 4 0 9 -133 10 -295z m-82 271 c17
-13 19 -30 22 -213 4 -260 -11 -331 -55 -251 -13 25 -18 57 -19 133 0 55 -4
143 -8 195 -11 132 7 174 60 136z m228 -351 c5 -52 4 -55 -4 -18 -5 23 -13 51
-19 61 -6 11 -7 22 -4 26 13 12 21 -10 27 -69z m-193 -251 c9 -11 8 -14 0 -14
-14 0 -41 60 -40 87 0 10 7 0 15 -21 8 -21 19 -45 25 -52z m145 28 c5 -5 27
-14 50 -20 56 -16 85 -42 77 -71 -7 -27 -22 -25 -123 22 -64 30 -83 50 -63 70
9 10 47 9 59 -1z m-86 -12 c0 -5 -5 -10 -11 -10 -5 0 -7 5 -4 10 3 6 8 10 11
10 2 0 4 -4 4 -10z m79 -69 c47 -21 112 -50 144 -64 49 -22 57 -30 57 -53 0
-17 -4 -24 -12 -21 -120 51 -286 117 -295 117 -7 0 -13 5 -13 10 0 11 22 50
29 50 2 0 43 -17 90 -39z m126 -131 c3 -5 2 -10 -4 -10 -5 0 -13 5 -16 10 -3
6 -2 10 4 10 5 0 13 -4 16 -10z"/>
<path d="M1192 1313 c-1 -23 -5 -50 -8 -60 -5 -17 -5 -17 6 0 6 9 9 36 7 60
l-4 42 -1 -42z"/>
<path d="M1266 1319 c-8 -42 0 -50 9 -9 4 17 5 34 2 36 -2 3 -7 -10 -11 -27z"/>
<path d="M984 1275 c0 -49 1 -71 3 -48 2 23 2 64 0 90 -2 26 -3 8 -3 -42z"/>
<path d="M1013 1210 c0 -30 2 -43 4 -27 2 15 2 39 0 55 -2 15 -4 2 -4 -28z"/>
<path d="M993 1085 c0 -38 2 -53 4 -32 2 20 2 52 0 70 -2 17 -4 1 -4 -38z"/>
<path d="M1023 1085 c0 -33 2 -45 4 -27 2 18 2 45 0 60 -2 15 -4 0 -4 -33z"/>
<path d="M413 2153 c-3 -10 -15 -40 -25 -67 -28 -72 -12 -96 16 -26 30 74 39
110 26 110 -6 0 -13 -8 -17 -17z"/>
<path d="M473 2159 c-36 -10 -44 -29 -14 -29 20 0 20 -1 0 -57 -11 -32 -15
-61 -11 -65 8 -8 29 37 48 102 8 30 21 40 52 40 12 0 22 5 22 10 0 12 -53 12
-97 -1z"/>
<path d="M1133 2033 c-18 -7 -16 -23 2 -23 8 0 15 7 15 15 0 8 -1 15 -2 14 -2
0 -9 -3 -15 -6z"/>
<path d="M920 1968 c-1 -54 62 -104 144 -113 25 -3 66 -7 91 -10 26 -3 45 0
45 5 0 6 -22 10 -50 10 -114 0 -189 33 -216 94 -7 18 -13 24 -14 14z"/>
<path d="M305 1520 c-38 -3 -79 -10 -90 -17 -88 -50 -121 -182 -71 -288 25
-55 93 -123 142 -143 l31 -13 -19 -62 c-21 -68 -66 -285 -68 -332 -4 -67 4
-42 36 118 19 93 38 176 43 185 6 11 8 -30 6 -118 -5 -151 -13 -238 -50 -515
-29 -219 -28 -212 -16 -200 10 10 28 136 57 390 20 185 22 189 40 145 20 -47
144 -480 144 -502 0 -10 5 -18 10 -18 6 0 10 6 10 14 0 26 -129 464 -155 525
-22 53 -25 75 -25 172 0 62 2 110 6 107 3 -3 13 -46 24 -96 16 -80 58 -230 67
-241 2 -2 6 -2 9 1 3 3 -6 44 -20 89 -14 46 -32 118 -40 159 -9 41 -20 93 -26
115 -14 60 -13 66 14 59 40 -10 108 15 147 55 89 88 87 255 -4 349 -56 59 -93
70 -202 62z m70 -21 c22 -6 51 -12 65 -14 64 -9 127 -135 117 -233 -11 -107
-84 -182 -177 -182 -168 0 -298 202 -222 347 42 80 116 108 217 82z"/>
<path d="M863 1398 c-4 -7 -9 -67 -11 -133 -3 -100 -1 -123 13 -140 l17 -20
-8 20 c-13 31 -16 210 -5 249 10 37 8 45 -6 24z"/>
<path d="M762 1210 c0 -14 2 -19 5 -12 2 6 2 18 0 25 -3 6 -5 1 -5 -13z"/>
<path d="M770 1174 c0 -6 7 -19 16 -30 14 -18 14 -18 3 6 -14 31 -19 36 -19
24z"/>
<path d="M1308 897 c-12 -28 -9 -85 3 -93 7 -4 20 4 30 17 l18 24 11 -29 c8
-22 15 -27 31 -23 18 5 21 2 17 -24 -6 -36 16 -39 56 -8 32 26 40 21 26 -15
-14 -39 -13 -56 5 -50 8 4 15 2 15 -4 0 -5 -7 -15 -15 -22 -24 -20 -18 -27 26
-34 35 -6 39 -9 28 -22 -7 -8 -32 -27 -57 -41 -42 -25 -43 -27 -26 -41 17 -13
14 -14 -28 -9 -46 4 -47 4 -50 -27 l-3 -30 -32 34 c-32 34 -33 34 -33 11 l0
-24 -23 21 -23 22 -29 -30 c-29 -30 -27 -34 20 -42 17 -3 15 -7 -12 -21 -34
-18 -44 -37 -19 -37 8 0 27 -5 43 -11 l28 -11 -43 -20 c-45 -22 -51 -41 -13
-46 19 -3 21 -8 16 -36 -5 -23 -2 -36 9 -45 13 -11 19 -8 40 16 l25 28 -6 -36
c-7 -45 14 -63 35 -31 17 25 32 29 32 7 0 -17 25 -20 35 -5 10 16 23 12 30
-10 7 -22 49 -27 75 -9 11 8 7 9 -18 6 -28 -3 -36 0 -45 20 -11 26 -19 28 -48
13 -16 -9 -19 -7 -19 10 0 26 -8 25 -37 -2 l-23 -21 0 31 c0 43 -15 48 -46 15
l-27 -28 7 43 c6 38 4 42 -14 42 -30 0 -24 17 10 29 39 13 39 39 0 54 l-30 11
27 22 c29 23 25 44 -9 44 -17 0 -18 2 -8 15 11 13 17 11 48 -16 27 -24 37 -28
43 -17 6 10 11 10 21 0 19 -19 28 -14 28 17 0 24 3 28 20 24 26 -7 121 17 114
28 -3 5 -17 9 -32 10 l-27 0 25 17 c14 9 38 29 55 44 25 23 28 29 15 38 -8 5
-27 10 -43 10 -27 0 -27 0 -10 26 16 25 16 27 -1 39 -14 11 -15 17 -7 34 27
50 0 67 -47 30 l-27 -21 -5 24 c-4 14 -14 24 -29 26 -14 2 -27 15 -36 34 l-13
31 -18 -29 -19 -28 -5 49 c-4 35 -7 45 -12 32z"/>
<path d="M880 829 c0 -6 14 -22 31 -37 l32 -26 -39 -11 c-50 -14 -52 -39 -4
-43 l35 -4 -55 -48 c-65 -58 -61 -81 9 -50 58 26 62 25 44 -11 -18 -35 -10
-48 17 -31 29 18 30 15 14 -23 -16 -39 -18 -75 -4 -75 5 0 24 18 41 40 34 42
49 50 49 25 0 -8 7 -15 15 -15 8 0 15 -4 15 -10 0 -5 14 -10 32 -10 39 0 28
-13 -24 -30 -47 -15 -48 -26 -3 -34 39 -8 46 -21 15 -29 -30 -8 -24 -23 13
-37 l32 -12 -22 -15 c-13 -8 -23 -19 -23 -23 0 -4 10 -11 23 -14 l22 -7 -23
-11 c-17 -8 -21 -17 -16 -32 7 -21 6 -21 -14 -2 -18 15 -24 16 -37 6 -8 -7
-15 -19 -15 -27 0 -10 -10 -7 -33 11 -42 32 -77 34 -77 6 0 -22 -10 -26 -27
-9 -16 16 -43 4 -43 -20 0 -18 -33 -36 -55 -31 -48 12 -85 16 -85 10 0 -10 26
-20 54 -20 12 0 27 -5 33 -11 8 -8 13 -8 17 0 4 6 16 11 27 11 14 0 19 7 19
25 0 29 11 31 45 9 24 -16 25 -16 25 9 0 38 13 40 59 6 44 -31 61 -31 61 2 0
23 16 25 28 3 11 -19 32 -10 32 12 0 9 10 24 23 35 21 18 21 20 4 33 -17 13
-17 15 -2 23 20 12 11 37 -18 51 -18 9 -19 11 -4 11 26 1 20 30 -9 43 l-25 12
32 15 c43 21 49 41 12 42 l-28 0 23 16 c12 8 22 19 22 24 0 15 -44 10 -69 -8
-23 -16 -24 -16 -19 5 10 38 -12 35 -53 -7 -42 -45 -47 -43 -24 12 17 41 7 54
-26 36 l-22 -11 22 36 23 36 -22 0 c-11 0 -39 -9 -61 -21 -58 -29 -59 -17 -2
26 26 20 48 42 48 48 0 6 -16 15 -35 20 l-35 10 38 10 c46 11 48 34 6 64 l-32
21 44 -4 c35 -3 39 -2 19 5 -36 13 -70 13 -70 0z m235 -289 c-3 -5 -12 -10
-18 -10 -7 0 -6 4 3 10 19 12 23 12 15 0z"/>
</g>
</svg>
