<?xml version="1.0" standalone="no"?>
<!DOCTYPE svg PUBLIC "-//W3C//DTD SVG 20010904//EN"
 "http://www.w3.org/TR/2001/REC-SVG-20010904/DTD/svg10.dtd">
<svg version="1.0" xmlns="http://www.w3.org/2000/svg"
 width="1752.000000pt" height="1776.000000pt" viewBox="0 0 1752.000000 1776.000000"
 preserveAspectRatio="xMidYMid meet">
<metadata>
Created by potrace 1.13, written by Peter Selinger 2001-2015
</metadata>
<g transform="translate(0.000000,1776.000000) scale(0.100000,-0.100000)"
fill="#000000" stroke="none">
<path d="M6885 16843 c-168 -11 -465 -37 -550 -48 -214 -29 -262 -37 -310 -50
-68 -19 -255 -41 -465 -55 -96 -7 -220 -18 -274 -26 -101 -15 -186 -44 -186
-64 0 -21 33 -22 78 -2 66 30 141 41 342 52 241 13 446 36 540 60 63 16 311
49 535 72 427 43 981 19 1720 -72 44 -5 136 -14 205 -20 665 -55 953 -102
1278 -210 164 -54 574 -217 731 -290 69 -32 214 -95 321 -140 308 -130 382
-174 585 -354 185 -164 371 -379 529 -611 310 -458 485 -781 516 -952 7 -37
16 -81 21 -97 13 -41 11 -538 -2 -633 -14 -106 -45 -227 -74 -294 -14 -31 -25
-62 -25 -68 0 -27 -74 -164 -148 -276 -117 -176 -265 -310 -489 -443 -57 -34
-437 -209 -528 -244 -44 -16 -118 -45 -165 -64 -149 -59 -412 -114 -730 -154
-91 -11 -210 -27 -265 -35 -138 -21 -305 -39 -755 -84 -52 -5 -218 -17 -368
-27 -230 -14 -296 -15 -425 -5 -83 7 -183 14 -222 17 -38 2 -95 7 -125 10 -30
4 -198 7 -373 8 -278 2 -319 0 -326 -14 -11 -22 -5 -243 8 -282 6 -18 15 -66
21 -106 12 -90 46 -159 114 -231 79 -86 88 -99 81 -111 -14 -23 -109 47 -229
171 -66 69 -136 136 -154 149 -70 51 -192 241 -207 322 -13 67 -7 66 -250 34
-408 -54 -1381 -60 -1985 -11 -235 19 -380 34 -450 46 -30 5 -167 27 -305 49
-137 22 -266 44 -285 49 -206 52 -267 71 -477 150 -211 80 -397 164 -515 234
-108 63 -279 181 -351 242 -59 49 -176 193 -244 300 -122 191 -280 498 -339
660 -82 224 -94 261 -94 277 0 9 -9 38 -21 65 -11 26 -31 100 -44 163 -13 63
-29 133 -35 155 -32 123 -46 574 -21 735 26 171 94 397 156 520 66 128 243
330 438 495 199 170 252 202 588 358 79 38 243 95 363 126 39 11 89 26 111 34
43 15 137 38 475 115 217 50 509 81 748 80 139 0 177 3 188 14 13 13 13 16 -1
28 -13 11 -56 11 -243 1 -237 -12 -314 -20 -524 -52 -124 -19 -317 -58 -388
-79 -19 -5 -82 -21 -140 -35 -432 -104 -903 -303 -1107 -468 -292 -236 -383
-328 -531 -540 -61 -87 -90 -153 -131 -307 -11 -41 -27 -95 -36 -120 -42 -115
-61 -498 -35 -679 33 -223 52 -322 91 -466 31 -114 136 -421 170 -496 22 -48
39 -90 39 -95 0 -11 193 -372 253 -474 62 -103 180 -253 250 -316 345 -311
1008 -610 1547 -698 47 -8 139 -23 205 -34 409 -68 678 -93 1210 -113 419 -16
1221 7 1497 43 90 11 98 11 118 -7 11 -10 20 -24 20 -30 0 -22 123 -199 180
-260 31 -33 67 -75 79 -93 12 -18 37 -40 54 -49 18 -9 64 -46 102 -82 39 -36
85 -77 103 -89 63 -44 235 -132 259 -132 31 0 39 23 19 52 -9 12 -16 29 -16
37 0 8 -38 53 -84 100 -69 71 -91 103 -129 181 -67 141 -76 231 -36 377 13 48
25 54 96 53 26 -1 113 2 193 6 86 4 208 2 300 -5 478 -35 607 -41 720 -31 63
5 194 14 290 20 96 6 216 15 265 20 50 5 134 12 188 14 53 3 101 8 107 11 8 5
170 27 440 60 276 33 666 101 810 141 57 16 140 46 320 116 134 52 542 246
612 291 132 85 349 291 400 378 13 21 50 84 82 139 60 103 108 224 126 321 44
226 51 294 57 516 9 352 -13 464 -143 728 -78 159 -265 461 -461 744 -123 178
-300 387 -453 534 -180 173 -333 270 -607 383 -77 32 -274 119 -435 192 -128
59 -504 205 -638 249 -323 105 -654 162 -1190 203 -80 6 -199 18 -265 26 -661
77 -1226 114 -1490 97z"/>
<path d="M8416 15607 c-21 -16 -18 -45 6 -61 23 -14 72 3 76 27 8 40 -44 62
-82 34z"/>
<path d="M8622 15608 c-30 -30 -3 -72 44 -66 34 4 53 31 38 56 -13 21 -64 28
-82 10z"/>
<path d="M3930 15495 c-30 -7 -65 -11 -78 -8 -46 11 -47 3 -47 -304 0 -309 1
-317 52 -350 32 -21 261 -32 306 -14 32 12 44 37 30 60 -9 14 -30 16 -144 13
-79 -2 -140 1 -149 7 -11 8 -16 36 -18 114 l-4 104 44 7 c23 3 93 11 153 17
114 11 135 19 135 49 0 39 -23 44 -148 31 -64 -7 -132 -15 -149 -18 l-33 -5 0
105 c0 86 3 106 16 111 38 14 185 18 248 6 53 -10 69 -10 82 0 23 20 13 53
-21 69 -42 20 -207 24 -275 6z"/>
<path d="M6420 15495 c-30 -7 -65 -11 -78 -8 -46 11 -47 3 -47 -304 0 -309 1
-317 52 -350 32 -21 261 -32 306 -14 32 12 44 37 30 60 -9 14 -30 16 -144 13
-79 -2 -140 1 -149 7 -11 8 -16 36 -18 114 l-4 104 44 7 c23 3 93 11 153 17
114 11 135 19 135 49 0 39 -23 44 -148 31 -64 -7 -132 -15 -149 -18 l-33 -5 0
105 c0 86 3 106 16 111 38 14 185 18 248 6 53 -10 69 -10 82 0 23 20 13 53
-21 69 -42 20 -207 24 -275 6z"/>
<path d="M3139 15477 c-11 -11 -14 -73 -12 -327 1 -325 2 -334 43 -327 34 6
40 47 40 275 l0 223 77 -98 c185 -238 328 -387 365 -381 45 6 49 35 45 303 -2
185 -7 260 -18 289 -17 48 -41 66 -66 50 -21 -13 -21 -25 -4 -199 7 -66 11
-167 9 -225 l-3 -105 -98 110 c-97 108 -187 223 -277 354 -46 68 -75 84 -101
58z"/>
<path d="M4779 15477 c-11 -11 -14 -73 -12 -327 1 -325 2 -334 43 -327 34 6
40 47 40 275 l0 223 77 -98 c185 -238 328 -387 365 -381 45 6 49 35 45 303 -2
185 -7 260 -18 289 -17 48 -41 66 -66 50 -21 -13 -21 -25 -4 -199 7 -66 11
-167 9 -225 l-3 -105 -98 110 c-97 108 -187 223 -277 354 -46 68 -75 84 -101
58z"/>
<path d="M5717 15468 c-11 -18 -14 -84 -13 -313 l1 -290 50 -25 c41 -20 65
-24 135 -25 104 0 146 14 200 67 103 99 117 258 34 375 -40 57 -140 135 -203
159 -25 9 -72 30 -103 45 -69 35 -83 36 -101 7z m188 -145 c128 -64 195 -147
195 -237 -1 -84 -60 -164 -138 -186 -54 -15 -129 -12 -164 6 l-31 16 7 81 c3
45 6 148 6 229 l0 147 38 -16 c20 -8 60 -27 87 -40z"/>
<path d="M6819 15477 c-11 -11 -14 -73 -12 -327 1 -325 2 -334 43 -327 34 6
40 47 40 275 l0 223 77 -98 c185 -238 328 -387 365 -381 45 6 49 35 45 303 -2
185 -7 260 -18 289 -17 48 -41 66 -66 50 -21 -13 -21 -25 -4 -199 7 -66 11
-167 9 -225 l-3 -105 -98 110 c-97 108 -187 223 -277 354 -46 68 -75 84 -101
58z"/>
<path d="M7772 15478 c-6 -8 -13 -141 -17 -326 -7 -292 -6 -314 10 -332 22
-24 51 -26 59 -4 3 9 6 67 6 130 l0 115 102 -91 c131 -118 193 -151 226 -118
20 20 14 47 -15 64 -69 42 -103 69 -178 138 l-80 73 120 125 c132 136 155 170
139 196 -25 39 -47 25 -159 -98 -61 -66 -120 -127 -132 -136 l-23 -14 0 133
c0 131 -6 157 -36 157 -6 0 -16 -6 -22 -12z"/>
<path d="M8899 15477 c-11 -11 -14 -73 -12 -327 1 -325 2 -334 43 -327 34 6
40 47 40 275 l0 223 77 -98 c185 -238 328 -387 365 -381 45 6 49 35 45 303 -2
185 -7 260 -18 289 -17 48 -41 66 -66 50 -21 -13 -21 -25 -4 -199 7 -66 11
-167 9 -225 l-3 -105 -98 110 c-97 108 -187 223 -277 354 -46 68 -75 84 -101
58z"/>
<path d="M9569 15477 c-11 -11 -14 -73 -12 -327 1 -325 2 -334 43 -327 34 6
40 47 40 275 l0 223 77 -98 c185 -238 328 -387 365 -381 45 6 49 35 45 303 -2
185 -7 260 -18 289 -17 48 -41 66 -66 50 -21 -13 -21 -25 -4 -199 7 -66 11
-167 9 -225 l-3 -105 -98 110 c-97 108 -187 223 -277 354 -46 68 -75 84 -101
58z"/>
<path d="M8449 15455 c-121 -39 -228 -206 -229 -356 0 -180 191 -305 372 -243
133 45 228 218 215 393 -7 95 -41 154 -109 189 -59 31 -181 39 -249 17z m216
-89 c48 -31 60 -63 60 -156 -1 -101 -21 -155 -85 -224 -50 -54 -94 -70 -168
-63 -67 7 -128 46 -155 97 -25 47 -18 139 16 213 29 63 95 133 141 147 46 14
161 6 191 -14z"/>
<path d="M10220 15456 c-15 -15 -12 -42 5 -56 8 -7 55 -15 104 -18 l88 -5 7
-66 c3 -36 9 -149 12 -251 4 -102 11 -191 17 -197 17 -22 47 -15 58 15 11 26
9 139 -8 401 l-6 103 118 -3 c103 -4 119 -2 129 14 21 33 -4 51 -80 59 -131
12 -433 15 -444 4z"/>
<path d="M4308 15449 c-21 -12 -23 -40 -6 -57 7 -7 39 -12 73 -12 l61 0 -3
-221 c-1 -122 -4 -223 -6 -225 -2 -2 -27 -7 -57 -11 -59 -9 -83 -31 -64 -60
10 -16 28 -18 175 -14 90 2 170 8 177 13 15 13 16 40 0 56 -7 7 -40 12 -80 12
l-68 0 0 179 c0 98 3 199 6 224 l6 45 79 -5 78 -6 7 27 c3 15 2 32 -4 38 -24
24 -338 38 -374 17z"/>
<path d="M7570 15180 c0 -5 5 -10 10 -10 6 0 10 5 10 10 0 6 -4 10 -10 10 -5
0 -10 -4 -10 -10z"/>
<path d="M3788 14803 c7 -3 16 -2 19 1 4 3 -2 6 -13 5 -11 0 -14 -3 -6 -6z"/>
<path d="M4011 14476 c-17 -20 -36 -613 -20 -632 14 -17 43 -18 56 -1 6 6 16
60 23 119 l13 106 111 21 c61 11 136 23 167 27 l56 6 7 -128 c7 -130 14 -154
46 -154 36 0 42 23 35 147 -3 65 -2 199 3 298 10 187 7 205 -30 205 -33 0 -48
-57 -48 -180 l0 -110 -33 0 c-19 0 -96 -11 -172 -25 -75 -14 -140 -23 -144
-20 -3 4 -6 75 -6 158 0 84 -4 158 -8 165 -11 16 -42 15 -56 -2z"/>
<path d="M4647 14472 c-13 -14 -17 -39 -17 -107 0 -49 -5 -137 -11 -195 -9
-82 -8 -127 2 -209 15 -111 31 -139 63 -112 12 11 16 33 16 103 0 88 0 89 23
83 58 -17 170 -81 229 -130 68 -57 85 -64 106 -43 33 33 -4 84 -113 157 l-75
50 36 11 c43 14 99 62 120 101 33 64 5 150 -70 216 -58 51 -100 71 -174 83
-84 14 -117 12 -135 -8z m197 -94 c71 -35 116 -89 116 -139 0 -56 -104 -109
-213 -109 l-43 0 1 141 0 141 49 -7 c27 -3 67 -15 90 -27z"/>
<path d="M5399 14477 c-11 -11 -14 -73 -12 -327 1 -325 2 -334 43 -327 34 6
40 47 40 275 l0 223 77 -98 c185 -238 328 -387 365 -381 45 6 49 35 45 303 -2
185 -7 260 -18 289 -17 48 -41 66 -66 50 -21 -13 -21 -25 -4 -199 7 -66 11
-167 9 -225 l-3 -105 -98 110 c-97 108 -187 223 -277 354 -46 68 -75 84 -101
58z"/>
<path d="M7041 14476 c-17 -20 -36 -613 -20 -632 14 -17 43 -18 56 -1 6 6 16
60 23 119 l13 106 111 21 c61 11 136 23 167 27 l56 6 7 -128 c7 -130 14 -154
46 -154 36 0 42 23 35 147 -3 65 -2 199 3 298 10 187 7 205 -30 205 -33 0 -48
-57 -48 -180 l0 -110 -33 0 c-19 0 -96 -11 -172 -25 -75 -14 -140 -23 -144
-20 -3 4 -6 75 -6 158 0 84 -4 158 -8 165 -11 16 -42 15 -56 -2z"/>
<path d="M10086 14468 c-8 -13 -25 -68 -36 -123 -12 -55 -38 -158 -58 -228
l-36 -129 -18 67 c-10 36 -32 134 -48 217 -17 84 -37 162 -45 175 -44 66 -110
-12 -129 -152 -4 -27 -21 -108 -37 -180 -37 -155 -43 -272 -17 -289 24 -15 51
3 60 40 4 16 24 109 45 207 l38 178 13 -68 c28 -148 75 -324 89 -338 20 -21
79 -19 101 3 10 10 37 95 67 214 l50 198 21 -113 c53 -282 75 -344 120 -335
38 7 39 32 6 150 -18 62 -46 194 -62 293 -31 187 -46 227 -88 233 -13 2 -26
-5 -36 -20z"/>
<path d="M6877 14463 c-4 -3 -31 -5 -61 -4 -73 3 -133 -26 -195 -95 -84 -92
-141 -215 -141 -303 0 -133 106 -233 230 -218 132 16 253 120 188 161 -14 8
-24 7 -40 -3 -13 -8 -44 -28 -70 -44 -54 -34 -121 -44 -158 -25 -37 20 -70 75
-70 118 0 61 27 133 79 206 58 83 100 115 156 122 39 4 43 2 63 -32 22 -37 48
-46 70 -24 14 14 16 87 2 122 -9 25 -38 35 -53 19z"/>
<path d="M7650 14456 c-15 -15 -12 -42 5 -56 8 -7 55 -15 104 -18 l88 -5 7
-66 c3 -36 9 -149 12 -251 4 -102 11 -191 17 -197 17 -22 47 -15 58 15 11 26
9 139 -8 401 l-6 103 118 -3 c103 -4 119 -2 129 14 21 33 -4 51 -80 59 -131
12 -433 15 -444 4z"/>
<path d="M8470 14456 c-15 -15 -12 -42 5 -56 12 -10 58 -12 189 -8 l173 5 -56
-56 c-31 -31 -73 -76 -93 -101 -73 -92 -227 -319 -234 -344 -13 -54 -5 -56
267 -52 136 3 253 7 259 11 17 11 11 44 -10 55 -12 7 -98 12 -214 13 l-193 2
55 70 c30 39 93 120 138 182 80 106 98 124 193 201 43 35 52 65 24 78 -27 12
-491 12 -503 0z"/>
<path d="M9492 14453 c-5 -10 -12 -85 -15 -168 -8 -211 -40 -315 -107 -350
-58 -30 -136 -12 -182 43 -37 44 -48 110 -48 288 0 162 -7 194 -41 194 -32 0
-39 -40 -39 -214 0 -234 26 -320 114 -371 87 -51 203 -46 268 13 79 71 106
166 115 394 4 119 3 161 -7 173 -17 20 -47 19 -58 -2z"/>
<path d="M3508 14449 c-21 -12 -23 -40 -6 -57 7 -7 39 -12 73 -12 l61 0 -3
-221 c-1 -122 -4 -223 -6 -225 -2 -2 -27 -7 -57 -11 -59 -9 -83 -31 -64 -60
10 -16 28 -18 175 -14 90 2 170 8 177 13 15 13 16 40 0 56 -7 7 -40 12 -80 12
l-68 0 0 179 c0 98 3 199 6 224 l6 45 79 -5 78 -6 7 27 c3 15 2 32 -4 38 -24
24 -338 38 -374 17z"/>
<path d="M6048 14449 c-21 -12 -23 -40 -6 -57 7 -7 39 -12 73 -12 l61 0 -3
-221 c-1 -122 -4 -223 -6 -225 -2 -2 -27 -7 -57 -11 -59 -9 -83 -31 -64 -60
10 -16 28 -18 175 -14 90 2 170 8 177 13 15 13 16 40 0 56 -7 7 -40 12 -80 12
l-68 0 0 179 c0 98 3 199 6 224 l6 45 79 -5 78 -6 7 27 c3 15 2 32 -4 38 -24
24 -338 38 -374 17z"/>
<path d="M10225 13508 c-3 -7 -4 -128 -3 -268 l3 -255 30 0 30 0 0 265 0 265
-28 3 c-16 2 -29 -2 -32 -10z"/>
<path d="M10425 13508 c-3 -7 -4 -128 -3 -268 l3 -255 30 0 30 0 0 265 0 265
-28 3 c-16 2 -29 -2 -32 -10z"/>
<path d="M10615 13508 c-3 -7 -4 -128 -3 -268 l3 -255 30 0 30 0 0 265 0 265
-28 3 c-16 2 -29 -2 -32 -10z"/>
<path d="M4720 13495 c-30 -7 -65 -11 -78 -8 -46 11 -47 3 -47 -304 0 -309 1
-317 52 -350 32 -21 261 -32 306 -14 32 12 44 37 30 60 -9 14 -30 16 -144 13
-79 -2 -140 1 -149 7 -11 8 -16 36 -18 114 l-4 104 44 7 c23 3 93 11 153 17
114 11 135 19 135 49 0 39 -23 44 -148 31 -64 -7 -132 -15 -149 -18 l-33 -5 0
105 c0 86 3 106 16 111 38 14 185 18 248 6 53 -10 69 -10 82 0 23 20 13 53
-21 69 -42 20 -207 24 -275 6z"/>
<path d="M5690 13495 c-30 -7 -65 -11 -78 -8 -46 11 -47 3 -47 -304 0 -309 1
-317 52 -350 32 -21 261 -32 306 -14 32 12 44 37 30 60 -9 14 -30 16 -144 13
-79 -2 -140 1 -149 7 -11 8 -16 36 -18 114 l-4 104 44 7 c23 3 93 11 153 17
114 11 135 19 135 49 0 39 -23 44 -148 31 -64 -7 -132 -15 -149 -18 l-33 -5 0
105 c0 86 3 106 16 111 38 14 185 18 248 6 53 -10 69 -10 82 0 23 20 13 53
-21 69 -42 20 -207 24 -275 6z"/>
<path d="M8900 13495 c-30 -7 -65 -11 -78 -8 -46 11 -47 3 -47 -304 0 -309 1
-317 52 -350 32 -21 261 -32 306 -14 32 12 44 37 30 60 -9 14 -30 16 -144 13
-79 -2 -140 1 -149 7 -11 8 -16 36 -18 114 l-4 104 44 7 c23 3 93 11 153 17
114 11 135 19 135 49 0 39 -23 44 -148 31 -64 -7 -132 -15 -149 -18 l-33 -5 0
105 c0 86 3 106 16 111 38 14 185 18 248 6 53 -10 69 -10 82 0 23 20 13 53
-21 69 -42 20 -207 24 -275 6z"/>
<path d="M3733 13483 c-11 -2 -26 -16 -32 -31 -6 -16 -12 -139 -13 -311 -3
-261 -2 -284 15 -295 12 -8 22 -8 35 0 14 9 17 29 20 126 l3 116 62 4 c155 10
257 130 218 258 -14 47 -86 115 -137 129 -38 11 -127 13 -171 4z m163 -89 c53
-25 77 -62 71 -108 -10 -71 -76 -116 -171 -116 l-39 0 6 68 c4 37 7 91 7 120
l0 52 46 0 c25 0 61 -7 80 -16z"/>
<path d="M5113 13478 c-6 -8 -13 -144 -17 -321 -6 -304 -6 -307 15 -328 20
-20 29 -21 108 -15 167 12 271 45 271 85 0 40 -24 45 -115 22 -47 -12 -112
-24 -145 -28 l-59 -6 6 286 c5 225 3 289 -7 302 -15 18 -44 20 -57 3z"/>
<path d="M6099 13477 c-11 -11 -14 -73 -12 -327 1 -325 2 -334 43 -327 34 6
40 47 40 275 l0 223 77 -98 c185 -238 328 -387 365 -381 45 6 49 35 45 303 -2
185 -7 260 -18 289 -17 48 -41 66 -66 50 -21 -13 -21 -25 -4 -199 7 -66 11
-167 9 -225 l-3 -105 -98 110 c-97 108 -187 223 -277 354 -46 68 -75 84 -101
58z"/>
<path d="M7031 13476 c-17 -20 -36 -613 -20 -632 14 -17 43 -18 56 -1 6 6 16
60 23 119 l13 106 111 21 c61 11 136 23 167 27 l56 6 7 -128 c7 -130 14 -154
46 -154 36 0 42 23 35 147 -3 65 -2 199 3 298 10 187 7 205 -30 205 -33 0 -48
-57 -48 -180 l0 -110 -33 0 c-19 0 -96 -11 -172 -25 -75 -14 -140 -23 -144
-20 -3 4 -6 75 -6 158 0 84 -4 158 -8 165 -11 16 -42 15 -56 -2z"/>
<path d="M8338 13483 c-14 -2 -31 -10 -36 -16 -10 -13 -32 -365 -32 -513 0
-121 8 -129 117 -121 181 14 303 88 303 183 0 31 -78 114 -107 114 -13 0 -11
6 10 28 72 75 76 184 9 256 -58 62 -151 86 -264 69z m158 -89 c43 -20 74 -59
74 -91 0 -73 -72 -133 -158 -133 l-42 0 0 120 0 120 46 0 c25 0 61 -7 80 -16z
m12 -319 c28 -9 64 -27 79 -40 l28 -25 -36 -34 c-28 -26 -53 -38 -107 -50 -39
-9 -82 -16 -96 -16 -26 0 -26 0 -26 90 l0 90 53 0 c29 0 77 -7 105 -15z"/>
<path d="M9299 13477 c-11 -11 -14 -73 -12 -327 1 -325 2 -334 43 -327 34 6
40 47 40 275 l0 223 77 -98 c185 -238 328 -387 365 -381 45 6 49 35 45 303 -2
185 -7 260 -18 289 -17 48 -41 66 -66 50 -21 -13 -21 -25 -4 -199 7 -66 11
-167 9 -225 l-3 -105 -98 110 c-97 108 -187 223 -277 354 -46 68 -75 84 -101
58z"/>
<path d="M4118 13449 c-21 -12 -23 -40 -6 -57 7 -7 39 -12 73 -12 l61 0 -3
-221 c-1 -122 -4 -223 -6 -225 -2 -2 -27 -7 -57 -11 -59 -9 -83 -31 -64 -60
10 -16 28 -18 175 -14 90 2 170 8 177 13 15 13 16 40 0 56 -7 7 -40 12 -80 12
l-68 0 0 179 c0 98 3 199 6 224 l6 45 79 -5 78 -6 7 27 c3 15 2 32 -4 38 -24
24 -338 38 -374 17z"/>
<path d="M7913 13413 c-53 -64 -91 -122 -143 -218 -24 -44 -54 -90 -68 -103
-14 -13 -21 -29 -18 -38 3 -9 -8 -47 -25 -85 -32 -75 -34 -96 -8 -112 28 -18
47 0 90 85 23 46 42 84 44 86 1 1 47 11 101 22 68 13 101 15 105 8 4 -6 10
-33 13 -60 15 -109 72 -176 114 -134 15 14 14 21 -5 83 -12 38 -38 156 -58
263 -20 107 -42 206 -49 220 -20 42 -49 37 -93 -17z m57 -239 c0 -17 -9 -22
-62 -31 -35 -6 -64 -9 -66 -8 -2 2 21 41 50 89 l53 85 12 -57 c7 -31 12 -66
13 -78z"/>
<path d="M3350 13441 c-103 -34 -180 -109 -180 -176 0 -72 57 -112 176 -126
119 -13 174 -48 174 -110 0 -62 -90 -119 -186 -119 -59 0 -94 15 -127 56 -29
35 -54 43 -75 22 -32 -32 2 -93 71 -131 34 -17 59 -22 127 -22 127 0 211 43
251 130 24 53 24 99 -2 152 -30 62 -84 91 -195 104 -131 15 -164 46 -108 103
45 44 108 55 208 34 49 -9 60 -9 73 5 21 21 11 42 -29 63 -36 19 -140 28 -178
15z"/>
<path d="M10210 12904 c-28 -33 21 -101 58 -78 24 15 27 40 8 69 -19 28 -47
32 -66 9z"/>
<path d="M10410 12904 c-28 -33 21 -101 58 -78 24 15 27 40 8 69 -19 28 -47
32 -66 9z"/>
<path d="M10600 12904 c-28 -33 21 -101 58 -78 24 15 27 40 8 69 -19 28 -47
32 -66 9z"/>
<path d="M7130 12585 c0 -9 5 -15 11 -13 6 2 11 8 11 13 0 5 -5 11 -11 13 -6
2 -11 -4 -11 -13z"/>
<path d="M13826 9686 c-47 -47 -116 -76 -180 -76 -74 0 -115 15 -158 57 -29
29 -41 34 -50 25 -9 -9 -8 -20 5 -48 26 -53 102 -84 208 -84 93 0 155 25 207
85 36 40 38 48 17 65 -11 9 -21 5 -49 -24z"/>
<path d="M14667 9610 c-59 -23 -77 -37 -77 -61 0 -29 20 -33 48 -10 43 35 104
61 143 61 47 0 117 -25 147 -53 36 -33 104 -175 111 -232 4 -35 10 -50 21 -50
26 0 20 108 -10 183 -51 129 -114 174 -250 178 -65 3 -96 -1 -133 -16z"/>
<path d="M8556 9267 c-85 -28 -95 -34 -161 -101 -89 -89 -144 -188 -175 -315
-38 -157 -19 -375 51 -555 39 -101 69 -153 136 -237 59 -74 101 -105 194 -145
148 -62 218 -75 354 -63 159 14 210 26 300 72 89 46 173 119 246 217 53 70 64
95 104 243 24 89 26 108 20 200 -9 141 -19 179 -71 282 -62 124 -143 209 -281
292 -59 35 -118 66 -132 69 -14 3 -56 15 -92 25 -36 10 -78 19 -93 19 -15 0
-37 5 -49 11 -12 7 -73 13 -140 13 -107 2 -129 -1 -211 -27z"/>
<path d="M13581 9264 c-24 -13 -56 -24 -70 -24 -63 0 -238 -72 -324 -132 -65
-46 -98 -182 -78 -322 12 -84 6 -99 -53 -121 -36 -14 -83 -17 -248 -18 -224
-2 -237 0 -382 67 -131 60 -142 53 -176 -114 -30 -146 -36 -514 -9 -559 20
-33 146 -101 234 -126 146 -41 174 -45 306 -45 117 0 147 3 220 26 144 43 161
46 176 31 10 -10 14 -60 15 -208 2 -210 -8 -669 -17 -787 -14 -177 -98 -273
-239 -276 -52 -1 -69 4 -121 34 -33 19 -99 65 -147 103 -101 79 -121 81 -138
14 -33 -126 -45 -164 -58 -184 -7 -12 -65 -64 -128 -115 -86 -69 -114 -98
-114 -115 0 -34 73 -108 165 -168 44 -28 87 -60 95 -69 36 -44 229 -158 307
-181 94 -28 208 -43 366 -49 l158 -6 113 34 c159 48 183 63 262 158 165 198
190 267 276 763 9 53 12 504 5 820 -2 134 3 154 54 210 57 62 128 87 239 86
95 -1 238 -17 287 -32 73 -23 116 -88 174 -260 27 -82 31 -111 44 -327 8 -130
17 -264 20 -297 5 -55 -5 -152 -35 -340 -7 -38 -29 -146 -51 -239 -21 -93 -39
-184 -39 -203 0 -20 -9 -46 -20 -60 -28 -36 -11 -53 52 -53 29 0 59 -7 74 -17
20 -13 27 -14 34 -4 6 11 15 11 46 1 22 -7 41 -16 44 -20 3 -4 37 -23 76 -43
39 -20 90 -55 115 -80 24 -24 53 -47 63 -51 29 -10 79 11 97 42 9 15 34 56 55
92 57 94 128 261 153 360 12 47 30 143 40 214 16 115 16 142 4 265 -7 75 -19
274 -27 443 -8 169 -17 311 -20 317 -12 19 -14 151 -2 159 6 4 58 7 116 8 113
1 212 19 323 61 40 15 104 28 155 33 48 4 114 15 147 23 33 8 72 18 87 21 44
10 48 30 39 181 -8 140 2 294 30 427 9 46 9 61 -1 73 -19 22 -62 18 -114 -11
-37 -20 -62 -27 -114 -28 -37 -1 -71 -4 -77 -7 -16 -10 -163 -22 -255 -21 -47
1 -110 8 -140 17 -30 8 -93 24 -140 36 -88 21 -195 81 -187 104 3 6 -7 19 -22
30 -22 14 -27 24 -23 44 3 14 9 29 15 32 23 15 -122 188 -184 220 -46 23 -174
59 -212 59 -38 0 -213 -93 -261 -138 -21 -20 -47 -56 -57 -79 -21 -48 -30 -51
-105 -28 -84 25 -296 40 -404 28 -107 -12 -120 -8 -120 42 0 34 -36 130 -71
189 -26 44 -88 78 -183 100 -37 9 -68 16 -69 15 -1 0 -22 -11 -46 -25z m183
-48 c37 -15 71 -58 82 -102 3 -16 15 -42 24 -59 31 -51 33 -94 11 -210 -22
-115 -38 -149 -77 -167 -15 -7 -24 -20 -24 -33 0 -24 -65 -89 -103 -105 -12
-5 -55 -16 -95 -26 -57 -14 -79 -16 -105 -7 -17 6 -51 14 -74 18 -45 7 -133
57 -133 76 0 6 -15 28 -34 49 -26 29 -36 52 -45 102 -19 108 -14 162 20 243
27 66 37 78 85 110 74 50 118 67 194 76 84 10 140 23 165 37 27 16 69 15 109
-2z m1210 -111 c11 -8 31 -15 45 -16 33 0 139 -75 169 -119 35 -52 47 -105 35
-151 -8 -30 -7 -41 3 -50 23 -19 16 -75 -16 -141 -59 -121 -134 -168 -269
-168 -67 0 -86 4 -138 30 -99 50 -142 94 -159 165 -11 47 -11 65 -2 83 9 17 9
27 -1 45 -14 27 6 119 38 171 27 44 100 94 141 98 25 2 36 8 38 23 3 11 9 26
14 33 14 17 79 15 102 -3z"/>
<path d="M13391 8854 c-16 -11 -20 -19 -12 -27 16 -16 81 -36 97 -30 21 8 30
53 13 64 -22 14 -73 10 -98 -7z"/>
<path d="M14783 8815 c-11 -8 -26 -28 -31 -44 -9 -27 -8 -31 26 -55 32 -22 39
-24 57 -12 11 7 30 19 43 27 12 8 22 17 22 21 0 11 -73 77 -85 78 -6 0 -20 -7
-32 -15z"/>
<path d="M4467 8449 c-24 -14 -21 -30 18 -97 34 -57 62 -87 173 -192 62 -59
55 -68 -41 -51 -181 31 -229 24 -292 -45 -112 -122 -139 -157 -170 -229 -18
-43 -37 -80 -42 -84 -4 -4 -42 -13 -82 -20 l-75 -12 -49 50 c-97 98 -223 148
-351 138 -102 -8 -167 -21 -201 -39 -57 -31 -134 -108 -159 -161 -24 -49 -25
-60 -22 -177 2 -69 7 -138 10 -155 6 -25 -3 -47 -50 -130 -31 -55 -78 -126
-103 -157 -70 -86 -108 -155 -131 -238 -12 -41 -28 -97 -36 -125 -20 -70 -44
-264 -44 -360 1 -95 23 -285 43 -372 17 -72 96 -284 135 -362 15 -30 45 -78
67 -105 22 -28 53 -68 68 -89 35 -47 198 -193 297 -265 41 -31 102 -80 135
-110 110 -100 204 -155 355 -211 47 -18 119 -46 160 -63 102 -41 154 -58 225
-70 84 -15 365 -10 450 7 118 24 302 55 324 55 12 0 59 18 105 40 46 22 92 40
102 40 85 1 380 235 438 348 9 18 25 36 34 39 9 3 25 13 35 21 16 14 16 17 0
41 -9 14 -33 43 -54 63 -21 20 -48 56 -60 80 -11 24 -42 66 -68 93 -27 28 -60
73 -76 100 -80 143 -97 146 -234 41 -115 -87 -168 -115 -281 -146 -47 -12
-116 -31 -153 -42 -66 -19 -184 -39 -297 -53 -31 -3 -124 -1 -208 5 -174 12
-218 26 -313 103 -108 86 -205 229 -198 289 2 13 -2 33 -9 45 -15 27 -15 76
-1 90 14 14 107 6 127 -10 12 -9 31 -6 122 23 14 5 79 11 145 14 155 7 314 29
440 60 55 13 124 27 153 30 181 22 383 162 465 321 41 80 47 128 36 270 -15
202 -39 296 -119 460 -55 113 -62 124 -141 194 -46 40 -107 86 -136 103 -28
16 -54 36 -57 44 -3 9 5 50 19 91 25 74 25 78 11 142 -18 80 -80 254 -106 299
-20 34 -18 57 6 66 8 3 51 -10 96 -29 89 -38 103 -41 114 -24 10 16 -13 33
-96 69 -85 38 -145 80 -245 175 -38 36 -80 73 -93 81 -13 9 -33 31 -44 50 -25
42 -47 56 -71 43z m94 -383 c99 -18 143 -39 171 -84 13 -19 32 -49 42 -65 13
-20 19 -46 18 -81 0 -28 8 -77 19 -109 22 -67 19 -87 -34 -222 -34 -87 -84
-150 -134 -172 -18 -7 -61 -13 -95 -13 -144 0 -257 68 -309 185 -28 62 -38
203 -19 271 11 40 49 85 80 96 6 2 12 15 13 28 1 14 12 36 25 50 12 13 22 32
22 41 0 10 15 34 34 53 38 41 51 43 167 22z m-926 -207 c117 -21 245 -113 245
-174 0 -14 -4 -25 -9 -25 -5 0 -8 -11 -8 -24 0 -16 4 -23 12 -19 21 8 35 -31
35 -99 0 -84 -30 -198 -52 -198 -14 0 -47 -42 -48 -61 0 -27 -41 -70 -84 -90
-30 -14 -65 -19 -130 -19 -87 0 -92 1 -157 41 -66 40 -99 74 -99 103 0 8 -12
21 -27 28 -41 19 -52 65 -52 211 -1 143 10 181 70 231 39 33 63 30 67 -7 l3
-27 26 31 c15 17 37 35 50 40 13 5 27 20 33 33 14 38 34 42 125 25z m323 -885
c15 -10 30 -13 45 -8 12 4 56 9 97 9 41 1 94 5 116 10 31 5 58 2 105 -13 35
-11 71 -20 79 -20 8 0 28 -3 43 -7 21 -6 27 -4 25 6 -2 10 7 13 37 11 74 -6
139 -65 170 -152 21 -59 8 -195 -26 -265 -25 -53 -96 -115 -130 -115 -17 0
-18 3 -9 20 6 11 7 20 3 20 -9 0 -47 -40 -49 -52 -1 -5 -2 -12 -3 -17 -2 -19
-59 -30 -131 -27 -92 5 -106 8 -153 36 -20 12 -37 17 -37 11 0 -6 -8 -11 -19
-11 -10 0 -25 -7 -32 -16 -11 -13 -24 -15 -67 -10 -61 7 -122 30 -122 45 0 6
-19 31 -43 56 -46 48 -65 97 -74 192 -4 44 0 61 27 115 18 35 38 70 46 79 8 8
14 26 14 39 0 21 44 80 60 80 3 0 16 -7 28 -16z"/>
<path d="M4505 7510 c-8 -13 4 -53 18 -62 15 -9 67 19 67 37 0 27 -71 48 -85
25z"/>
<path d="M3580 7380 c-24 -24 -17 -46 21 -59 16 -5 29 -17 29 -25 0 -9 4 -16
9 -16 13 0 21 93 9 108 -15 18 -45 15 -68 -8z"/>
<path d="M4540 6500 c-6 -11 -7 -20 -2 -20 5 0 17 9 27 20 16 18 16 20 2 20
-9 0 -21 -9 -27 -20z"/>
<path d="M3288 8273 c-9 -10 -32 -49 -51 -88 -43 -86 -123 -190 -165 -215 -33
-20 -40 -34 -22 -45 18 -11 112 48 175 111 65 64 140 194 133 230 -4 26 -50
30 -70 7z"/>
<path d="M9130 7658 c-25 -11 -67 -24 -95 -28 -27 -5 -71 -13 -96 -19 -25 -5
-108 -12 -183 -14 -105 -3 -140 -7 -147 -18 -11 -18 -1 -160 17 -225 33 -123
56 -323 65 -579 5 -143 13 -294 18 -335 5 -41 7 -171 4 -287 -7 -240 1 -296
52 -408 18 -40 51 -90 77 -116 50 -52 150 -104 219 -115 24 -4 67 -18 94 -31
38 -17 68 -23 125 -23 41 -1 102 -7 135 -15 83 -20 191 -19 293 5 48 10 122
26 164 35 54 11 93 27 131 53 89 60 162 118 190 152 31 36 26 55 -20 85 -15
10 -73 64 -129 120 -90 91 -106 113 -152 207 -53 108 -62 118 -113 118 -23 0
-34 -8 -54 -40 -16 -25 -35 -42 -53 -46 -15 -4 -36 -15 -47 -24 -65 -57 -150
-20 -204 88 -73 145 -154 496 -120 518 10 6 4 69 -16 159 -21 89 -40 417 -37
604 4 211 -8 229 -118 179z"/>
<path d="M6863 4631 c3 -49 9 -56 36 -39 17 10 23 10 33 0 11 -11 9 -16 -6
-27 -18 -14 -18 -16 15 -52 55 -60 80 -108 95 -181 16 -77 17 -132 4 -182 -32
-120 -53 -175 -79 -209 -52 -65 -38 -95 29 -61 77 39 150 181 150 291 0 68
-20 160 -46 214 -51 104 -68 188 -41 198 45 16 322 -214 400 -331 67 -103 77
-120 96 -165 12 -27 21 -61 21 -76 0 -59 65 -97 90 -51 29 54 238 110 465 125
113 7 135 12 135 27 0 24 -283 -6 -455 -48 -159 -39 -154 -39 -161 -18 -15 47
-74 150 -125 216 -69 92 -286 288 -360 328 -30 16 -80 36 -110 44 -30 8 -70
20 -89 25 -19 6 -49 11 -67 11 -32 0 -33 -1 -30 -39z"/>
<path d="M8270 4117 c0 -22 31 -27 168 -27 102 0 122 2 122 15 0 12 -19 15
-107 15 -60 0 -125 3 -145 6 -30 5 -38 3 -38 -9z"/>
<path d="M8630 4096 c0 -9 20 -15 68 -20 37 -4 92 -11 122 -16 30 -6 110 -19
177 -30 239 -40 453 -130 712 -298 162 -106 246 -173 326 -260 106 -116 148
-170 187 -242 51 -92 127 -271 137 -322 5 -24 19 -88 30 -143 40 -186 46 -510
12 -675 -25 -126 -81 -267 -170 -430 -36 -66 -139 -193 -233 -288 -58 -58
-184 -138 -281 -178 -34 -14 -111 -49 -172 -79 -176 -84 -220 -101 -395 -151
-244 -68 -266 -74 -370 -89 -103 -15 -202 -46 -208 -65 -5 -15 84 -7 163 15
28 8 82 18 120 23 74 10 167 33 250 62 28 10 102 32 165 51 107 30 220 77 330
134 25 12 108 54 185 93 176 88 281 166 382 285 112 131 135 166 202 312 109
237 138 393 127 676 -10 256 -47 429 -134 630 -78 181 -133 261 -282 410 -171
171 -388 316 -661 441 -185 84 -333 120 -632 153 -168 18 -157 18 -157 1z"/>
<path d="M6538 3953 c-36 -3 -48 -8 -48 -20 0 -13 9 -15 53 -9 28 3 60 6 70 6
9 0 17 7 17 15 0 9 -8 14 -22 13 -13 -1 -44 -3 -70 -5z"/>
<path d="M6820 3945 c0 -8 9 -15 20 -15 11 0 20 7 20 15 0 8 -9 15 -20 15 -11
0 -20 -7 -20 -15z"/>
<path d="M6330 3925 c0 -11 11 -15 40 -15 29 0 40 4 40 15 0 11 -11 15 -40 15
-29 0 -40 -4 -40 -15z"/>
<path d="M6175 3915 c-96 -16 -288 -71 -339 -97 -59 -29 -333 -223 -457 -322
-125 -100 -251 -232 -315 -328 -62 -94 -151 -294 -164 -370 -7 -34 -12 -130
-13 -213 -1 -156 15 -271 53 -385 10 -30 32 -101 49 -157 52 -175 121 -325
194 -419 18 -23 40 -54 49 -70 31 -51 362 -456 415 -506 21 -20 83 -71 138
-112 115 -87 227 -137 345 -155 41 -6 111 -23 155 -37 131 -42 263 -53 810
-65 376 -9 559 -9 700 0 242 14 475 36 589 57 83 15 176 49 176 65 0 19 -25
19 -73 0 -60 -25 -118 -33 -427 -61 -254 -24 -604 -29 -1035 -17 -486 13 -517
17 -875 106 -19 5 -55 14 -80 19 -76 18 -211 87 -297 152 -82 61 -164 148
-300 316 -276 341 -297 376 -398 677 -93 279 -114 376 -122 572 -5 140 -4 157
21 254 43 169 127 322 261 478 53 61 229 213 337 291 40 29 113 82 163 118 49
36 110 76 135 89 56 28 197 69 315 90 112 21 115 22 115 35 0 12 -34 11 -125
-5z"/>
<path d="M9425 2788 c-3 -7 -4 -128 -3 -268 l3 -255 30 0 30 0 0 265 0 265
-28 3 c-16 2 -29 -2 -32 -10z"/>
<path d="M6780 2775 c-30 -7 -65 -11 -78 -8 -46 11 -47 3 -47 -304 0 -309 1
-317 52 -350 32 -21 261 -32 306 -14 32 12 44 37 30 60 -9 14 -30 16 -144 13
-79 -2 -140 1 -149 7 -11 8 -16 36 -18 114 l-4 104 44 7 c23 3 93 11 153 17
114 11 135 19 135 49 0 39 -23 44 -148 31 -64 -7 -132 -15 -149 -18 l-33 -5 0
105 c0 86 3 106 16 111 38 14 185 18 248 6 53 -10 69 -10 82 0 23 20 13 53
-21 69 -42 20 -207 24 -275 6z"/>
<path d="M6336 2748 c-8 -13 -25 -68 -36 -123 -12 -55 -38 -158 -58 -228 l-36
-129 -18 67 c-10 36 -32 134 -48 217 -17 84 -37 162 -45 175 -44 66 -110 -12
-129 -152 -4 -27 -21 -108 -37 -180 -37 -155 -43 -272 -17 -289 24 -15 51 3
60 40 4 16 24 109 45 207 l38 178 13 -68 c28 -148 75 -324 89 -338 20 -21 79
-19 101 3 10 10 37 95 67 214 l50 198 21 -113 c53 -282 75 -344 120 -335 38 7
39 32 6 150 -18 62 -46 194 -62 293 -31 187 -46 227 -88 233 -13 2 -26 -5 -36
-20z"/>
<path d="M7179 2757 c-11 -11 -14 -73 -12 -327 1 -325 2 -334 43 -327 34 6 40
47 40 275 l0 223 77 -98 c185 -238 328 -387 365 -381 45 6 49 35 45 303 -2
185 -7 260 -18 289 -17 48 -41 66 -66 50 -21 -13 -21 -25 -4 -199 7 -66 11
-167 9 -225 l-3 -105 -98 110 c-97 108 -187 223 -277 354 -46 68 -75 84 -101
58z"/>
<path d="M7839 2757 c-11 -11 -14 -73 -12 -327 1 -325 2 -334 43 -327 34 6 40
47 40 275 l0 223 77 -98 c185 -238 328 -387 365 -381 45 6 49 35 45 303 -2
185 -7 260 -18 289 -17 48 -41 66 -66 50 -21 -13 -21 -25 -4 -199 7 -66 11
-167 9 -225 l-3 -105 -98 110 c-97 108 -187 223 -277 354 -46 68 -75 84 -101
58z"/>
<path d="M8719 2735 c-121 -39 -228 -206 -229 -356 0 -180 191 -305 372 -243
133 45 228 218 215 393 -7 95 -41 154 -109 189 -59 31 -181 39 -249 17z m216
-89 c48 -31 60 -63 60 -156 -1 -101 -21 -155 -85 -224 -50 -54 -94 -70 -168
-63 -67 7 -128 46 -155 97 -25 47 -18 139 16 213 29 63 95 133 141 147 46 14
161 6 191 -14z"/>
<path d="M8690 2370 c0 -5 5 -10 10 -10 6 0 10 5 10 10 0 6 -4 10 -10 10 -5 0
-10 -4 -10 -10z"/>
<path d="M9410 2184 c-28 -33 21 -101 58 -78 24 15 27 40 8 69 -19 28 -47 32
-66 9z"/>
</g>
</svg>
